<svg width="177" height="29" viewBox="0 0 177 29" fill="none" xmlns="http://www.w3.org/2000/svg">
<rect width="177" height="29" fill="#1E1E1E"/>
<g id="02_About_03" clip-path="url(#clip0_1_2)">
<rect width="1920" height="4997" transform="translate(-1538.98 -4862.32)" fill="white"/>
<g id="Group 5677">
<g id="Group 5641">
<g id="Group 5640">
<g id="facebook-logo">
<path id="Path 1433" d="M94.8857 0.782966L91.3815 0.777344C87.4447 0.777344 84.9005 3.38758 84.9005 7.4276V10.4938H81.3772C81.0727 10.4938 80.8262 10.7406 80.8262 11.0451V15.4877C80.8262 15.7921 81.073 16.0387 81.3772 16.0387H84.9005V27.2488C84.9005 27.5532 85.147 27.7998 85.4515 27.7998H90.0484C90.3529 27.7998 90.5994 27.5529 90.5994 27.2488V16.0387H94.719C95.0235 16.0387 95.27 15.7921 95.27 15.4877L95.2717 11.0451C95.2717 10.8989 95.2135 10.7589 95.1103 10.6555C95.0072 10.552 94.8666 10.4938 94.7204 10.4938H90.5994V7.89455C90.5994 6.64523 90.8971 6.01102 92.5246 6.01102L94.8852 6.01018C95.1893 6.01018 95.4359 5.76335 95.4359 5.45917V1.33397C95.4359 1.03007 95.1896 0.783528 94.8857 0.782966Z" fill="black"/>
</g>
<path id="whatsapp" d="M24.0613 4.11273C21.4137 1.462 17.8926 0.00155458 14.1413 0C6.41162 0 0.120739 6.2907 0.11763 14.0225C0.116594 16.4941 0.762264 18.9068 1.98952 21.0335L0 28.3003L7.43419 26.3502C9.48261 27.4676 11.7887 28.0564 14.1356 28.0571H14.1415C21.8704 28.0571 28.162 21.7659 28.1649 14.0337C28.1664 10.2865 26.7091 6.7633 24.0613 4.11273ZM14.1413 25.6888H14.1365C12.0451 25.6879 9.99389 25.1259 8.20405 24.0641L7.77861 23.8114L3.36705 24.9687L4.54456 20.6675L4.26733 20.2265C3.10053 18.3707 2.4844 16.2257 2.48543 14.0234C2.48785 7.5969 7.71678 2.36849 14.146 2.36849C17.2593 2.36953 20.1859 3.58349 22.3865 5.78667C24.5871 7.98986 25.7983 10.9184 25.7973 14.0329C25.7945 20.4599 20.5659 25.6888 14.1413 25.6888ZM20.5348 16.9591C20.1845 16.7836 18.4617 15.9362 18.1404 15.8191C17.8195 15.7021 17.5856 15.6439 17.3523 15.9946C17.1185 16.3452 16.4471 17.1346 16.2426 17.3683C16.0381 17.6022 15.8339 17.6316 15.4835 17.4561C15.133 17.2807 14.004 16.9106 12.6655 15.7168C11.624 14.7877 10.9208 13.6403 10.7163 13.2896C10.5121 12.9386 10.7145 12.7673 10.87 12.5745C11.2493 12.1035 11.6291 11.6096 11.7459 11.3759C11.8628 11.142 11.8043 10.9374 11.7165 10.762C11.6291 10.5867 10.9284 8.86198 10.6365 8.16018C10.3518 7.4772 10.0632 7.56944 9.84794 7.55873C9.64377 7.54853 9.41006 7.54646 9.17636 7.54646C8.94282 7.54646 8.56316 7.63404 8.24188 7.98503C7.92077 8.33584 7.01566 9.18344 7.01566 10.9082C7.01566 12.6329 8.27124 14.2991 8.44639 14.5329C8.62154 14.7668 10.9173 18.3061 14.4322 19.8237C15.2682 20.185 15.9208 20.4004 16.4299 20.5619C17.2693 20.8286 18.033 20.791 18.6369 20.7008C19.3102 20.6001 20.7098 19.8531 21.0021 19.0347C21.294 18.2161 21.294 17.5146 21.2062 17.3683C21.1188 17.2222 20.8851 17.1346 20.5348 16.9591Z" fill="black"/>
<g id="instagram">
<path id="Path 6444" d="M175.947 8.33844C175.881 6.83147 175.637 5.79544 175.288 4.89771C174.928 3.94478 174.374 3.09164 173.648 2.38241C172.939 1.66215 172.08 1.10247 171.138 0.747966C170.235 0.398872 169.205 0.155177 167.698 0.0887344C166.179 0.0166647 165.697 0 161.847 0C157.996 0 157.514 0.0166647 156.002 0.0831073C154.495 0.14955 153.459 0.393461 152.561 0.742339C151.608 1.10247 150.755 1.65652 150.045 2.38241C149.325 3.09164 148.766 3.95041 148.411 4.89229C148.062 5.79544 147.818 6.82584 147.752 8.33281C147.68 9.85103 147.663 10.333 147.663 14.1837C147.663 18.0343 147.68 18.5163 147.746 20.0289C147.813 21.5358 148.057 22.5719 148.406 23.4696C148.766 24.4225 149.325 25.2757 150.045 25.9849C150.755 26.7052 151.613 27.2648 152.555 27.6193C153.459 27.9684 154.489 28.2121 155.996 28.2786C157.508 28.3452 157.991 28.3617 161.841 28.3617C165.692 28.3617 166.174 28.3452 167.687 28.2786C169.194 28.2121 170.23 27.9684 171.127 27.6193C173.033 26.8824 174.54 25.3754 175.277 23.4696C175.626 22.5665 175.87 21.5358 175.936 20.0289C176.003 18.5163 176.019 18.0343 176.019 14.1837C176.019 10.333 176.014 9.85103 175.947 8.33844ZM173.393 19.9181C173.332 21.3032 173.1 22.0511 172.906 22.5498C172.429 23.7854 171.448 24.766 170.213 25.2426C169.714 25.4365 168.961 25.6691 167.581 25.7299C166.085 25.7966 165.637 25.813 161.852 25.813C158.068 25.813 157.614 25.7966 156.123 25.7299C154.738 25.6691 153.99 25.4365 153.492 25.2426C152.877 25.0153 152.317 24.6552 151.863 24.1842C151.392 23.7243 151.032 23.1703 150.804 22.5554C150.611 22.0568 150.378 21.3032 150.317 19.9237C150.25 18.4278 150.234 17.9789 150.234 14.1947C150.234 10.4105 150.25 9.95622 150.317 8.46591C150.378 7.08079 150.611 6.33282 150.804 5.83418C151.032 5.2191 151.392 4.65964 151.868 4.20514C152.328 3.7342 152.882 3.37407 153.497 3.14704C153.996 2.95312 154.75 2.72047 156.129 2.65943C157.625 2.59299 158.074 2.57633 161.858 2.57633C165.648 2.57633 166.096 2.59299 167.587 2.65943C168.972 2.72047 169.72 2.95312 170.219 3.14704C170.833 3.37407 171.393 3.7342 171.847 4.20514C172.318 4.66505 172.678 5.2191 172.906 5.83418C173.1 6.33282 173.332 7.0862 173.393 8.46591C173.46 9.96184 173.476 10.4105 173.476 14.1947C173.476 17.9789 173.46 18.4221 173.393 19.9181Z" fill="black"/>
<path id="Path 6445" d="M161.847 6.89795C157.825 6.89795 154.561 10.1612 154.561 14.1837C154.561 18.2062 157.825 21.4694 161.847 21.4694C165.869 21.4694 169.133 18.2062 169.133 14.1837C169.133 10.1612 165.869 6.89795 161.847 6.89795ZM161.847 18.9098C159.237 18.9098 157.121 16.7933 157.121 14.1837C157.121 11.574 159.237 9.45761 161.847 9.45761C164.456 9.45761 166.573 11.574 166.573 14.1837C166.573 16.7933 164.456 18.9098 161.847 18.9098Z" fill="black"/>
<path id="Path 6446" d="M171.122 6.61007C171.122 7.54935 170.36 8.31095 169.421 8.31095C168.481 8.31095 167.72 7.54935 167.72 6.61007C167.72 5.67057 168.481 4.90918 169.421 4.90918C170.36 4.90918 171.122 5.67057 171.122 6.61007Z" fill="black"/>
</g>
</g>
</g>
</g>
</g>
<defs>
<clipPath id="clip0_1_2">
<rect width="1920" height="4997" fill="white" transform="translate(-1538.98 -4862.32)"/>
</clipPath>
</defs>
</svg>
