<svg width="1021.648" height="1006.53" viewBox="0 0 1021.648 1006.53" fill="none" xmlns="http://www.w3.org/2000/svg">
<g id="05_Contact">
<g id="Group 5811">
<g id="Mask Group 17">
<g id="Group 5775">
<g id="Group 5774">
<mask id="mask0_1_2" style="mask-type:alpha" maskUnits="userSpaceOnUse" x="-3" y="-3" width="1028" height="1012">
<path id="Rectangle 1378" d="M187.939 0L1021.65 192.477L833.709 1006.53L1.53781e-05 814.053L187.939 0Z" fill="black" stroke="black" stroke-width="4"/>
</mask>
<g mask="url(#mask0_1_2)">
<g id="Group 5760">
<g id="Group 5759">
<mask id="mask1_1_2" style="mask-type:alpha" maskUnits="userSpaceOnUse" x="-3" y="-3" width="1028" height="1012">
<path id="Rectangle 1373" d="M187.939 0L1021.65 192.477L833.709 1006.53L1.53781e-05 814.053L187.939 0Z" fill="black" stroke="black" stroke-width="4"/>
</mask>
<g mask="url(#mask1_1_2)">
<path id="Path 7323" d="M570.088 276.202C566.68 285.277 564.404 294.961 561.005 304.112C559.364 308.53 556.151 313.208 557.083 317.893C558.355 324.299 569.259 330.502 574.377 334.418C583.528 341.422 594.527 346.664 605.157 351.375C609.065 345.588 621.067 335.571 615.954 328.825C610.15 321.165 595.911 321.394 593.96 310.648C592.283 301.414 599.243 292.606 599.391 283.754C599.51 276.616 591.074 271.706 584.052 270.449C578.822 269.511 572.388 271.735 570.088 276.202Z" fill="#D19D8F" stroke="black" stroke-width="4"/>
<path id="Path 7324" d="M570.088 276.202C566.68 285.277 564.404 294.961 561.005 304.112C559.364 308.53 556.151 313.208 557.083 317.893C558.355 324.299 569.259 330.502 574.377 334.418C583.528 341.422 594.527 346.664 605.157 351.375C609.065 345.588 621.067 335.571 615.954 328.825C610.15 321.165 595.911 321.394 593.96 310.648C592.283 301.414 599.243 292.606 599.391 283.754C599.51 276.616 591.074 271.706 584.052 270.449C578.822 269.511 572.388 271.735 570.088 276.202Z" stroke="black" stroke-width="4"/>
<path id="Path 7325" d="M542.673 286.553C539.266 295.628 536.99 305.312 533.59 314.462C531.949 318.881 528.737 323.558 529.668 328.244C530.943 334.648 554.753 359.148 565.384 363.858C585.16 368.423 610.269 358.122 605.156 351.375C599.352 343.716 568.496 331.745 566.545 320.999C564.87 311.767 571.828 302.956 571.977 294.105C572.095 286.967 563.661 282.057 556.637 280.799C551.407 279.862 544.971 282.085 542.673 286.553Z" fill="#DDA999" stroke="black" stroke-width="4"/>
<path id="Path 7326" d="M542.673 286.553C539.266 295.628 536.99 305.312 533.59 314.462C531.949 318.881 528.737 323.558 529.668 328.244C530.943 334.648 554.753 359.148 565.384 363.858C585.16 368.423 610.269 358.122 605.156 351.375C599.352 343.716 568.496 331.745 566.545 320.999C564.87 311.767 571.828 302.956 571.977 294.105C572.095 286.967 563.661 282.057 556.637 280.799C551.407 279.862 544.971 282.085 542.673 286.553Z" stroke="black" stroke-width="4"/>
<path id="Path 7327" d="M556.039 236.903C551.599 238.077 544.48 244.132 540.618 246.723C528.617 254.77 484.104 283.797 479.055 288.938C457.541 310.842 440.939 335.868 422.186 359.944C416.88 366.754 410.541 372.94 409.797 381.956C408.912 392.676 423.03 395.255 430.381 390.39C436.685 386.219 442.332 380.583 448.899 376.238C456.659 371.105 463.701 364.499 470.428 358.085C476.77 352.039 482.109 344.98 488.931 339.628C493.14 336.326 508.026 322.637 516.513 315.319C527.3 306.016 554.887 301.962 568.169 302.906C581.527 303.852 583.548 328.382 581.53 344.934C578.825 367.143 569.239 372.501 551.776 386.938C543.588 393.709 537.226 396.083 527.173 399.317C518.058 402.25 515.173 414.859 513.771 420.82C511.503 430.461 543.719 423.762 551.387 424.482C570.843 426.311 583.622 414.407 593.318 412.11C631.845 402.987 671.009 376.466 674.525 366.42C677.528 357.838 689.677 332.36 694.394 324.744C702.852 311.09 729.193 312.83 742.819 311.551C753.653 310.534 752.076 306.472 754.14 295.238C755.803 286.181 760.398 271.705 753.596 263.518C748.231 257.058 746.398 227.107 738.042 225.292C719.575 221.282 560.523 235.718 556.039 236.903Z" fill="#F2D0C3" stroke="black" stroke-width="6"/>
<path id="Path 7328" d="M556.039 236.903C551.599 238.077 544.48 244.132 540.618 246.723C528.617 254.77 484.104 283.797 479.055 288.938C457.541 310.842 440.939 335.868 422.186 359.944C416.88 366.754 410.541 372.94 409.797 381.956C408.912 392.676 423.03 395.255 430.381 390.39C436.685 386.219 442.332 380.583 448.899 376.238C456.659 371.105 463.701 364.499 470.428 358.085C476.77 352.039 482.109 344.98 488.931 339.628C493.14 336.326 508.026 322.637 516.513 315.319C527.3 306.016 554.887 301.962 568.169 302.906C581.527 303.852 583.548 328.382 581.53 344.934C578.825 367.143 569.239 372.501 551.776 386.938C543.588 393.709 537.226 396.083 527.173 399.317C518.058 402.25 515.173 414.859 513.771 420.82C511.503 430.461 543.719 423.762 551.387 424.482C570.843 426.311 583.622 414.407 593.318 412.11C631.845 402.987 671.009 376.466 674.525 366.42C677.528 357.838 689.677 332.36 694.394 324.744C702.852 311.09 729.193 312.83 742.819 311.551C753.653 310.534 752.076 306.472 754.14 295.238C755.803 286.181 760.398 271.705 753.596 263.518C748.231 257.058 746.398 227.107 738.042 225.292C719.575 221.282 560.523 235.718 556.039 236.903Z" stroke="black" stroke-width="4"/>
<path id="Path 7329" d="M770.321 312.456C777.641 306.113 961.479 310.912 991.763 306.078C997.454 305.168 979.018 292.091 983.108 288.048C990.456 280.781 990.253 260.147 991.029 250.79C992.386 234.411 993.431 204.239 983.745 190.763C980.498 186.247 978.89 185.502 973.982 184.239C957.113 179.905 932.514 188.205 915.587 192.615C870.89 204.254 824.851 203.274 781.157 210.372C767.909 212.524 761.853 210.595 763.321 230.337C765.037 253.398 772.332 275.041 770.321 312.456Z" fill="#529BFF" stroke="black" stroke-width="6"/>
<path id="Path 7330" d="M770.321 312.456C777.641 306.113 961.479 310.912 991.763 306.078C997.454 305.168 979.018 292.091 983.108 288.048C990.456 280.781 990.253 260.147 991.029 250.79C992.386 234.411 993.431 204.239 983.745 190.763C980.498 186.247 978.89 185.502 973.982 184.239C957.113 179.905 932.514 188.205 915.587 192.615C870.89 204.254 824.851 203.274 781.157 210.372C767.909 212.524 761.853 210.595 763.321 230.337C765.037 253.398 772.332 275.041 770.321 312.456Z" stroke="black" stroke-width="4"/>
<path id="Path 7331" d="M721.802 218.197C734.788 247.65 734.255 280.061 737.035 310.394C737.733 318.017 737.48 318.809 746.147 320.498C751.549 321.548 766.167 321.283 770.954 316.911C777.409 311.015 780.979 305.724 780.26 298.09C779.229 287.126 770.211 217.46 759.762 207.82C750.471 199.251 729.545 203.36 721.802 218.197Z" fill="#529BFF" stroke="black" stroke-width="6"/>
<path id="Path 7332" d="M721.802 218.197C734.788 247.65 734.255 280.061 737.035 310.394C737.733 318.017 737.48 318.809 746.147 320.498C751.549 321.548 766.167 321.283 770.954 316.911C777.409 311.015 780.979 305.724 780.26 298.09C779.229 287.126 770.211 217.46 759.762 207.82C750.471 199.251 729.545 203.36 721.802 218.197Z" stroke="black" stroke-width="4"/>
<path id="Path 7333" d="M552.45 893.879C549.742 895.401 545.375 894.251 542.659 893.916C506.397 889.429 469.215 886.916 433.543 879.221C417.124 875.679 400.225 873.893 383.687 870.86C359.846 866.488 335.331 867.091 311.621 861.76C300.439 859.247 288.967 856.561 278.815 850.767C273.522 847.744 269.105 843.031 263.942 840.009C258.945 837.077 251.729 837.559 248.803 831.499C246.772 827.295 228.602 858.821 229.094 853.815C233.896 804.957 230.386 847.8 241.446 799.831C244.681 785.801 280.321 558.065 304.945 524.785C317.825 507.38 341.961 500.784 346.421 489.715C350.994 478.363 349.293 478.005 352.065 465.997C352.169 459.201 356.359 454.595 360.041 452.894C365.76 450.257 371.67 451.522 377.254 452.484C402.125 456.768 425.124 466.791 449.436 473.192C476.938 480.437 503.116 491.861 530.928 498.197C539.468 500.141 547.997 502.131 556.531 504.101C559.588 504.807 573.248 505.473 574.26 509.411C574.994 512.277 572.172 520.709 571.926 524.298C571.555 529.686 571.378 535.415 573.076 540.28C574.257 543.661 577.569 547.158 579.592 549.947C584.805 557.13 590.243 563.665 594.303 571.971C601.916 587.563 601.015 605.312 599.997 623.637C598.485 650.864 594.616 678.308 589.607 705.228C586.272 723.143 556.773 879.893 552.45 893.879ZM552.45 893.879C556.646 891.517 551.023 898.502 552.45 893.879Z" stroke="white" stroke-width="4"/>
<g id="Path 7334">
<path d="M355.626 417.133C352.951 428.721 350.514 440.279 348.274 451.9C347.401 456.431 343.355 462.883 346.821 464.646C446.978 515.598 556.704 521.609 576.901 517.939C580.049 505.602 584.524 494.04 586.094 481.067C586.329 479.127 588.04 471.651 587.431 469.846C586.285 466.466 578.829 466.293 576.805 465.864C564.666 463.298 552.294 461.869 540.098 459.569C495.714 451.205 451.833 439.344 407.829 429.185C395.826 426.414 383.48 422.246 371.105 421.473" fill="#CE665B"/>
<path d="M355.626 417.133C352.951 428.721 350.514 440.279 348.274 451.9C347.401 456.431 343.355 462.883 346.821 464.646C446.978 515.598 556.704 521.609 576.901 517.939C580.049 505.602 584.524 494.04 586.094 481.067C586.329 479.127 588.04 471.651 587.431 469.846C586.285 466.466 578.829 466.293 576.805 465.864C564.666 463.298 552.294 461.869 540.098 459.569C495.714 451.205 451.833 439.344 407.829 429.185C395.826 426.414 383.48 422.246 371.105 421.473" stroke="black" stroke-width="4"/>
</g>
<path id="Path 7335" d="M360.839 422.177L350.597 466.538C351.171 466.823 351.743 467.106 352.316 467.387L362.657 422.596L360.839 422.177Z" fill="#B25B54" stroke="black" stroke-width="4"/>
<path id="Path 7336" d="M367.719 424.611L365.901 424.191C363.905 432.836 361.788 441.601 359.739 450.078C358.256 456.222 356.736 462.518 355.25 468.813C355.824 469.089 356.398 469.365 356.973 469.639C358.486 463.22 360.038 456.792 361.554 450.521C363.602 442.038 365.721 433.267 367.719 424.611Z" fill="#B25B54" stroke="black" stroke-width="4"/>
<path id="Path 7337" d="M373.298 428.864L363.212 472.548C363.791 472.814 364.367 473.08 364.945 473.342L375.116 429.283L373.298 428.864Z" fill="#B25B54" stroke="black" stroke-width="4"/>
<path id="Path 7338" d="M389.779 434.411L387.982 433.901C385.104 444.51 383.101 455.593 381.161 466.31C380.386 470.598 379.594 474.959 378.745 479.316C379.33 479.56 379.918 479.802 380.504 480.042C381.385 475.541 382.206 471.038 383.004 466.614C384.934 455.948 386.928 444.92 389.779 434.411Z" fill="#B25B54" stroke="black" stroke-width="4"/>
<path id="Path 7339" d="M374.731 468.015C375.496 464.328 376.559 460.432 377.685 456.309C380.169 447.225 382.735 437.829 382.422 429.375L380.543 429.593C380.84 437.676 378.324 446.887 375.891 455.794C374.754 459.956 373.681 463.886 372.9 467.649L372.726 468.489C372.208 470.991 371.677 473.537 371.136 476.089C371.72 476.343 372.303 476.592 372.886 476.842C373.456 474.159 374.011 471.483 374.558 468.853L374.731 468.015Z" fill="#B25B54" stroke="black" stroke-width="4"/>
<path id="Path 7340" d="M397.09 434.356L386.03 482.262C386.616 482.493 387.201 482.724 387.786 482.951L398.908 434.776L397.09 434.356Z" fill="#B25B54" stroke="black" stroke-width="4"/>
<path id="Path 7341" d="M410.203 465.989C411.87 457.836 413.596 449.407 413.941 441.407L412.06 441.432C411.723 449.238 410.018 457.57 408.37 465.631C407.611 469.343 406.825 473.183 406.204 476.847C405.435 481.377 404.7 485.327 403.952 488.95C404.545 489.158 405.138 489.361 405.73 489.568C406.503 485.846 407.261 481.789 408.051 477.124C408.665 473.502 409.412 469.853 410.203 465.989Z" fill="#B25B54" stroke="black" stroke-width="4"/>
<path id="Path 7342" d="M401.452 436.211C397.743 452.258 394.059 469.157 391.953 484.558C392.552 484.785 393.149 485.016 393.746 485.241C395.825 469.811 399.536 452.788 403.27 436.631L401.452 436.211Z" fill="#B25B54" stroke="black" stroke-width="4"/>
<path id="Path 7343" d="M426.926 445.903L425.107 445.486C423.256 453.527 421.275 461.687 419.359 469.579C417.552 477.031 415.688 484.726 413.922 492.34C414.519 492.536 415.112 492.727 415.706 492.919C417.477 485.269 419.354 477.523 421.173 470.026C423.089 462.126 425.07 453.959 426.926 445.903Z" fill="#B25B54" stroke="black" stroke-width="4"/>
<path id="Path 7344" d="M437.94 449.283L436.116 448.884C434.427 456.494 432.967 464.276 431.556 471.799C430.044 479.867 428.473 488.195 426.623 496.342C427.221 496.522 427.819 496.697 428.417 496.875C430.29 488.644 431.871 480.251 433.397 472.12C434.805 464.614 436.26 456.855 437.94 449.283Z" fill="#B25B54" stroke="black" stroke-width="4"/>
<path id="Path 7345" d="M444.166 450.732L433.19 498.271C433.79 498.443 434.39 498.616 434.987 498.786L445.984 451.152L444.166 450.732Z" fill="#B25B54" stroke="black" stroke-width="4"/>
<path id="Path 7346" d="M444.679 480.739C446.414 473.279 448.147 465.82 449.852 458.353C449.954 457.906 450.052 457.434 450.149 456.955C450.489 455.318 450.872 453.466 451.527 452.407L450.008 451.255C449.128 452.677 448.716 454.667 448.318 456.591C448.224 457.055 448.13 457.509 448.031 457.938C446.326 465.401 444.596 472.858 442.86 480.313C441.923 484.347 441.072 488.456 440.25 492.429C439.746 494.859 439.223 497.339 438.687 499.82C439.287 499.986 439.891 500.157 440.487 500.32C441.037 497.793 441.569 495.267 442.081 492.793C442.9 488.835 443.747 484.741 444.679 480.739Z" fill="#B25B54" stroke="black" stroke-width="4"/>
<path id="Path 7347" d="M469.131 451.452L467.329 450.958C464.709 460.899 462.931 471.253 461.21 481.263C459.892 488.922 458.522 496.82 456.793 504.5C457.399 504.646 458.006 504.795 458.61 504.938C460.356 497.189 461.732 489.246 463.056 481.546C464.769 471.587 466.538 461.288 469.131 451.452Z" fill="#B25B54" stroke="black" stroke-width="4"/>
<path id="Path 7348" d="M457.854 450.502L446.013 501.792C446.616 501.95 447.218 502.106 447.82 502.261L459.672 450.922L457.854 450.502Z" fill="#B25B54" stroke="black" stroke-width="4"/>
<path id="Path 7349" d="M471.434 458.472L463.952 506.175C464.562 506.314 465.172 506.451 465.778 506.587L473.285 458.719L471.434 458.472Z" fill="#B25B54" stroke="black" stroke-width="4"/>
<path id="Path 7350" d="M479.634 455.354L477.781 455.107C476.411 463.843 474.928 472.712 473.494 481.289C472.066 489.823 470.592 498.644 469.226 507.345C469.835 507.478 470.448 507.612 471.056 507.741C472.426 499.005 473.909 490.136 475.343 481.559C476.777 472.977 478.261 464.103 479.634 455.354Z" fill="#B25B54" stroke="black" stroke-width="4"/>
<path id="Path 7351" d="M479.842 507.37L487.381 459.3L485.53 459.052L477.991 507.122L479.842 507.37Z" fill="#B25B54" stroke="black" stroke-width="4"/>
<path id="Path 7352" d="M502.438 463.022L500.601 462.682C498.485 473.471 497.28 484.646 496.114 495.454C495.522 500.958 494.902 506.581 494.173 512.172C494.789 512.277 495.407 512.385 496.018 512.486C496.758 506.828 497.383 501.145 497.983 495.585C499.143 484.828 500.343 473.706 502.438 463.022Z" fill="#B25B54" stroke="black" stroke-width="4"/>
<path id="Path 7353" d="M489.799 497.742C490.297 494.015 491.082 490.053 491.912 485.861C493.74 476.62 495.632 467.064 494.706 458.709L492.84 459.102C493.722 467.088 491.868 476.456 490.076 485.516C489.238 489.749 488.448 493.746 487.938 497.549L487.836 498.316C487.289 502.396 486.715 506.572 486.107 510.74C486.721 510.852 487.337 510.969 487.946 511.08C488.561 506.862 489.144 502.635 489.696 498.509L489.799 497.742Z" fill="#B25B54" stroke="black" stroke-width="4"/>
<path id="Path 7354" d="M509.758 462.289L501.739 513.406C502.355 513.502 502.975 513.601 503.584 513.694L511.609 462.536L509.758 462.289Z" fill="#B25B54" stroke="black" stroke-width="4"/>
<path id="Path 7355" d="M525.18 492.431C526.262 484.194 527.379 475.678 527.146 467.713L525.265 467.915C525.492 475.684 524.388 484.103 523.321 492.244C522.827 496.001 522.318 499.884 521.96 503.579C521.515 508.22 521.055 512.268 520.555 515.995C521.175 516.068 521.796 516.141 522.411 516.212C522.916 512.448 523.379 508.364 523.831 503.682C524.185 500.03 524.67 496.339 525.18 492.431Z" fill="#B25B54" stroke="black" stroke-width="4"/>
<path id="Path 7356" d="M516.114 463.969L514.263 463.722C511.608 480.62 509.033 498.44 508.125 514.364C508.685 514.444 509.244 514.523 509.798 514.599L509.987 514.601C510.878 498.728 513.457 480.885 516.114 463.969Z" fill="#B25B54" stroke="black" stroke-width="4"/>
<path id="Path 7357" d="M540.479 470.968L538.628 470.72C537.356 478.844 535.969 487.095 534.625 495.075C533.409 502.297 532.161 509.742 530.991 517.119C531.619 517.179 532.238 517.236 532.855 517.294C534.021 509.953 535.265 502.54 536.473 495.349C537.817 487.362 539.207 479.104 540.479 470.968Z" fill="#B25B54" stroke="black" stroke-width="4"/>
<path id="Path 7358" d="M551.755 473.295L549.9 473.069C548.759 480.771 547.861 488.62 546.993 496.21C546.165 503.426 545.303 510.846 544.241 518.185C544.871 518.226 545.495 518.264 546.111 518.301C547.172 510.96 548.034 503.556 548.857 496.357C549.725 488.786 550.621 480.956 551.755 473.295Z" fill="#B25B54" stroke="black" stroke-width="4"/>
<path id="Path 7359" d="M558.096 474.152L551.133 518.556C551.768 518.585 552.393 518.61 553.011 518.631L559.947 474.4L558.096 474.152Z" fill="#B25B54" stroke="black" stroke-width="4"/>
<path id="Path 7360" d="M560.779 503.863C561.978 496.305 563.175 488.746 564.342 481.184C564.412 480.73 564.476 480.252 564.541 479.765C564.76 478.114 565.009 476.239 565.589 475.13L563.983 474.131C563.205 475.621 562.938 477.631 562.678 479.574C562.616 480.043 562.557 480.506 562.488 480.942C561.322 488.501 560.127 496.056 558.927 503.61C558.28 507.694 557.725 511.843 557.19 515.857C557.064 516.81 556.928 517.786 556.799 518.752C557.439 518.767 558.063 518.777 558.68 518.788C558.803 517.875 558.93 516.95 559.05 516.048C559.585 512.05 560.137 507.915 560.779 503.863Z" fill="#B25B54" stroke="black" stroke-width="4"/>
<path id="Path 7361" d="M583.156 472.549L581.315 472.227C579.411 482.329 578.377 492.763 577.379 502.852C576.88 507.878 576.358 513.009 575.739 518.125C576.151 518.068 576.544 518.006 576.901 517.941C577.316 516.32 577.752 514.715 578.202 513.117C578.572 509.708 578.917 506.309 579.249 502.962C580.243 492.923 581.27 482.545 583.156 472.549Z" fill="#B25B54" stroke="black" stroke-width="4"/>
<path id="Path 7362" d="M571.791 472.654L564.554 518.802C565.203 518.793 565.836 518.781 566.45 518.767L573.642 472.901L571.791 472.654Z" fill="#B25B54" stroke="black" stroke-width="4"/>
<path id="Path 7363" d="M468.008 418.655C499.462 424.001 584.054 447.571 587.259 460.623C589.267 468.805 587.628 473.903 579.083 474.873C564.568 476.518 520.984 469.864 514.958 468.473C496.586 464.235 478.216 459.99 459.843 455.748C440.051 451.179 378.675 434.053 367.706 430.817C361.424 428.964 353.386 426.838 355.416 418.043C361.079 393.516 447.333 415.141 468.008 418.655Z" fill="#EF8273" stroke="black" stroke-width="4"/>
<path id="Path 7364" d="M241.781 822.351C238.391 809.87 240.342 792.985 248.565 782.418C259.302 768.618 270.309 771.222 284.123 772.336C290.55 754.495 261.16 746.857 272.102 723.853C279.381 708.549 301.015 694.623 317.648 697.913C330.264 700.409 336.727 709.152 345.147 715.445C347.423 717.146 346.738 720.496 350.188 721.883C356.546 724.441 373.332 710.706 381.183 710.089C393.898 709.093 412.115 711.32 422.617 717.793C441.723 729.567 443.291 747.789 442.739 766.76C463.83 763.815 499.111 750.116 516.318 773.433C518.416 776.274 518.106 781.759 520.066 784.105C524.882 789.868 534.532 790.004 542.688 792.49C550.811 794.964 554.427 795.483 556.881 804.111C561.893 821.727 550.847 850.311 539.227 862.642C528.073 874.48 518.088 876.812 502.195 876.02C473.749 874.601 446.401 873.258 418.383 868.53C389.78 863.704 361.755 857.789 333.419 851.247C307.732 845.317 277.879 842.039 241.781 822.351Z" fill="#C48949" stroke="black" stroke-width="4"/>
<path id="Path 7365" d="M440.563 758.67C431.639 750.452 419.986 747.317 412.278 745.265C398.264 741.537 384.61 743.785 372.893 752.482C363.174 759.698 356.401 771.349 353.39 782.997C349.916 796.444 350.932 816.733 360.718 827.762C371.593 840.015 397.959 843.887 413.397 844.227C435.177 844.706 448.033 827.644 451.11 806.673C452.833 794.932 454.595 787.829 450.919 776.887C449.512 772.702 446.965 763.572 440.563 758.67Z" fill="#C48949" stroke="black" stroke-width="4"/>
<path id="Path 7366" d="M438.557 757.3C429.824 749.257 418.421 746.19 410.875 744.182C397.161 740.534 383.799 742.734 372.332 751.246C362.82 758.307 356.192 769.708 353.245 781.109C349.845 794.268 350.84 814.124 360.417 824.917C371.06 836.909 396.863 840.699 411.971 841.032C433.287 841.5 445.867 824.802 448.879 804.279C450.565 792.788 452.29 785.838 448.692 775.13C447.316 771.035 444.822 762.098 438.557 757.3Z" fill="#F3C538" stroke="black" stroke-width="4"/>
<path id="Path 7367" d="M365.945 824.217C365.05 823.459 364.227 822.663 363.484 821.827C354.672 811.896 353.413 793.728 356.724 780.915C359.692 769.428 366.178 759.288 374.522 753.093C385.03 745.292 397.491 743.005 410.56 746.482C417.521 748.336 428.01 751.112 436.236 758.667C441.657 762.88 444.137 770.347 445.447 774.368L445.783 775.383C448.782 784.303 447.824 790.521 446.502 799.126C446.337 800.198 446.166 801.309 445.995 802.474C442.201 828.317 425.59 837.188 411.308 836.872C396.379 836.545 376.331 832.995 365.945 824.217ZM433.914 759.035C426.207 752.519 416.573 749.957 410.093 748.233C397.579 744.904 385.651 747.086 375.602 754.547C367.586 760.499 361.344 770.276 358.478 781.368C355.288 793.718 356.449 811.167 364.839 820.624C373.806 830.723 395.493 834.712 411.348 835.061C431.95 835.516 441.827 818.388 444.203 802.211C444.373 801.042 444.547 799.926 444.71 798.85C446.043 790.187 446.924 784.463 444.067 775.961L443.726 774.931C442.471 771.088 440.13 763.959 435.103 760.08L435.07 760.056L435.038 760.026C434.67 759.686 434.294 759.357 433.914 759.035Z" fill="#C48949" stroke="black" stroke-width="4"/>
<path id="Path 7368" d="M403.258 780.003C402.7 773.422 398.365 766.738 391.37 765.72C385.377 764.848 380.714 767.697 377.892 771.854C372.293 780.104 376.079 792.27 380.393 800.131C384.647 807.891 390.802 814.089 396.032 821.112C403.656 818.033 419.542 808.794 423.392 805.656C430.483 799.876 431.888 792.579 432.281 788.539C432.561 785.645 432.881 777.142 426.38 774.051C411.293 766.88 403.38 778.413 403.258 780.003Z" fill="#C48949" stroke="black" stroke-width="4"/>
<path id="Path 7369" d="M365.261 776.62C365.058 776.448 364.863 776.28 364.679 776.118L365.875 774.758C367.468 776.161 369.855 778.03 372.161 779.002L371.457 780.674C369.203 779.721 366.93 778.031 365.261 776.62Z" fill="#C48949" stroke="black" stroke-width="4"/>
<path id="Path 7370" d="M363.874 787.375L364.067 785.574C366.562 785.841 369.199 786.099 371.573 786.042L371.616 787.853C369.132 787.912 366.428 787.648 363.874 787.375Z" fill="#C48949" stroke="black" stroke-width="4"/>
<path id="Path 7371" d="M362.989 798.523L362.499 796.779C364.783 796.138 367.17 795.83 369.477 795.532C370.808 795.36 372.134 795.19 373.427 794.955L373.748 796.739C372.425 796.976 371.07 797.152 369.71 797.328C367.466 797.619 365.145 797.918 362.989 798.523Z" fill="#C48949" stroke="black" stroke-width="4"/>
<path id="Path 7372" d="M368.305 807.57L367.083 806.231C368.073 805.327 369.289 804.738 370.468 804.171C371.466 803.688 372.408 803.234 373.177 802.62C373.351 802.48 373.512 802.338 373.674 802.201C374.128 801.813 374.599 801.415 375.233 801.05L376.132 802.622C375.645 802.901 375.277 803.215 374.851 803.579C374.675 803.728 374.498 803.88 374.311 804.032C373.38 804.776 372.3 805.297 371.257 805.801C370.146 806.337 369.099 806.845 368.305 807.57Z" fill="#C48949" stroke="black" stroke-width="4"/>
<path id="Path 7373" d="M371.852 771.728C371.086 771.081 370.289 770.13 369.979 769.307L371.679 768.672C371.903 769.279 372.863 770.342 373.514 770.7L372.628 772.282C372.389 772.148 372.123 771.956 371.852 771.728Z" fill="#C48949" stroke="black" stroke-width="4"/>
<path id="Path 7374" d="M435.682 787.987L434.46 786.648C435.202 785.972 436.272 785.456 437.215 785.001C437.538 784.845 437.85 784.695 438.132 784.547L438.98 786.147C438.68 786.308 438.347 786.468 438.004 786.633C437.17 787.034 436.227 787.489 435.682 787.987Z" fill="#C48949" stroke="black" stroke-width="4"/>
<path id="Path 7375" d="M432.817 793.742L433.297 791.995C434.765 792.398 436.292 792.732 437.772 793.057C439.644 793.467 441.581 793.892 443.449 794.463L442.92 796.198C441.121 795.645 439.221 795.23 437.384 794.826C435.883 794.498 434.331 794.158 432.817 793.742Z" fill="#C48949" stroke="black" stroke-width="4"/>
<path id="Path 7376" d="M431.213 800.403L432.293 798.947C434.29 800.424 436.991 801.489 439.606 802.521C440.389 802.83 441.156 803.132 441.873 803.434L441.17 805.106C440.464 804.807 439.711 804.51 438.943 804.206C436.346 803.184 433.405 802.021 431.213 800.403Z" fill="#C48949" stroke="black" stroke-width="4"/>
<path id="Path 7377" d="M432.872 819.221C431.884 818.386 430.955 817.172 430.122 816.084C429.827 815.704 429.552 815.342 429.294 815.026L428.756 814.374C427.058 812.325 424.733 809.52 424.173 807.066L425.937 806.661C426.403 808.696 428.657 811.417 430.149 813.217L430.695 813.88C430.965 814.207 431.252 814.586 431.558 814.982C432.435 816.128 433.445 817.423 434.358 818.084L433.31 819.561C433.163 819.457 433.016 819.342 432.872 819.221Z" fill="#C48949" stroke="black" stroke-width="4"/>
<path id="Path 7378" d="M419.937 819.745C419.7 818.647 419.297 817.574 418.868 816.435C418.38 815.134 417.874 813.79 417.623 812.371L419.406 812.053C419.629 813.309 420.083 814.517 420.565 815.799C420.996 816.948 421.443 818.134 421.707 819.362L419.937 819.745Z" fill="#C48949" stroke="black" stroke-width="4"/>
<g id="Group 5680" style="mix-blend-mode:overlay" opacity="0.429993">
<g id="Group 5679">
<g id="Group 5678">
<mask id="mask2_1_2" style="mask-type:alpha" maskUnits="userSpaceOnUse" x="365" y="742" width="37" height="38">
<path id="Rectangle 1346" d="M373.64 744.569L398.729 750.361L392.566 777.057L367.477 771.265L373.64 744.569Z" fill="black" stroke="black" stroke-width="4"/>
</mask>
<g mask="url(#mask2_1_2)">
<path id="Path 7379" d="M394.973 749.494C396.244 750.493 397.136 752.03 398.04 753.343C392.048 756.127 386.077 757.973 380.882 762.271C379.081 763.76 377.853 765.265 376.574 767.206C375.569 768.732 373.898 770.842 373.658 772.684C371.655 772.319 369.728 770.916 367.667 770.442C369.172 766.375 372.704 762.955 375.379 759.648C377.704 756.775 379.897 754.961 383.037 753.144C385.272 751.849 391.054 749.501 394.973 749.494Z" fill="#FFD98D" stroke="black" stroke-width="4"/>
</g>
</g>
</g>
</g>
<g id="Group 5683" style="mix-blend-mode:overlay" opacity="0.429993">
<g id="Group 5682">
<g id="Group 5681">
<mask id="mask3_1_2" style="mask-type:alpha" maskUnits="userSpaceOnUse" x="394" y="745" width="15" height="12">
<path id="Rectangle 1347" d="M397.52 747.414L406.277 749.436L405.233 753.956L396.476 751.934L397.52 747.414Z" fill="black" stroke="black" stroke-width="4"/>
</mask>
<g mask="url(#mask3_1_2)">
<path id="Path 7380" d="M397.187 748.856C398.238 749.724 399.212 751.57 399.827 752.708C401.247 751.859 404.008 752.401 405.58 752.454C405.219 750.959 404.04 749.177 402.591 748.631C401.154 748.09 398.23 747.913 397.187 748.856Z" fill="#FFD98D" stroke="black" stroke-width="4"/>
</g>
</g>
</g>
</g>
<g id="Group 5686" style="mix-blend-mode:overlay" opacity="0.429993">
<g id="Group 5685">
<g id="Group 5684">
<mask id="mask4_1_2" style="mask-type:alpha" maskUnits="userSpaceOnUse" x="393" y="814" width="40" height="27">
<path id="Rectangle 1348" d="M399.57 817.095L430.438 824.221L427.258 837.994L396.39 830.868L399.57 817.095Z" fill="black" stroke="black" stroke-width="4"/>
</mask>
<g mask="url(#mask4_1_2)">
<path id="Path 7381" d="M427.066 823.443C425.559 825.67 421.748 827.073 419.297 827.691C414.886 828.805 409.295 828.976 404.808 828.386C402.282 828.053 400.03 827.625 397.56 827C397.36 827.643 396.475 829.617 396.651 830.246C396.886 831.091 397.39 831.012 398.404 831.301C402.207 832.383 406.06 832.455 409.997 832.662C414.343 832.889 419.321 832.594 423.327 830.769C425.291 829.873 427.652 828.668 429.239 827.183C431.188 825.358 429.172 824.918 427.066 823.443Z" fill="#FFD98D" stroke="black" stroke-width="4"/>
</g>
</g>
</g>
</g>
<path id="Path 7382" d="M348.399 770.165C346.424 759.525 339.782 751.055 335.376 745.468C327.366 735.312 316.416 729.613 303.4 729.556C292.602 729.508 281.535 734.203 273.159 740.909C263.485 748.651 253.358 763.678 254.448 776.786C255.657 791.349 272.408 808.214 283.246 816.715C298.538 828.704 316.842 823.399 330.255 810.075C337.764 802.615 342.822 798.486 346.048 788.71C347.283 784.969 350.348 777.089 348.399 770.165Z" fill="#C48949" stroke="black" stroke-width="4"/>
<path id="Path 7383" d="M347.7 768.114C345.768 757.701 339.268 749.412 334.955 743.944C327.116 734.004 316.4 728.427 303.66 728.372C293.094 728.324 282.264 732.919 274.065 739.482C264.597 747.059 254.688 761.765 255.753 774.593C256.937 788.845 273.329 805.352 283.937 813.668C298.903 825.404 316.816 820.213 329.942 807.172C337.293 799.872 342.24 795.83 345.398 786.262C346.607 782.602 349.608 774.89 347.7 768.114Z" fill="#F3C538" stroke="black" stroke-width="4"/>
<path id="Path 7384" d="M260.072 777.049C259.839 776.029 259.677 775.021 259.594 774.025C258.614 762.224 267.431 748.58 276.649 741.205C284.911 734.591 294.964 730.822 304.236 730.862C315.908 730.911 326.028 735.946 333.498 745.416C337.476 750.462 343.478 758.055 345.313 767.848C346.927 773.755 344.703 780.41 343.49 783.985L343.186 784.887C340.555 792.86 336.547 796.788 331 802.222C330.309 802.899 329.592 803.601 328.848 804.341C312.318 820.761 295.715 818.209 285.687 810.346C275.204 802.127 262.791 788.872 260.072 777.049ZM343.456 766.869C341.44 758.095 335.932 751.114 332.228 746.417C325.074 737.347 315.392 732.525 304.227 732.477C295.322 732.44 285.637 736.08 277.657 742.465C268.777 749.575 260.273 762.653 261.204 773.892C262.204 785.898 275.553 800.345 286.685 809.075C301.148 820.417 317.361 813.473 327.708 803.193C328.455 802.452 329.176 801.747 329.87 801.066C335.453 795.596 339.144 791.979 341.65 784.382L341.959 783.464C343.117 780.05 345.259 773.708 343.746 768.25L343.735 768.215L343.727 768.178C343.647 767.739 343.555 767.302 343.456 766.869Z" fill="#C48949" stroke="black" stroke-width="4"/>
<path id="Path 7385" d="M310.359 765.441C313.481 760.445 313.96 753.354 309.512 748.886C305.699 745.057 300.846 744.599 296.608 746.058C288.2 748.951 284.396 759.662 283.27 767.58C282.157 775.397 283.235 783.114 283.214 790.923C290.302 792.802 306.584 794.705 311.012 794.523C319.164 794.19 324.07 789.733 326.511 787.057C328.26 785.141 333.036 779.241 330.048 773.558C323.113 760.371 311.295 764.371 310.359 765.441Z" fill="#C48949" stroke="black" stroke-width="4"/>
<g id="Group 5689" style="mix-blend-mode:overlay" opacity="0.429993">
<g id="Group 5688">
<g id="Group 5687">
<mask id="mask5_1_2" style="mask-type:alpha" maskUnits="userSpaceOnUse" x="294" y="733" width="39" height="25">
<path id="Rectangle 1349" d="M299.809 735.628L329.962 742.59L327.115 754.923L296.962 747.962L299.809 735.628Z" fill="black" stroke="black" stroke-width="4"/>
</mask>
<g mask="url(#mask5_1_2)">
<path id="Path 7386" d="M328.556 743.725C328.93 745.118 328.744 746.693 328.688 748.114C322.92 746.896 317.671 745.02 311.662 745.31C309.582 745.41 307.899 745.827 305.949 746.529C304.415 747.081 302.094 747.692 300.937 748.881C299.701 747.548 299.076 745.516 297.859 744.075C301.11 741.976 305.46 741.425 309.137 740.495C312.336 739.684 314.87 739.565 318.082 739.946C320.37 740.219 325.755 741.631 328.556 743.725Z" fill="#FFD98D" stroke="black" stroke-width="4"/>
</g>
</g>
</g>
</g>
<g id="Group 5692" style="mix-blend-mode:overlay" opacity="0.429993">
<g id="Group 5691">
<g id="Group 5690">
<mask id="mask6_1_2" style="mask-type:alpha" maskUnits="userSpaceOnUse" x="318" y="737" width="13" height="13">
<path id="Rectangle 1350" d="M322.7 739.885L328.185 741.151L326.827 747.035L321.342 745.768L322.7 739.885Z" fill="black" stroke="black" stroke-width="4"/>
</mask>
<g mask="url(#mask6_1_2)">
<path id="Path 7387" d="M322.682 739.96C322.97 741.142 322.676 742.982 322.507 744.122C323.975 744.275 325.655 746.139 326.749 747.018C327.293 745.756 327.404 743.855 326.66 742.691C325.923 741.535 323.93 739.844 322.682 739.96Z" fill="#FFD98D" stroke="black" stroke-width="4"/>
</g>
</g>
</g>
</g>
<g id="Group 5695" style="mix-blend-mode:overlay" opacity="0.429993">
<g id="Group 5694">
<g id="Group 5693">
<mask id="mask7_1_2" style="mask-type:alpha" maskUnits="userSpaceOnUse" x="274" y="793" width="36" height="24">
<path id="Rectangle 1351" d="M279.273 795.51L307.412 802.006L304.63 814.055L276.491 807.559L279.273 795.51Z" fill="black" stroke="black" stroke-width="4"/>
</mask>
<g mask="url(#mask7_1_2)">
<path id="Path 7388" d="M304.12 809.186C301.852 809.972 298.381 808.933 296.302 808.065C292.557 806.499 288.473 803.631 285.587 800.811C283.96 799.222 282.58 797.712 281.154 795.944C280.667 796.296 278.98 797.232 278.768 797.775C278.484 798.505 278.885 798.717 279.455 799.467C281.592 802.272 284.305 804.384 287.003 806.637C289.985 809.125 293.697 811.578 297.533 812.415C299.413 812.828 301.745 813.23 303.671 813.018C306.038 812.758 304.833 811.366 304.12 809.186Z" fill="#FFD98D" stroke="black" stroke-width="4"/>
</g>
</g>
</g>
</g>
<path id="Path 7389" d="M376.335 661.503C366.715 656.547 355.953 656.608 348.836 656.669C335.902 656.778 324.69 661.941 316.672 672.196C310.021 680.701 306.951 692.325 307.119 703.054C307.313 715.442 312.988 732.651 324.017 739.82C336.267 747.786 359.861 744.876 373.217 741.515C392.063 736.773 399.082 719.056 396.767 700.292C395.47 689.785 395.304 683.26 389.553 674.721C387.353 671.454 383.002 664.204 376.335 661.503Z" fill="#C48949" stroke="black" stroke-width="4"/>
<path id="Path 7390" d="M374.288 660.8C364.873 655.95 354.339 656.009 347.376 656.069C334.719 656.176 323.745 661.231 315.898 671.264C309.386 679.588 306.385 690.964 306.551 701.465C306.739 713.587 312.293 730.43 323.085 737.445C335.075 745.24 358.163 742.394 371.236 739.106C389.679 734.463 396.549 717.125 394.284 698.761C393.014 688.479 392.851 682.093 387.223 673.737C385.07 670.539 380.812 663.443 374.288 660.8Z" fill="#F3C538" stroke="black" stroke-width="4"/>
<path id="Path 7391" d="M327.673 735.533C326.723 735.094 325.827 734.605 324.989 734.063C315.061 727.607 309.679 712.277 309.494 700.474C309.329 689.894 312.507 679.637 318.219 672.335C325.408 663.138 335.587 658.222 347.648 658.122C354.074 658.067 363.752 657.973 372.614 662.522C378.273 664.867 382.173 670.7 384.253 673.849L384.781 674.642C389.471 681.605 390.12 687.179 391.017 694.891C391.13 695.853 391.245 696.85 391.374 697.893C394.226 721.017 382.04 732.576 369.683 735.685C356.763 738.935 338.683 740.627 327.673 735.533ZM370.705 663.39C362.534 659.609 353.641 659.688 347.661 659.737C336.109 659.835 326.367 664.534 319.489 673.33C314.005 680.345 310.949 690.231 311.108 700.449C311.289 711.825 316.417 726.556 325.87 732.706C335.972 739.269 355.568 737.569 369.287 734.117C387.112 729.635 391.555 712.564 389.77 698.089C389.642 697.044 389.525 696.043 389.412 695.078C388.508 687.312 387.91 682.182 383.442 675.546L382.905 674.74C380.916 671.731 377.215 666.154 371.974 664.007L371.94 663.995L371.906 663.976C371.508 663.771 371.106 663.577 370.705 663.39Z" fill="#C48949"/>
<path id="Path 7392" d="M349.301 688.678C347.263 683.148 341.953 678.426 335.696 679.206C330.336 679.875 326.999 683.428 325.556 687.673C322.693 696.091 328.83 705.658 334.399 711.4C339.894 717.065 346.655 720.942 352.815 725.743C358.642 721.292 370.12 709.586 372.686 705.977C377.418 699.327 376.9 692.718 376.282 689.153C375.838 686.595 374.1 679.207 367.778 678.087C353.106 675.49 349.029 687.282 349.301 688.678Z" fill="#C48949" stroke="black" stroke-width="4"/>
<path id="Path 7393" d="M378.171 699.609L378.754 698.102C380.822 698.9 383.398 699.176 385.891 699.445C386.637 699.525 387.367 699.604 388.056 699.693L387.847 701.297C387.167 701.208 386.452 701.129 385.718 701.052C383.243 700.786 380.438 700.482 378.171 699.609Z" fill="#C48949" stroke="black" stroke-width="4"/>
<path id="Path 7394" d="M384.049 715.399C383.003 714.915 381.916 714.091 380.941 713.353C380.6 713.096 380.278 712.849 379.979 712.638L379.362 712.205C377.417 710.846 374.754 708.982 373.69 707.003L375.113 706.239C375.995 707.879 378.578 709.686 380.287 710.88L380.912 711.321C381.223 711.54 381.56 711.795 381.916 712.065C382.943 712.843 384.116 713.718 385.058 714.07L384.506 715.588C384.356 715.535 384.202 715.47 384.049 715.399Z" fill="#C48949" stroke="black" stroke-width="4"/>
<path id="Path 7395" d="M373.049 718.911C372.586 718.021 371.984 717.195 371.347 716.316C370.619 715.313 369.866 714.277 369.314 713.117L370.772 712.422C371.261 713.449 371.938 714.379 372.656 715.368C373.297 716.253 373.962 717.17 374.482 718.161L373.049 718.911Z" fill="#C48949" stroke="black" stroke-width="4"/>
<g id="Group 5698" style="mix-blend-mode:overlay" opacity="0.429993">
<g id="Group 5697">
<g id="Group 5696">
<mask id="mask8_1_2" style="mask-type:alpha" maskUnits="userSpaceOnUse" x="315" y="652" width="28" height="36">
<path id="Rectangle 1352" d="M324.276 654.506L340.562 658.266L334.259 685.567L317.973 681.807L324.276 654.506Z" fill="black" stroke="black" stroke-width="4"/>
</mask>
<g mask="url(#mask8_1_2)">
<path id="Path 7396" d="M336.624 657.357C337.955 657.916 339.085 659.026 340.175 659.941C335.679 663.754 330.981 666.754 327.529 671.681C326.333 673.389 325.631 674.973 324.992 676.945C324.489 678.496 323.551 680.705 323.78 682.346C321.969 682.506 319.983 681.756 318.097 681.836C318.43 677.981 320.658 674.205 322.176 670.727C323.495 667.706 324.953 665.627 327.222 663.322C328.838 661.679 333.255 658.29 336.624 657.357Z" fill="#FFD98D" stroke="black" stroke-width="4"/>
</g>
</g>
</g>
</g>
<g id="Group 5701" style="mix-blend-mode:overlay" opacity="0.429993">
<g id="Group 5700">
<g id="Group 5699">
<mask id="mask9_1_2" style="mask-type:alpha" maskUnits="userSpaceOnUse" x="333" y="658" width="15" height="12">
<path id="Rectangle 1353" d="M337.268 660.899L345.172 662.723L344.183 667.006L336.279 665.181L337.268 660.899Z" fill="black" stroke="black" stroke-width="4"/>
</mask>
<g mask="url(#mask9_1_2)">
<path id="Path 7397" d="M336.708 663.326C337.817 663.823 339.092 665.182 339.888 666.014C340.91 664.947 343.413 664.762 344.777 664.435C344.113 663.233 342.678 661.98 341.303 661.854C339.938 661.728 337.38 662.268 336.708 663.326Z" fill="#FFD98D" stroke="black" stroke-width="4"/>
</g>
</g>
</g>
</g>
<g id="Group 5704" style="mix-blend-mode:overlay" opacity="0.429993">
<g id="Group 5703">
<g id="Group 5702">
<mask id="mask10_1_2" style="mask-type:alpha" maskUnits="userSpaceOnUse" x="352" y="713" width="34" height="29">
<path id="Rectangle 1354" d="M358.962 715.535L383.434 721.185L379.257 739.28L354.784 733.63L358.962 715.535Z" fill="black" stroke="black" stroke-width="4"/>
</mask>
<g mask="url(#mask10_1_2)">
<path id="Path 7398" d="M380.056 720.405C379.286 722.678 376.34 724.786 374.38 725.898C370.848 727.899 366.08 729.37 362.083 729.925C359.831 730.236 357.791 730.401 355.52 730.446C355.5 731.046 355.207 732.953 355.507 733.454C355.909 734.124 356.323 733.939 357.263 733.946C360.793 733.976 364.121 733.127 367.556 732.372C371.349 731.54 375.56 730.108 378.573 727.591C380.049 726.356 381.797 724.76 382.809 723.107C384.053 721.077 382.216 721.176 380.056 720.405Z" fill="#FFD98D" stroke="black" stroke-width="4"/>
</g>
</g>
</g>
</g>
<path id="Path 7399" d="M407.084 702.538C396.02 697.563 383.974 698.274 376.011 698.765C361.539 699.661 349.296 706.11 340.931 718.068C333.991 727.985 331.25 741.181 332.078 753.182C333.033 767.038 340.414 785.964 353.186 793.332C367.376 801.519 393.614 796.855 408.366 792.296C429.182 785.863 435.982 765.61 432.271 744.743C430.193 733.06 429.616 725.763 422.669 716.547C420.013 713.021 414.709 705.164 407.084 702.538Z" fill="#E7A234" stroke="black" stroke-width="4"/>
<path id="Path 7400" d="M404.749 701.872C393.921 697.005 382.132 697.698 374.339 698.18C360.176 699.056 348.194 705.368 340.007 717.069C333.217 726.775 330.533 739.69 331.344 751.434C332.279 764.995 339.502 783.518 352.001 790.727C365.89 798.739 391.567 794.176 406.003 789.713C426.375 783.419 433.03 763.598 429.398 743.175C427.363 731.741 426.802 724.602 420.002 715.582C417.4 712.131 412.21 704.442 404.749 701.872Z" fill="#FCDD3A" stroke="black" stroke-width="4"/>
<path id="Path 7402" d="M378.44 734.571C375.83 728.503 369.604 723.533 362.646 724.779C356.684 725.848 353.161 730.025 351.798 734.863C349.094 744.457 356.534 754.801 363.112 760.896C369.604 766.912 377.403 770.846 384.584 775.855C390.843 770.523 402.992 756.735 405.652 752.54C410.551 744.815 409.577 737.449 408.672 733.494C408.022 730.656 405.636 722.488 398.493 721.613C381.913 719.581 378.052 733.025 378.44 734.571Z" fill="#E7A234" stroke="black" stroke-width="4"/>
<g id="Group 5707" style="mix-blend-mode:overlay" opacity="0.429993">
<g id="Group 5706">
<g id="Group 5705">
<mask id="mask11_1_2" style="mask-type:alpha" maskUnits="userSpaceOnUse" x="340" y="697" width="30" height="41">
<path id="Rectangle 1355" d="M350.16 700.033L366.999 703.92L359.775 735.213L342.936 731.325L350.16 700.033Z" fill="black" stroke="black" stroke-width="4"/>
</mask>
<g mask="url(#mask11_1_2)">
<path id="Path 7403" d="M362.492 702.88C364.014 703.426 365.345 704.603 366.619 705.56C361.814 710.098 356.734 713.736 353.162 719.459C351.926 721.44 351.236 723.256 350.639 725.501C350.167 727.267 349.248 729.797 349.605 731.62C347.586 731.908 345.317 731.187 343.212 731.389C343.353 727.052 345.622 722.692 347.115 718.71C348.41 715.248 349.918 712.835 352.321 710.118C354.034 708.184 358.776 704.126 362.492 702.88Z" fill="#FFD98D" stroke="black" stroke-width="4"/>
</g>
</g>
</g>
</g>
<g id="Group 5710" style="mix-blend-mode:overlay" opacity="0.429993">
<g id="Group 5709">
<g id="Group 5708">
<mask id="mask12_1_2" style="mask-type:alpha" maskUnits="userSpaceOnUse" x="360" y="701" width="15" height="13">
<path id="Rectangle 1356" d="M363.519 703.956L372.325 705.989L371.206 710.837L362.4 708.804L363.519 703.956Z" fill="black" stroke="black" stroke-width="4"/>
</mask>
<g mask="url(#mask12_1_2)">
<path id="Path 7404" d="M362.83 706.942C364.103 707.432 365.609 708.878 366.552 709.761C367.632 708.506 370.422 708.149 371.93 707.701C371.114 706.397 369.434 705.079 367.886 705.019C366.353 704.961 363.521 705.717 362.83 706.942Z" fill="#FFD98D" stroke="black" stroke-width="4"/>
</g>
</g>
</g>
</g>
<g id="Group 5713" style="mix-blend-mode:overlay" opacity="0.429993">
<g id="Group 5712">
<g id="Group 5711">
<mask id="mask13_1_2" style="mask-type:alpha" maskUnits="userSpaceOnUse" x="384" y="760" width="38" height="33">
<path id="Rectangle 1357" d="M392.039 763.008L418.612 769.143L413.663 790.581L387.089 784.446L392.039 763.008Z" fill="black" stroke="black" stroke-width="4"/>
</mask>
<g mask="url(#mask13_1_2)">
<path id="Path 7405" d="M414.762 768.255C414.037 770.845 410.864 773.38 408.735 774.742C404.901 777.193 399.652 779.124 395.21 779.983C392.708 780.466 390.436 780.772 387.894 780.959C387.908 781.632 387.694 783.784 388.058 784.326C388.548 785.053 389.003 784.82 390.054 784.772C394.007 784.596 397.684 783.445 401.483 782.398C405.68 781.24 410.308 779.386 413.532 776.386C415.112 774.916 416.971 773.026 418.006 771.116C419.278 768.768 417.225 768.987 414.762 768.255Z" fill="#FFD98D" stroke="black" stroke-width="4"/>
</g>
</g>
</g>
</g>
<path id="Path 7406" d="M509.822 729.444C498.128 726.217 486.332 728.758 478.538 730.459C464.372 733.552 453.256 741.796 446.814 754.889C441.47 765.75 440.775 779.209 443.425 790.943C446.485 804.491 456.667 822.069 470.415 827.401C485.688 833.326 510.906 824.711 524.789 817.954C544.379 808.42 548.008 787.367 541.156 767.309C537.319 756.08 535.636 748.958 527.363 740.911C524.198 737.831 517.758 730.876 509.822 729.444Z" fill="#C48949" stroke="black" stroke-width="4"/>
<path id="Path 7407" d="M507.412 729.143C495.967 725.985 484.423 728.472 476.796 730.137C462.932 733.164 452.053 741.231 445.749 754.046C440.52 764.674 439.84 777.844 442.432 789.33C445.428 802.589 455.391 819.791 468.846 825.01C483.794 830.808 508.473 822.377 522.06 815.763C541.23 806.43 544.782 785.83 538.075 766.201C534.321 755.21 532.675 748.24 524.578 740.364C521.481 737.351 515.178 730.545 507.412 729.143Z" fill="#F3C538" stroke="black" stroke-width="4"/>
<path id="Path 7408" d="M473.441 821.858C472.298 821.594 471.202 821.263 470.159 820.859C457.781 816.057 448.353 800.476 445.437 787.566C442.824 775.994 443.954 764.011 448.542 754.687C454.318 742.944 464.356 735.21 477.566 732.326C484.604 730.789 495.201 728.464 505.973 731.418C512.72 732.687 518.34 738.194 521.346 741.171L522.108 741.92C528.854 748.481 530.846 754.448 533.605 762.706C533.949 763.734 534.305 764.801 534.686 765.915C543.13 790.632 532.415 806.117 519.57 812.368C506.142 818.904 486.693 824.915 473.441 821.858ZM504.077 732.809C494.243 730.539 484.504 732.667 477.953 734.097C465.301 736.86 455.691 744.255 450.165 755.486C445.76 764.445 444.68 775.993 447.203 787.169C450.014 799.61 459.026 814.596 470.814 819.168C483.406 824.05 504.517 817.679 518.777 810.739C537.305 801.722 538.258 781.973 532.97 766.499C532.59 765.383 532.232 764.312 531.887 763.278C529.109 754.966 527.274 749.473 520.845 743.219L520.071 742.457C517.198 739.616 511.856 734.346 505.611 733.194L505.57 733.189L505.53 733.178C505.047 733.042 504.562 732.921 504.077 732.809Z" fill="#C48949"/>
<path id="Path 7409" d="M486.404 765.474C482.898 759.876 475.986 755.914 469.299 758.209C463.571 760.173 460.727 764.84 460.118 769.828C458.913 779.723 467.844 788.811 475.274 793.831C482.606 798.785 490.915 801.483 498.777 805.336C504.149 799.114 514.052 783.632 516.04 779.08C519.704 770.697 517.615 763.566 516.117 759.793C515.042 757.09 511.438 749.383 504.244 749.608C487.547 750.13 485.785 764.006 486.404 765.474Z" fill="#C48949" stroke="black" stroke-width="4"/>
<path id="Path 7410" d="M451.065 779.844C450.807 779.784 450.556 779.723 450.316 779.664L450.758 777.907C452.817 778.425 455.795 778.997 458.291 778.806L458.429 780.614C455.988 780.798 453.194 780.335 451.065 779.844Z" fill="#C48949" stroke="black" stroke-width="4"/>
<path id="Path 7411" d="M454.749 790.043L454.097 788.352C456.439 787.45 458.902 786.473 460.986 785.336L461.854 786.928C459.671 788.117 457.146 789.119 454.749 790.043Z" fill="#C48949" stroke="black" stroke-width="4"/>
<path id="Path 7412" d="M459.062 800.36L457.828 799.033C459.566 797.42 461.548 796.054 463.463 794.733C464.568 793.972 465.669 793.213 466.712 792.413L467.814 793.852C466.745 794.669 465.621 795.444 464.492 796.224C462.628 797.509 460.702 798.836 459.062 800.36Z" fill="#C48949" stroke="black" stroke-width="4"/>
<path id="Path 7413" d="M467.927 805.975L466.227 805.343C466.693 804.087 467.508 803.005 468.296 801.963C468.963 801.078 469.594 800.242 469.994 799.344C470.086 799.139 470.166 798.94 470.248 798.744C470.474 798.192 470.708 797.623 471.107 797.007L472.626 797.994C472.32 798.465 472.136 798.914 471.922 799.432C471.834 799.646 471.748 799.861 471.649 800.081C471.163 801.169 470.44 802.127 469.743 803.052C469.001 804.037 468.301 804.966 467.927 805.975Z" fill="#C48949" stroke="black" stroke-width="4"/>
<g id="Group 5716" style="mix-blend-mode:overlay" opacity="0.429993">
<g id="Group 5715">
<g id="Group 5714">
<mask id="mask14_1_2" style="mask-type:alpha" maskUnits="userSpaceOnUse" x="449" y="731" width="27" height="42">
<path id="Rectangle 1358" d="M459.862 734.234L472.764 737.212L465.199 769.982L452.297 767.003L459.862 734.234Z" fill="black" stroke="black" stroke-width="4"/>
</mask>
<g mask="url(#mask14_1_2)">
<path id="Path 7414" d="M468.06 736.131C469.645 736.438 471.144 737.398 472.549 738.151C468.492 743.368 464.027 747.74 461.372 753.939C460.451 756.087 460.048 757.986 459.796 760.296C459.602 762.113 459.081 764.753 459.71 766.502C457.761 767.094 455.407 766.727 453.358 767.248C452.836 762.942 454.412 758.286 455.28 754.123C456.031 750.502 457.155 747.888 459.115 744.837C460.51 742.663 464.579 737.93 468.06 736.131Z" fill="#FFD98D" stroke="black" stroke-width="4"/>
</g>
</g>
</g>
</g>
<g id="Group 5719" style="mix-blend-mode:overlay" opacity="0.429993">
<g id="Group 5718">
<g id="Group 5717">
<mask id="mask15_1_2" style="mask-type:alpha" maskUnits="userSpaceOnUse" x="464" y="734" width="15" height="13">
<path id="Rectangle 1359" d="M467.628 736.798L476.135 738.762L474.99 743.722L466.483 741.758L467.628 736.798Z" fill="black" stroke="black" stroke-width="4"/>
</mask>
<g mask="url(#mask15_1_2)">
<path id="Path 7415" d="M466.761 740.554C468.093 740.843 469.803 742.041 470.87 742.772C471.745 741.368 474.447 740.587 475.869 739.916C474.864 738.75 473.003 737.704 471.464 737.882C469.937 738.059 467.256 739.238 466.761 740.554Z" fill="#FFD98D" stroke="black" stroke-width="4"/>
</g>
</g>
</g>
</g>
<g id="Group 5722" style="mix-blend-mode:overlay" opacity="0.429993">
<g id="Group 5721">
<g id="Group 5720">
<mask id="mask16_1_2" style="mask-type:alpha" maskUnits="userSpaceOnUse" x="499" y="785" width="35" height="36">
<path id="Rectangle 1360" d="M507.806 788.312L531.526 793.789L525.806 818.564L502.086 813.088L507.806 788.312Z" fill="black" stroke="black" stroke-width="4"/>
</mask>
<g mask="url(#mask16_1_2)">
<path id="Path 7416" d="M527.441 793.219C527.12 795.89 524.371 798.88 522.475 800.55C519.06 803.558 514.166 806.268 509.907 807.794C507.509 808.654 505.309 809.304 502.828 809.876C502.945 810.539 503.06 812.7 503.503 813.179C504.099 813.822 504.512 813.522 505.544 813.316C509.422 812.538 512.881 810.839 516.476 809.224C520.447 807.439 524.739 804.9 527.465 801.443C528.803 799.749 530.351 797.597 531.083 795.551C531.983 793.036 529.987 793.568 527.441 793.219Z" fill="#FFD98D" stroke="black" stroke-width="4"/>
</g>
</g>
</g>
</g>
<path id="Path 7417" d="M546.981 824.805C540.103 816.618 530.27 812.568 523.761 809.909C511.931 805.075 499.741 805.507 488.522 811.794C479.215 817.009 471.985 826.433 468.045 836.276C463.496 847.643 462.105 865.492 469.423 876.233C477.551 888.166 500.164 894.513 513.621 896.545C532.606 899.41 545.762 885.938 550.807 867.953C553.634 857.882 555.972 851.872 553.987 841.894C553.227 838.077 552.027 829.81 546.981 824.805Z" fill="#C48949" stroke="black" stroke-width="4"/>
<path id="Path 7418" d="M545.383 823.382C538.652 815.371 529.029 811.407 522.657 808.805C511.08 804.076 499.151 804.496 488.17 810.65C479.064 815.753 471.988 824.976 468.132 834.609C463.682 845.732 462.319 863.202 469.48 873.713C477.435 885.391 499.566 891.603 512.735 893.59C531.315 896.395 544.189 883.211 549.128 865.61C551.894 855.754 554.182 849.871 552.238 840.106C551.496 836.372 550.322 828.28 545.383 823.382Z" fill="#F3C538" stroke="black" stroke-width="4"/>
<path id="Path 7419" d="M474.388 873.721C473.691 872.959 473.061 872.17 472.505 871.355C465.919 861.686 466.859 845.662 471.192 834.832C475.077 825.125 481.887 816.99 489.876 812.511C499.937 806.872 511.09 806.273 522.122 810.781C527.999 813.182 536.856 816.789 543.2 824.316C547.463 828.609 548.792 835.414 549.488 839.078L549.666 840.003C551.285 848.138 549.75 853.465 547.626 860.839C547.361 861.757 547.088 862.709 546.808 863.708C540.588 885.872 525.071 891.76 512.621 889.881C499.608 887.917 482.481 882.562 474.388 873.721ZM541.127 824.378C535.122 817.815 526.989 814.495 521.518 812.259C510.952 807.943 500.279 808.51 490.656 813.904C482.981 818.207 476.427 826.05 472.673 835.426C468.499 845.863 467.552 861.246 473.824 870.455C480.529 880.292 499.039 886.216 512.858 888.303C530.816 891.015 541.377 877.152 545.27 863.276C545.55 862.275 545.828 861.319 546.093 860.394C548.231 852.973 549.643 848.068 548.102 840.315L547.918 839.375C547.252 835.876 546.007 829.381 542.049 825.424L542.022 825.401L541.999 825.371C541.715 825.032 541.424 824.702 541.127 824.378Z" fill="#C48949" stroke="black" stroke-width="4"/>
<path id="Path 7420" d="M511.975 839.263C512.226 833.448 509.187 827.118 503.187 825.44C498.048 824.005 493.651 825.972 490.716 829.29C484.895 835.871 486.839 846.932 489.725 854.289C492.572 861.551 497.257 867.661 501.04 874.388C508.05 872.552 522.975 866.261 526.694 863.95C533.542 859.693 535.59 853.474 536.386 849.986C536.958 847.486 538.191 840.089 532.855 836.657C520.473 828.694 512.259 837.887 511.975 839.263Z" fill="#C48949" stroke="black" stroke-width="4"/>
<path id="Path 7421" d="M479.137 832.036C478.979 831.864 478.829 831.693 478.684 831.533L479.883 830.477C481.12 831.882 482.994 833.785 484.902 834.895L484.1 836.276C482.234 835.191 480.438 833.458 479.137 832.036Z" fill="#C48949" stroke="black" stroke-width="4"/>
<path id="Path 7422" d="M476.716 841.282L477.087 839.728C479.239 840.243 481.515 840.765 483.595 840.982L483.431 842.571C481.254 842.342 478.918 841.809 476.716 841.282Z" fill="#C48949" stroke="black" stroke-width="4"/>
<path id="Path 7423" d="M474.693 850.928L474.46 849.349C476.528 849.045 478.65 849.044 480.702 849.042C481.882 849.04 483.06 849.041 484.217 848.982L484.299 850.577C483.115 850.636 481.912 850.638 480.702 850.639C478.708 850.64 476.645 850.642 474.693 850.928Z" fill="#C48949" stroke="black" stroke-width="4"/>
<path id="Path 7424" d="M478.323 859.433L477.404 858.126C478.372 857.447 479.503 857.068 480.596 856.705C481.522 856.396 482.396 856.104 483.138 855.654C483.306 855.549 483.464 855.446 483.62 855.344C484.061 855.056 484.516 854.759 485.111 854.512L485.721 855.987C485.264 856.178 484.907 856.41 484.493 856.68C484.324 856.792 484.151 856.904 483.971 857.015C483.073 857.562 482.071 857.896 481.103 858.219C480.071 858.563 479.098 858.888 478.323 859.433Z" fill="#C48949" stroke="black" stroke-width="4"/>
<path id="Path 7425" d="M485.449 828.501C484.852 827.848 484.263 826.929 484.084 826.173L485.642 825.81C485.77 826.366 486.49 827.403 487.018 827.79L486.067 829.074C485.871 828.927 485.659 828.731 485.449 828.501Z" fill="#C48949" stroke="black" stroke-width="4"/>
<path id="Path 7426" d="M539.422 849.886L538.503 848.578C539.229 848.071 540.223 847.74 541.097 847.447C541.397 847.349 541.688 847.253 541.95 847.153L542.511 848.649C542.231 848.755 541.922 848.858 541.604 848.963C540.829 849.22 539.955 849.513 539.422 849.886Z" fill="#C48949" stroke="black" stroke-width="4"/>
<path id="Path 7427" d="M536.269 854.593L536.887 853.12C538.122 853.637 539.421 854.102 540.677 854.552C542.268 855.122 543.913 855.709 545.483 856.419L544.825 857.876C543.314 857.191 541.699 856.614 540.139 856.053C538.864 855.599 537.545 855.127 536.269 854.593Z" fill="#C48949" stroke="black" stroke-width="4"/>
<path id="Path 7428" d="M534.121 860.237L535.227 859.084C536.808 860.602 539.051 861.836 541.219 863.032C541.87 863.39 542.505 863.739 543.099 864.085L542.297 865.466C541.712 865.126 541.089 864.781 540.45 864.43C538.294 863.244 535.853 861.898 534.121 860.237Z" fill="#C48949" stroke="black" stroke-width="4"/>
<path id="Path 7429" d="M533.455 876.871C532.687 876.03 532.012 874.865 531.402 873.82C531.19 873.455 530.989 873.107 530.8 872.803L530.4 872.172C529.146 870.191 527.431 867.477 527.217 865.268L528.805 865.114C528.984 866.944 530.646 869.576 531.75 871.318L532.153 871.959C532.352 872.275 532.561 872.637 532.782 873.017C533.421 874.119 534.157 875.364 534.883 876.045L533.799 877.217C533.682 877.111 533.568 876.995 533.455 876.871Z" fill="#C48949" stroke="black" stroke-width="4"/>
<path id="Path 7430" d="M522.089 875.878C522.007 874.89 521.774 873.906 521.528 872.864C521.246 871.672 520.955 870.439 520.895 869.172L522.489 869.095C522.543 870.216 522.804 871.324 523.082 872.499C523.329 873.55 523.586 874.639 523.679 875.741L522.089 875.878Z" fill="#C48949" stroke="black" stroke-width="4"/>
<g id="Group 5725" style="mix-blend-mode:overlay" opacity="0.429993">
<g id="Group 5724">
<g id="Group 5723">
<mask id="mask17_1_2" style="mask-type:alpha" maskUnits="userSpaceOnUse" x="479" y="804" width="35" height="33">
<path id="Rectangle 1361" d="M486.604 806.685L511.107 812.343L506.114 833.971L481.61 828.314L486.604 806.685Z" fill="black" stroke="black" stroke-width="4"/>
</mask>
<g mask="url(#mask17_1_2)">
<path id="Path 7431" d="M508.158 811.662C509.157 812.677 509.765 814.123 510.408 815.372C504.855 817.132 499.43 818.075 494.403 821.249C492.664 822.349 491.42 823.525 490.085 825.079C489.035 826.299 487.337 827.955 486.921 829.539C485.209 828.995 483.683 827.553 481.935 826.907C483.708 823.52 487.179 820.928 489.89 818.337C492.244 816.087 494.365 814.747 497.314 813.513C499.412 812.632 504.731 811.227 508.158 811.662Z" fill="#FFD98D" stroke="black" stroke-width="4"/>
</g>
</g>
</g>
</g>
<g id="Group 5728" style="mix-blend-mode:overlay" opacity="0.429993">
<g id="Group 5727">
<g id="Group 5726">
<mask id="mask18_1_2" style="mask-type:alpha" maskUnits="userSpaceOnUse" x="507" y="808" width="14" height="11">
<path id="Rectangle 1362" d="M510.359 810.521L517.835 812.247L516.935 816.147L509.459 814.421L510.359 810.521Z" fill="black" stroke="black" stroke-width="4"/>
</mask>
<g mask="url(#mask18_1_2)">
<path id="Path 7432" d="M510.167 811.354C510.988 812.229 511.632 813.955 512.041 815.018C513.378 814.435 515.732 815.219 517.099 815.443C516.951 814.093 516.122 812.405 514.917 811.765C513.72 811.13 511.184 810.647 510.167 811.354Z" fill="#FFD98D" stroke="black" stroke-width="4"/>
</g>
</g>
</g>
</g>
<g id="Group 5731" style="mix-blend-mode:overlay" opacity="0.429993">
<g id="Group 5730">
<g id="Group 5729">
<mask id="mask19_1_2" style="mask-type:alpha" maskUnits="userSpaceOnUse" x="497" y="871" width="37" height="22">
<path id="Rectangle 1363" d="M502.449 874.034L530.649 880.545L528.45 890.069L500.25 883.558L502.449 874.034Z" fill="black" stroke="black" stroke-width="4"/>
</mask>
<g mask="url(#mask19_1_2)">
<path id="Path 7433" d="M527.906 879.912C526.339 881.691 522.848 882.488 520.636 882.753C516.654 883.231 511.749 882.751 507.894 881.732C505.722 881.157 503.801 880.53 501.713 879.706C501.465 880.246 500.471 881.872 500.552 882.442C500.664 883.207 501.114 883.195 501.967 883.561C505.171 884.935 508.53 885.429 511.948 886.053C515.723 886.74 520.107 887.041 523.815 885.895C525.632 885.333 527.832 884.545 529.385 883.426C531.294 882.049 529.581 881.438 527.906 879.912Z" fill="#FFD98D" stroke="black" stroke-width="4"/>
</g>
</g>
</g>
</g>
<path id="Path 7434" d="M527.849 665.493C522.076 654.824 512.071 648.077 505.444 643.635C493.401 635.563 479.755 633.256 465.85 637.682C454.315 641.353 444.128 650.175 437.501 660.216C429.851 671.808 424.228 691.329 429.906 704.937C436.215 720.055 459.899 732.275 474.39 737.605C494.837 745.125 512.533 733.158 522.249 714.321C527.689 703.774 531.66 697.627 531.733 686.085C531.759 681.671 532.315 672.208 527.849 665.493Z" fill="#E7A234" stroke="black" stroke-width="4"/>
<path id="Path 7435" d="M526.396 663.547C520.746 653.105 510.955 646.503 504.469 642.157C492.682 634.255 479.328 632 465.719 636.33C454.432 639.922 444.461 648.557 437.976 658.383C430.489 669.728 424.987 688.832 430.544 702.149C436.718 716.945 459.896 728.903 474.078 734.12C494.088 741.48 511.407 729.768 520.915 711.333C526.239 701.011 530.126 694.995 530.197 683.7C530.224 679.381 530.766 670.119 526.396 663.547Z" fill="#FCDD3A" stroke="black" stroke-width="4"/>
<path id="Path 7437" d="M485.641 673.566C487.249 667.16 485.318 659.431 479.032 656.199C473.646 653.428 468.311 654.609 464.291 657.626C456.319 663.613 455.954 676.349 457.482 685.185C458.989 693.904 462.798 701.767 465.467 710.105C473.676 709.668 491.702 706.083 496.361 704.365C504.943 701.198 508.641 694.752 510.322 691.059C511.527 688.411 514.588 680.471 509.443 675.44C497.5 663.762 486.271 672.103 485.641 673.566Z" fill="#E7A234" stroke="black" stroke-width="4"/>
<g id="Group 5734" style="mix-blend-mode:overlay" opacity="0.429993">
<g id="Group 5733">
<g id="Group 5732">
<mask id="mask20_1_2" style="mask-type:alpha" maskUnits="userSpaceOnUse" x="451" y="627" width="42" height="34">
<path id="Rectangle 1364" d="M458.492 630.065L489.652 637.258L484.946 657.642L453.787 650.448L458.492 630.065Z" fill="black" stroke="black" stroke-width="4"/>
</mask>
<g mask="url(#mask20_1_2)">
<path id="Path 7438" d="M487.055 636.718C487.933 638.075 488.278 639.818 488.707 641.354C482.134 642.043 475.888 641.851 469.578 644.23C467.393 645.055 465.741 646.08 463.904 647.501C462.458 648.619 460.193 650.072 459.368 651.736C457.59 650.742 456.225 648.789 454.429 647.672C457.172 644.313 461.622 642.224 465.227 639.965C468.357 638 471.02 636.997 474.579 636.297C477.114 635.8 483.345 635.453 487.055 636.718Z" fill="#FFD98D" stroke="black" stroke-width="4"/>
</g>
</g>
</g>
</g>
<g id="Group 5737" style="mix-blend-mode:overlay" opacity="0.429993">
<g id="Group 5736">
<g id="Group 5735">
<mask id="mask21_1_2" style="mask-type:alpha" maskUnits="userSpaceOnUse" x="486" y="639" width="15" height="12">
<path id="Rectangle 1365" d="M490.104 641.706L497.875 643.5L496.776 648.261L489.004 646.466L490.104 641.706Z" fill="black" stroke="black" stroke-width="4"/>
</mask>
<g mask="url(#mask21_1_2)">
<path id="Path 7439" d="M490.004 642.135C490.718 643.296 491.039 645.361 491.25 646.636C492.872 646.293 495.305 647.702 496.775 648.262C496.92 646.73 496.384 644.663 495.189 643.676C494.005 642.698 491.296 641.582 490.004 642.135Z" fill="#FFD98D" stroke="black" stroke-width="4"/>
</g>
</g>
</g>
</g>
<g id="Group 5740" style="mix-blend-mode:overlay" opacity="0.429993">
<g id="Group 5739">
<g id="Group 5738">
<mask id="mask22_1_2" style="mask-type:alpha" maskUnits="userSpaceOnUse" x="459" y="713" width="41" height="21">
<path id="Rectangle 1366" d="M463.894 715.416L496.69 722.988L494.905 730.719L462.109 723.147L463.894 715.416Z" fill="black" stroke="black" stroke-width="4"/>
</mask>
<g mask="url(#mask22_1_2)">
<path id="Path 7440" d="M494.064 722.382C491.916 724 487.855 724.09 485.336 723.879C480.802 723.5 475.458 721.849 471.406 719.835C469.124 718.701 467.133 717.565 465.001 716.17C464.603 716.714 463.124 718.294 463.086 718.947C463.034 719.823 463.538 719.911 464.402 720.513C467.65 722.77 471.27 724.088 474.926 725.562C478.964 727.189 483.769 728.525 488.151 728.097C490.298 727.887 492.923 727.513 494.904 726.623C497.342 725.53 495.576 724.461 494.064 722.382Z" fill="#FFD98D" stroke="black" stroke-width="4"/>
</g>
</g>
</g>
</g>
<path id="Path 7441" d="M433.757 531.861C424.173 527.067 413.514 527.255 406.468 527.4C393.661 527.662 382.619 532.911 374.801 543.16C368.315 551.661 365.415 563.208 365.709 573.832C366.048 586.097 371.873 603.072 382.878 610.039C395.107 617.781 418.435 614.62 431.622 611.133C450.228 606.212 456.969 588.583 454.451 570.03C453.043 559.641 452.801 553.181 447.004 544.794C444.785 541.585 440.391 534.456 433.757 531.861Z" fill="#E7A234" stroke="black" stroke-width="4"/>
<path id="Path 7442" d="M431.719 531.188C422.339 526.497 411.908 526.68 405.013 526.822C392.48 527.079 381.673 532.214 374.022 542.245C367.674 550.566 364.836 561.866 365.124 572.263C365.456 584.268 371.157 600.879 381.926 607.698C393.893 615.275 416.725 612.181 429.63 608.767C447.838 603.953 454.435 586.701 451.973 568.543C450.592 558.375 450.355 552.052 444.683 543.844C442.513 540.703 438.212 533.727 431.719 531.188Z" fill="#FCDD3A" stroke="black" stroke-width="4"/>
<path id="Path 7444" d="M407.307 559.093C405.223 553.643 399.91 549.029 393.722 549.876C388.421 550.601 385.16 554.16 383.781 558.38C381.045 566.752 387.236 576.153 392.819 581.773C398.33 587.317 405.072 591.076 411.228 595.756C416.946 591.279 428.171 579.551 430.673 575.945C435.277 569.304 434.686 562.767 434.031 559.241C433.561 556.715 431.753 549.419 425.479 548.386C410.919 545.988 407.022 557.715 407.307 559.093Z" fill="#E7A234" stroke="black" stroke-width="4"/>
<g id="Group 5743" style="mix-blend-mode:overlay" opacity="0.429993">
<g id="Group 5742">
<g id="Group 5741">
<mask id="mask23_1_2" style="mask-type:alpha" maskUnits="userSpaceOnUse" x="373" y="525" width="28" height="36">
<path id="Rectangle 1367" d="M381.827 527.626L397.672 531.284L391.396 558.465L375.552 554.807L381.827 527.626Z" fill="black" stroke="black" stroke-width="4"/>
</mask>
<g mask="url(#mask23_1_2)">
<path id="Path 7445" d="M393.754 530.38C395.078 530.917 396.21 532.003 397.299 532.897C392.893 536.727 388.276 539.752 384.917 544.673C383.754 546.377 383.077 547.954 382.468 549.915C381.987 551.456 381.084 553.656 381.333 555.279C379.541 555.459 377.564 554.74 375.699 554.841C375.982 551.02 378.144 547.253 379.604 543.792C380.876 540.785 382.294 538.71 384.513 536.399C386.095 534.753 390.428 531.345 393.754 530.38Z" fill="#FFD98D" stroke="black" stroke-width="4"/>
</g>
</g>
</g>
</g>
<g id="Group 5746" style="mix-blend-mode:overlay" opacity="0.429993">
<g id="Group 5745">
<g id="Group 5744">
<mask id="mask24_1_2" style="mask-type:alpha" maskUnits="userSpaceOnUse" x="391" y="529" width="15" height="12">
<path id="Rectangle 1368" d="M395.103 531.681L402.921 533.486L401.94 537.737L394.122 535.932L395.103 531.681Z" fill="black" stroke="black" stroke-width="4"/>
</mask>
<g mask="url(#mask24_1_2)">
<path id="Path 7446" d="M394.536 534.138C395.64 534.617 396.919 535.947 397.718 536.762C398.717 535.693 401.192 535.48 402.539 535.14C401.867 533.958 400.433 532.735 399.068 532.626C397.717 532.518 395.189 533.083 394.536 534.138Z" fill="#FFD98D" stroke="black" stroke-width="4"/>
</g>
</g>
</g>
</g>
<g id="Group 5749" style="mix-blend-mode:overlay" opacity="0.429993">
<g id="Group 5748">
<g id="Group 5747">
<mask id="mask25_1_2" style="mask-type:alpha" maskUnits="userSpaceOnUse" x="410" y="582" width="34" height="30">
<path id="Rectangle 1369" d="M417.43 585.365L441.501 590.922L437.31 609.075L413.239 603.518L417.43 585.365Z" fill="black" stroke="black" stroke-width="4"/>
</mask>
<g mask="url(#mask25_1_2)">
<path id="Path 7447" d="M438.142 590.146C437.407 592.407 434.514 594.529 432.585 595.654C429.113 597.677 424.409 599.191 420.457 599.786C418.231 600.123 416.213 600.309 413.963 600.382C413.953 600.977 413.683 602.869 413.987 603.361C414.394 604.02 414.801 603.831 415.732 603.827C419.227 603.816 422.514 602.933 425.906 602.146C429.651 601.278 433.804 599.808 436.76 597.279C438.208 596.038 439.917 594.439 440.901 592.791C442.109 590.763 440.289 590.883 438.142 590.146Z" fill="#FFD98D" stroke="black" stroke-width="4"/>
</g>
</g>
</g>
</g>
<path id="Path 7448" d="M474.464 777.682C465.165 775.116 455.784 777.135 449.586 778.489C438.32 780.949 429.481 787.504 424.359 797.916C420.109 806.552 419.556 817.255 421.664 826.587C424.097 837.362 432.193 851.341 443.126 855.58C455.273 860.292 475.326 853.44 486.368 848.067C501.945 840.485 504.831 823.742 499.381 807.794C496.33 798.863 494.993 793.2 488.414 786.799C485.896 784.352 480.775 778.821 474.464 777.682Z" fill="#E7A234" stroke="black" stroke-width="4"/>
<path id="Path 7449" d="M472.547 777.441C463.447 774.931 454.267 776.907 448.2 778.232C437.176 780.639 428.525 787.053 423.512 797.245C419.353 805.696 418.812 816.171 420.874 825.304C423.256 835.848 431.18 849.528 441.878 853.677C453.765 858.288 473.391 851.584 484.197 846.325C499.441 838.904 502.266 822.52 496.932 806.91C493.946 798.172 492.638 792.629 486.198 786.365C483.735 783.969 478.724 778.555 472.547 777.441Z" fill="#FCDD3A" stroke="black" stroke-width="4"/>
<path id="Path 7450" d="M471.243 779.955C462.917 777.657 454.516 779.466 448.967 780.677C438.881 782.88 430.966 788.749 426.378 798.072C422.574 805.805 422.078 815.389 423.966 823.744C426.144 833.391 433.394 845.907 443.183 849.703C454.06 853.922 472.015 847.788 481.902 842.977C495.849 836.189 498.433 821.197 493.554 806.917C490.821 798.921 489.624 793.849 483.732 788.119C481.48 785.926 476.893 780.974 471.243 779.955Z" stroke="black" stroke-width="4"/>
<path id="Path 7451" d="M455.841 806.333C453.052 801.883 447.556 798.731 442.24 800.555C437.684 802.117 435.423 805.829 434.939 809.796C433.979 817.666 441.082 824.892 446.991 828.885C452.822 832.823 459.429 834.969 465.681 838.034C469.953 833.083 477.828 820.773 479.408 817.153C482.322 810.487 480.661 804.815 479.469 801.816C478.616 799.667 475.748 793.537 470.027 793.716C456.752 794.13 455.349 805.165 455.841 806.333Z" fill="#E7A234" stroke="black" stroke-width="4"/>
<path id="Path 7452" d="M427.319 816.919C429.225 817.397 431.577 817.804 433.54 817.656" stroke="black" stroke-width="4"/>
<path id="Path 7453" d="M430.411 825.198C432.241 824.494 434.257 823.697 435.975 822.761" stroke="black" stroke-width="4"/>
<path id="Path 7454" d="M433.608 833.548C435.737 831.573 438.34 830.073 440.62 828.329" stroke="black" stroke-width="4"/>
<path id="Path 7455" d="M440.473 838.289C441.104 836.588 442.701 835.238 443.45 833.56C443.72 832.957 443.893 832.401 444.281 831.801" stroke="black" stroke-width="4"/>
<path id="Path 7456" d="M428.902 810.34C429.429 810.82 430.664 811.268 431.398 811.295" stroke="black" stroke-width="4"/>
<path id="Path 7457" d="M480.998 799.938C481.33 799.049 482.192 798.074 482.747 797.277" stroke="black" stroke-width="4"/>
<path id="Path 7458" d="M481.594 804.595C484.292 804.029 486.946 803.14 489.652 802.654" stroke="black" stroke-width="4"/>
<path id="Path 7459" d="M483.147 809.884C485.802 810.317 489.061 809.784 491.727 809.582" stroke="black" stroke-width="4"/>
<path id="Path 7460" d="M481.023 817.402C482.341 818.969 485.43 820.17 487.276 820.973C488.509 821.509 490.25 822.475 491.581 822.667" stroke="black" stroke-width="4"/>
<path id="Path 7461" d="M478.343 823.565C479.577 825.186 481.368 826.362 482.645 827.916" stroke="black" stroke-width="4"/>
<g id="Group 5752" style="mix-blend-mode:overlay" opacity="0.429993">
<g id="Group 5751">
<g id="Group 5750">
<mask id="mask26_1_2" style="mask-type:alpha" maskUnits="userSpaceOnUse" x="423" y="783" width="23" height="35">
<path id="Rectangle 1370" d="M432.367 786.263L442.628 788.632L436.612 814.691L426.351 812.322L432.367 786.263Z" fill="black" stroke="black" stroke-width="4"/>
</mask>
<g mask="url(#mask26_1_2)">
<path id="Path 7462" d="M438.886 787.772C440.149 788.016 441.337 788.779 442.456 789.38C439.23 793.528 435.677 797.004 433.567 801.933C432.836 803.642 432.513 805.151 432.315 806.99C432.16 808.434 431.745 810.534 432.245 811.924C430.696 812.395 428.824 812.103 427.193 812.517C426.778 809.092 428.033 805.391 428.722 802.08C429.321 799.201 430.213 797.122 431.771 794.696C432.881 792.967 436.116 789.203 438.886 787.772Z" fill="#FFD98D" stroke="black" stroke-width="4"/>
</g>
</g>
</g>
</g>
<g id="Group 5755" style="mix-blend-mode:overlay" opacity="0.429993">
<g id="Group 5754">
<g id="Group 5753">
<mask id="mask27_1_2" style="mask-type:alpha" maskUnits="userSpaceOnUse" x="437" y="781" width="14" height="11">
<path id="Rectangle 1371" d="M440.909 783.53L447.675 785.092L446.765 789.036L439.999 787.474L440.909 783.53Z" fill="black" stroke="black" stroke-width="4"/>
</mask>
<g mask="url(#mask27_1_2)">
<path id="Path 7463" d="M440.22 786.516C441.279 786.746 442.64 787.7 443.487 788.279C444.184 787.163 446.333 786.543 447.464 786.008C446.665 785.081 445.184 784.25 443.96 784.392C442.748 784.532 440.614 785.471 440.22 786.516Z" fill="#FFD98D" stroke="black" stroke-width="4"/>
</g>
</g>
</g>
</g>
<g id="Group 5758" style="mix-blend-mode:overlay" opacity="0.429993">
<g id="Group 5757">
<g id="Group 5756">
<mask id="mask28_1_2" style="mask-type:alpha" maskUnits="userSpaceOnUse" x="465" y="822" width="30" height="29">
<path id="Rectangle 1372" d="M472.86 824.495L491.723 828.85L487.175 848.552L468.311 844.197L472.86 824.495Z" fill="black" stroke="black" stroke-width="4"/>
</mask>
<g mask="url(#mask28_1_2)">
<path id="Path 7464" d="M488.475 828.396C488.22 830.519 486.034 832.897 484.526 834.227C481.811 836.618 477.918 838.773 474.533 839.988C472.626 840.67 470.876 841.187 468.902 841.641C468.995 842.17 469.087 843.886 469.44 844.269C469.914 844.781 470.241 844.542 471.062 844.377C474.148 843.759 476.897 842.408 479.756 841.124C482.913 839.704 486.325 837.685 488.495 834.936C489.558 833.589 490.791 831.878 491.372 830.251C492.086 828.25 490.501 828.673 488.475 828.396Z" fill="#FFD98D" stroke="black" stroke-width="4"/>
</g>
</g>
</g>
</g>
<path id="Path 7465" d="M311.691 549.865C316.745 551.032 321.835 552.112 326.843 553.433C325.595 563.295 321.219 573.364 318.463 582.992C312.477 603.912 307.209 625.03 301.222 645.919C297.547 645.284 293.586 644.409 290.067 643.272C288.8 627.958 297.104 608.876 299.691 593.759C302.1 579.687 306.168 565.729 311.691 549.865Z" fill="white" stroke="black" stroke-width="4"/>
<g id="Path 7466">
<path d="M288.326 651.07C291.427 651.786 294.593 652.451 297.632 653.312C297.515 657.074 296.604 660.694 295.808 664.477C291.886 663.829 287.889 662.836 284.052 661.794C284.677 658.474 285.524 655.149 286.288 651.838" fill="white"/>
<path d="M288.326 651.07C291.427 651.786 294.593 652.451 297.632 653.312C297.515 657.074 296.604 660.694 295.808 664.477C291.886 663.829 287.889 662.836 284.052 661.794C284.677 658.474 285.524 655.149 286.288 651.838" stroke="black" stroke-width="4"/>
</g>
<path id="Path 7467" d="M417.028 421.102C455.462 429.949 494.969 434.164 532.957 444.846C533.003 445.921 532.557 447.757 531.992 448.665C510.602 446.466 489.873 440.526 468.59 436.691C450.944 433.513 431.893 431.578 414.596 426.691C414.806 425.287 414.92 423.306 417.028 421.102Z" fill="#CE665B" stroke="black" stroke-width="4"/>
</g>
</g>
</g>
<g id="Group 5771">
<g id="Group 5770">
<mask id="mask29_1_2" style="mask-type:alpha" maskUnits="userSpaceOnUse" x="412" y="343" width="130" height="108">
<path id="Path 7475" d="M471.826 345.57C462.354 343.637 448.968 346.878 441.74 353.17C432.278 361.408 429.165 375.895 426.472 387.585C424.558 395.889 424.407 402.85 426.219 411.41C427.074 415.46 428.555 420.454 431.046 424.132C426.363 423.176 421.686 422.175 417.029 421.102C414.919 423.308 414.808 425.287 414.598 426.691C431.892 431.577 450.944 433.513 468.59 436.693C489.873 440.528 510.604 446.466 531.994 448.666C532.557 447.757 533.005 445.921 532.958 444.848C528.186 443.505 523.388 442.265 518.571 441.104C518.874 440.74 519.198 440.331 519.555 439.86C523.439 434.759 527.044 429.358 530.509 423.949C533.261 419.652 536.786 415.193 538.139 410.249L539.962 387.392C537.68 376.63 526.606 367.552 517.82 361.68C507.174 354.56 494.345 350.613 481.712 347.697C478.389 346.929 475.079 346.233 471.826 345.57Z" fill="black" stroke="black" stroke-width="4"/>
</mask>
<g mask="url(#mask29_1_2)">
<path id="Path 7468" d="M503.356 365.016C492.797 359.737 481.059 359.944 473.294 360.104C459.191 360.394 447.026 366.173 438.417 377.462C431.271 386.827 428.078 399.545 428.4 411.246C428.775 424.757 435.19 443.454 447.314 451.13C460.781 459.656 486.479 456.175 501.005 452.333C521.498 446.913 528.92 427.495 526.148 407.058C524.597 395.616 524.33 388.5 517.947 379.261C515.502 375.727 510.661 367.874 503.356 365.016Z" fill="#E7A234" stroke="black" stroke-width="4"/>
<path id="Path 7469" d="M501.111 364.276C490.779 359.109 479.289 359.311 471.695 359.468C457.889 359.751 445.986 365.407 437.559 376.456C430.568 385.621 427.441 398.067 427.758 409.519C428.125 422.741 434.402 441.039 446.267 448.55C459.448 456.896 484.594 453.488 498.811 449.729C518.867 444.424 526.133 425.422 523.42 405.421C521.901 394.222 521.639 387.259 515.391 378.216C513 374.757 508.263 367.074 501.111 364.276Z" fill="#FCDD3A" stroke="black" stroke-width="4"/>
<path id="Path 7471" d="M474.222 395.011C471.928 389.008 466.074 383.927 459.258 384.858C453.419 385.657 449.827 389.578 448.308 394.227C445.296 403.447 452.114 413.804 458.264 419.992C464.333 426.1 471.76 430.239 478.541 435.397C484.838 430.463 497.204 417.545 499.959 413.574C505.032 406.259 504.38 399.059 503.657 395.175C503.14 392.392 501.148 384.355 494.238 383.218C478.199 380.577 473.907 393.492 474.222 395.011Z" fill="#E7A234" stroke="black" stroke-width="4"/>
<g id="Group 5763" style="mix-blend-mode:overlay" opacity="0.429993">
<g id="Group 5762">
<g id="Group 5761">
<mask id="mask30_1_2" style="mask-type:alpha" maskUnits="userSpaceOnUse" x="435" y="359" width="30" height="40">
<path id="Rectangle 1374" d="M445.119 361.685L462.57 365.714L455.658 395.654L438.207 391.625L445.119 361.685Z" fill="black" stroke="black" stroke-width="4"/>
</mask>
<g mask="url(#mask30_1_2)">
<path id="Path 7472" d="M458.255 364.718C459.712 365.309 460.961 366.506 462.16 367.49C457.306 371.708 452.221 375.041 448.521 380.462C447.238 382.339 446.495 384.077 445.824 386.235C445.294 387.934 444.299 390.357 444.572 392.144C442.6 392.343 440.421 391.549 438.367 391.662C438.678 387.452 441.06 383.304 442.67 379.49C444.069 376.177 445.631 373.893 448.077 371.347C449.819 369.535 454.592 365.78 458.255 364.718Z" fill="#FFD98D" stroke="black" stroke-width="4"/>
</g>
</g>
</g>
</g>
<g id="Group 5766" style="mix-blend-mode:overlay" opacity="0.429993">
<g id="Group 5765">
<g id="Group 5764">
<mask id="mask31_1_2" style="mask-type:alpha" maskUnits="userSpaceOnUse" x="457" y="362" width="15" height="12">
<path id="Rectangle 1375" d="M460.778 364.817L469.391 366.805L468.309 371.489L459.697 369.501L460.778 364.817Z" fill="black" stroke="black" stroke-width="4"/>
</mask>
<g mask="url(#mask31_1_2)">
<path id="Path 7473" d="M460.153 367.525C461.371 368.053 462.779 369.518 463.658 370.415C464.759 369.239 467.486 369.003 468.97 368.629C468.23 367.328 466.648 365.979 465.146 365.86C463.657 365.741 460.874 366.363 460.153 367.525Z" fill="#FFD98D" stroke="black" stroke-width="4"/>
</g>
</g>
</g>
</g>
<g id="Group 5769" style="mix-blend-mode:overlay" opacity="0.429993">
<g id="Group 5768">
<g id="Group 5767">
<mask id="mask32_1_2" style="mask-type:alpha" maskUnits="userSpaceOnUse" x="478" y="421" width="37" height="32">
<path id="Rectangle 1376" d="M485.373 423.949L511.886 430.07L507.269 450.068L480.756 443.947L485.373 423.949Z" fill="black" stroke="black" stroke-width="4"/>
</mask>
<g mask="url(#mask32_1_2)">
<path id="Path 7474" d="M508.186 429.216C507.378 431.705 504.191 434.043 502.067 435.282C498.242 437.511 493.059 439.177 488.706 439.834C486.255 440.203 484.032 440.411 481.555 440.489C481.541 441.146 481.246 443.229 481.58 443.771C482.026 444.497 482.477 444.289 483.502 444.285C487.352 444.271 490.972 443.3 494.708 442.433C498.835 441.476 503.409 439.859 506.663 437.071C508.257 435.706 510.142 433.943 511.225 432.127C512.556 429.896 510.551 430.028 508.186 429.216Z" fill="#FFD98D" stroke="black" stroke-width="4"/>
</g>
</g>
</g>
</g>
</g>
</g>
</g>
<g id="Group 5773">
<g id="Group 5772">
<mask id="mask33_1_2" style="mask-type:alpha" maskUnits="userSpaceOnUse" x="-3" y="-3" width="1028" height="1012">
<path id="Rectangle 1377" d="M187.939 0L1021.65 192.477L833.709 1006.53L1.53781e-05 814.053L187.939 0Z" fill="black" stroke="black" stroke-width="4"/>
</mask>
<g mask="url(#mask33_1_2)">
<path id="Path 7476" d="M193.125 555.384C175.731 628.998 183.904 707.805 203.598 780.261C210.074 804.088 220.657 819.484 235.493 837.023" stroke="white" stroke-width="4"/>
<path id="Path 7477" d="M185.937 636.981C189.928 626.724 197.974 609.2 208.965 604.413C217.254 600.801 222.003 605.607 220.721 613.408C218.372 627.663 195.209 638.93 182.542 640.406C180.789 634.783 165.389 592.941 152.915 606.858C142.73 618.221 176.629 635.597 185.937 636.981Z" stroke="white" stroke-width="4"/>
<path id="Path 7478" d="M187.424 599.02C189.869 592.736 194.8 581.998 201.535 579.064C206.613 576.851 209.526 579.795 208.738 584.576C207.3 593.312 193.105 600.216 185.342 601.12C184.27 597.673 174.833 572.034 167.188 580.562C160.947 587.525 181.719 598.172 187.424 599.02Z" stroke="white" stroke-width="4"/>
<path id="Path 7479" d="M193.29 711.975C195.952 700.574 201.797 680.907 212.653 674.214C220.842 669.163 226.568 673.513 226.385 681.923C226.054 697.29 203.348 712.638 190.227 716.093C187.538 710.434 165.033 668.674 153.983 685.205C144.961 698.704 183.277 711.915 193.29 711.975Z" stroke="white" stroke-width="4"/>
<path id="Path 7480" d="M198.653 748.714C200.638 740.211 204.997 725.545 213.093 720.555C219.2 716.788 223.469 720.031 223.334 726.303C223.087 737.764 206.155 749.207 196.369 751.786C194.364 747.564 177.582 716.424 169.342 728.751C162.614 738.818 191.186 748.668 198.653 748.714Z" stroke="white" stroke-width="4"/>
<path id="Path 7481" d="M208.251 785.998C210.236 777.496 214.594 762.83 222.691 757.839C228.797 754.072 233.067 757.315 232.931 763.587C232.684 775.048 215.752 786.491 205.966 789.07C203.961 784.848 187.179 753.708 178.94 766.035C172.211 776.103 200.784 785.953 208.251 785.998Z" stroke="white" stroke-width="4"/>
<path id="Path 7482" d="M184.966 670.204C187.938 665.695 215.869 620.591 223.629 645.047C228.766 661.23 191.527 672.454 180.449 670.762C178.359 659.552 141.017 640.713 143.929 659.849C145.645 671.12 173.419 675.067 184.966 670.204Z" stroke="white" stroke-width="4"/>
<path id="Path 7483" d="M95.1394 686.034C109.12 742.207 142.311 792.945 181.113 835.325C193.871 849.261 206.47 856.022 222.71 862.751" stroke="white" stroke-width="4"/>
<path id="Path 7484" d="M118.862 744.057C117.98 735.681 117.309 720.94 123.105 713.83C127.477 708.467 132.394 710.07 134.256 715.827C137.658 726.346 125.852 742.132 117.753 747.578C114.59 744.367 89.4428 721.306 85.8377 735.146C82.894 746.448 112.045 746.38 118.862 744.057Z" stroke="white" stroke-width="4"/>
<path id="Path 7485" d="M106.562 717.714C106.021 712.582 105.61 703.548 109.162 699.192C111.842 695.905 114.853 696.889 115.995 700.415C118.08 706.863 110.845 716.534 105.882 719.872C103.945 717.904 88.5349 703.774 86.3252 712.254C84.5206 719.179 102.384 719.138 106.562 717.714Z" stroke="white" stroke-width="4"/>
<path id="Path 7486" d="M150.158 792.49C147.971 783.802 145.052 768.375 150.088 760.014C153.889 753.71 159.308 754.659 162.134 760.444C167.296 771.014 157.232 789.414 149.519 796.366C145.705 793.458 115.755 772.945 114.036 788.064C112.631 800.409 143.326 795.961 150.158 792.49Z" stroke="white" stroke-width="4"/>
<path id="Path 7487" d="M166.688 815.6C165.057 809.121 162.879 797.616 166.636 791.381C169.47 786.679 173.51 787.389 175.617 791.703C179.468 799.584 171.964 813.305 166.212 818.49C163.367 816.322 141.032 801.025 139.751 812.298C138.705 821.505 161.593 818.188 166.688 815.6Z" stroke="white" stroke-width="4"/>
<path id="Path 7488" d="M186.289 837.595C184.658 831.116 182.48 819.612 186.237 813.376C189.071 808.674 193.111 809.384 195.22 813.698C199.069 821.579 191.565 835.3 185.813 840.485C182.968 838.317 160.633 823.02 159.352 834.293C158.306 843.5 181.194 840.183 186.289 837.595Z" stroke="black" stroke-width="4"/>
<path id="Path 7489" d="M129.85 766.996C130.292 762.886 133.474 722.413 147.329 736.326C156.495 745.534 135.102 766.225 126.972 768.96C121.621 762.067 89.6164 762.347 98.3063 774.341C103.425 781.405 123.7 774.351 129.85 766.996Z" stroke="white" stroke-width="4"/>
<path id="Path 7490" d="M783.617 457.123C784.653 453.487 787.821 450.208 791.862 450.404C795.325 450.573 797.632 452.684 798.761 455.331C801 460.579 797.537 466.997 794.251 470.94C791.01 474.831 786.871 477.638 783.162 481.01C779.218 478.443 771.309 471.509 769.489 469.324C766.142 465.298 766.153 461.045 766.376 458.733C766.536 457.077 767.29 452.264 771.282 451.242C780.542 448.87 783.723 456.218 783.617 457.123Z" fill="#E15828" stroke="black" stroke-width="4"/>
<path id="Path 7491" d="M783.617 457.123C784.653 453.487 787.821 450.208 791.862 450.404C795.325 450.573 797.632 452.684 798.761 455.331C801 460.579 797.537 466.997 794.251 470.94C791.01 474.831 786.871 477.638 783.162 481.01C779.218 478.443 771.309 471.509 769.489 469.324C766.142 465.298 766.153 461.045 766.376 458.733C766.536 457.077 767.29 452.264 771.282 451.242C780.542 448.87 783.723 456.218 783.617 457.123Z" stroke="black" stroke-width="4"/>
<path id="Path 7492" d="M646.138 550.136C650.369 545.955 657.248 543.915 662.631 547.31C667.247 550.218 668.773 554.897 668.273 559.395C667.281 568.319 657.571 574.435 650.02 577.296C642.567 580.12 634.725 580.763 627.035 582.513C623.616 575.945 618.143 560.325 617.343 555.924C615.869 547.817 619.174 542 621.27 539.004C622.772 536.858 627.527 530.848 633.786 532.535C648.311 536.449 646.984 548.977 646.138 550.136Z" fill="#E15828" stroke="black" stroke-width="4"/>
<path id="Path 7493" d="M646.138 550.136C650.369 545.955 657.248 543.915 662.631 547.31C667.247 550.218 668.773 554.897 668.273 559.395C667.281 568.319 657.571 574.435 650.02 577.296C642.567 580.12 634.725 580.763 627.035 582.513C623.616 575.945 618.143 560.325 617.343 555.924C615.869 547.817 619.174 542 621.27 539.004C622.772 536.858 627.527 530.848 633.786 532.535C648.311 536.449 646.984 548.977 646.138 550.136Z" stroke="black" stroke-width="4"/>
<path id="Path 7494" d="M87.6798 630.024C83.9562 620.284 74.4578 612.038 63.3993 613.551C53.9275 614.848 48.0969 621.209 45.6335 628.75C40.7457 643.711 51.8091 660.513 61.7876 670.557C71.6354 680.467 83.6834 687.184 94.6869 695.551C104.906 687.546 124.97 666.586 129.44 660.142C137.67 648.274 136.612 636.589 135.442 630.29C134.602 625.774 131.368 612.734 120.156 610.886C94.1346 606.603 87.1695 627.56 87.6798 630.024Z" fill="#F4A69D" stroke="black" stroke-width="4"/>
<path id="Path 7495" d="M87.6798 630.024C83.9562 620.284 74.4578 612.038 63.3993 613.551C53.9275 614.848 48.0969 621.209 45.6335 628.75C40.7457 643.711 51.8091 660.513 61.7876 670.557C71.6354 680.467 83.6834 687.184 94.6869 695.551C104.906 687.546 124.97 666.586 129.44 660.142C137.67 648.274 136.612 636.589 135.442 630.29C134.602 625.774 131.368 612.734 120.156 610.886C94.1346 606.603 87.1695 627.56 87.6798 630.024Z" stroke="black" stroke-width="4"/>
<path id="Path 7496" d="M130.003 528.621C130.82 525.3 129.803 521.304 126.54 519.647C123.745 518.226 120.988 518.85 118.915 520.421C114.802 523.54 114.644 530.133 115.455 534.703C116.257 539.213 118.248 543.272 119.648 547.582C123.896 547.335 133.218 545.438 135.627 544.536C140.061 542.878 141.958 539.531 142.821 537.616C143.438 536.242 145.004 532.126 142.327 529.534C136.119 523.516 130.326 527.861 130.003 528.621Z" fill="#E15828" stroke="black" stroke-width="4"/>
<path id="Path 7497" d="M130.003 528.621C130.82 525.3 129.803 521.304 126.54 519.647C123.745 518.226 120.988 518.85 118.915 520.421C114.802 523.54 114.644 530.133 115.455 534.703C116.257 539.213 118.248 543.272 119.648 547.582C123.896 547.335 133.218 545.438 135.627 544.536C140.061 542.878 141.958 539.531 142.821 537.616C143.438 536.242 145.004 532.126 142.327 529.534C136.119 523.516 130.326 527.861 130.003 528.621Z" stroke="black" stroke-width="4"/>
<path id="Path 7498" d="M251.604 416.648C247.357 409.082 238.539 403.447 229.618 406.034C221.978 408.25 217.952 414.193 216.837 420.7C214.629 433.609 225.775 446.099 235.208 453.155C244.517 460.119 255.249 464.185 265.322 469.74C272.764 461.911 286.737 442.222 289.633 436.374C294.97 425.607 292.681 416.117 290.954 411.074C289.716 407.457 285.471 397.115 276.018 396.956C254.076 396.586 250.886 414.681 251.604 416.648Z" fill="#F4A69D" stroke="black" stroke-width="4"/>
<path id="Path 7499" d="M251.604 416.648C247.357 409.082 238.539 403.447 229.618 406.034C221.978 408.25 217.952 414.193 216.837 420.7C214.629 433.609 225.775 446.099 235.208 453.155C244.517 460.119 255.249 464.185 265.322 469.74C272.764 461.911 286.737 442.222 289.633 436.374C294.97 425.607 292.681 416.117 290.954 411.074C289.716 407.457 285.471 397.115 276.018 396.956C254.076 396.586 250.886 414.681 251.604 416.648Z" stroke="black" stroke-width="4"/>
<path id="Path 7500" d="M208.103 519.125C209.057 512.086 206.073 504.056 198.968 501.349C192.882 499.031 187.319 500.93 183.383 504.633C175.575 511.981 176.703 525.638 179.39 534.901C182.041 544.041 187.049 551.989 190.893 560.586C199.617 559.137 218.456 553.159 223.231 550.765C232.027 546.359 235.21 539.03 236.569 534.88C237.54 531.906 239.867 523.056 233.767 518.291C219.609 507.232 208.603 517.485 208.103 519.125Z" stroke="black" stroke-width="4"/>
<path id="Path 7501" d="M208.103 519.125C209.057 512.086 206.073 504.056 198.968 501.349C192.882 499.031 187.319 500.93 183.383 504.633C175.575 511.981 176.703 525.638 179.39 534.901C182.041 544.041 187.049 551.989 190.893 560.586C199.617 559.137 218.456 553.159 223.231 550.765C232.027 546.359 235.21 539.03 236.569 534.88C237.54 531.906 239.867 523.056 233.767 518.291C219.609 507.232 208.603 517.485 208.103 519.125Z" fill="#E15828" stroke="black" stroke-width="4"/>
</g>
</g>
</g>
</g>
</g>
</g>
</g>
</g>
</g>
<defs>
</defs>
</svg>
