<svg width="43" height="28" viewBox="0 0 43 28" fill="none" xmlns="http://www.w3.org/2000/svg">
<g id="04_Support">
<g id="check">
<path id="rect915" d="M3.44028 4.58703C1.5542 4.58703 0 6.14123 0 8.02731V24.0819C0 25.968 1.5542 27.5222 3.44028 27.5222H39.3721C41.2582 27.5222 42.8124 25.968 42.8124 24.0819V13.3789C42.8125 12.7455 42.299 12.232 41.6656 12.232C41.0322 12.232 40.5187 12.7455 40.5187 13.3789L40.5189 24.0819C40.5189 24.7371 40.0272 25.2287 39.3721 25.2287H3.44028C2.78514 25.2287 2.29352 24.7371 2.29352 24.0819V8.02731C2.29352 7.37217 2.78514 6.88055 3.44028 6.88055H30.198C30.8314 6.88066 31.3449 6.36719 31.3449 5.73379C31.3449 5.10039 30.8314 4.58691 30.198 4.58691L3.44028 4.58703Z" fill="black"/>
<path id="path838" d="M6.51473 10.703C5.88133 10.7029 5.36786 11.2164 5.36786 11.8498C5.36786 12.4832 5.88133 12.9966 6.51473 12.9966L24.0984 12.9965C24.7318 12.9966 25.2453 12.4832 25.2453 11.8498C25.2453 11.2164 24.7318 10.7029 24.0984 10.7029L6.51473 10.703Z" fill="black"/>
<path id="path840" d="M6.51473 15.2901C5.88133 15.29 5.36786 15.8035 5.36786 16.4369C5.36786 17.0703 5.88133 17.5838 6.51473 17.5838L19.5113 17.5837C20.1447 17.5838 20.6582 17.0703 20.6582 16.4369C20.6582 15.8035 20.1447 15.29 19.5113 15.29L6.51473 15.2901Z" fill="black"/>
<path id="path833" d="M40.4354 0.455759C38.802 -0.487273 36.6789 0.0816078 35.7359 1.71499L30.3843 10.9841C30.0675 11.5326 30.2554 12.234 30.804 12.5507C31.3525 12.8674 32.054 12.6795 32.3707 12.131L37.7221 2.86175C38.0497 2.29437 38.7213 2.11446 39.2886 2.44201L39.9507 2.82426C40.518 3.15181 40.698 3.82338 40.3704 4.39076L32.1766 18.5829L29.9789 19.3313L29.5283 17.0538L30.4593 15.4413C30.7761 14.8928 30.5881 14.1914 30.0396 13.8747C29.4911 13.558 28.7896 13.746 28.4729 14.2945L27.3263 16.2808C27.1878 16.5212 27.1412 16.8036 27.1949 17.0757L27.9825 21.0632C28.0466 21.3876 28.2477 21.6685 28.5341 21.8338C28.8205 21.9992 29.1643 22.0329 29.4773 21.9262L33.3244 20.6145C33.5869 20.525 33.8082 20.3434 33.9471 20.1033L42.3567 5.53752C43.2997 3.90414 42.7308 1.78105 41.0974 0.838014L40.4354 0.455759Z" fill="black"/>
</g>
</g>
</svg>
