<svg width="38" height="38" viewBox="0 0 38 38" fill="none" xmlns="http://www.w3.org/2000/svg">
<g id="05_Contact">
<g id="g831">
<g id="g833">
<g id="g835">
<mask id="mask0_1_2" style="mask-type:alpha" maskUnits="userSpaceOnUse" x="0" y="0" width="38" height="38">
<path id="path837" d="M0 0H37.3234V37.3234H0V0Z" fill="black"/>
</mask>
<g mask="url(#mask0_1_2)">
<g id="g841">
<path id="path843" d="M9.32522 20.1133L16.3275 29.449C16.8594 30.1581 17.7069 30.6169 18.6616 30.6169C19.6163 30.6169 20.4638 30.1581 20.9957 29.449L27.998 20.1133C29.4594 18.1651 30.3252 15.7444 30.3252 13.1216C30.3252 6.67999 25.1032 1.45801 18.6616 1.45801C12.22 1.45801 6.99805 6.67999 6.99805 13.1216C6.99805 15.7444 7.86392 18.1651 9.32522 20.1133Z" stroke="black" stroke-width="2.5" stroke-linecap="round" stroke-linejoin="round"/>
</g>
<g id="g845">
<path id="path847" d="M21.5776 13.1215C21.5776 14.7318 20.2721 16.0373 18.6617 16.0373C17.0514 16.0373 15.7458 14.7318 15.7458 13.1215C15.7458 11.5111 17.0514 10.2056 18.6617 10.2056C20.2721 10.2056 21.5776 11.5111 21.5776 13.1215Z" stroke="black" stroke-width="2.5" stroke-linecap="round" stroke-linejoin="round"/>
</g>
<g id="g849">
<path id="path851" d="M12.8298 35.8655H24.4934" stroke="black" stroke-width="2.5" stroke-linecap="round" stroke-linejoin="round"/>
</g>
</g>
</g>
</g>
</g>
</g>
</svg>
