<svg width="28" height="28" viewBox="0 0 28 28" fill="none" xmlns="http://www.w3.org/2000/svg">
<g id="05_Contact">
<path id="arroba" d="M27.7892 12.0629C26.7414 4.42532 19.7004 -0.916656 12.0629 0.131236C4.42532 1.17913 -0.916657 8.22007 0.131237 15.8576C0.983172 22.0956 5.87887 27.0064 12.1142 27.8775C12.7351 27.9588 13.3606 27.9997 13.9868 27.9999C16.5168 28.0041 18.9994 27.3137 21.164 26.004C21.8029 25.6191 22.0089 24.7892 21.624 24.1502C21.2392 23.5113 20.4092 23.3053 19.7703 23.6902C15.5377 26.2307 10.1435 25.7162 6.46746 22.4214C2.79143 19.1265 1.69185 13.8206 3.75575 9.33617C5.81964 4.85179 10.5651 2.23599 15.4588 2.88524C18.8094 3.33074 21.7824 5.2587 23.5558 8.13619C25.3293 11.0137 25.7155 14.5359 24.6076 17.7293C24.3166 18.5066 23.5656 19.0145 22.7359 18.9951C21.6252 18.9937 20.7252 18.0937 20.7237 16.983L20.7237 8.64174C20.7237 7.89591 20.1191 7.2913 19.3733 7.2913C18.6274 7.2913 18.0228 7.89591 18.0228 8.64174L18.0228 8.65434C15.1745 6.50459 11.1452 6.94233 8.82498 9.65359C6.50477 12.3649 6.69485 16.4134 9.25888 18.8954C11.8229 21.3773 15.8755 21.4356 18.5099 19.0285C19.2905 20.6544 20.9322 21.6907 22.7359 21.696C24.7164 21.7151 26.4919 20.478 27.1599 18.6134C27.8877 16.511 28.1035 14.2654 27.7892 12.0629V12.0629ZM13.9715 18.0949C11.734 18.0949 9.92016 16.281 9.92016 14.0435C9.92016 11.806 11.734 9.99218 13.9715 9.99218C16.209 9.99218 18.0228 11.806 18.0228 14.0435C18.0203 16.28 16.208 18.0924 13.9715 18.0949Z" fill="black"/>
</g>
</svg>
