<svg width="33" height="31" viewBox="0 0 33 31" fill="none" xmlns="http://www.w3.org/2000/svg">
<g id="05_Contact">
<path id="Printer" d="M27.7981 6.17735H26.7685V2.05912C26.7685 0.923514 25.8447 0 24.7094 0H8.23647C7.10121 0 6.17735 0.923514 6.17735 2.05912V6.17735H5.14779C2.3093 6.17735 0 8.48665 0 11.3251V21.6207C0 23.324 1.38544 24.7094 3.08868 24.7094H6.17735V28.8276C6.17735 29.9632 7.10121 30.8868 8.23647 30.8868H24.7094C25.8447 30.8868 26.7685 29.9632 26.7685 28.8276V24.7094H29.8572C31.5604 24.7094 32.9459 23.324 32.9459 21.6207V11.3251C32.9459 8.48665 30.6366 6.17735 27.7981 6.17735ZM8.23647 2.05912H24.7094V6.17735H8.23647V2.05912ZM8.23647 28.8276V18.532H24.7094V28.8276H8.23647ZM30.8868 21.6207C30.8868 22.1884 30.4252 22.6503 29.8572 22.6503H26.7685V18.532H27.7981C28.3671 18.532 28.8276 18.0712 28.8276 17.5025C28.8276 16.9338 28.3671 16.4729 27.7981 16.4729H5.14779C4.57879 16.4729 4.11823 16.9338 4.11823 17.5025C4.11823 18.0712 4.57879 18.532 5.14779 18.532H6.17735V22.6503H3.08868C2.5207 22.6503 2.05912 22.1884 2.05912 21.6207V11.3251C2.05912 9.62191 3.44456 8.23647 5.14779 8.23647H27.7981C29.5013 8.23647 30.8868 9.62191 30.8868 11.3251V21.6207ZM21.6207 21.6207C21.6207 22.1894 21.1602 22.6503 20.5912 22.6503H12.3547C11.7857 22.6503 11.3251 22.1894 11.3251 21.6207C11.3251 21.0521 11.7857 20.5912 12.3547 20.5912H20.5912C21.1602 20.5912 21.6207 21.0521 21.6207 21.6207ZM21.6207 25.739C21.6207 26.3076 21.1602 26.7685 20.5912 26.7685H12.3547C11.7857 26.7685 11.3251 26.3076 11.3251 25.739C11.3251 25.1703 11.7857 24.7094 12.3547 24.7094H20.5912C21.1602 24.7094 21.6207 25.1703 21.6207 25.739ZM28.8276 11.3251C28.8276 11.8938 28.3671 12.3547 27.7981 12.3547H25.739C25.17 12.3547 24.7094 11.8938 24.7094 11.3251C24.7094 10.7565 25.17 10.2956 25.739 10.2956H27.7981C28.3671 10.2956 28.8276 10.7565 28.8276 11.3251Z" fill="black"/>
</g>
</svg>
