<svg width="23" height="36" viewBox="0 0 23 36" fill="none" xmlns="http://www.w3.org/2000/svg">
<g id="04_Support">
<g id="smartphone">
<path id="Path 7595" d="M5.3772 2.48179C3.77811 2.48179 2.48179 3.77811 2.48179 5.3772V30.1951C2.48179 31.7942 3.77811 33.0905 5.3772 33.0905H16.9589C18.558 33.0905 19.8543 31.7942 19.8543 30.1951V5.3772C19.8543 3.77811 18.558 2.48179 16.9589 2.48179H5.3772ZM0 5.3772C0 2.40745 2.40745 0 5.3772 0H16.9589C19.9286 0 22.3361 2.40745 22.3361 5.3772V30.1951C22.3361 33.1648 19.9286 35.5723 16.9589 35.5723H5.3772C2.40745 35.5723 0 33.1648 0 30.1951V5.3772Z" fill="black"/>
<path id="Path 7596" d="M6.98852 2.63581C6.46587 1.59056 7.22609 0.361084 8.3944 0.361084H13.9417C15.1099 0.361084 15.8702 1.59056 15.3475 2.63581L14.8512 3.62852C14.585 4.16086 14.0405 4.49739 13.4453 4.49739H8.89075C8.29562 4.49739 7.75133 4.16113 7.485 3.62879L6.98852 2.63581Z" fill="black"/>
<path id="Path 7597" d="M4.96358 29.3678C4.96358 28.6825 5.51915 28.127 6.20447 28.127H16.1316C16.8169 28.127 17.3725 28.6825 17.3725 29.3678C17.3725 30.0532 16.8169 30.6087 16.1316 30.6087H6.20447C5.51915 30.6087 4.96358 30.0532 4.96358 29.3678Z" fill="black"/>
</g>
</g>
</svg>
