<svg width="33" height="24" viewBox="0 0 33 24" fill="none" xmlns="http://www.w3.org/2000/svg">
<g id="05_Contact">
<g id="mail">
<g id="Group 5812">
<path id="Path 7633" d="M29.9375 0H2.88477C1.2909 0 0 1.29891 0 2.88477V20.1934C0 21.7886 1.30039 23.0781 2.88477 23.0781H29.9375C31.518 23.0781 32.8222 21.7941 32.8222 20.1934V2.88477C32.8222 1.30173 31.5365 0 29.9375 0ZM29.5335 1.92317C28.9441 2.50943 18.8012 12.5989 18.451 12.9473C17.9061 13.4922 17.1817 13.7922 16.4111 13.7922C15.6406 13.7922 14.9162 13.4921 14.3695 12.9455C14.1339 12.7112 4.10297 2.73309 3.28876 1.92317H29.5335ZM1.92318 19.8019V3.27741L10.2337 11.5442L1.92318 19.8019ZM3.28998 21.1549L11.5973 12.9005L13.0114 14.3072C13.9195 15.2153 15.1269 15.7154 16.4111 15.7154C17.6953 15.7154 18.9027 15.2153 19.809 14.3089L21.225 12.9005L29.5322 21.1549H3.28998ZM30.899 19.8019L22.5885 11.5442L30.899 3.27741V19.8019Z" fill="black"/>
</g>
</g>
</g>
</svg>
