<svg width="40" height="37" viewBox="0 0 40 37" fill="none" xmlns="http://www.w3.org/2000/svg">
<g id="04_Support">
<g id="savings">
<path id="Path 7598" d="M5.065 21.7852C5.065 15.1758 10.4229 9.81774 17.0324 9.81774H24.5113C24.7711 9.81774 25.0285 9.82749 25.2842 9.8438C27.2578 7.88574 30.4314 7.69224 32.636 9.48669L34.0994 10.6779L32.3891 12.7789C33.5809 13.8224 34.5649 15.0974 35.268 16.5353L38.9472 17.6541V25.9161L35.268 27.0349C34.501 28.6036 33.3998 29.9786 32.0588 31.0702L29.6343 35.9225H24.2271V32.4927H17.3626V35.9225H11.9554L9.54419 31.1198C6.81348 28.9264 5.065 25.5602 5.065 21.7852ZM5.065 21.7852V21.7852Z" stroke="black" stroke-width="2"/>
<path id="Path 7599" d="M1 17.2649V18.177C1 20.1433 2.59394 21.7372 4.56018 21.7372H5.06491" stroke="black" stroke-width="2"/>
<line id="Line 305" x1="29.8346" y1="18.501" x2="32.1964" y2="18.501" stroke="black" stroke-width="2"/>
<path id="Path 7600" d="M24.7399 15.6449C23.6986 14.7018 22.3176 14.1272 20.8021 14.1272C19.2867 14.1272 17.9055 14.7018 16.8643 15.6449" stroke="black" stroke-width="2"/>
<circle id="Ellipse 160" cx="20.8021" cy="5.40691" r="4.40691" stroke="black" stroke-width="2"/>
</g>
</g>
</svg>
