<svg width="47" height="60" viewBox="0 0 47 60" fill="none" xmlns="http://www.w3.org/2000/svg">
<g id="05_Contact">
<g id="Pin">
<path id="Path 6515" d="M43.6761 12.4489C40.1773 5.55049 33.4074 0.907714 25.7118 0.128911C23.9987 -0.0429709 22.2727 -0.0429709 20.5595 0.128915C12.8641 0.908218 6.09433 5.55025 2.59413 12.4477C-1.83718 21.3035 -0.510851 31.955 5.95693 39.4536L21.3811 58.2063C21.8124 58.7309 22.4559 59.035 23.1351 59.035C23.8143 59.035 24.4579 58.7309 24.8892 58.2063L40.3133 39.4536C46.781 31.9554 48.1073 21.3043 43.6761 12.4489V12.4489ZM23.1351 31.7869C18.119 31.7869 14.0526 27.7205 14.0526 22.7044C14.0526 17.6882 18.119 13.6219 23.1351 13.6219C28.1512 13.6219 32.2176 17.6882 32.2176 22.7044C32.2117 27.7181 28.1488 31.781 23.1351 31.7869Z" fill="#3299FD"/>
</g>
</g>
</svg>
