<svg overflow="visible" style="display: block;" viewBox="0 0 313.195 379.689" fill="none" xmlns="http://www.w3.org/2000/svg">
<g id="Group 5796">
<path id="Path 7488" d="M94.5804 349.169C96.8853 340.012 99.9641 323.753 94.6537 314.941C90.6488 308.295 84.9392 309.299 81.9589 315.396C76.5186 326.534 87.124 345.926 95.2532 353.254C99.274 350.19 130.84 328.57 132.651 344.503C134.13 357.514 101.782 352.827 94.5804 349.169Z" stroke="var(--stroke-0, black)" stroke-width="4"/>
<g id="Group 5794">
<path id="Path 7483" d="M225.915 128.087C206.155 207.476 159.247 279.184 104.408 339.08C86.3764 358.775 68.571 368.331 45.6191 377.841" stroke="var(--stroke-0, black)" stroke-width="4"/>
<path id="Path 7484" d="M192.388 210.091C193.635 198.253 194.582 177.42 186.391 167.371C180.211 159.791 173.263 162.057 170.632 170.194C165.823 185.06 182.509 207.371 193.955 215.068C198.425 210.529 233.966 177.937 239.061 197.497C243.221 213.47 202.023 213.374 192.388 210.091Z" stroke="var(--stroke-0, black)" stroke-width="4"/>
<path id="Path 7485" d="M209.771 172.861C210.536 165.607 211.117 152.84 206.097 146.683C202.31 142.037 198.053 143.427 196.44 148.411C193.493 157.524 203.718 171.193 210.732 175.909C213.47 173.129 235.249 153.158 238.372 165.143C240.922 174.93 215.676 174.872 209.771 172.861Z" stroke="var(--stroke-0, black)" stroke-width="4"/>
<path id="Path 7486" d="M148.156 278.541C151.247 266.262 155.374 244.459 148.255 232.642C142.883 223.733 135.225 225.075 131.231 233.25C123.935 248.189 138.159 274.194 149.06 284.019C154.45 279.91 196.779 250.918 199.208 272.286C201.194 289.732 157.812 283.446 148.156 278.541Z" stroke="var(--stroke-0, black)" stroke-width="4"/>
<path id="Path 7489" d="M176.858 242.51C176.234 236.702 171.736 179.501 152.154 199.165C139.2 212.178 169.436 241.42 180.925 245.286C188.488 235.543 233.72 235.939 221.439 252.891C214.204 262.875 185.55 252.905 176.858 242.51Z" stroke="var(--stroke-0, black)" stroke-width="4"/>
<path id="Path 7494" d="M236.458 48.9273C241.72 35.1619 255.144 23.5078 270.773 25.6462C284.16 27.4787 292.4 36.4691 295.882 47.1272C302.79 68.2717 287.154 92.0177 273.051 106.213C259.133 120.218 242.106 129.711 226.555 141.537C212.112 130.224 183.755 100.601 177.438 91.4934C165.806 74.7208 167.301 58.2064 168.955 49.3034C170.142 42.9217 174.713 24.4919 190.559 21.8803C227.335 15.8268 237.179 45.4459 236.458 48.9273Z" fill="var(--fill-0, #F4A69D)" stroke="var(--stroke-0, black)" stroke-width="4"/>
<path id="Path 7495" d="M236.458 48.9273C241.72 35.1619 255.144 23.5078 270.773 25.6462C284.16 27.4787 292.4 36.4691 295.882 47.1272C302.79 68.2717 287.154 92.0177 273.051 106.213C259.133 120.218 242.106 129.711 226.555 141.537C212.112 130.224 183.755 100.601 177.438 91.4934C165.806 74.7208 167.301 58.2064 168.955 49.3034C170.142 42.9217 174.713 24.4919 190.559 21.8803C227.335 15.8268 237.179 45.4459 236.458 48.9273Z" stroke="var(--stroke-0, black)" stroke-width="4"/>
</g>
</g>
</svg>
