<svg width="685" height="651" viewBox="0 0 685 651" fill="none" xmlns="http://www.w3.org/2000/svg">
<g id="04_Support">
<g id="Group 5810">
<g id="Mask Group 23">
<mask id="mask0_1_2" style="mask-type:alpha" maskUnits="userSpaceOnUse" x="0" y="0" width="685" height="651">
<path id="Rectangle 1400" d="M0 30C0 13.4315 13.4315 0 30 0H655C671.569 0 685 13.4315 685 30V621C685 637.569 671.569 651 655 651H30C13.4315 651 0 637.569 0 621V30Z" fill="black"/>
</mask>
<g mask="url(#mask0_1_2)">
<g id="Group 5808">
<g id="Group 5807">
<mask id="mask1_1_2" style="mask-type:alpha" maskUnits="userSpaceOnUse" x="-7" y="-27" width="582" height="729">
<path id="Rectangle 1398" d="M-7 -26.2708H574.407V701.681H-7V-26.2708Z" fill="black"/>
</mask>
<g mask="url(#mask1_1_2)">
<path id="Path 7601" d="M-4.66834 -12.687L-6.99664 697.161C-6.99664 699.658 -4.97365 701.681 -2.47761 701.681H427.624C429.543 701.681 431.301 700.486 431.909 698.668C434.535 690.767 435.787 682.427 436.535 673.899C437.662 660.989 439.309 648.16 440.155 635.251C440.839 624.263 440.477 613.239 441 602.255C441.722 588.182 442.688 574.148 443.855 560.118C444.536 552.301 445.704 544.521 446.989 536.785C447.23 535.383 448.8 533.376 450.085 533.054C461.385 530.33 472.117 525.999 480.158 517.739C496.963 500.462 517.911 491.279 540.305 484.345C545.089 482.822 549.833 481.178 554.576 479.413C558.035 478.132 562.739 471.714 562.578 468.466C562.296 463.618 559.723 460.609 555.14 458.687C548.628 456 542.032 456.64 535.4 457.164C533.471 457.321 531.579 457.482 528.204 457.804C533.068 453.916 536.967 450.786 540.909 447.659C545.612 443.892 550.799 440.564 554.939 436.273C560.447 430.58 565.312 424.246 570.136 417.912C571.421 416.227 572.025 413.701 572.065 411.537C572.226 405.764 566.677 402.758 560.608 405.643C551.923 409.813 543.562 414.543 535.078 419.035C534.071 419.555 533.108 420.039 532.142 420.518C535.641 416.187 539.016 411.779 542.636 407.568C550.195 398.749 558.116 390.21 565.473 381.229C570.499 375.134 574.638 368.441 574.397 360.06C574.115 352.203 567.885 348.875 560.81 352.361C546.656 359.299 535.48 370.044 523.98 380.387C520.726 383.313 517.508 386.319 514.13 389.127C513.529 389.647 512.402 389.486 511.436 389.606C523.779 376.056 534.313 361.301 540.506 343.903C541.952 339.854 542.395 335.442 542.958 331.154C543.361 327.907 541.549 325.018 538.617 324.297C536.604 323.777 533.471 324.7 531.82 326.102C516.062 339.693 501.586 354.488 488.522 370.645C488.482 370.692 488.445 370.739 488.408 370.786C485.446 374.489 479.528 371.671 480.474 367.025C480.544 366.679 480.615 366.337 480.682 365.995C481.484 361.946 481.967 357.735 481.926 353.605C481.926 348.996 479.917 344.987 475.455 343.101C470.711 341.095 466.608 343.262 463.676 346.671C460.136 350.797 456.839 355.289 454.386 360.06C450.062 368.437 446.08 376.989 442.057 385.52C440.584 388.644 436.293 389.029 434.297 386.208C428.493 378.019 422.626 369.752 416.785 361.526C414.977 358.98 416.168 355.296 419.19 354.511C427.031 352.478 433.318 347.04 438.907 340.615C447.955 330.192 454.427 318.366 457.402 304.812C459.814 293.989 458.288 283.565 453.182 273.823C451.803 271.223 449.787 269.354 446.885 268.613C444.117 267.908 442.604 264.936 443.792 262.339C446.301 256.851 448.673 251.654 451.172 246.199C451.172 249.889 451.092 253.174 451.213 256.502C451.293 259.709 452.417 261.074 456.198 260.511C463.072 259.511 465.967 254.539 467.011 249.124C468.42 241.67 468.259 233.93 468.742 226.355C468.819 225.553 468.702 224.751 468.581 223.027C470.309 225.513 471.275 227.395 472.64 228.841C475.254 231.605 478.753 230.602 479.997 227.076C480.642 225.352 481.846 223.829 482.49 222.144C483.537 219.219 485.103 216.25 485.184 213.284C485.466 199.412 480.078 187.546 471.275 176.521C472.479 176.079 473.526 175.518 474.609 175.398C479.635 174.797 484.097 173.193 487.556 169.265C488.522 168.141 490.129 167.54 491.535 166.937C498.01 164.212 499.013 157.919 493.346 153.91C490.814 152.105 487.838 150.582 484.862 149.937C470.792 146.891 460.418 138.232 450.891 128.288C442.728 119.75 434.888 110.89 426.447 102.63C417.318 93.7298 406.183 87.7581 394.522 82.6251C377.878 75.3283 360.55 70.3966 342.498 68.5917C326.659 67.0283 310.818 68.3937 295.338 72.0405C287.86 73.7649 280.463 76.1301 273.427 79.136C270.264 80.4914 267.392 82.5077 264.554 84.5676C262.209 86.2685 258.898 85.3627 257.757 82.7023C254.737 75.6638 251.624 68.4206 248.461 61.1774C247.414 58.7719 246.531 56.1249 244.841 54.2395C243.757 53.0787 241.264 53.119 239.416 52.6359C239.214 54.32 238.369 56.2457 238.892 57.6883C242.912 68.5111 247.172 79.2166 251.316 90.0025C251.557 90.603 251.597 91.2841 251.839 92.2872C248.581 89.2007 245.767 86.1914 242.63 83.6282C241.385 82.6251 239.376 82.6251 237.725 82.1454C237.886 83.9469 237.443 86.1545 238.329 87.436C240.741 91.0828 243.757 94.29 246.531 97.6986C247.253 98.6212 247.857 99.6243 248.783 100.946C244.344 102.717 240.479 104.888 237.889 108.501C236.165 110.907 232.746 111.128 230.764 108.934C227.67 105.515 224.262 102.711 219.612 101.5C217.891 101.05 216.599 99.6109 216.331 97.8563C215.227 90.6332 214.271 83.4001 212.758 76.2911C210.829 67.1491 209.061 57.8493 205.844 49.1468C201.261 36.8814 203.438 33.4191 193.608 24.8742C175.509 9.14659 162.864 -5.88326 135.123 -17.9541C123.542 -23.0032 123.186 -20.1012 110.562 -17.0953C106.217 -16.0519 81.1091 -20.6816 76.7277 -20.5206C73.5909 -20.4434 54.5923 -17.8065 51.4588 -18.8096C37.7071 -23.02 38.7069 -16.5853 24.4755 -15.3843C14.4914 -14.559 21.2783 -14.2805 11.6263 -11.9556C9.59661 -11.4691 -4.66834 -14.7737 -4.66834 -12.687Z" fill="#FAD7DA"/>
<path id="Path 7602" d="M421.67 289.521C421.67 289.557 421.633 289.594 421.633 289.631H421.592C421.592 289.594 421.633 289.557 421.67 289.521ZM-0.575355 156.372C-0.726347 158.291 -3.24251 159.942 -4.6683 161.747V-12.6902C-3.31626 -13.3276 -2.07839 -14.1563 -0.686063 -14.6058C5.88613 -16.7462 12.4986 -18.739 19.1882 -20.3896C29.2562 -22.9829 39.4383 -24.8617 49.882 -25.7272C63.1807 -26.8545 76.3285 -26.4385 89.1777 -22.4965C92.1099 -21.5571 95.1158 -19.9032 98.0446 -19.977C102.141 -20.1279 106.234 -21.48 110.293 -22.4562C122.089 -25.2743 133.623 -23.8854 144.443 -19.1517C170.366 -7.84238 189.566 11.2435 203.203 35.6234C209.175 46.2584 213.798 57.7522 218.079 69.2493C221.085 77.4017 222.739 86.1177 224.54 94.686C226.157 102.312 227.097 110.088 228.335 117.828C236.45 118.727 240.808 124.363 245.542 130.338C247.31 123.387 252.194 120.193 258.203 117.791C257.341 116.55 256.777 115.61 256.1 114.745C253.506 111.554 250.692 108.548 248.437 105.13C247.608 103.925 248.021 101.859 247.873 100.168C249.413 100.621 251.292 100.621 252.456 101.56C255.385 103.966 258.015 106.78 261.058 109.676C260.833 108.736 260.796 108.095 260.572 107.532C256.7 97.4269 252.718 87.3959 248.96 77.2507C248.474 75.8987 249.262 74.0971 249.45 72.517C251.178 72.9699 253.506 72.933 254.523 74.02C256.1 75.788 256.928 78.2673 257.904 80.5217C261.585 88.9727 265.191 97.4269 268.65 105.505C272.78 102.724 276.688 99.3057 281.234 97.3531C287.81 94.535 294.721 92.3175 301.709 90.7004C316.175 87.2818 330.977 86.007 345.779 87.4697C362.647 89.1606 378.841 93.7836 394.394 100.621C405.288 105.428 415.694 111.028 424.223 119.368C432.113 127.108 439.44 135.411 447.066 143.412C455.97 152.729 465.662 160.844 478.813 163.699C481.591 164.3 484.372 165.729 486.741 167.42C492.038 171.177 491.099 177.075 485.05 179.628C483.735 180.192 482.232 180.755 481.329 181.809C478.099 185.489 473.928 186.992 469.232 187.556C468.218 187.67 467.242 188.193 466.115 188.609C474.341 198.939 479.377 210.06 479.112 223.06C479.038 225.838 477.572 228.619 476.596 231.364C475.995 232.941 474.868 234.366 474.267 235.983C473.103 239.288 469.832 240.227 467.39 237.637C466.115 236.285 465.212 234.517 463.595 232.189C463.71 233.803 463.824 234.554 463.746 235.306C463.297 242.408 463.448 249.658 462.133 256.646C461.153 261.719 458.449 266.375 452.024 267.315C448.495 267.841 447.442 266.566 447.368 263.561C447.254 260.44 447.328 257.361 447.328 253.905C444.137 260.893 441.168 267.429 437.786 274.83C443.684 273.816 447.18 275.957 449.206 279.788C453.98 288.92 455.406 298.686 453.152 308.831C450.374 321.529 444.325 332.611 435.871 342.38C429.221 350.046 421.519 356.205 411.112 356.205C419.301 367.776 427.604 379.498 435.72 390.996C440.568 380.85 445.187 370.595 450.334 360.6C452.625 356.132 455.708 351.921 459.013 348.053C461.757 344.859 465.588 342.83 470.02 344.708C474.19 346.476 476.069 350.234 476.069 354.552C476.106 358.423 475.656 362.368 474.905 366.163C473.778 371.947 472.201 377.657 470.547 384.571C475.019 379.237 478.699 374.953 482.232 370.521C494.44 355.38 507.967 341.514 522.695 328.779C524.235 327.464 527.164 326.602 529.042 327.088C531.787 327.766 533.478 330.47 533.102 333.513C532.575 337.532 532.162 341.665 530.807 345.46C525.023 361.765 515.18 375.59 503.646 388.292C504.548 388.177 505.599 388.328 506.162 387.839C509.319 385.208 512.325 382.39 515.368 379.649C526.114 369.957 536.557 359.889 549.782 353.387C556.395 350.12 562.215 353.236 562.481 360.6C562.705 368.454 558.837 374.728 554.14 380.438C547.263 388.855 539.862 396.857 532.8 405.123C529.418 409.065 526.261 413.198 522.994 417.258C523.896 416.805 524.798 416.355 525.738 415.865C533.665 411.658 541.479 407.226 549.594 403.318C555.267 400.614 560.451 403.432 560.3 408.84C560.263 410.87 559.699 413.235 558.498 414.815C553.989 420.75 549.443 426.685 544.297 432.022C540.426 436.041 535.581 439.158 531.183 442.691C527.503 445.62 523.859 448.552 519.313 452.195C522.467 451.897 524.235 451.746 526.036 451.595C532.236 451.105 538.399 450.504 544.485 453.024C548.766 454.825 551.171 457.644 551.433 462.189C551.584 465.232 547.189 471.244 543.958 472.445C539.526 474.099 535.091 475.639 530.619 477.068C509.695 483.567 490.119 492.169 474.418 508.363C466.903 516.102 456.872 520.158 446.314 522.715C445.113 523.013 443.647 524.892 443.422 526.207C442.218 533.46 441.131 540.747 440.49 548.074C439.403 561.222 438.501 574.373 437.823 587.558C437.337 597.854 437.672 608.184 437.035 618.48C436.246 630.577 434.707 642.598 433.653 654.696C432.865 663.714 431.476 672.503 428.319 680.733C426.477 685.614 423.998 690.311 420.616 694.783C415.882 701.057 414.755 701.959 406.116 700.342C408.331 696.96 410.625 693.807 412.578 690.462C414.53 687.154 416.785 684.037 418.627 680.733C420.428 677.576 421.857 674.231 422.384 670.4C424.561 653.307 426.93 636.251 428.956 619.117C429.483 614.833 429.034 610.438 429.034 606.08C420.804 608.898 412.876 609.012 404.724 607.134C401.983 606.456 399.353 604.238 395.971 606.57C393.941 607.996 391.576 605.594 392.177 602.739C392.704 600.37 393.643 598.042 394.619 595.787C398.638 586.619 401.607 577.191 402.698 567.197C401.081 567.798 399.541 568.398 397.924 568.999L397.813 569.036L398.001 568.888C393.566 570.015 391.539 572.87 391.838 577.453C391.878 578.053 391.499 578.691 391.351 579.332C388.758 589.363 386.769 599.394 388.909 609.801C391.05 620.244 393.868 630.349 404.124 635.798C407.579 637.676 408.518 640.796 407.431 643.198C406.415 645.49 403.073 648.046 400.668 648.12C395.444 648.197 389.922 647.483 384.927 645.866C379.552 644.101 374.631 640.944 369.635 638.465C368.659 646.429 367.193 647.557 358.477 645.416C352.502 643.95 346.718 641.846 340.18 639.817C339.468 648.385 338.791 657.289 337.888 666.156C337.475 670.175 339.129 671.866 342.81 673.48C348.258 675.848 353.67 678.25 359.078 680.733C370.011 685.654 380.867 690.724 391.727 695.796C393.23 696.511 394.092 698.463 395.22 699.856C394.921 700.191 394.619 700.567 394.317 700.906C386.879 700.869 379.291 702.07 372.266 697.977C368.471 695.759 364.489 693.844 360.507 692.116C355.471 689.898 350.288 688.02 345.178 685.953C341.045 684.262 336.949 682.424 332.779 680.733C329.85 679.492 326.918 678.327 323.912 677.311C314.86 674.194 305.54 671.752 296.338 668.934C292.544 667.77 288.823 666.381 283.901 664.69C284.915 670.249 285.931 675.546 286.871 680.733C288.108 687.493 289.35 694.069 290.551 700.681H282.362C281.496 693.995 280.597 687.345 279.731 680.733C279.054 675.697 278.453 670.625 277.889 665.592C277.591 662.697 277.027 660.932 274.434 659.241C269.814 656.236 265.644 652.592 261.286 649.174C260.833 650.15 260.119 651.163 260.082 652.18C259.555 661.533 259.179 670.927 258.767 680.317C258.767 680.468 258.767 680.582 258.73 680.733C258.428 687.382 258.092 694.069 257.79 700.795H251.554V666.867C251.554 655.561 252.943 644.477 257.639 633.882C252.493 632.792 247.722 631.779 242.727 630.688C241.976 632.305 241.11 633.882 240.473 635.536C236.302 646.053 232.243 656.574 227.999 667.055C227.285 668.823 226.157 670.625 224.691 671.829C223.678 672.654 221.799 672.43 220.333 672.691C220.182 671.225 219.582 669.611 220.035 668.333C221.611 663.901 223.641 659.617 225.332 655.222C228.824 646.241 232.243 637.227 235.964 627.531C232.696 625.693 228.938 623.589 225.067 621.409C224.091 623.512 223.376 625.166 222.588 626.82C219.243 633.882 216.502 641.32 212.369 647.932C209.289 652.854 206.209 658.641 199.144 660.067C198.355 658.98 197.493 657.853 196.44 656.423C208.387 646.131 212.594 631.591 219.132 618.141C214.509 614.873 209.89 611.565 205.082 608.184C200.308 620.281 194.071 630.913 182.651 637.452C178.407 634.821 178.407 633.657 181.712 630.463C189.415 623.026 195.464 614.383 199.52 603.564C196.701 600.521 193.847 597.478 191.592 595.036C183.44 601.571 176.378 607.358 169.128 612.954C166.685 614.796 164.018 615.021 161.539 610.928C169.54 603.863 177.579 596.727 185.62 589.625C183.329 585.454 181.373 581.925 179.796 579.03C173.486 584.854 167.249 590.564 161.086 596.351C160.184 597.176 159.285 598.377 159.056 599.505C157.292 608.747 155.527 617.99 154.061 627.27C151.656 642.222 149.364 657.212 147.261 672.242C146.848 675.06 146.509 677.915 146.17 680.733C145.345 687.419 144.671 694.069 143.919 700.644H136.253C136.253 699.064 136.139 697.749 136.29 696.511C136.931 691.25 137.605 685.99 138.357 680.733C138.434 680.169 138.508 679.606 138.582 679.042C140.799 663.187 142.678 647.295 145.419 631.554C147.11 621.56 150.116 611.83 152.521 601.987C153.387 598.418 151.958 596.65 148.388 596.65C146.962 596.65 145.533 596.878 144.107 596.764C141.665 596.539 140.836 597.589 140.199 599.958C137.605 609.086 135.428 618.44 131.707 627.119C125.32 641.961 118.144 656.537 110.857 671C109.203 674.268 107.475 677.539 105.711 680.733C101.953 687.607 98.0815 694.33 94.3643 701.02C91.9957 701.02 90.5297 701.02 89.0301 700.983C87.4868 700.943 85.9469 700.832 83.8804 700.755C87.6378 694.069 91.3952 687.419 95.1158 680.733C110.367 653.307 124.756 625.844 134.15 596.012C102.627 591.242 73.4366 580.382 49.0534 561.712C46.5003 563.591 44.0211 565.506 41.5015 567.348C34.0638 572.682 26.6629 578.09 19.1882 583.388C16.1454 585.605 13.0622 587.786 9.94553 589.926C5.28561 593.157 0.213079 595.861 -4.6683 598.793V588.91C3.25593 583.314 11.2975 577.903 19.1882 572.343C24.9351 568.287 30.6082 564.154 36.0935 559.796C44.172 553.409 49.1674 544.129 51.6467 533.873C55.2531 518.957 55.592 503.78 55.1424 488.451C54.6895 472.221 54.9915 455.99 55.2531 439.759C55.4041 431.606 55.5551 423.38 56.8702 415.339C58.0343 408.015 60.7384 400.876 62.7681 393.663C62.7681 393.589 62.805 393.475 62.8419 393.401C62.805 393.475 62.7681 393.549 62.7312 393.626C51.7205 396.179 41.6894 392.086 31.9234 388.365C27.5285 386.711 23.3181 384.534 19.1882 382.129C15.8065 380.176 12.4617 378.073 9.19401 376.006C4.23552 372.849 -0.0486231 368.642 -4.6683 364.921V353.012C-1.43754 355.793 1.79319 358.574 5.36277 361.654C7.72794 357.406 10.0965 353.199 12.4986 348.878C8.66732 345.423 5.32253 342.38 2.12868 339.488C-0.236491 343.809 -2.45412 347.902 -4.6683 352.035V339.149C-3.65512 337.948 -2.67891 336.784 -1.40066 335.241C-2.64199 334.489 -3.65512 333.852 -4.6683 333.215V319.312C-1.7764 322.093 1.00143 324.985 3.97049 327.689C9.04306 332.349 14.0788 337.046 19.1882 341.665C23.9219 345.987 28.6926 350.271 33.5773 354.441C39.2873 359.362 45.7488 363.382 52.3244 368.152C64.4589 341.102 81.1763 318.638 108.341 304.061C103.906 303.832 100.487 303.457 97.0684 303.497C86.3227 303.645 76.9693 299.025 67.7266 294.63C53.8642 288.054 41.4277 279.151 31.3598 267.466C27.1527 262.584 23.1302 257.512 19.1882 252.362C16.0682 248.38 12.9884 244.324 9.86837 240.378C10.0965 240.19 10.2072 240.08 10.2844 240.003C5.66135 243.045 1.60532 246.504 -1.13896 251.5C-1.73948 252.59 -3.46726 253.113 -4.6683 253.905V235.081C-3.95707 235.457 -3.27939 235.832 -1.58853 236.772C-1.58853 232.414 -1.7764 228.77 -1.47782 225.164C-1.32683 223.396 -0.236491 221.708 0.739767 219.266C6.60073 224.261 4.87296 230.008 5.47348 235.195C11.2606 236.584 7.50315 228.844 12.8743 228.77C14.6021 231.662 16.7459 235.195 18.8125 238.765C18.9232 238.952 19.0373 239.177 19.1882 239.365C25.1968 249.772 34.1778 257.622 42.6287 265.926C52.1734 275.319 63.4424 282.495 75.4294 288.054C83.3939 291.735 91.8851 295.157 101.275 294.593C114.99 293.728 128.852 294.254 142.416 292.298C162.291 289.443 178.595 279.114 192.27 264.423C202.489 253.452 208.125 240.19 212.446 226.254C214.321 220.242 216.952 214.304 215.563 207.692C215.489 207.393 215.6 207.017 215.714 206.756C221.913 192.702 220.786 177.676 221.497 162.985C222.024 151.115 221.726 139.279 219.431 127.406C217.515 117.338 217.592 106.894 216.539 96.6755C216.388 95.2094 215.15 93.5554 213.949 92.5791C210.379 89.7644 206.696 87.0939 202.864 84.6919C198.319 81.8368 193.434 79.4683 188.851 76.6502C181.225 71.9534 173.711 66.9949 166.122 62.2611C164.092 60.9829 161.838 60.0838 159.808 58.8425C156.503 56.8128 152.86 55.0851 150.042 52.4951C138.508 41.8232 127.199 30.9299 117.731 21.9489C118.446 34.1607 119.573 49.2643 120.136 64.3647C120.287 68.1993 118.972 72.1413 117.845 75.8618C117.506 76.9152 115.403 77.4386 114.125 78.1901C113.749 76.9152 112.96 75.523 113.148 74.3588C115.701 60.6843 113.786 47.1206 111.682 33.7078C110.216 24.5422 107.549 15.5646 105.372 6.50978C105.258 6.13403 104.694 5.869 104.281 5.57042C105.372 14.0985 107.214 22.5897 107.324 31.1178C107.512 41.5984 106.311 52.0791 100.524 61.3587C98.5344 64.5525 96.2028 67.1458 91.2073 66.4682C91.5093 64.8545 91.2812 62.9388 92.1099 61.9223C97.5582 55.387 99.0209 47.5332 99.3228 39.4949C99.6214 31.0775 99.3228 22.6266 99.2088 14.2092C99.2088 13.6087 98.7592 13.0082 98.3096 11.844C95.2266 17.0273 92.5225 21.912 89.4796 26.6089C78.0596 44.1918 65.1735 60.5703 45.8998 70.1149C38.4217 73.8321 32.034 78.1901 26.626 84.5409C24.3346 87.208 21.7413 89.6504 19.1882 92.0558C15.9172 95.1356 12.6864 98.2153 10.0965 101.785C1.30337 113.769 -2.11522 127.671 -1.02488 142.587C-0.726347 147.17 -0.122458 151.826 -0.575355 156.372ZM224.691 217.163C229.425 221.068 233.672 224.523 237.916 228.019C238.329 220.128 241.335 211.449 232.357 205.551C227.285 207.655 225.969 206.152 224.691 217.163ZM239.983 141.383C238.557 136.686 235.662 132.368 233.072 128.084C232.468 127.071 230.441 126.92 229.049 126.393V126.319L229.012 126.393H229.049C229.462 137.964 230.213 149.535 230.213 161.106C230.254 172.415 229.462 183.724 229.952 195.671C232.619 191.088 236.188 186.841 237.805 181.96C242.163 168.735 244.116 155.057 239.983 141.383ZM441.618 234.329C443.835 234.668 446.278 234.444 447.854 235.534C449.622 236.698 451.199 238.912 451.763 240.979C453.229 245.978 454.091 251.161 455.108 256.009C457.885 249.433 457.097 241.955 457.211 234.595C457.359 227.231 456.57 219.977 452.212 213.667C455.181 211.375 457.436 211.677 459.466 214.042C461.418 216.26 463.22 218.625 465.4 220.618C466.715 221.856 468.594 222.534 471.184 223.96C470.396 212.053 467.953 202.21 461.267 193.792C459.539 191.615 457.51 189.696 455.856 187.482C455.108 186.543 454.316 184.926 454.655 184.1C455.03 183.235 456.684 182.634 457.885 182.409C460.254 181.92 462.696 181.772 465.212 181.47C463.408 170.724 473.214 176.887 476.747 173.13C472.462 171.365 468.218 169.936 464.236 167.906C451.236 161.294 441.806 150.662 432.714 139.581C420.391 124.514 405.814 112.494 387.369 105.318C372.866 99.6814 358.064 95.6992 342.511 94.27C325.002 92.6563 308.02 95.3972 291.265 99.8693C283.526 101.936 276.99 106.217 271.579 112.155C271.354 112.417 271.089 112.641 270.978 112.943C268.65 119.707 264.893 124.628 256.965 125.454C255.425 125.605 254.07 128.721 252.869 130.637C251.443 132.969 250.128 135.411 249.038 137.927C248.585 139.017 248.511 140.443 248.699 141.648C249.45 147.133 251.104 152.618 251.027 158.063C250.765 173.281 248.4 188.005 236.826 200.519C238.292 201.12 239.57 202.21 240.395 201.908C245.129 200.368 245.505 203.485 245.542 206.605C245.619 215.207 245.468 223.772 245.431 232.377C245.431 232.941 245.807 233.504 245.995 234.068C245.958 234.105 245.958 234.105 245.958 234.142L246.032 234.178C246.032 234.142 245.995 234.105 245.995 234.068C248.021 226.704 250.014 219.266 252.154 211.902C255.499 200.479 259.032 189.096 262.299 177.639C265.305 167.195 267.446 156.449 271.089 146.193C274.397 136.837 281.459 130.788 291.866 129.926C304.789 128.835 318.014 129.399 330.564 126.655C346.755 123.125 359.792 131.764 374.218 134.884C391.462 138.642 404.201 149.874 416.221 162.045C425.726 171.664 430.536 183.835 434.931 196.121C439.289 208.443 441.92 221.256 441.618 234.329ZM246.068 237.56C246.068 237.413 246.068 237.225 245.995 237.111C245.958 237.034 245.77 237.034 245.656 236.997C245.582 237.148 245.505 237.262 245.468 237.413C245.656 237.45 245.881 237.486 246.068 237.56ZM245.468 243.196C245.468 243.31 245.582 243.384 245.656 243.498C245.73 243.384 245.844 243.27 245.807 243.16C245.807 243.009 245.693 242.935 245.619 242.821C245.542 242.935 245.431 243.045 245.468 243.196ZM285.478 278.211C285.519 278.174 285.555 278.174 285.592 278.174C285.519 278.174 285.368 278.174 285.18 278.137L285.331 278.285C283.338 279.302 280.973 281.254 279.543 278.399C278.678 276.745 279.054 273.478 280.221 271.975C282.288 269.458 285.143 267.241 288.072 265.852C291.302 264.312 293.859 266.416 292.581 269.422C291.265 272.501 292.581 274.004 294.235 275.806C303.739 286.364 313.243 296.848 327.069 302.219C330.226 303.42 332.48 306.691 335.523 308.378C342.773 312.475 350.251 316.118 357.611 320.063C369.562 326.451 381.431 332.913 393.643 339.488C399.99 329.38 406.905 318.899 413.178 308.043C416.523 302.219 418.851 295.794 421.592 289.631C421.592 289.594 421.633 289.557 421.67 289.521C421.67 289.557 421.633 289.594 421.633 289.631C421.67 289.631 421.706 289.672 421.743 289.672C421.857 289.819 421.931 289.933 422.008 290.084C422.008 289.97 422.045 289.819 422.008 289.782C421.931 289.708 421.857 289.672 421.743 289.672C421.743 289.631 421.706 289.557 421.67 289.521C427.416 276.259 431.962 262.658 431.701 247.967C431.513 237.936 431.436 227.868 430.235 217.951C428.658 205.139 424.561 193.041 418.815 181.319C411.561 166.403 400.178 155.809 386.279 147.733C380.381 144.315 373.544 142.399 367.042 139.957C361.409 137.853 355.548 136.273 350.063 133.871C345.517 131.878 341.233 133.307 336.875 133.683C325.978 134.696 315.048 136.011 304.151 137.29C299.794 137.776 295.436 138.303 291.151 139.091C285.519 140.145 281.835 143.751 279.731 148.861C273.719 163.172 268.875 177.9 265.456 193.078C261.85 209.121 257.868 225.087 254.56 241.207C253.583 245.9 254.221 250.936 254.147 255.821V256.911C254.11 256.911 254.11 256.948 254.07 256.948V256.985C250.051 259.162 248.625 262.356 248.699 267.127C248.85 275.43 248.061 283.733 247.686 292.486C268.197 292.262 287.585 295.418 306.745 301.279C299.643 293.654 292.768 286.327 285.331 278.285C285.368 278.248 285.441 278.248 285.478 278.211ZM366.593 347.939C366.519 348.053 366.442 348.167 366.368 348.278C366.405 348.429 366.442 348.543 366.478 348.654C366.593 348.503 366.743 348.355 366.854 348.167C366.854 348.167 366.666 348.016 366.593 347.939ZM366.707 345.497L366.478 345.537L366.629 345.799L366.707 345.497ZM375.235 381.941C373.054 388.402 368.77 392.723 361.332 393.213C361.033 396.105 361.785 397.494 365.163 397.007C373.732 395.692 381.545 388.439 383.8 379.461C386.39 369.092 385.977 358.722 383.199 348.58C381.055 340.766 375.758 335.617 367.079 333.215C373.168 340.84 374.369 349.744 375.835 358.309C377.187 366.086 377.825 374.201 375.235 381.941ZM396.911 401.251C396.874 401.365 396.837 401.439 396.796 401.553C396.572 401.664 396.384 401.815 396.159 401.966C396.421 401.852 396.649 401.741 396.874 401.627C396.874 401.513 396.911 401.365 396.911 401.251C399.353 394.941 400.255 388.439 398.826 381.753C398.675 381.491 398.528 381.226 398.377 381.001C398.528 381.263 398.638 381.528 398.789 381.79C398.152 388.292 397.548 394.753 396.911 401.251ZM398.189 379.388C398.903 372.624 398.715 366.012 395.183 359.963C396.196 366.424 397.172 372.886 398.189 379.388ZM418.402 344.749C428.245 339.3 434.629 330.658 439.326 320.664C443.533 311.723 446.878 302.517 445.452 292.339C445.15 290.084 444.738 287.753 443.798 285.726C443.047 284.109 441.319 281.744 440.155 281.818C438.424 281.932 436.059 283.582 435.381 285.163C432.828 291.06 430.835 297.26 428.658 303.309C428.581 303.309 428.544 303.346 428.47 303.383C428.47 303.497 428.47 303.571 428.433 303.685C428.168 303.983 427.943 304.322 427.681 304.661C427.869 304.772 428.094 304.849 428.282 304.96C428.356 304.547 428.393 304.097 428.433 303.685C428.47 303.608 428.544 303.571 428.581 303.497C428.621 303.42 428.621 303.383 428.658 303.309C430.235 302.558 431.737 301.541 433.391 301.242C434.817 300.977 436.471 301.618 438.011 301.843C437.672 303.383 437.86 305.486 436.921 306.352C433.277 309.62 429.295 312.512 425.464 315.595C421.257 318.936 417.385 322.432 419.64 328.705C419.942 329.608 419.942 330.809 419.603 331.634C418.966 333.251 417.986 334.717 417.161 336.217C415.809 335.241 414.493 334.301 413.178 333.325C412.766 333.027 412.464 332.651 411.377 331.483C407.542 335.093 403.674 338.7 399.802 342.343C405.402 347.939 411.226 348.768 418.402 344.749ZM403.298 359.473C403.372 359.775 403.486 360.037 403.597 360.302V360.225C403.486 359.963 403.372 359.738 403.298 359.473ZM412.051 403.432C411.226 396.481 412.313 389.305 411.561 382.316C410.924 376.268 409.008 370.333 407.244 364.472C406.754 362.855 404.875 361.728 403.637 360.339C407.881 373.788 409.535 387.389 405.892 401.288C405.439 402.979 405.704 404.932 406.039 406.663C406.905 411.021 408.032 415.228 409.045 419.549C409.008 419.586 409.008 419.586 409.008 419.623C408.971 419.623 408.971 419.623 408.934 419.66C408.747 419.623 408.596 419.586 408.371 419.549C408.445 419.66 408.482 419.774 408.518 419.888C408.669 419.811 408.783 419.737 408.934 419.66H408.971C408.971 419.66 408.971 419.623 409.008 419.623C409.008 419.586 409.045 419.586 409.045 419.586V419.549C411.789 414.513 412.729 409.367 412.051 403.432ZM411.149 427.362C407.207 429.053 404.311 426.987 403.748 422.853C403.11 418.422 401.795 414.064 400.782 409.555C398.189 410.457 396.196 411.168 393.868 411.997C390.939 408.015 386.165 405.197 389.359 398.51C391.127 394.904 390.711 390.244 391.388 385.433C388.08 389.493 385.454 393.173 382.37 396.444C378.049 400.99 372.604 403.432 366.254 403.731C360.356 403.996 356.525 400.574 356.112 394.79C355.998 393.324 355.659 391.858 355.622 390.395C355.622 387.765 356.635 385.624 359.604 385.997C364.6 386.638 367.495 383.934 367.908 379.723C368.622 371.947 368.434 364.096 368.471 356.283C368.508 354.552 367.871 352.861 367.532 351.059C366.368 358.346 365.767 365.522 364.036 372.436C361.446 382.541 348.748 393.173 338.378 393.324C330.863 393.475 323.536 390.996 317.638 385.772C313.619 382.28 308.285 382.655 303.702 380.891C302.987 380.626 301.709 381.753 300.696 382.28C297.952 383.705 295.248 385.171 292.617 386.601C295.737 387.802 299.381 388.855 302.649 390.62C305.805 392.274 308.734 394.488 311.364 396.857C312.153 397.608 312.116 399.936 311.589 401.137C311.291 401.778 308.734 402.154 307.795 401.627C292.993 392.911 277.027 393.324 260.796 395.39C253.171 396.367 245.958 398.433 240.171 403.657C237.953 405.646 236.45 408.501 235.175 411.397C241.711 403.657 250.051 401.929 259.706 401.288C275.675 400.198 288.484 406.924 301.223 414.926C307.496 418.908 313.77 422.78 317.94 429.315C319.443 426.537 320.681 423.756 322.412 421.277C323.536 419.66 325.341 417.331 327.558 419.361C328.535 420.223 328.498 422.743 328.196 424.43C327.106 430.331 325.415 436.152 324.589 442.09C324.214 444.908 324.928 448.025 325.868 450.769C326.468 452.534 328.384 453.812 330.299 455.916C331.651 452.195 332.628 449.491 333.644 446.787C336.425 439.574 341.683 434.424 348.936 432.66C354.005 431.418 359.678 432.17 365.053 432.66C379.103 433.938 390.899 440.661 402.02 448.814C406.341 451.934 408.482 455.54 412.803 466.098C413.816 452.648 414.869 439.195 415.996 424.846C413.856 425.974 412.541 426.799 411.149 427.362ZM275.112 384.534C271.391 382.504 268.573 380.928 265.379 379.2C263.839 381.038 262.226 382.994 259.857 385.849C265.268 385.396 269.7 385.021 275.112 384.534ZM231.643 443.855C230.589 450.769 233.447 457.342 239.644 461.324C252.382 469.476 266.771 473.009 281.61 473.536C289.877 473.838 298.405 472.221 302.199 459.784C302.763 457.868 305.128 456.59 306.332 454.789C313.656 443.855 311.026 431.459 300.431 423.642C287.434 414.027 272.367 411.356 257.002 409.555C248.437 408.877 244.415 414.889 240.134 420.562C234.873 427.477 232.844 435.703 231.643 443.855ZM332.93 476.917C333.718 483.04 337.475 486.458 342.961 489.166C353.67 494.386 364.187 499.834 376.097 501.824C386.205 503.515 388.496 502.69 393.68 493.749C396.535 488.827 400.067 484.016 401.493 478.682C404.499 467.413 402.134 457.831 391.576 450.504C381.169 443.254 370.125 439.309 357.575 438.108C348.144 437.242 343.035 444.268 340.518 450.169C339.693 452.121 339.28 454.225 338.717 456.255C343.749 464.407 342.471 469.104 332.93 476.917ZM412.014 470.379L412.202 470.681L412.313 470.342L412.014 470.379ZM412.353 468.537L412.165 468.238L412.051 468.577L412.353 468.537ZM428.282 396.779C426.215 392.234 423.36 388.026 420.881 383.669V383.444C420.656 383.407 420.391 383.33 420.13 383.256C420.354 383.37 420.579 383.481 420.804 383.558C420.841 383.595 420.841 383.632 420.881 383.669C420.918 387.54 420.73 391.445 420.992 395.317C422.797 421.24 423.511 447.123 419.754 472.972C419.717 473.274 419.791 473.609 419.828 474.287C420.468 474.438 421.22 474.626 421.968 474.7C422.76 474.814 423.585 474.851 425.427 475.039C428.997 465.796 433.241 456.63 435.985 447.012C441.091 429.278 435.418 412.786 428.282 396.779ZM469.57 385.171L469.758 385.473L469.872 385.135L469.57 385.171ZM438.689 512.684C438.501 513.774 438.652 514.938 438.652 516.253C444.624 513.247 450.636 510.805 456.007 507.349C463.371 502.616 470.322 497.241 477.31 491.907C486.627 484.731 496.507 478.719 507.89 475.226C518.072 472.147 528.066 468.5 538.097 465.044C539.899 464.407 541.59 463.317 543.619 462.303C541.214 458.469 537.383 458.546 534.041 458.432C525.023 458.093 516.458 460.837 507.853 463.129C504.887 463.917 501.767 464.407 498.724 464.407C497.221 464.367 494.893 463.243 494.517 462.075C494.105 460.911 495.306 458.62 496.47 457.644C502.556 452.648 508.829 447.951 515.029 443.14C522.356 437.467 529.945 432.096 536.896 425.974C540.878 422.441 543.884 417.781 547.303 413.611C547.377 413.574 547.491 413.537 547.565 413.537C547.753 413.386 547.94 413.275 548.165 413.161C547.94 413.235 547.679 413.349 547.451 413.423C547.414 413.5 547.34 413.537 547.303 413.611C538.097 415.567 531.522 422.367 523.782 426.95C514.053 432.697 504.81 439.272 495.155 445.207C493.917 445.959 491.209 445.583 489.931 444.68C488.505 443.667 487.868 441.751 489.706 439.648C497.335 430.932 504.585 421.803 512.248 413.124C522.843 401.214 534.001 389.754 544.334 377.583C548.165 373.074 552.711 368.491 553.687 361.164C545.347 364.999 538.473 369.732 532.122 375.218C524.872 381.491 517.921 388.063 510.896 394.565C502.821 402.04 494.816 409.518 486.741 416.992C485.087 418.532 483.134 419.847 481.631 421.501C479.414 423.907 477.461 423.531 475.244 421.652C472.915 419.66 473.177 417.368 474.603 415.191C478.625 409.065 482.718 402.979 487.002 397.007C496.96 383.219 507.216 369.655 516.982 355.719C519.689 351.884 521.041 347.077 522.994 342.682C522.581 342.454 522.205 342.192 521.793 341.967C516.606 346.664 511.161 351.096 506.387 356.205C500.154 362.855 494.403 369.957 488.579 376.982C482.118 384.796 475.918 392.76 469.456 400.537C466.679 403.919 463.783 407.3 460.516 410.192C459.425 411.168 456.758 411.283 455.295 410.645C454.467 410.306 454.054 407.414 454.504 405.985C458.862 391.633 463.595 377.432 467.843 363.08C468.819 359.738 468.369 355.981 468.594 352.072C462.958 352.673 461.455 356.43 459.915 359.362C453.189 372.171 446.764 385.098 440.531 398.135C439.739 399.785 440.568 402.416 441.091 404.482C443.198 412.635 445.6 420.713 447.63 428.902C450.636 441.339 445.976 452.46 441.091 463.431C438.84 468.463 435.871 473.197 433.465 478.155C432.979 479.209 433.089 481.161 433.767 482.027C441.279 491.343 440.719 501.864 438.689 512.684ZM522.544 417.593C521.98 417.707 521.417 417.821 520.853 417.932C521.004 418.197 521.115 418.459 521.229 418.72C521.678 418.345 522.131 417.969 522.544 417.593ZM436.998 523.691C436.696 523.503 436.397 523.352 436.059 523.164C431.063 536.087 424.374 547.886 413.856 557.166C414.044 557.542 414.191 557.954 414.379 558.33C419.942 558.857 425.501 559.38 431.476 559.944C433.314 547.886 435.156 535.789 436.998 523.691ZM426.628 599.921C429.634 599.169 430.124 596.764 430.198 594.284C430.422 586.471 430.496 578.654 430.724 570.877C430.724 569.938 431.1 568.999 431.436 567.573C429.936 567.348 428.658 567.16 427.416 566.972C426.142 573.132 425.125 578.919 423.81 584.629C422.495 590.188 420.918 595.71 419.227 601.947C421.968 601.195 424.3 600.521 426.628 599.921ZM402.134 599.129C410.924 604.352 413.064 600.108 414.718 593.382C416.372 586.582 418.325 579.858 419.979 573.058C420.468 571.065 420.428 568.925 420.616 566.895C416.859 566.07 413.554 565.318 411.189 564.755C408.183 576.175 405.177 587.558 402.134 599.129ZM408.408 563.55L408.106 563.591L408.294 563.852L408.408 563.55ZM392.854 560.095C392.854 560.058 392.891 560.058 392.891 560.021C398.601 559.645 396.273 555.287 396.649 552.318C396.686 552.244 396.723 552.208 396.76 552.13C396.76 552.093 396.796 552.093 396.796 552.057C402.584 554.348 406.415 551.268 410.021 547.286C422.384 533.571 430.798 518.132 431.436 499.194C431.627 494.349 430.573 489.877 427.192 485.932C423.511 486.422 420.354 485.744 420.13 480.373C419.717 480.598 419.341 480.822 418.966 481.087C417.573 486.197 416.298 491.343 414.795 496.416C410.887 509.866 406.942 523.315 402.772 536.691C401.118 541.875 398.826 546.947 396.796 552.057C396.76 552.057 396.723 552.02 396.686 552.02C396.649 552.13 396.649 552.208 396.649 552.318C395.444 554.875 394.17 557.428 392.891 560.021H392.777C392.704 560.209 392.626 560.397 392.626 560.397L392.854 560.095ZM396.572 528.911C400.668 516.777 404.124 504.417 407.881 492.169C407.918 492.132 407.955 492.095 407.995 492.095V491.719C408.143 491.192 408.331 490.666 408.482 490.142C408.331 490.102 408.143 490.065 407.995 490.028V491.719C407.955 491.793 407.955 491.907 407.918 491.981C407.881 492.058 407.881 492.095 407.881 492.169C403.298 494.349 400.819 498.368 399.766 502.991C399.091 505.957 397.813 507.648 395.146 508.665C383.763 512.908 372.339 512.908 361.369 507.648C352.203 503.216 343.336 498.107 334.094 493.185C333.755 494.047 333.044 495.852 332.366 497.694C332.329 497.654 332.292 497.654 332.255 497.654C332.215 497.543 332.141 497.429 332.067 497.318C332.067 497.392 332.027 497.543 332.067 497.58C332.141 497.617 332.178 497.617 332.255 497.654C332.292 497.694 332.292 497.731 332.329 497.768C332.329 497.731 332.366 497.731 332.366 497.694H332.44C330.863 499.496 329.36 501.411 327.706 503.102C322.11 508.812 314.82 508.624 307.607 508.738L307.647 508.665C306.933 506.709 305.205 504.266 305.842 502.914C306.557 501.337 309.224 500.173 311.254 499.798C319.668 498.217 324.251 493.336 323.425 484.845C322.6 476.578 320.681 468.426 319.218 460.009C315.572 460.686 313.394 461.965 313.206 465.645C312.982 469.251 310.989 470.979 307.231 471.432C305.242 471.62 303.024 472.858 301.598 474.287C295.134 480.863 286.944 482.664 278.416 481.651C265.305 480.034 252.456 477.142 240.62 470.567C229.727 464.555 223.94 456.214 225.332 443.516C225.406 442.879 225.218 442.241 225.144 441.715C221.46 438.782 217.891 439.011 214.06 441.188C211.993 442.352 209.628 442.953 207.186 443.892C206.998 449.34 204.968 451.669 201.21 450.055C199.973 449.491 199.07 447.914 198.241 446.636C194.299 440.624 190.542 434.502 186.523 428.527C185.657 427.248 184.228 426.309 182.953 425.296C179.196 422.404 175.851 423.078 173.747 427.436C168.9 437.43 166.571 448.062 167.172 459.033C167.923 473.838 172.171 487.623 180.887 499.908C186.033 507.198 195.839 514.485 203.616 517.381C202.039 507.95 200.422 498.405 198.845 488.938C204.216 487.851 205.344 488.602 206.434 493.41C208.574 502.763 210.49 512.157 212.895 521.437C213.798 524.929 213.684 529.062 218.83 530.642C220.672 531.206 221.611 535.564 222.437 538.342C226.043 550.366 230.817 561.937 238.557 571.854C248.135 584.102 260.233 593.456 273.646 601.346C288.333 609.989 303.363 609.874 319.104 605.553C341.572 599.394 359.718 586.659 374.896 569.488C385.266 557.73 391.613 543.565 396.572 528.911ZM209.628 425.034C211.956 426.121 214.248 427.326 217.139 428.751C220.897 424.581 223.977 419.774 226.345 414.476C226.345 414.403 226.382 414.288 226.382 414.215C226.345 414.288 226.345 414.362 226.308 414.439C221.048 416.58 215.824 418.871 210.49 420.787C208.276 421.575 205.756 421.538 202.713 421.951C205.307 423.078 207.484 424.018 209.628 425.034ZM203.203 434.012C204.894 434.84 206.545 435.666 208.236 436.491C208.537 436.078 208.799 435.666 209.101 435.253C207.336 434.424 205.605 433.562 203.878 432.734C203.653 433.186 203.428 433.599 203.203 434.012ZM226.271 433.26C226.231 433.223 226.231 433.15 226.194 433.109V431.12C225.933 431.194 225.631 431.231 225.369 431.308C225.631 431.908 225.933 432.509 226.194 433.109V433.374C226.271 433.411 226.345 433.448 226.419 433.448C226.382 433.374 226.345 433.297 226.271 433.26ZM200.872 421.277C200.912 421.089 200.872 420.901 200.872 420.676C200.61 420.713 200.348 420.787 200.046 420.824C200.234 421.012 200.348 421.199 200.496 421.314C200.61 421.387 200.872 421.314 200.872 421.277ZM198.017 420.035C197.829 419.66 197.604 418.985 197.493 418.985C196.967 419.096 196.514 419.398 196.027 419.623C196.101 419.847 196.215 420.112 196.326 420.374C196.889 420.26 197.453 420.149 198.017 420.035ZM352.314 633.355C347.507 625.616 349.798 617.426 349.875 609.536C349.875 608.298 351.754 607.056 352.767 605.818C353.894 607.17 356.072 608.596 355.998 609.838C355.622 615.585 358.514 619.08 362.909 621.935C369.749 626.407 376.509 631.027 383.498 635.271C384.588 635.949 386.541 635.234 388.121 635.16V635.459L388.195 635.234L388.121 635.16C383.612 629.863 382.407 623.173 381.018 616.752C377.976 602.812 380.042 589.175 384.437 575.799C384.625 575.198 384.662 574.561 384.739 573.92C384.739 573.769 384.588 573.622 384.175 572.87C382.448 574.447 380.72 575.799 379.254 577.453C368.81 589.175 356.712 598.753 342.699 605.781C328.609 612.807 313.77 617.165 297.915 617.463C294.835 617.503 291.755 617.014 288.672 616.752C288.598 616.712 288.521 616.638 288.447 616.601C288.484 616.638 288.521 616.675 288.561 616.712C288.598 616.752 288.635 616.752 288.672 616.752C290.024 617.54 291.416 618.966 292.691 618.892C297.539 618.627 300.659 621.898 304.413 623.888C308.697 626.142 312.982 628.323 317.262 630.5C317.262 630.577 317.299 630.614 317.299 630.688C317.49 630.725 317.715 630.725 317.752 630.725C317.715 630.725 317.564 630.651 317.376 630.577C317.34 630.537 317.299 630.537 317.262 630.5C316.699 627.907 315.873 625.28 315.649 622.65C315.347 618.48 317.225 616.937 321.322 617.916C323.16 618.329 324.928 619.342 326.656 620.244C335.147 624.676 343.598 629.185 352.314 633.355ZM293.52 658.114C305.581 661.684 317.715 664.988 330.189 668.521C331.578 657.738 332.967 646.768 334.433 635.197C333.342 634.747 331.953 634.144 330.524 633.58C330.564 633.543 330.564 633.506 330.564 633.469C330.189 633.094 329.85 632.681 329.474 632.305H329.135C329.209 632.342 329.323 632.379 329.397 632.416C329.773 632.792 330.112 633.167 330.487 633.58H330.524C329.061 640.119 328.196 640.907 321.808 640.609C313.317 640.233 306.144 636.361 299.193 631.852C297.314 630.688 294.835 630.202 292.617 629.974C289.085 629.675 286.72 628.846 285.103 625.092C283.75 621.858 280.708 619.342 277.591 615.511C272.069 624.341 267.184 632.154 262.299 639.931C271.616 649.174 281.986 654.696 293.52 658.114ZM190.955 580.908C192.907 583.841 194.786 586.92 197.305 589.326C202.415 594.284 207.9 598.83 213.234 603.564C213.157 603.863 213.083 604.164 213.046 604.466C213.234 604.279 213.385 604.091 213.57 603.903C224.842 612.055 236.413 619.644 249.524 624.488C253.057 625.767 256.777 626.481 260.833 627.571C265.04 622.16 269.324 616.638 273.609 611.153C268.573 607.808 263.651 604.728 258.955 601.309C247.796 593.268 237.728 584.176 230.103 572.457C220.974 558.367 211.507 544.468 206.585 528.123C206.283 527.147 204.931 526.432 204.331 525.831C201.512 534.135 199.332 542.136 196.138 549.765C192.907 557.391 188.663 564.567 185.208 571.253C187.234 574.672 188.965 577.866 190.955 580.908ZM19.1882 354.478C18.8125 354.176 18.4367 353.914 18.061 353.612C15.5817 357.896 13.1763 362.066 10.6601 366.498C13.3642 368.303 16.1051 370.521 19.1882 372.134C19.1882 372.171 19.2251 372.171 19.2251 372.171C21.8553 373.527 24.4856 372.698 25.9483 370.068C27.3003 367.703 28.2028 365.072 29.4072 362.328C25.8007 359.55 22.3418 356.92 19.1882 354.478ZM35.3789 366.424C33.2754 370.145 31.4335 373.339 29.5951 376.57C36.9188 383.182 41.6156 382.28 45.675 373.074C42.253 370.856 38.7606 368.605 35.3789 366.424ZM62.654 367.927C62.0905 368.605 61.7918 368.941 61.453 369.279C61.7918 369.544 62.1273 370.108 62.4662 370.068C62.8419 370.068 63.4424 369.581 63.4424 369.279C63.4827 368.867 63.0298 368.454 62.654 367.927ZM51.7976 376.231C50.3685 378.297 48.6407 380.891 46.876 383.518C58.447 387.352 58.1082 389.53 63.6706 377.281C59.6883 376.905 56.1187 376.606 51.7976 376.231ZM105.858 415.755L105.747 416.09L106.046 416.053L105.858 415.755ZM109.844 303.873L109.616 304.061L109.918 304.134L109.844 303.873ZM129.792 474.287C118.707 470.003 115.178 459.824 112.548 449.716C110.105 440.473 108.978 430.895 107.214 421.465C107.026 420.337 106.573 419.247 106.197 418.157C105.784 418.271 105.335 418.385 104.882 418.495C106.985 431.418 109.166 444.345 111.196 457.305C111.907 461.74 112.397 466.245 112.736 470.754C113.336 478.608 111.343 481.238 103.456 481.537C98.0815 481.762 92.3346 482.929 87.413 479.323C86.061 478.306 84.86 477.068 83.5817 475.864C79.8981 471.506 76.1037 467.225 72.6482 462.716C70.2058 459.522 67.6126 457.194 62.6909 458.133C62.6909 461.025 62.654 464.142 62.6909 467.225C62.805 486.536 65.2843 505.883 61.9394 525.043C60.2116 534.772 56.793 544.166 53.8273 554.911C61.1879 559.343 69.5315 564.979 78.4354 569.562C97.3301 579.295 117.355 585.83 138.471 588.836C141.853 589.326 145.345 589.363 148.727 589.926C156.014 591.091 161.311 588.011 165.632 582.489C171.194 575.423 176.79 568.435 182.276 561.336C183.064 560.283 183.329 558.78 183.815 557.428C176.451 555.099 169.765 552.167 162.777 550.929C146.811 548.111 136.555 536.315 124.27 527.71C122.804 526.697 122.089 524.553 121.113 523.054C125.246 516.964 125.246 516.964 131.707 520.195C132.908 520.799 134.036 521.473 135.277 521.963C140.199 523.953 143.017 523.013 145.043 517.981C146.509 514.411 147.036 510.466 147.975 506.709V506.635V505.695V505.618C149.817 495.889 147.375 486.646 145.419 478.645C139.598 477.068 134.526 476.089 129.792 474.287ZM185.245 332.876C181.038 339.827 175.552 346.023 171.08 352.861C166.196 360.339 161.237 367.891 157.443 375.929C151.843 387.765 150.642 400.688 150.23 413.611C150.079 418.646 150.34 423.682 149.965 428.678C149.703 432.022 148.351 435.29 148.012 438.635C146.999 448.891 148.613 458.885 151.582 468.688C154.702 479.209 157.48 489.726 157.892 500.774C158.308 511.405 156.953 521.4 149.253 529.589C149.102 529.74 149.139 530.116 149.176 530.377C149.139 530.377 149.102 530.414 149.066 530.414C148.988 530.491 148.915 530.602 148.841 530.679C147.673 531.206 146.546 531.692 145.382 532.219C145.684 532.632 146.023 533.085 146.321 533.497C147.15 532.558 147.975 531.656 148.841 530.679C148.952 530.642 149.066 530.565 149.176 530.528V530.377C150.679 529.626 152.182 528.874 153.762 528.2C155.564 527.411 157.443 526.734 159.285 526.019C159.583 526.432 159.885 526.808 160.224 527.183C159.885 528.988 159.546 530.753 159.207 532.521H159.097C158.983 532.558 158.872 532.595 158.721 532.632C158.872 532.595 159.056 532.595 159.207 532.558C163.794 533.346 166.571 529.965 169.802 527.71C170.856 526.996 171.419 525.57 172.469 524.818C174.16 523.617 176.076 522.715 177.881 521.661C178.518 523.577 179.159 525.456 179.796 527.334L179.87 527.261C179.833 527.297 179.833 527.334 179.796 527.371C176.378 533.984 171.342 538.718 163.83 540.633C174.086 545.518 182.202 540.033 185.094 526.432C189.676 525.533 191.33 526.808 191.106 531.018C190.804 536.953 187.875 541.573 183.856 545.894C185.094 546.984 186.295 547.997 187.875 549.426C192.682 541.197 195.876 532.595 197.265 523.728C191.444 519.521 185.355 515.878 180.246 511.218C167.212 499.422 160.224 484.093 157.668 467.074C155.339 451.37 157.517 435.927 164.28 421.387C166.91 415.828 174.912 410.981 180.434 413.161C189.415 416.654 195.313 412.373 201.512 407.374C215.224 396.293 225.067 382.467 231.193 366.012C232.018 363.871 232.733 362.556 235.175 363.757C238.141 365.71 236.866 368.377 236.074 370.746C231.606 384.007 224.279 395.541 214.398 405.458C211.58 408.313 208.537 410.944 205.568 413.688C205.683 414.027 205.793 414.362 205.944 414.738C210.453 412.712 215.489 411.397 219.471 408.542C229.388 401.476 238.97 393.924 248.36 386.148C252.419 382.766 256.814 379.388 258.166 373.637C258.428 372.587 259.743 371.42 260.833 370.897C266.959 368.001 269.21 361.728 273.193 356.957C273.682 356.356 273.833 355.155 274.397 354.89C282.586 351.358 281.872 343.283 283.828 336.633C284.428 334.566 284.277 332.312 284.878 330.282C285.18 329.269 286.381 328.481 287.169 327.578C288.108 328.518 289.762 329.42 289.836 330.433C290.064 334.342 290.739 338.549 289.575 342.118C286.981 350.193 283.901 358.198 279.993 365.673C278.155 369.243 273.944 371.534 270.64 374.54C277.178 377.922 283.64 381.189 291.453 378.71C295.06 377.583 297.089 376.006 294.57 371.796C295.848 371.232 296.975 370.256 297.801 370.484C301.86 371.534 303.175 369.018 304.789 366.086C311.589 353.877 314.37 340.877 313.619 326.937C313.505 324.646 312.153 320.815 316.135 320.59C319.705 320.365 319.406 323.858 319.782 326.451C322.147 342.682 320.044 358.01 310.989 371.983C310.462 372.812 310.049 373.715 309.6 374.577C313.545 376.794 317.413 375.892 320.044 372.322C325.566 364.66 327.783 355.793 329.209 346.738C330.001 341.779 329.548 336.633 330.001 331.597C330.112 330.319 331.541 329.155 332.366 327.954C333.379 328.893 335.11 329.719 335.335 330.846C337.888 344.145 336.385 356.994 329.813 368.941C327.558 373.037 324.475 376.643 321.734 380.552C325.529 384.685 328.723 385.322 333.718 383.893C335.674 383.33 338.076 384.346 340.331 385.249C349.459 381.451 355.736 374.916 357.876 364.509C360.393 352.223 359.829 340.203 356.374 327.689C342.058 320.251 326.28 314.766 310.163 310.522C296.902 307.026 283.301 304.547 269.7 302.48C252.906 299.89 236.225 301.578 220.333 307.741C214.321 310.109 208.876 314.014 203.166 317.245C203.052 317.322 202.828 317.359 202.75 317.51C199.258 325.21 189.566 325.736 185.245 332.876ZM197.98 307.815C200.046 306.651 201.999 305.564 203.203 304.886C203.804 290.158 204.404 276.369 204.931 264.161C202.901 267.053 196.628 294.969 197.98 307.815ZM211.278 276.034L211.242 275.695L211.205 275.92V300.266C221.048 297.596 230.817 294.929 240.432 292.298V285.837L240.395 285.612L240.358 285.914C238.631 285.914 236.789 285.575 235.135 285.951C225.668 288.205 218.491 284.938 213.12 277.084C212.745 276.557 211.919 276.369 211.278 276.034ZM217.629 238.238C216.539 240.979 215.526 243.723 214.549 246.504C210.416 258.186 215.338 270.321 222.963 276.41C227.546 280.053 233.256 279 238.594 278.248C239.57 278.137 240.734 275.92 240.996 274.531C241.6 271.337 241.747 268.029 242.012 264.762C242.2 262.319 241.976 260.29 239.983 258.149C238.218 256.27 238.03 252.926 237.165 250.222C236.789 250.071 236.413 249.96 236.074 249.846C234.461 254.804 232.884 259.803 231.153 265.174C227.399 266.338 224.728 264.574 225.48 259.954C226.533 253.301 228.938 247.105 234.159 242.032C232.206 235.534 231.005 228.432 223.041 224.825C221.199 229.334 219.394 233.803 217.629 238.238ZM103.305 2.78922V2.75232C103.268 2.71541 103.268 2.71541 103.231 2.71541C103.268 2.71541 103.268 2.75232 103.305 2.78922Z" fill="#EC692F"/>
<path id="Path 7603" d="M135.196 167.675C135.2 168.014 135.203 168.353 135.21 168.695L135.123 168.758C135.123 168.376 135.123 167.994 135.126 167.611L135.196 167.675Z" fill="#000046"/>
<path id="Path 7604" d="M65.774 199.466C67.012 199.241 68.4411 199.429 69.6421 199.768C79.5994 202.623 89.4795 205.739 99.4737 208.41C111.008 211.53 122.73 214.12 134.791 213.143C144.03 212.392 153.236 210.889 162.441 209.762C164.733 209.5 167.061 209.238 169.316 209.5C170.366 209.57 171.607 210.701 172.207 211.677C172.432 212.09 171.268 213.405 170.631 214.234C168.638 216.975 166.612 219.679 164.545 222.383C163.793 223.396 163.23 224.641 162.254 225.312C157.708 228.435 152.934 231.176 148.502 234.366C140.199 240.345 130.956 243.576 120.888 244.438C119.009 244.438 116.943 244.891 115.215 244.364C107.177 241.734 99.0611 239.254 91.3214 235.906C85.8361 233.467 81.7029 228.921 78.3581 223.815C73.9632 217.085 71.8597 208.785 64.5327 204.011C62.2413 202.508 63.0297 199.992 65.774 199.466ZM103.832 230.914C109.015 233.014 114.688 234.41 120.251 234.819C124.458 235.118 128.852 233.692 133.059 232.491C136.894 231.401 137.568 228.21 137.082 224.604C136.555 220.766 133.737 221.222 131.144 221.292C114.688 221.668 99.098 217.498 82.904 211.979C87.262 222.007 95.0419 227.308 103.832 230.914Z" fill="#EC692F"/>
<path id="Path 7605" d="M135.21 168.691C135.012 174.217 132.063 178.618 128.145 181.792C124.561 184.698 119.881 186.244 115.46 188.502C115.138 193.789 117.63 196.547 123.263 196.362C130.459 196.131 135.706 192.236 140.007 186.888C152.239 171.677 146.932 156.674 139.528 141.591C134.314 130.962 129.037 120.327 124.625 109.36C122.552 104.204 122.357 98.2691 121.478 92.6598C120.985 89.5028 119.278 88.5668 115.349 89.2345C115.349 92.1867 115.118 95.2363 115.389 98.2423C116.678 112.547 120.935 125.97 127.245 138.863C131.677 147.915 135.542 157.245 135.196 167.672L135.126 167.608C135.123 167.99 135.123 168.373 135.123 168.755L135.21 168.691Z" fill="#EC692F"/>
<path id="Path 7606" d="M166.038 74.6875C161.14 74.8049 155.993 74.0098 151.407 75.2679C145.194 76.9688 139.397 80.2062 133.462 82.8801C132.298 83.4068 130.902 84.1482 130.382 85.1782C129.731 86.4698 129.215 88.6102 129.859 89.5529C130.557 90.5795 132.858 91.3713 134.103 91.0123C137.991 89.8951 141.685 88.117 145.499 86.7181C156.698 82.615 167.786 82.1353 178.766 87.6239C181.953 89.2174 185.288 90.5896 188.683 91.6497C190.156 92.1127 191.958 91.5357 193.608 91.4283C193.165 89.7106 193.296 87.2448 192.186 86.396C184.416 80.4444 176.358 74.8988 165.961 74.778L165.823 74.8552C165.894 74.8015 165.967 74.7445 166.038 74.6875Z" fill="#EC692F"/>
<path id="Path 7607" d="M62.3654 73.8154C51.9418 74.3254 42.8468 77.8648 36.0699 86.0238C34.5032 87.9093 33.4263 90.667 33.235 93.1093C32.9901 96.1891 35.7612 97.2493 38.1432 95.1659C40.5755 93.0389 42.528 90.3181 45.0912 88.3924C54.7197 81.1592 65.5962 81.9946 76.5096 84.2155C79.4954 84.8228 82.2364 86.5908 85.2121 87.3255C87.054 87.7784 89.1273 87.2853 91.0966 87.2148C90.1036 85.1717 89.6104 81.9846 88.0235 81.2934C81.7801 78.5659 75.2314 76.5094 68.7129 74.4562C66.7268 73.8322 64.4891 74.0067 62.3654 73.8154Z" fill="#EC692F"/>
<path id="Path 7608" d="M141.356 122.367C143.715 126.655 146.784 126.393 149.851 124.464C160.09 118.023 170.439 120.113 180.809 123.887C182.611 124.541 184.134 126.027 185.952 126.541C187.294 126.92 189.8 126.819 190.203 126.074C190.874 124.836 190.958 122.26 190.109 121.371C178.978 109.716 160.633 105.237 144.882 116.496C143.107 117.764 142.409 120.539 141.356 122.367Z" fill="#EC692F"/>
<path id="Path 7609" d="M41.5786 131.727C45.269 129.188 48.9392 126.618 52.6497 124.108C58.6851 120.029 65.1734 119.133 72.1583 121.26C76.6672 122.632 81.203 123.994 85.8194 124.877C87.3894 125.179 89.2447 123.994 90.9691 123.491C90.1203 121.944 89.6641 119.777 88.359 118.952C79.3109 113.239 69.3134 109.806 58.6784 111.665C50.5093 113.094 43.7962 118.197 39.0859 125.179C38.217 126.467 39.3409 129.097 39.5456 131.11C40.2232 131.315 40.9009 131.523 41.5786 131.727Z" fill="#EC692F"/>
<path id="Path 7610" d="M99.5375 255.009C98.4237 259.434 100.225 261.168 103.094 261.803C112.105 263.782 121.15 264.359 130.134 261.605C131.362 261.226 132.499 260.494 133.62 259.82C135.847 258.478 137.079 256.532 135.69 254.066C134.2 251.433 132.338 252.919 130.318 253.811C122.364 257.317 114.051 256.68 105.724 255.536C103.704 255.257 101.658 255.183 99.5375 255.009Z" fill="#EC692F"/>
<path id="Path 7611" d="M295.368 184.479C295.764 188.301 298.284 188.847 301.256 189.431C310.855 191.307 320.429 193.33 329.927 195.641C332.537 196.275 334.741 198.489 337.345 199.264C339.062 199.774 341.74 199.66 342.92 198.62C344.018 197.651 344.088 195.054 343.954 193.222C343.071 181.027 332.762 179.601 324.2 176.81C317.957 174.777 311.123 174.401 304.869 177.112C301.572 178.541 298.821 181.249 295.858 183.433C295.536 183.671 295.466 184.258 295.368 184.479Z" fill="#EC692F"/>
<path id="Path 7612" d="M338.573 222.98C336.848 217.169 332.098 215.361 328.109 213.234C317.383 207.521 305.973 207.195 294.409 210.379C293.064 210.751 291.477 211.634 290.816 212.758C290.007 214.13 289.37 216.354 289.97 217.555C290.423 218.471 293.01 218.87 294.503 218.622C299.542 217.783 304.517 216.552 309.204 215.539C308.204 221.517 306.59 226.566 306.705 231.575C306.862 238.355 313.82 240.962 319.225 236.695C324.65 232.41 326.391 226.798 324.707 219.863C329.36 220.041 332.655 225.986 338.573 222.98Z" fill="#EC692F"/>
<path id="Path 7613" d="M394.847 240.043C397.739 242.559 400.678 245.025 403.506 247.608C405.284 249.235 406.898 251.687 409.615 249.866C412.289 248.068 411.128 245.904 409.74 243.552C403.942 233.746 394.472 230.189 384.105 228.15C381.075 227.552 377.919 227.039 374.876 227.254C372.772 227.402 370.759 228.858 368.706 229.73C368.733 230.424 368.76 231.119 368.79 231.813C372.024 232.883 375.258 233.95 379.052 235.208C375.694 240.536 375.812 246.336 379.16 252.13C382.162 257.327 386.49 258.015 390.647 253.68C394.307 249.862 395.173 245.132 394.787 240.053L394.569 239.972L394.847 240.043Z" fill="#EC692F"/>
<path id="Path 7614" d="M349.355 244.632C349.355 249.688 349.291 254.744 349.368 259.8C349.483 267.194 345.732 272.136 339.572 275.615C339.005 275.933 338.177 276.111 337.922 276.594C337.278 277.802 336.154 279.57 336.59 280.338C337.18 281.382 339.096 282.338 340.354 282.237C349.607 281.479 359.571 273.115 359.091 261.511C358.769 253.664 357.484 245.85 357.303 238.006C357.155 231.682 358.148 225.338 358.313 218.994C358.35 217.558 357.038 216.086 356.347 214.63C355.005 215.572 352.707 216.324 352.478 217.488C350.717 226.429 349.358 235.45 347.876 244.448C348.369 244.508 348.862 244.572 349.355 244.632Z" fill="#EC692F"/>
<path id="Path 7615" d="M421.347 226.952C424.991 225.795 425.263 223.544 423.555 220.172C422.069 217.233 421.002 214.049 420.039 210.886C418.455 205.686 414.044 203.669 409.77 201.7C403.308 198.718 396.25 197.872 389.285 198.194C385.222 198.382 381.156 200.19 377.288 201.757C376.248 202.176 375.476 204.377 375.49 205.749C375.493 206.36 377.724 207.031 379.009 207.507C379.583 207.719 380.314 207.564 380.965 207.497C394.465 206.055 404.338 212.516 413.111 221.829C415.111 223.953 418.207 225.05 421.347 226.952Z" fill="#EC692F"/>
<path id="Path 7616" d="M254.063 255.804C254.067 256.193 254.067 256.582 254.07 256.971C254.067 256.582 254.067 256.193 254.063 255.804Z" fill="black"/>
<path id="Path 7617" d="M307.637 508.661L307.526 508.97L307.624 508.742L307.637 508.661Z" fill="black"/>
<path id="Path 7618" d="M308.58 546.202C308.929 546.209 309.274 546.219 309.623 546.226L309.677 546.293C309.291 546.3 308.905 546.303 308.52 546.306L308.58 546.202Z" fill="black"/>
<path id="Path 7619" d="M179.89 527.246L179.826 527.501L179.799 527.326L179.89 527.246Z" fill="black"/>
<path id="Path 7620" d="M83.575 475.867L83.4743 475.793L83.575 475.867Z" fill="black"/>
<path id="Path 7621" d="M148.036 506.725L148.026 505.581C147.942 505.84 147.818 506.095 147.784 506.363C147.771 506.47 147.945 506.605 148.036 506.725Z" fill="black"/>
<path id="Path 7622" d="M309.623 546.226C318.497 547.37 326.297 543.985 333.946 540.261C337.147 538.704 339.982 536.409 343.092 534.638C345.715 533.145 345.728 531.199 344.148 527.673C340.673 529.039 337.006 530.055 333.755 531.83C316.719 541.12 299.837 538.973 285.297 527.472C276.36 520.407 268.68 512.999 265.107 502.485C266.027 499.358 271.23 497.432 268.308 492.923C261.186 492.652 249.014 507.118 251.47 514.277C254.113 512.553 256.542 510.969 258.841 509.47C262.954 514.985 266.979 521.302 271.918 526.798C281.684 537.664 293.406 545.32 308.58 546.202L308.52 546.306C308.905 546.303 309.291 546.296 309.677 546.293L309.623 546.226Z" fill="#EC692F"/>
<path id="Path 7623" d="M190.109 467.098C190.854 469.251 191.599 471.409 192.437 473.831C193.981 473.733 195.386 473.646 196.893 473.552C199.14 465.437 196.047 458.616 192.209 452.433C188.901 447.099 184.288 442.567 180.192 437.732C179.582 437.008 178.642 436.105 177.844 436.095C176.217 436.075 174.583 436.605 172.949 436.91C173.341 438.484 173.298 440.396 174.2 441.577C178.427 447.109 182.916 452.44 187.536 458.12C181.796 462.431 178.867 467.436 178.119 473.781C177.803 476.438 178.283 478.759 180.863 479.192C182.886 479.531 184.409 478.118 185.01 475.465C185.701 472.428 187.559 469.657 188.911 466.772C189.311 466.88 189.71 466.987 190.109 467.098Z" fill="#EC692F"/>
<path id="Path 7624" d="M198.684 495.168C198.771 491.293 195.195 487.361 191.475 487.247C186.935 487.106 181.641 490.347 181.665 493.249C181.709 498.134 186.154 504.058 189.941 504.273C194.048 504.508 198.58 499.791 198.684 495.168Z" fill="#EC692F"/>
<path id="Path 7625" d="M466.259 441.114C466.182 440.594 466.162 440.43 466.135 440.269C465.682 437.655 466.544 433.777 462.727 433.633C459.271 433.502 459.576 437.045 459.167 439.628C457.667 449.028 452.514 456.882 448.136 465.048C446.056 468.926 443.496 472.569 441.702 476.565C441.067 477.977 441.614 480.4 442.51 481.799C442.886 482.389 445.657 481.819 447.126 481.232C448.24 480.789 449.22 479.621 449.908 478.551C456.768 467.809 462.327 456.446 465.947 444.19C466.266 443.11 466.185 441.909 466.259 441.114Z" fill="#EC692F"/>
<path id="Path 7626" d="M349.026 411.521C350.201 412.071 351.865 413.52 353.519 413.51C366.941 413.453 377.399 420.109 387.097 428.255C390.966 431.506 394.009 435.719 397.702 439.208C398.766 440.212 400.772 440.218 402.349 440.685C402.627 439.054 403.63 437.098 403.07 435.844C396.401 420.877 375.121 403.898 355.773 405.562C352.868 405.811 349.137 405.472 349.026 411.521Z" fill="#EC692F"/>
<path id="Path 7627" d="M259.049 422.484C263.007 426.229 266.48 429.513 269.955 432.801C275.491 438.041 281.016 443.295 286.575 448.518C287.511 449.397 288.484 450.582 289.611 450.823C290.99 451.115 292.55 450.561 294.03 450.374C293.822 449.032 294.104 447.183 293.325 446.422C284.948 438.236 276.558 430.05 267.825 422.256C264.644 419.418 263.856 419.871 259.049 422.484Z" fill="#EC692F"/>
<path id="Path 7628" d="M275.779 449.484C275.196 447.824 275.085 445.65 273.941 444.596C269.167 440.205 264.192 436.001 259.018 432.086C257.831 431.187 255.566 431.71 253.798 431.58C254.328 433.321 254.342 435.585 255.479 436.706C259.538 440.698 263.856 444.459 268.338 447.971C270.039 449.303 272.448 449.729 274.531 450.568C274.947 450.206 275.363 449.847 275.779 449.484Z" fill="#EC692F"/>
<path id="Path 7629" d="M350.694 447.78C351.345 448.951 351.69 449.924 352.321 450.649C360.688 460.28 369.031 469.932 377.546 479.43C379.23 481.309 381.179 484.986 384.219 482.55C387.832 479.655 383.924 477.34 382.277 475.287C375.936 467.369 369.491 459.529 362.905 451.816C361.007 449.588 358.641 447.676 356.216 446.019C355.203 445.324 353.435 445.422 352.099 445.657C351.502 445.761 351.12 447.092 350.694 447.78Z" fill="#EC692F"/>
<path id="Path 7630" d="M354.377 465.148C356.001 472.298 360.373 476.555 364.942 480.594C365.542 481.124 367.354 480.997 368.082 480.46C368.783 479.95 369.411 477.998 369.038 477.565C365.385 473.321 361.55 469.228 357.655 465.199C357.279 464.813 356.152 465.148 354.377 465.148Z" fill="#EC692F"/>
</g>
</g>
</g>
</g>
</g>
</g>
</g>
</svg>
