<?xml version="1.0" encoding="UTF-8"?>
<svg id="Layer_1" xmlns="http://www.w3.org/2000/svg" version="1.1" viewBox="0 0 1464.47 633.71">
  <!-- Generator: Adobe Illustrator 30.6.0, SVG Export Plug-In . SVG Version: 2.1.4 Build 109)  -->
  <defs>
    <style>
      .st0, .st1, .st2, .st3 {
        fill: none;
      }

      .st4, .st5, .st6, .st7, .st8, .st9, .st1, .st10, .st11, .st12, .st13, .st14, .st15, .st16, .st17, .st18, .st19, .st20, .st3 {
        stroke: #000;
      }

      .st4, .st5, .st16, .st17 {
        fill: #fcdd3a;
      }

      .st4, .st1, .st18 {
        stroke-width: 1.72px;
      }

      .st5, .st15 {
        stroke-width: .86px;
      }

      .st6, .st7, .st21 {
        fill: #c48949;
      }

      .st6, .st8, .st9, .st10, .st13, .st14, .st2, .st17, .st19, .st20, .st3 {
        stroke-width: 3.44px;
      }

      .st7, .st11, .st12, .st16 {
        stroke-width: 2.58px;
      }

      .st8 {
        fill: #b25b54;
      }

      .st9 {
        fill: #e15828;
      }

      .st22 {
        isolation: isolate;
      }

      .st10 {
        fill: #ef8273;
      }

      .st11, .st14, .st15, .st23 {
        fill: #f3c538;
      }

      .st12, .st13, .st18 {
        fill: #e7a234;
      }

      .st2 {
        stroke: #fff;
      }

      .st24 {
        fill: #fff;
      }

      .st25 {
        fill: #dda999;
      }

      .st26 {
        fill: #529bff;
      }

      .st27 {
        fill: #d9b96c;
      }

      .st28 {
        fill: #d19d8f;
      }

      .st19 {
        fill: #f4a69d;
      }

      .st29, .st20 {
        fill: #ce665b;
      }

      .st30 {
        fill: #f2d0c3;
      }
    </style>
  </defs>
  <g>
    <path id="Path_7333" class="st2" d="M473.79,623.01c-.34.2-5.57,8.89-9.34,8.96-25,.52-110.98-10.35-181.24-24.24-79.12-16.05-103.95-32.57-103.5-37.2,4.44-45.2-3.83,9.85,6.39-34.52,2.99-12.98,35.96-223.64,58.74-254.42,11.91-16.1,34.24-22.2,38.36-32.44,4.23-10.5,2.66-10.83,5.23-21.94.09-6.29,3.97-10.54,7.37-12.12,5.29-2.44,10.76-1.27,15.92-.38,23.01,3.96,44.28,13.23,66.77,19.16,25.44,6.7,49.66,17.27,75.38,23.13,7.9,1.8,15.79,3.64,23.69,5.46,2.83.65,15.46,1.27,16.4,4.92.68,2.66-1.93,10.45-2.16,13.77-.34,4.98-.51,10.29,1.07,14.78,1.09,3.13,4.16,6.36,6.02,8.95,4.82,6.64,9.85,12.69,13.6,20.38,7.05,14.42,6.21,30.84,5.27,47.79-1.4,25.19-4.98,50.57-9.61,75.47-3.09,16.57-30.37,161.57-34.37,174.5ZM473.79,623.01c-3.42,5.27,0,0,0,0Z"/>
    <path class="st29" d="M291.72,182c-2.48,10.72-4.73,21.41-6.8,32.16-.81,4.19-4.55,10.16-1.35,11.79,92.64,47.13,194.15,52.69,212.83,49.3,2.91-11.41,7.06-22.1,8.51-34.11.21-1.8,1.8-8.71,1.24-10.38-1.06-3.13-7.96-3.29-9.83-3.69-11.23-2.37-22.67-3.7-33.96-5.83-41.05-7.73-81.64-18.71-122.35-28.1-11.1-2.56-22.53-6.42-33.97-7.13"/>
    <path class="st3" d="M291.72,182c-2.48,10.72-4.73,21.41-6.8,32.16-.81,4.19-4.55,10.16-1.35,11.79,92.64,47.13,194.15,52.69,212.83,49.3,2.91-11.41,7.06-22.1,8.51-34.11.21-1.8,1.8-8.71,1.24-10.38-1.06-3.13-7.96-3.29-9.83-3.69-11.23-2.37-22.67-3.7-33.96-5.83-41.05-7.73-81.64-18.71-122.35-28.1-11.1-2.56-22.53-6.42-33.97-7.13"/>
    <path id="Path_7335" class="st8" d="M296.54,186.67l-9.47,41.04c.53.27,1.06.52,1.59.78l9.57-41.43-1.68-.39h0Z"/>
    <path id="Path_7336" class="st8" d="M302.91,188.92l-1.68-.39c-1.85,7.99-3.81,16.11-5.7,23.94-1.38,5.68-2.78,11.51-4.15,17.33.53.26,1.07.51,1.59.76,1.4-5.94,2.84-11.89,4.24-17.69,1.89-7.85,3.85-15.96,5.71-23.97h0Z"/>
    <path id="Path_7337" class="st8" d="M308.08,192.86l-9.33,40.41c.53.25,1.07.49,1.61.73l9.41-40.75-1.68-.39h0Z"/>
    <path id="Path_7338" class="st8" d="M323.31,197.99l-1.66-.47c-2.66,9.81-4.51,20.07-6.31,29.98-.71,3.96-1.45,8-2.23,12.03.54.22,1.08.45,1.62.67.82-4.16,1.57-8.33,2.31-12.42,1.79-9.87,3.63-20.07,6.27-29.79h0Z"/>
    <path id="Path_7339" class="st8" d="M309.4,229.07c.7-3.41,1.69-7.01,2.73-10.83,2.29-8.41,4.67-17.09,4.38-24.91l-1.74.21c.28,7.48-2.05,15.99-4.31,24.24-1.05,3.85-2.05,7.49-2.77,10.97l-.16.77c-.48,2.31-.97,4.67-1.47,7.03.54.23,1.08.46,1.62.7.52-2.48,1.04-4.96,1.55-7.39l.16-.77h0Z"/>
    <path id="Path_7340" class="st8" d="M330.08,197.94l-10.23,44.31c.54.21,1.08.43,1.62.64l10.29-44.56-1.68-.39h0Z"/>
    <path id="Path_7341" class="st8" d="M342.21,227.2c1.55-7.54,3.14-15.34,3.45-22.74l-1.74.03c-.31,7.22-1.89,14.93-3.41,22.39-.7,3.44-1.43,6.99-2,10.37-.71,4.19-1.39,7.85-2.08,11.2.55.19,1.1.38,1.64.57.71-3.45,1.42-7.19,2.15-11.51.57-3.35,1.25-6.73,1.99-10.3h0Z"/>
    <path id="Path_7342" class="st8" d="M334.12,199.66c-3.43,14.84-6.84,30.47-8.78,44.72.55.21,1.11.42,1.66.63,1.93-14.27,5.35-30.02,8.81-44.96l-1.68-.39Z"/>
    <path id="Path_7343" class="st8" d="M357.68,208.62l-1.68-.39c-1.71,7.43-3.54,14.99-5.32,22.28-1.68,6.89-3.39,14.01-5.03,21.06.55.18,1.1.36,1.65.53,1.64-7.07,3.38-14.24,5.06-21.18,1.77-7.3,3.6-14.86,5.32-22.31h0Z"/>
    <path id="Path_7344" class="st8" d="M367.86,211.75l-1.68-.37c-1.56,7.04-2.91,14.24-4.22,21.19-1.4,7.46-2.85,15.17-4.56,22.71.55.16,1.11.33,1.66.49,1.74-7.61,3.2-15.37,4.61-22.9,1.31-6.94,2.65-14.12,4.2-21.12h0Z"/>
    <path id="Path_7345" class="st8" d="M373.62,213.09l-10.15,43.98c.56.15,1.11.32,1.66.47l10.18-44.06-1.68-.39h0Z"/>
    <path id="Path_7346" class="st8" d="M374.1,240.85c1.61-6.9,3.21-13.8,4.79-20.71.09-.41.18-.85.28-1.3.31-1.51.67-3.23,1.27-4.2l-1.4-1.07c-.82,1.31-1.19,3.15-1.56,4.93-.09.43-.17.85-.27,1.25-1.57,6.9-3.18,13.8-4.79,20.69-.87,3.73-1.65,7.53-2.41,11.21-.46,2.24-.95,4.54-1.44,6.83.56.15,1.12.31,1.67.46.51-2.34,1-4.68,1.48-6.96.76-3.66,1.54-7.45,2.4-11.16v.02Z"/>
    <path id="Path_7347" class="st8" d="M396.71,213.75l-1.67-.46c-2.42,9.2-4.07,18.77-5.66,28.03-1.22,7.08-2.48,14.4-4.08,21.49.56.14,1.13.28,1.68.4,1.62-7.17,2.89-14.52,4.12-21.64,1.58-9.21,3.22-18.74,5.62-27.84h0Z"/>
    <path id="Path_7348" class="st8" d="M386.29,212.87l-10.95,47.45c.56.15,1.12.29,1.68.43l10.97-47.49-1.68-.39h0Z"/>
    <path id="Path_7349" class="st8" d="M398.85,220.25l-6.92,44.13c.57.13,1.13.26,1.69.38l6.94-44.28-1.71-.23h0Z"/>
    <path id="Path_7350" class="st8" d="M406.43,217.36l-1.71-.23c-1.26,8.08-2.64,16.29-3.96,24.22-1.32,7.89-2.68,16.05-3.94,24.1.56.12,1.13.25,1.69.37,1.26-8.08,2.64-16.29,3.96-24.22,1.32-7.94,2.7-16.15,3.97-24.24h0Z"/>
    <path id="Path_7351" class="st8" d="M406.62,265.48l6.97-44.47-1.71-.23-6.98,44.47,1.71.23h0Z"/>
    <path id="Path_7352" class="st8" d="M427.52,224.46l-1.7-.31c-1.96,9.98-3.07,20.32-4.15,30.31-.55,5.09-1.12,10.3-1.8,15.46.57.09,1.14.2,1.71.29.69-5.23,1.26-10.49,1.81-15.63,1.07-9.95,2.18-20.24,4.12-30.12h0Z"/>
    <path id="Path_7353" class="st8" d="M415.84,256.57c.46-3.45,1.19-7.12,1.95-10.99,1.69-8.55,3.44-17.39,2.59-25.12l-1.73.36c.82,7.39-.9,16.05-2.55,24.43-.77,3.92-1.5,7.61-1.98,11.13l-.09.71c-.51,3.77-1.04,7.64-1.6,11.49.57.1,1.13.21,1.7.32.57-3.9,1.11-7.81,1.62-11.63l.09-.71h0Z"/>
    <path id="Path_7354" class="st8" d="M434.3,223.78l-7.42,47.28c.57.09,1.14.18,1.71.27l7.43-47.32-1.71-.23h0Z"/>
    <path id="Path_7355" class="st8" d="M448.56,251.66c1-7.62,2.04-15.5,1.82-22.86l-1.74.19c.21,7.18-.81,14.97-1.8,22.51-.46,3.47-.93,7.06-1.25,10.48-.41,4.3-.83,8.04-1.3,11.48.58.07,1.15.14,1.72.2.46-3.48.89-7.26,1.31-11.59.33-3.38.77-6.79,1.25-10.41h0Z"/>
    <path id="Path_7356" class="st8" d="M440.17,225.33l-1.71-.23c-2.46,15.63-4.84,32.12-5.68,46.85.52.08,1.03.15,1.55.21h.17c.19-3.4.46-6.91.83-10.73,1.1-11.56,2.95-24.08,4.84-36.1h0Z"/>
    <path id="Path_7357" class="st8" d="M462.72,231.81l-1.71-.23c-1.18,7.51-2.46,15.14-3.7,22.53-1.13,6.69-2.28,13.57-3.36,20.39.58.06,1.15.11,1.73.16,1.07-6.79,2.23-13.65,3.34-20.3,1.25-7.39,2.53-15.03,3.7-22.55h0Z"/>
    <path id="Path_7358" class="st8" d="M473.15,233.95l-1.72-.21c-1.06,7.12-1.88,14.39-2.69,21.41-.76,6.68-1.56,13.54-2.54,20.32.58.03,1.16.07,1.73.1.98-6.79,1.78-13.64,2.54-20.3.8-7,1.63-14.25,2.68-21.33Z"/>
    <path id="Path_7359" class="st8" d="M479.01,234.75l-6.44,41.07c.58.03,1.17.05,1.74.07l6.42-40.92-1.71-.23h0Z"/>
    <path id="Path_7360" class="st8" d="M481.5,262.23c1.11-6.99,2.22-13.98,3.3-20.98.07-.42.13-.86.18-1.31.21-1.53.43-3.26.97-4.29l-1.49-.93c-.72,1.38-.96,3.24-1.2,5.04-.06.43-.11.86-.18,1.26-1.08,7-2.18,13.98-3.29,20.97-.6,3.78-1.11,7.61-1.61,11.33-.12.89-.24,1.79-.36,2.68.59.02,1.17.03,1.74.03.11-.84.23-1.7.34-2.54.5-3.7,1.01-7.52,1.6-11.28h0Z"/>
    <path id="Path_7361" class="st8" d="M502.2,233.27l-1.7-.3c-1.76,9.34-2.72,18.99-3.64,28.33-.46,4.65-.95,9.39-1.52,14.13.38-.05.75-.11,1.07-.17.39-1.5.79-2.98,1.2-4.46.34-3.15.66-6.3.97-9.39.92-9.28,1.86-18.89,3.62-28.14h0Z"/>
    <path id="Path_7362" class="st8" d="M491.68,233.36l-6.69,42.69c.6,0,1.19-.02,1.75-.03l6.65-42.43-1.71-.23h0Z"/>
    <path id="Path_7363" class="st10" d="M395.68,183.41c29.09,4.95,107.34,26.74,110.3,38.82,1.86,7.57.34,12.28-7.56,13.18-13.42,1.52-53.74-4.63-59.32-5.92-16.99-3.92-33.99-7.85-50.98-11.77-18.31-4.23-75.09-20.07-85.23-23.06-5.81-1.71-13.24-3.68-11.37-11.82,5.24-22.69,85.02-2.68,104.15.57Z"/>
    <path id="Path_7364" class="st6" d="M186.42,556.84c-3.14-11.54-1.33-27.17,6.27-36.94,9.93-12.76,20.11-10.36,32.89-9.32,5.95-16.5-21.24-23.56-11.12-44.84,6.73-14.15,26.74-27.04,42.13-23.99,11.67,2.31,17.65,10.4,25.44,16.22,2.11,1.57,1.47,4.68,4.67,5.96,5.88,2.36,21.41-10.34,28.67-10.91,11.77-.92,28.61,1.14,38.33,7.12,17.68,10.89,19.12,27.75,18.61,45.3,19.51-2.72,52.15-15.39,68.07,6.17,1.94,2.63,1.65,7.7,3.46,9.87,4.45,5.33,13.38,5.46,20.93,7.76,7.51,2.29,10.86,2.77,13.13,10.75,4.63,16.29-5.58,42.74-16.33,54.14-10.32,10.95-19.55,13.11-34.26,12.38-26.32-1.31-51.61-2.55-77.53-6.93-26.46-4.47-52.38-9.93-78.59-15.98-23.76-5.48-51.38-8.52-84.76-26.73v-.03Z"/>
    <path id="Path_7366" class="st14" d="M368.44,496.67c-8.08-7.44-18.62-10.28-25.61-12.13-12.68-3.38-25.04-1.34-35.66,6.53-8.8,6.53-14.93,17.08-17.65,27.62-3.15,12.17-2.23,30.53,6.63,40.52,9.85,11.09,33.71,14.6,47.69,14.91,19.71.43,31.35-15.01,34.14-34,1.56-10.63,3.15-17.06-.17-26.96-1.27-3.79-3.58-12.06-9.38-16.49Z"/>
    <path id="Path_7367" class="st21" d="M301.27,558.57c-.83-.7-1.59-1.44-2.28-2.21-8.15-9.19-9.32-26-6.26-37.85,2.75-10.62,8.75-20.01,16.47-25.74,9.72-7.22,21.24-9.33,33.34-6.12,6.44,1.71,16.14,4.28,23.75,11.27,5.01,3.89,7.3,10.8,8.52,14.52l.31.94c2.78,8.25,1.89,14,.66,21.96-.15.99-.31,2.02-.46,3.09-3.51,23.91-18.87,32.11-32.09,31.82-13.81-.3-32.36-3.58-41.96-11.71v.02ZM364.14,498.27c-7.12-6.02-16.04-8.4-22.04-9.99-11.58-3.08-22.61-1.06-31.9,5.84-7.42,5.51-13.19,14.55-15.84,24.81-2.95,11.42-1.87,27.56,5.89,36.31,8.29,9.34,28.35,13.03,43.02,13.36,19.05.42,28.2-15.43,30.39-30.39.15-1.08.32-2.11.47-3.11,1.23-8.01,2.05-13.31-.59-21.18l-.32-.95c-1.16-3.56-3.33-10.15-7.98-13.73l-.03-.03-.03-.03c-.34-.32-.69-.62-1.04-.92h0Z"/>
    <path id="Path_7368" class="st6" d="M335.78,517.67c-.52-6.08-4.53-12.27-11-13.21-5.54-.81-9.86,1.83-12.47,5.67-5.18,7.63-1.68,18.88,2.31,26.16,3.94,7.18,9.63,12.91,14.46,19.41,7.06-2.85,21.75-11.4,25.31-14.3,6.56-5.35,7.85-12.1,8.22-15.83.26-2.68.56-10.54-5.46-13.41-13.96-6.63-21.28,4.04-21.39,5.51h0Z"/>
    <path id="Path_7369" class="st6" d="M300.63,514.54c-.19-.15-.37-.32-.54-.46l1.11-1.25c1.47,1.3,3.68,3.03,5.82,3.93l-.65,1.55c-2.09-.89-4.19-2.45-5.73-3.75h0Z"/>
    <path id="Path_7370" class="st6" d="M299.35,524.49l.18-1.67c2.31.25,4.74.49,6.94.43l.04,1.68c-2.29.05-4.8-.19-7.16-.45h0Z"/>
    <path id="Path_7371" class="st6" d="M298.54,534.8l-.46-1.62c2.11-.59,4.32-.88,6.45-1.15,1.23-.15,2.46-.32,3.65-.53l.3,1.65c-1.22.21-2.48.38-3.74.54-2.08.27-4.22.55-6.21,1.11h0Z"/>
    <path id="Path_7372" class="st6" d="M303.45,543.17l-1.13-1.24c.92-.83,2.05-1.38,3.13-1.91.92-.45,1.8-.87,2.51-1.44.16-.13.31-.26.46-.39.42-.36.85-.73,1.44-1.07l.83,1.45c-.45.26-.79.55-1.19.89-.16.14-.33.28-.5.42-.86.69-1.86,1.17-2.83,1.63-1.03.5-1.99.96-2.73,1.63h0Z"/>
    <path id="Path_7373" class="st6" d="M306.73,510.01c-.7-.6-1.44-1.48-1.74-2.24l1.57-.58c.21.56,1.09,1.55,1.7,1.87l-.82,1.46c-.22-.13-.46-.3-.72-.52h0Z"/>
    <path id="Path_7374" class="st6" d="M365.78,525.05l-1.13-1.24c.69-.63,1.68-1.1,2.55-1.52.3-.15.58-.28.85-.42l.78,1.48c-.28.15-.58.29-.9.45-.77.37-1.64.79-2.15,1.25Z"/>
    <path id="Path_7375" class="st6" d="M363.13,530.38l.45-1.62c1.36.37,2.77.68,4.14.98,1.74.38,3.52.77,5.25,1.3l-.49,1.61c-1.67-.51-3.42-.89-5.12-1.27-1.39-.3-2.83-.62-4.23-1.01h0Z"/>
    <path id="Path_7376" class="st6" d="M361.64,536.53l1-1.35c1.85,1.37,4.35,2.35,6.76,3.31.72.28,1.44.57,2.1.84l-.65,1.55c-.65-.28-1.35-.55-2.06-.83-2.41-.95-5.12-2.02-7.15-3.51h0Z"/>
    <path id="Path_7377" class="st6" d="M363.18,553.95c-.91-.77-1.77-1.9-2.54-2.9-.28-.35-.52-.69-.76-.98l-.5-.6c-1.57-1.9-3.72-4.49-4.24-6.76l1.63-.38c.43,1.88,2.52,4.4,3.89,6.07l.51.61c.25.3.52.65.8,1.01.81,1.06,1.74,2.26,2.59,2.87l-.97,1.37c-.14-.09-.28-.2-.4-.32v.02Z"/>
    <path id="Path_7378" class="st6" d="M351.21,554.43c-.22-1.01-.59-2.01-.99-3.06-.45-1.2-.92-2.45-1.15-3.76l1.65-.29c.21,1.16.63,2.28,1.07,3.46.4,1.07.82,2.16,1.06,3.3l-1.64.35h0Z"/>
    <g id="Group_5679">
      <g id="Group_5678">
        <path id="Path_7379" class="st27" d="M328.13,489.45c1.18.93,2,2.35,2.84,3.56-5.54,2.58-11.07,4.28-15.87,8.26-1.67,1.38-2.8,2.77-3.99,4.56-.93,1.41-2.48,3.36-2.7,5.07-1.86-.34-3.64-1.63-5.54-2.07,1.39-3.76,4.66-6.93,7.13-9.99,2.15-2.66,4.18-4.33,7.08-6.02,2.06-1.19,7.42-3.37,11.04-3.38h0Z"/>
      </g>
    </g>
    <g id="Group_5682">
      <g id="Group_5681">
        <path id="Path_7380" class="st27" d="M330.17,488.85c.97.8,1.87,2.51,2.44,3.57,1.31-.78,3.87-.28,5.32-.23-.34-1.38-1.43-3.03-2.77-3.53-1.33-.5-4.03-.66-5,.21h0Z"/>
      </g>
    </g>
    <g id="Group_5685">
      <g id="Group_5684">
        <path id="Path_7381" class="st27" d="M357.81,557.85c-1.39,2.06-4.92,3.36-7.18,3.93-4.08,1.03-9.26,1.19-13.41.64-2.34-.31-4.42-.7-6.7-1.28-.19.59-1.01,2.42-.84,3,.21.78.69.7,1.62.98,3.51,1,7.08,1.07,10.73,1.25,4.02.21,8.63-.06,12.33-1.75,1.81-.83,4-1.94,5.47-3.32,1.8-1.69-.06-2.1-2.01-3.46h0Z"/>
      </g>
    </g>
    <path id="Path_7383" class="st11" d="M284.39,506.67c-1.79-9.63-7.8-17.3-11.79-22.35-7.25-9.2-17.16-14.35-28.95-14.4-9.77-.04-19.79,4.2-27.37,10.28-8.76,7.01-17.93,20.61-16.94,32.48,1.09,13.18,16.26,28.45,26.07,36.15,13.85,10.85,30.41,6.05,42.56-6.01,6.8-6.75,11.38-10.49,14.3-19.35,1.12-3.39,3.89-10.52,2.13-16.78h0Z"/>
    <path id="Path_7384" class="st21" d="M203.34,514.94c-.21-.95-.37-1.87-.45-2.8-.9-10.91,7.25-23.54,15.78-30.36,7.64-6.12,16.94-9.61,25.52-9.57,10.79.04,20.16,4.7,27.07,13.47,3.68,4.67,9.23,11.69,10.93,20.75,1.5,5.47-.57,11.62-1.68,14.93l-.28.83c-2.43,7.37-6.14,11.01-11.28,16.04-.64.63-1.31,1.27-1.99,1.96-15.29,15.19-30.65,12.83-39.93,5.55-9.69-7.61-21.18-19.86-23.69-30.8h0ZM280.47,505.52c-1.86-8.11-6.96-14.58-10.39-18.92-6.62-8.39-15.57-12.85-25.9-12.9-8.24-.03-17.2,3.33-24.58,9.24-8.22,6.57-16.08,18.67-15.22,29.07.93,11.1,13.28,24.47,23.57,32.55,13.38,10.49,28.38,4.06,37.95-5.44.69-.69,1.36-1.34,2-1.97,5.17-5.06,8.58-8.41,10.9-15.43l.28-.85c1.07-3.15,3.05-9.02,1.65-14.08v-.03l-.02-.03c-.08-.4-.16-.81-.25-1.21h0Z"/>
    <path id="Path_7385" class="st6" d="M249.85,504.2c2.89-4.62,3.33-11.18-.78-15.31-3.52-3.54-8.02-3.96-11.94-2.61-7.78,2.67-11.29,12.58-12.34,19.91-1.03,7.23-.03,14.37-.05,21.59,6.56,1.74,21.61,3.5,25.71,3.33,7.54-.31,12.07-4.43,14.33-6.91,1.62-1.77,6.03-7.23,3.27-12.49-6.41-12.19-17.34-8.5-18.21-7.51h0Z"/>
    <g id="Group_5688">
      <g id="Group_5687">
        <path id="Path_7386" class="st27" d="M266.69,484.11c.34,1.29.17,2.75.12,4.06-5.34-1.13-10.19-2.86-15.75-2.6-1.93.09-3.48.48-5.29,1.13-1.42.52-3.57,1.07-4.63,2.17-1.14-1.23-1.72-3.11-2.84-4.44,3.01-1.94,7.03-2.45,10.43-3.31,2.96-.75,5.3-.86,8.28-.51,2.11.25,7.1,1.56,9.69,3.5h0Z"/>
      </g>
    </g>
    <g id="Group_5691">
      <g id="Group_5690">
        <path id="Path_7387" class="st27" d="M261.25,480.63c.27,1.09,0,2.79-.16,3.85,1.36.14,2.91,1.86,3.93,2.68.5-1.17.6-2.92-.09-4-.68-1.07-2.53-2.63-3.68-2.53Z"/>
      </g>
    </g>
    <g id="Group_5694">
      <g id="Group_5693">
        <path id="Path_7388" class="st27" d="M244.08,544.66c-2.1.72-5.31-.23-7.24-1.04-3.46-1.45-7.24-4.1-9.91-6.71-1.5-1.47-2.78-2.87-4.1-4.5-.45.33-2.01,1.19-2.21,1.69-.27.68.11.87.64,1.56,1.98,2.6,4.49,4.55,6.98,6.63,2.76,2.3,6.19,4.57,9.74,5.35,1.74.38,3.89.76,5.68.56,2.19-.24,1.07-1.53.41-3.54h0Z"/>
      </g>
    </g>
    <path id="Path_7389" class="st7" d="M310.88,408.05c-8.89-4.58-18.86-4.53-25.44-4.47-11.96.1-22.34,4.87-29.75,14.36-6.15,7.86-8.99,18.61-8.83,28.54.18,11.46,5.43,27.38,15.63,34.01,11.34,7.37,33.16,4.68,45.51,1.57,17.43-4.38,23.93-20.77,21.79-38.13-1.2-9.72-1.35-15.75-6.67-23.65-2.04-3.03-6.06-9.73-12.23-12.23h0Z"/>
    <path id="Path_7390" class="st15" d="M308.99,407.4c-8.71-4.49-18.45-4.43-24.9-4.37-11.71.1-21.85,4.78-29.12,14.06-6.02,7.7-8.8,18.22-8.65,27.94.17,11.22,5.31,26.8,15.3,33.28,11.09,7.21,32.45,4.58,44.54,1.54,17.06-4.3,23.41-20.33,21.32-37.32-1.18-9.51-1.32-15.42-6.53-23.14-1.99-2.96-5.93-9.52-11.96-11.96v-.03Z"/>
    <path id="Path_7391" class="st21" d="M265.87,476.53c-.88-.4-1.71-.86-2.48-1.36-9.19-5.97-14.16-20.15-14.33-31.07-.15-9.79,2.78-19.28,8.07-26.03,6.65-8.51,16.06-13.05,27.23-13.15,5.95-.05,14.89-.14,23.09,4.07,5.23,2.17,8.84,7.56,10.77,10.48l.49.73c4.34,6.44,4.94,11.59,5.77,18.74.1.89.21,1.81.33,2.78,2.64,21.39-8.64,32.08-20.07,34.96-11.95,3.01-28.68,4.57-38.86-.14h0ZM305.67,409.8c-7.55-3.5-15.79-3.42-21.31-3.38-10.68.09-19.7,4.43-26.06,12.57-5.07,6.49-7.9,15.63-7.75,25.09.17,10.52,4.91,24.15,13.66,29.84,9.34,6.08,27.47,4.5,40.16,1.31,16.48-4.14,20.6-19.94,18.95-33.33-.12-.96-.22-1.89-.34-2.78-.83-7.18-1.39-11.93-5.53-18.06l-.5-.75c-1.84-2.78-5.26-7.94-10.12-9.93h-.03l-.03-.03c-.37-.19-.74-.37-1.11-.54h0Z"/>
    <path id="Path_7392" class="st6" d="M285.88,433.19c-1.88-5.11-6.8-9.48-12.58-8.77-4.96.62-8.04,3.9-9.38,7.83-2.65,7.79,3.03,16.64,8.18,21.95,5.09,5.24,11.34,8.83,17.03,13.27,5.39-4.12,16.01-14.95,18.38-18.29,4.37-6.15,3.89-12.26,3.33-15.56-.41-2.36-2.02-9.2-7.86-10.24-13.57-2.4-17.34,8.51-17.09,9.8h0Z"/>
    <path id="Path_7393" class="st6" d="M312.58,443.31l.54-1.39c1.92.74,4.3,1,6.6,1.25.69.08,1.37.15,2,.23l-.2,1.49c-.63-.09-1.29-.15-1.97-.22-2.29-.25-4.88-.52-6.98-1.33v-.02Z"/>
    <path id="Path_7394" class="st6" d="M318.02,457.91c-.97-.45-1.98-1.21-2.88-1.89-.32-.24-.61-.46-.89-.66l-.57-.4c-1.8-1.25-4.26-2.98-5.25-4.81l1.31-.7c.82,1.51,3.21,3.19,4.79,4.29l.58.4c.29.2.6.44.93.69.95.72,2.04,1.53,2.9,1.86l-.52,1.4c-.14-.05-.28-.11-.42-.17h0Z"/>
    <path id="Path_7395" class="st6" d="M307.84,461.16c-.43-.83-.99-1.59-1.57-2.4-.67-.93-1.37-1.89-1.88-2.96l1.35-.64c.46.95,1.08,1.81,1.74,2.72.59.82,1.21,1.67,1.68,2.59l-1.32.7h0Z"/>
    <g id="Group_5697">
      <g id="Group_5696">
        <path id="Path_7396" class="st27" d="M274.15,404.22c1.23.52,2.28,1.55,3.28,2.39-4.16,3.52-8.51,6.3-11.7,10.86-1.11,1.58-1.75,3.04-2.35,4.87-.46,1.44-1.33,3.48-1.12,4.99-1.68.15-3.51-.55-5.26-.47.31-3.57,2.37-7.06,3.77-10.28,1.22-2.79,2.57-4.72,4.67-6.85,1.5-1.52,5.58-4.66,8.7-5.52h0Z"/>
      </g>
    </g>
    <g id="Group_5700">
      <g id="Group_5699">
        <path id="Path_7397" class="st27" d="M274.22,409.74c1.02.46,2.21,1.72,2.94,2.48.95-.99,3.26-1.16,4.52-1.46-.61-1.11-1.94-2.27-3.21-2.39-1.26-.12-3.63.39-4.25,1.36h0Z"/>
      </g>
    </g>
    <g id="Group_5703">
      <g id="Group_5702">
        <path id="Path_7398" class="st27" d="M314.32,462.54c-.71,2.11-3.44,4.06-5.25,5.08-3.27,1.85-7.67,3.21-11.38,3.72-2.08.29-3.97.44-6.07.48-.02.56-.29,2.32,0,2.78.37.62.76.45,1.62.46,3.27.03,6.34-.76,9.52-1.45,3.51-.77,7.41-2.1,10.19-4.43,1.37-1.14,2.98-2.62,3.92-4.15,1.15-1.88-.55-1.79-2.54-2.5h0Z"/>
      </g>
    </g>
    <path id="Path_7399" class="st18" d="M339.32,447.73c-10.24-4.6-21.37-3.94-28.75-3.49-13.39.83-24.71,6.8-32.45,17.86-6.42,9.17-8.96,21.38-8.19,32.48.89,12.81,7.71,30.32,19.53,37.14,13.12,7.57,37.39,3.26,51.04-.95,19.25-5.95,25.54-24.68,22.11-43.98-1.93-10.81-2.46-17.56-8.89-26.08-2.46-3.27-7.37-10.53-14.41-12.96h0Z"/>
    <path id="Path_7400" class="st17" d="M337.17,445.39c-10.01-4.5-20.92-3.86-28.13-3.41-13.1.81-24.18,6.65-31.76,17.47-6.28,8.98-8.77,20.93-8.01,31.79.87,12.55,7.55,29.68,19.1,36.34,12.85,7.41,36.6,3.19,49.95-.94,18.85-5.82,25-24.16,21.64-43.05-1.88-10.58-2.4-17.18-8.69-25.52-2.41-3.19-7.21-10.3-14.11-12.68h0Z"/>
    <path id="Path_7402" class="st13" d="M312.83,475.65c-2.41-5.61-8.17-10.21-14.61-9.06-5.52.99-8.77,4.86-10.04,9.32-2.5,8.88,4.38,18.44,10.47,24.08,6.01,5.56,13.22,9.2,19.86,13.84,5.79-4.93,17.02-17.69,19.49-21.56,4.53-7.15,3.63-13.96,2.79-17.62-.6-2.63-2.81-10.18-9.42-10.99-15.33-1.88-18.91,10.55-18.55,11.99Z"/>
    <g id="Group_5706">
      <g id="Group_5705">
        <path id="Path_7403" class="st27" d="M298.07,446.33c1.41.51,2.64,1.59,3.82,2.48-4.44,4.19-9.14,7.56-12.44,12.86-1.14,1.83-1.78,3.51-2.34,5.59-.44,1.63-1.29,3.97-.95,5.66-1.86.27-3.96-.4-5.91-.21.13-4.01,2.23-8.04,3.61-11.73,1.19-3.21,2.6-5.43,4.81-7.95,1.58-1.79,5.97-5.54,9.41-6.69h0Z"/>
      </g>
    </g>
    <g id="Group_5709">
      <g id="Group_5708">
        <path id="Path_7404" class="st27" d="M298.39,450.09c1.18.46,2.57,1.79,3.45,2.6,1-1.16,3.58-1.49,4.98-1.91-.76-1.2-2.31-2.42-3.74-2.48-1.42-.05-4.04.64-4.68,1.78h0Z"/>
      </g>
    </g>
    <g id="Group_5712">
      <g id="Group_5711">
        <path id="Path_7405" class="st27" d="M346.43,506.8c-.67,2.4-3.61,4.74-5.58,6-3.55,2.27-8.41,4.06-12.51,4.85-2.31.45-4.42.73-6.76.9,0,.62-.19,2.61.15,3.11.46.67.88.46,1.85.41,3.65-.16,7.06-1.23,10.57-2.2,3.88-1.07,8.16-2.78,11.15-5.56,1.46-1.36,3.18-3.11,4.14-4.87,1.18-2.17-.72-1.97-3-2.65h0Z"/>
      </g>
    </g>
    <path id="Path_7407" class="st14" d="M432.13,470.62c-10.59-2.92-21.26-.62-28.32.92-12.82,2.8-22.89,10.26-28.72,22.11-4.84,9.83-5.47,22.01-3.07,32.64,2.78,12.26,11.99,28.18,24.43,33,13.83,5.36,36.65-2.43,49.23-8.55,17.73-8.64,21.02-27.69,14.82-45.85-3.47-10.17-4.99-16.61-12.49-23.9-2.86-2.78-8.7-9.08-15.88-10.38h0Z"/>
    <path id="Path_7408" class="st21" d="M400.7,556.39c-1.06-.24-2.07-.55-3.03-.93-11.45-4.44-20.17-18.86-22.87-30.8-2.41-10.7-1.38-21.79,2.87-30.41,5.35-10.86,14.63-18.01,26.85-20.69,6.51-1.42,16.31-3.58,26.28-.84,6.24,1.18,11.44,6.27,14.22,9.02l.7.7c6.24,6.07,8.08,11.58,10.63,19.22.32.95.64,1.94,1,2.96,7.81,22.86-2.1,37.19-13.98,42.97-12.42,6.04-30.41,11.6-42.67,8.77v.02ZM429.05,474.01c-9.09-2.1-18.11-.13-24.17,1.19-11.71,2.55-20.59,9.39-25.7,19.78-4.07,8.28-5.07,18.97-2.74,29.31,2.6,11.51,10.94,25.37,21.84,29.6,11.64,4.51,31.18-1.38,44.36-7.79,17.14-8.34,18.02-26.61,13.13-40.92-.35-1.03-.68-2.02-1.01-2.98-2.57-7.69-4.26-12.77-10.21-18.55l-.71-.7c-2.66-2.63-7.6-7.5-13.38-8.57h-.03l-.03-.02c-.45-.13-.89-.24-1.35-.34h0Z"/>
    <path id="Path_7409" class="st6" d="M412.7,504.23c-3.24-5.17-9.63-8.84-15.82-6.72-5.29,1.81-7.93,6.14-8.49,10.75-1.12,9.15,7.15,17.56,14.02,22.21,6.78,4.58,14.47,7.07,21.74,10.64,4.97-5.76,14.13-20.08,15.97-24.29,3.39-7.75,1.46-14.35.07-17.84-1-2.5-4.33-9.63-10.98-9.42-15.44.48-17.08,13.32-16.5,14.68h0Z"/>
    <path id="Path_7410" class="st6" d="M380.01,517.52c-.24-.05-.47-.11-.7-.16l.41-1.62c1.91.48,4.66,1.01,6.97.83l.13,1.68c-2.26.17-4.84-.26-6.82-.71h0Z"/>
    <path id="Path_7411" class="st6" d="M383.41,526.95l-.6-1.56c2.17-.83,4.44-1.74,6.37-2.79l.8,1.47c-2.02,1.1-4.36,2.03-6.57,2.88h0Z"/>
    <path id="Path_7412" class="st6" d="M387.41,536.5l-1.14-1.23c1.61-1.5,3.45-2.76,5.22-3.98,1.02-.7,2.04-1.41,3.01-2.15l1.02,1.33c-.99.76-2.03,1.47-3.08,2.19-1.73,1.19-3.51,2.41-5.03,3.82h0Z"/>
    <path id="Path_7413" class="st6" d="M395.61,541.69l-1.57-.58c.43-1.16,1.19-2.17,1.92-3.13.62-.82,1.2-1.59,1.57-2.42.09-.19.15-.37.23-.55.21-.52.42-1.04.8-1.61l1.4.91c-.28.44-.46.85-.65,1.33-.09.2-.16.4-.25.6-.45,1.01-1.12,1.89-1.76,2.75-.69.91-1.33,1.77-1.68,2.71h0Z"/>
    <g id="Group_5715">
      <g id="Group_5714">
        <path id="Path_7414" class="st27" d="M395.73,477.09c1.47.28,2.85,1.17,4.15,1.86-3.76,4.83-7.88,8.87-10.34,14.6-.85,1.99-1.23,3.75-1.46,5.88-.18,1.68-.66,4.13-.08,5.74-1.8.55-3.98.21-5.88.69-.48-3.99.98-8.29,1.78-12.14.7-3.35,1.74-5.77,3.55-8.59,1.29-2.01,5.05-6.39,8.28-8.05h0Z"/>
      </g>
    </g>
    <g id="Group_5718">
      <g id="Group_5717">
        <path id="Path_7415" class="st27" d="M394.52,481.18c1.23.27,2.81,1.38,3.8,2.05.81-1.3,3.31-2.02,4.62-2.65-.93-1.08-2.66-2.05-4.07-1.88-1.41.16-3.89,1.25-4.35,2.48h0Z"/>
      </g>
    </g>
    <g id="Group_5721">
      <g id="Group_5720">
        <path id="Path_7416" class="st27" d="M450.66,529.89c-.29,2.47-2.84,5.23-4.59,6.78-3.16,2.78-7.68,5.29-11.63,6.7-2.22.8-4.25,1.4-6.55,1.93.11.61.21,2.61.63,3.05.55.59.94.32,1.89.13,3.58-.72,6.79-2.29,10.12-3.78,3.67-1.65,7.64-4,10.17-7.2,1.24-1.56,2.67-3.56,3.34-5.45.83-2.33-1.01-1.83-3.37-2.16h0Z"/>
      </g>
    </g>
    <path id="Path_7417" class="st6" d="M468.73,559.11c-6.36-7.57-15.46-11.32-21.48-13.78-10.94-4.47-22.22-4.07-32.6,1.74-8.61,4.82-15.3,13.54-18.94,22.65-4.21,10.51-5.49,27.03,1.27,36.96,7.52,11.03,28.44,16.91,40.88,18.79,17.56,2.65,29.73-9.81,34.4-26.44,2.61-9.32,4.78-14.88,2.94-24.11-.7-3.53-1.81-11.18-6.48-15.8h0Z"/>
    <path id="Path_7418" class="st23" d="M467.25,557.8c-6.22-7.41-15.13-11.08-21.02-13.48-10.71-4.37-21.74-3.99-31.9,1.71-8.42,4.72-14.97,13.25-18.54,22.16-4.12,10.29-5.38,26.45,1.25,36.17,7.36,10.8,27.83,16.55,40.01,18.39,17.19,2.6,29.1-9.6,33.66-25.89,2.56-9.12,4.68-14.56,2.88-23.59-.69-3.45-1.77-10.94-6.34-15.47h0Z"/>
    <path id="Path_7419" class="st1" d="M401.58,604.36c-.64-.7-1.23-1.44-1.74-2.19-6.09-8.95-5.23-23.76-1.21-33.78,3.59-8.98,9.89-16.5,17.28-20.64,9.31-5.22,19.62-5.78,29.83-1.6,5.44,2.22,13.63,5.56,19.5,12.52,3.94,3.97,5.17,10.27,5.82,13.66l.16.86c1.5,7.53.08,12.45-1.89,19.28-.25.85-.5,1.73-.76,2.66-5.75,20.51-20.11,25.95-31.63,24.21-12.04-1.81-27.88-6.77-35.36-14.95h0v-.02ZM463.32,558.72c-5.55-6.07-13.08-9.14-18.14-11.21-9.77-4-19.65-3.47-28.55,1.52-7.1,3.98-13.16,11.23-16.63,19.91-3.86,9.65-4.74,23.88,1.07,32.4,6.2,9.1,23.32,14.58,36.1,16.51,16.61,2.51,26.38-10.31,29.98-23.15.26-.93.52-1.81.76-2.66,1.98-6.87,3.28-11.4,1.86-18.57l-.17-.87c-.62-3.24-1.77-9.25-5.43-12.91l-.03-.03-.03-.03c-.26-.31-.53-.62-.81-.92h0Z"/>
    <path id="Path_7420" class="st6" d="M436.35,572.48c.23-5.38-2.58-11.23-8.13-12.79-4.75-1.32-8.82.49-11.53,3.56-5.39,6.08-3.58,16.32-.92,23.13,2.63,6.72,6.97,12.37,10.47,18.59,6.48-1.69,20.29-7.52,23.73-9.65,6.33-3.94,8.22-9.69,8.96-12.92.53-2.31,1.67-9.15-3.27-12.33-11.46-7.37-19.05,1.13-19.31,2.41Z"/>
    <path id="Path_7421" class="st6" d="M405.97,565.8c-.15-.16-.28-.32-.42-.46l1.11-.98c1.14,1.3,2.88,3.06,4.64,4.09l-.74,1.28c-1.73-1.01-3.39-2.6-4.59-3.92h0Z"/>
    <path id="Path_7422" class="st6" d="M403.74,574.35l.34-1.44c1.99.47,4.1.96,6.02,1.16l-.15,1.47c-2.01-.21-4.18-.7-6.21-1.19Z"/>
    <path id="Path_7425" class="st6" d="M411.81,562.53c-.55-.6-1.1-1.45-1.26-2.16l1.44-.34c.12.52.78,1.48,1.27,1.83l-.88,1.19c-.18-.14-.38-.32-.57-.53h0Z"/>
    <g id="Group_5724">
      <g id="Group_5723">
        <path id="Path_7431" class="st27" d="M432.82,546.95c.93.94,1.49,2.28,2.08,3.43-5.14,1.62-10.16,2.5-14.81,5.44-1.61,1.01-2.76,2.11-4,3.54-.97,1.13-2.54,2.66-2.92,4.13-1.58-.51-2.99-1.84-4.62-2.43,1.64-3.14,4.86-5.53,7.36-7.92,2.17-2.08,4.14-3.32,6.87-4.46,1.94-.82,6.86-2.11,10.03-1.71h0Z"/>
      </g>
    </g>
    <g id="Group_5727">
      <g id="Group_5726">
        <path id="Path_7432" class="st27" d="M434.67,546.67c.76.81,1.36,2.41,1.74,3.39,1.24-.54,3.41.19,4.68.4-.14-1.25-.9-2.81-2.02-3.4-1.11-.58-3.45-1.03-4.39-.38Z"/>
      </g>
    </g>
    <g id="Group_5730">
      <g id="Group_5729">
        <path id="Path_7433" class="st27" d="M451.09,610.08c-1.45,1.65-4.68,2.38-6.73,2.63-3.68.44-8.22,0-11.78-.95-2.01-.53-3.79-1.11-5.72-1.87-.23.5-1.15,2-1.07,2.53.1.7.52.7,1.31,1.04,2.96,1.27,6.07,1.73,9.23,2.3,3.49.64,7.55.91,10.97-.15,1.68-.52,3.71-1.25,5.15-2.29,1.77-1.27.18-1.84-1.37-3.25h0Z"/>
      </g>
    </g>
    <path id="Path_7434" class="st18" d="M451.04,411.74c-5.34-9.87-14.59-16.11-20.72-20.22-11.14-7.47-23.76-9.6-36.63-5.51-10.67,3.39-20.09,11.56-26.22,20.85-7.07,10.73-12.28,28.78-7.02,41.36,5.84,13.98,27.74,25.29,41.15,30.22,18.92,6.95,35.28-4.12,44.27-21.54,5.04-9.75,8.71-15.44,8.77-26.12.03-4.08.54-12.84-3.59-19.05h0Z"/>
    <path id="Path_7435" class="st16" d="M449.69,409.94c-5.23-9.66-14.28-15.76-20.28-19.78-10.91-7.3-23.26-9.39-35.85-5.39-10.44,3.33-19.66,11.31-25.66,20.4-6.93,10.49-12.01,28.16-6.88,40.49,5.71,13.69,27.15,24.75,40.27,29.57,18.51,6.81,34.53-4.02,43.32-21.08,4.92-9.55,8.52-15.12,8.59-25.56.03-4,.52-12.56-3.51-18.64h0Z"/>
    <path id="Path_7437" class="st13" d="M411.99,419.21c1.49-5.93-.3-13.07-6.11-16.06-4.98-2.56-9.92-1.47-13.64,1.32-7.37,5.53-7.71,17.32-6.3,25.49,1.39,8.06,4.92,15.34,7.39,23.05,7.59-.4,24.27-3.72,28.58-5.31,7.94-2.93,11.36-8.89,12.92-12.31,1.12-2.45,3.94-9.8-.82-14.45-11.04-10.8-21.43-3.09-22.02-1.74h0Z"/>
    <g id="Group_5733">
      <g id="Group_5732">
        <path id="Path_7438" class="st27" d="M413.3,385.12c.82,1.25,1.13,2.87,1.53,4.29-6.08.64-11.86.46-17.7,2.66-2.02.76-3.55,1.71-5.25,3.03-1.34,1.03-3.43,2.38-4.19,3.92-1.64-.92-2.9-2.72-4.57-3.76,2.54-3.11,6.65-5.04,9.99-7.13,2.9-1.81,5.36-2.74,8.65-3.39,2.35-.46,8.1-.78,11.54.39v.02Z"/>
      </g>
    </g>
    <g id="Group_5736">
      <g id="Group_5735">
        <path id="Path_7439" class="st27" d="M416.03,390.13c.66,1.07.95,2.98,1.15,4.16,1.5-.32,3.75.99,5.11,1.5.14-1.42-.36-3.33-1.47-4.25-1.1-.9-3.6-1.93-4.8-1.43h0Z"/>
      </g>
    </g>
    <g id="Group_5739">
      <g id="Group_5738">
        <path id="Path_7440" class="st27" d="M419.78,464.37c-1.99,1.5-5.74,1.58-8.07,1.38-4.19-.35-9.14-1.87-12.88-3.74-2.11-1.05-3.95-2.1-5.92-3.39-.37.51-1.74,1.97-1.77,2.57-.05.81.42.89,1.22,1.45,3,2.09,6.35,3.31,9.74,4.67,3.74,1.5,8.18,2.74,12.24,2.35,1.99-.2,4.42-.54,6.25-1.37,2.25-1.01.62-2-.77-3.93h-.03Z"/>
      </g>
    </g>
    <path id="Path_7441" class="st18" d="M364,288.13c-8.87-4.43-18.73-4.26-25.24-4.13-11.84.24-22.06,5.1-29.29,14.58-6,7.86-8.68,18.55-8.41,28.37.31,11.34,5.71,27.05,15.88,33.49,11.31,7.16,32.89,4.24,45.09,1.01,17.21-4.55,23.44-20.86,21.12-38.02-1.3-9.61-1.53-15.59-6.88-23.34-2.05-2.96-6.12-9.57-12.26-11.96h0Z"/>
    <path id="Path_7442" class="st4" d="M362.11,287.51c-8.68-4.34-18.32-4.17-24.7-4.04-11.59.24-21.59,4.98-28.67,14.27-5.87,7.7-8.5,18.15-8.23,27.77.31,11.1,5.58,26.47,15.54,32.78,11.07,7.01,32.19,4.15,44.13.99,16.84-4.45,22.95-20.41,20.67-37.21-1.28-9.4-1.5-15.25-6.75-22.84-2.01-2.9-5.99-9.36-11.99-11.71h0Z"/>
    <path id="Path_7444" class="st13" d="M339.53,313.32c-1.93-5.04-6.84-9.31-12.56-8.53-4.91.67-7.92,3.96-9.2,7.86-2.54,7.74,3.2,16.44,8.36,21.64,5.1,5.13,11.34,8.6,17.03,12.93,5.29-4.14,15.68-14.99,17.99-18.32,4.26-6.14,3.71-12.19,3.1-15.45-.44-2.34-2.11-9.08-7.92-10.04-13.47-2.22-17.08,8.63-16.81,9.9h0Z"/>
    <g id="Group_5742">
      <g id="Group_5741">
        <path id="Path_7445" class="st27" d="M326.99,286.76c1.23.5,2.27,1.5,3.28,2.33-4.07,3.54-8.34,6.34-11.46,10.9-1.07,1.57-1.7,3.03-2.27,4.85-.45,1.43-1.28,3.46-1.05,4.96-1.66.16-3.49-.5-5.21-.4.26-3.53,2.26-7.02,3.61-10.22,1.18-2.78,2.48-4.7,4.54-6.84,1.46-1.52,5.47-4.68,8.55-5.57h0Z"/>
      </g>
    </g>
    <g id="Group_5745">
      <g id="Group_5744">
        <path id="Path_7446" class="st27" d="M327.71,290.24c1.02.45,2.21,1.68,2.95,2.43.92-.99,3.21-1.19,4.46-1.5-.62-1.09-1.95-2.23-3.21-2.33-1.25-.1-3.59.42-4.19,1.4Z"/>
      </g>
    </g>
    <g id="Group_5748">
      <g id="Group_5747">
        <path id="Path_7447" class="st27" d="M368.05,342.05c-.68,2.09-3.35,4.06-5.14,5.1-3.21,1.87-7.56,3.27-11.22,3.82-2.06.31-3.93.48-6.01.55,0,.55-.26,2.3.02,2.76.38.61.76.44,1.62.43,3.23,0,6.27-.83,9.41-1.56,3.46-.81,7.3-2.17,10.04-4.5,1.34-1.15,2.92-2.63,3.83-4.15,1.12-1.87-.57-1.76-2.55-2.45h0Z"/>
      </g>
    </g>
    <path id="Path_7448" class="st12" d="M401.66,515.52c-8.6-2.37-17.28-.51-23.01.75-10.42,2.28-18.6,8.34-23.33,17.97-3.93,7.99-4.44,17.89-2.49,26.52,2.25,9.97,9.74,22.89,19.85,26.82,11.23,4.36,29.79-1.98,40-6.95,14.41-7.01,17.08-22.5,12.04-37.26-2.82-8.26-4.06-13.5-10.14-19.42-2.33-2.26-7.06-7.38-12.9-8.43h0Z"/>
    <path id="Path_7449" class="st5" d="M399.88,515.3c-8.41-2.32-16.9-.5-22.52.73-10.2,2.23-18.2,8.16-22.83,17.58-3.85,7.82-4.35,17.51-2.44,25.95,2.2,9.75,9.53,22.4,19.43,26.25,10.99,4.26,29.15-1.93,39.15-6.8,14.1-6.87,16.72-22.02,11.78-36.46-2.76-8.09-3.97-13.21-9.93-19-2.28-2.22-6.92-7.23-12.62-8.25h-.02Z"/>
    <path id="Path_7451" class="st13" d="M384.43,542.03c-2.58-4.12-7.67-7.03-12.58-5.35-4.21,1.44-6.31,4.88-6.75,8.55-.89,7.28,5.68,13.97,11.15,17.66,5.4,3.64,11.51,5.63,17.29,8.47,3.95-4.58,11.23-15.97,12.69-19.32,2.7-6.16,1.16-11.41.06-14.19-.79-1.99-3.45-7.66-8.73-7.49-12.28.39-13.58,10.59-13.12,11.67h0Z"/>
    <g id="Group_5751">
      <g id="Group_5750">
        <path id="Path_7462" class="st27" d="M368.74,524.86c1.17.22,2.27.93,3.3,1.49-2.98,3.83-6.27,7.06-8.22,11.61-.68,1.58-.97,2.97-1.16,4.68-.15,1.33-.52,3.28-.07,4.56-1.44.44-3.16.16-4.68.55-.39-3.17.77-6.59,1.42-9.65.55-2.66,1.38-4.59,2.82-6.83,1.03-1.6,4.02-5.08,6.58-6.4h0Z"/>
      </g>
    </g>
    <g id="Group_5754">
      <g id="Group_5753">
        <path id="Path_7463" class="st27" d="M369.98,523.7c.98.21,2.23,1.09,3.03,1.63.64-1.03,2.63-1.61,3.68-2.1-.74-.86-2.11-1.62-3.24-1.5-1.13.13-3.09,1-3.46,1.97h0Z"/>
      </g>
    </g>
    <g id="Group_5757">
      <g id="Group_5756">
        <path id="Path_7464" class="st27" d="M414.62,562.44c-.23,1.97-2.26,4.16-3.65,5.4-2.51,2.21-6.11,4.2-9.25,5.33-1.76.63-3.39,1.11-5.21,1.53.09.49.17,2.08.5,2.43.44.47.74.25,1.5.1,2.85-.58,5.4-1.82,8.04-3.01,2.92-1.31,6.08-3.18,8.09-5.72.98-1.25,2.12-2.83,2.66-4.33.66-1.85-.81-1.46-2.68-1.72h0Z"/>
      </g>
    </g>
    <path id="Path_7465" class="st24" d="M251.08,304.79c4.68,1.08,9.38,2.08,14.02,3.3-1.15,9.12-5.2,18.43-7.75,27.35-5.53,19.35-10.41,38.89-15.95,58.21-3.4-.58-7.06-1.39-10.32-2.45-1.17-14.16,6.51-31.82,8.9-45.8,2.23-13.02,5.99-25.93,11.1-40.6h0Z"/>
    <path class="st24" d="M229.47,398.4c2.87.66,5.8,1.28,8.61,2.07-.11,3.48-.95,6.83-1.68,10.33-3.63-.6-7.32-1.52-10.87-2.48.58-3.07,1.36-6.14,2.07-9.21"/>
    <path class="st0" d="M229.47,398.4c2.87.66,5.8,1.28,8.61,2.07-.11,3.48-.95,6.83-1.68,10.33-3.63-.6-7.32-1.52-10.87-2.48.58-3.07,1.36-6.14,2.07-9.21"/>
    <path id="Path_7467" class="st20" d="M348.52,185.68c35.55,8.18,72.1,12.08,107.24,21.97.04,1-.37,2.69-.89,3.53-19.78-2.04-38.96-7.53-58.65-11.08-16.32-2.94-33.95-4.73-49.95-9.25.2-1.3.3-3.13,2.25-5.17h0Z"/>
    <path id="Path_7476" class="st2" d="M141.41,309.89c-16.09,68.09-8.53,140.99,9.69,208.01,5.99,22.04,15.78,36.28,29.5,52.51"/>
    <path id="Path_7477" class="st2" d="M134.76,385.37c3.7-9.49,11.14-25.7,21.3-30.12,7.67-3.34,12.06,1.11,10.87,8.32-2.17,13.18-23.6,23.61-35.31,24.97-1.62-5.2-15.86-43.91-27.41-31.03-9.42,10.51,21.93,26.58,30.54,27.86h0Z"/>
    <path id="Path_7478" class="st2" d="M136.13,350.26c2.26-5.81,6.82-15.74,13.05-18.46,4.7-2.05,7.39.68,6.66,5.1-1.33,8.08-14.46,14.46-21.64,15.31-.99-3.19-9.72-26.91-16.79-19.02-5.78,6.44,13.44,16.29,18.72,17.08h0Z"/>
    <path id="Path_7479" class="st2" d="M141.56,454.74c2.47-10.54,7.87-28.74,17.91-34.93,7.58-4.68,12.87-.64,12.7,7.13-.31,14.21-21.31,28.41-33.45,31.61-2.49-5.23-23.31-43.86-33.53-28.58-8.34,12.49,27.1,24.71,36.36,24.77h0Z"/>
    <path id="Path_7480" class="st2" d="M146.52,488.73c1.84-7.86,5.87-21.43,13.36-26.05,5.65-3.48,9.6-.48,9.47,5.32-.23,10.61-15.89,21.18-24.94,23.57-1.86-3.9-17.38-32.71-25-21.3-6.22,9.32,20.2,18.43,27.11,18.47h0Z"/>
    <path id="Path_7481" class="st2" d="M155.4,523.21c1.84-7.86,5.87-21.43,13.36-26.05,5.65-3.48,9.6-.48,9.47,5.32-.23,10.61-15.89,21.18-24.94,23.57-1.86-3.9-17.38-32.71-25-21.3-6.22,9.32,20.2,18.43,27.11,18.47h0Z"/>
    <path id="Path_7482" class="st2" d="M133.86,416.11c2.75-4.17,28.58-45.89,35.76-23.27,4.75,14.97-29.69,25.35-39.95,23.79-1.93-10.37-36.47-27.79-33.78-10.1,1.59,10.42,27.28,14.08,37.96,9.58h0Z"/>
    <path id="Path_7483" class="st2" d="M50.77,430.74c12.93,51.96,43.63,98.89,79.53,138.1,11.8,12.89,23.45,19.15,38.48,25.37"/>
    <path id="Path_7484" class="st2" d="M72.71,484.42c-.82-7.75-1.44-21.38,3.93-27.96,4.05-4.96,8.59-3.48,10.31,1.85,3.15,9.73-7.78,24.33-15.26,29.37-2.92-2.97-26.19-24.3-29.52-11.5-2.72,10.46,24.24,10.39,30.55,8.24h0Z"/>
    <path id="Path_7485" class="st2" d="M61.33,460.05c-.5-4.74-.88-13.11,2.41-17.14,2.48-3.04,5.27-2.13,6.32,1.13,1.93,5.96-4.76,14.91-9.35,18-1.8-1.82-16.05-14.89-18.09-7.05-1.67,6.4,14.86,6.37,18.72,5.05Z"/>
    <path id="Path_7486" class="st2" d="M101.66,529.22c-2.02-8.04-4.73-22.31-.06-30.04,3.51-5.84,8.53-4.95,11.14.4,4.78,9.78-4.54,26.8-11.67,33.22-3.53-2.69-31.23-21.67-32.82-7.68-1.3,11.42,27.1,7.3,33.41,4.09v.02Z"/>
    <path id="Path_7487" class="st2" d="M116.95,550.59c-1.51-5.99-3.52-16.64-.05-22.4,2.62-4.35,6.36-3.7,8.31.3,3.57,7.29-3.38,19.98-8.7,24.78-2.63-2-23.29-16.16-24.48-5.72-.97,8.52,20.2,5.45,24.91,3.05h0Z"/>
    <path id="Path_7488" class="st2" d="M135.09,570.95c-1.51-5.99-3.52-16.64-.05-22.4,2.62-4.35,6.36-3.7,8.31.3,3.56,7.29-3.38,19.98-8.7,24.78-2.63-2-23.29-16.16-24.48-5.72-.97,8.52,20.2,5.45,24.91,3.05h0Z"/>
    <path id="Path_7489" class="st2" d="M82.88,505.64c.4-3.8,3.35-41.24,16.17-28.37,8.48,8.52-11.31,27.66-18.83,30.18-4.95-6.38-34.56-6.12-26.51,4.98,4.74,6.53,23.49,0,29.18-6.8h0Z"/>
    <path id="Path_7490" class="st9" d="M687.62,219c.95-3.36,3.89-6.39,7.63-6.21,3.21.15,5.34,2.11,6.39,4.55,2.07,4.86-1.13,10.79-4.17,14.44-3,3.6-6.83,6.2-10.26,9.32-3.64-2.37-10.97-8.79-12.65-10.81-3.09-3.72-3.09-7.66-2.88-9.8.15-1.53.84-5.98,4.54-6.93,8.57-2.19,11.51,4.6,11.41,5.44h0Z"/>
    <path id="Path_7491" class="st3" d="M687.62,219c.95-3.36,3.89-6.39,7.63-6.21,3.21.15,5.34,2.11,6.39,4.55,2.07,4.86-1.13,10.79-4.17,14.44-3,3.6-6.83,6.2-10.26,9.32-3.64-2.37-10.97-8.79-12.65-10.81-3.09-3.72-3.09-7.66-2.88-9.8.15-1.53.84-5.98,4.54-6.93,8.57-2.19,11.51,4.6,11.41,5.44h0Z"/>
    <path id="Path_7492" class="st9" d="M560.46,305.04c3.91-3.87,10.28-5.76,15.25-2.61,4.27,2.69,5.68,7.02,5.22,11.18-.92,8.25-9.9,13.91-16.89,16.56-6.89,2.61-14.15,3.21-21.26,4.82-3.16-6.08-8.22-20.52-8.96-24.6-1.37-7.5,1.69-12.88,3.64-15.65,1.39-1.99,5.79-7.55,11.58-5.98,13.43,3.62,12.21,15.21,11.42,16.29h0Z"/>
    <path id="Path_7493" class="st3" d="M560.46,305.04c3.91-3.87,10.28-5.76,15.25-2.61,4.27,2.69,5.68,7.02,5.22,11.18-.92,8.25-9.9,13.91-16.89,16.56-6.89,2.61-14.15,3.21-21.26,4.82-3.16-6.08-8.22-20.52-8.96-24.6-1.37-7.5,1.69-12.88,3.64-15.65,1.39-1.99,5.79-7.55,11.58-5.98,13.43,3.62,12.21,15.21,11.42,16.29h0Z"/>
    <path id="Path_7494" class="st19" d="M43.87,378.94c-3.45-9.01-12.23-16.64-22.46-15.24-8.76,1.2-14.15,7.08-16.43,14.06-4.52,13.84,5.72,29.38,14.95,38.67,9.11,9.17,20.26,15.38,30.43,23.12,9.45-7.4,28.02-26.8,32.15-32.75,7.61-10.97,6.63-21.79,5.55-27.61-.77-4.18-3.76-16.24-14.14-17.95-24.07-3.96-30.51,15.43-30.04,17.7h0Z"/>
    <path id="Path_7495" class="st3" d="M43.87,378.94c-3.45-9.01-12.23-16.64-22.46-15.24-8.76,1.2-14.15,7.08-16.43,14.06-4.52,13.84,5.72,29.38,14.95,38.67,9.11,9.17,20.26,15.38,30.43,23.12,9.45-7.4,28.02-26.8,32.15-32.75,7.61-10.97,6.63-21.79,5.55-27.61-.77-4.18-3.76-16.24-14.14-17.95-24.07-3.96-30.51,15.43-30.04,17.7h0Z"/>
    <path id="Path_7496" class="st9" d="M83.02,285.13c.76-3.07-.19-6.76-3.21-8.3-2.59-1.31-5.14-.74-7.06.71-3.81,2.89-3.95,8.98-3.21,13.21.74,4.17,2.59,7.92,3.88,11.91,3.93-.23,12.56-1.99,14.78-2.82,4.1-1.53,5.86-4.63,6.65-6.4.57-1.27,2.02-5.08-.46-7.48-5.74-5.57-11.1-1.55-11.4-.84h0Z"/>
    <path id="Path_7497" class="st3" d="M83.02,285.13c.76-3.07-.19-6.76-3.21-8.3-2.59-1.31-5.14-.74-7.06.71-3.81,2.89-3.95,8.98-3.21,13.21.74,4.17,2.59,7.92,3.88,11.91,3.93-.23,12.56-1.99,14.78-2.82,4.1-1.53,5.86-4.63,6.65-6.4.57-1.27,2.02-5.08-.46-7.48-5.74-5.57-11.1-1.55-11.4-.84h0Z"/>
    <path id="Path_7498" class="st19" d="M195.5,181.56c-3.93-7-12.08-12.21-20.33-9.81-7.06,2.05-10.79,7.55-11.83,13.57-2.05,11.94,8.27,23.5,16.99,30.02,8.61,6.44,18.54,10.2,27.85,15.34,6.88-7.24,19.81-25.46,22.49-30.86,4.93-9.96,2.82-18.74,1.22-23.4-1.14-3.34-5.07-12.91-13.82-13.05-20.3-.34-23.25,16.4-22.59,18.21h0Z"/>
    <path id="Path_7499" class="st3" d="M195.5,181.56c-3.93-7-12.08-12.21-20.33-9.81-7.06,2.05-10.79,7.55-11.83,13.57-2.05,11.94,8.27,23.5,16.99,30.02,8.61,6.44,18.54,10.2,27.85,15.34,6.88-7.24,19.81-25.46,22.49-30.86,4.93-9.96,2.82-18.74,1.22-23.4-1.14-3.34-5.07-12.91-13.82-13.05-20.3-.34-23.25,16.4-22.59,18.21h0Z"/>
    <path id="Path_7500" class="st3" d="M155.26,276.35c.89-6.51-1.87-13.94-8.45-16.44-5.63-2.15-10.78-.39-14.41,3.04-7.22,6.8-6.18,19.43-3.7,28,2.45,8.46,7.08,15.8,10.64,23.76,8.07-1.34,25.5-6.87,29.92-9.08,8.14-4.07,11.08-10.85,12.34-14.7.9-2.75,3.05-10.94-2.6-15.35-13.1-10.23-23.27-.75-23.74.77h0Z"/>
    <path id="Path_7501" class="st9" d="M155.26,276.35c.89-6.51-1.87-13.94-8.45-16.44-5.63-2.15-10.78-.39-14.41,3.04-7.22,6.8-6.18,19.43-3.7,28,2.45,8.46,7.08,15.8,10.64,23.76,8.07-1.34,25.5-6.87,29.92-9.08,8.14-4.07,11.08-10.85,12.34-14.7.9-2.75,3.05-10.94-2.6-15.35-13.1-10.23-23.27-.75-23.74.77h0Z"/>
  </g>
  <g>
    <path id="Path_7468" class="st13" d="M507.73,138.54c-9.76-4.88-20.63-4.69-27.81-4.55-13.05.27-24.3,5.61-32.26,16.05-6.61,8.66-9.57,20.43-9.26,31.25.34,12.5,6.28,29.8,17.5,36.89,12.45,7.89,36.22,4.67,49.67,1.11,18.96-5.01,25.83-22.97,23.26-41.88-1.44-10.59-1.68-17.17-7.59-25.71-2.26-3.27-6.74-10.54-13.5-13.17h0Z"/>
    <path id="Path_7469" class="st17" d="M505.66,137.85c-9.56-4.78-20.19-4.59-27.21-4.44-12.77.26-23.78,5.49-31.57,15.71-6.46,8.47-9.36,19.99-9.07,30.59.34,12.23,6.14,29.16,17.12,36.1,12.19,7.72,35.45,4.57,48.61,1.09,18.55-4.91,25.28-22.48,22.77-40.99-1.41-10.36-1.65-16.8-7.43-25.16-2.21-3.2-6.59-10.3-13.21-12.89h0Z"/>
    <path id="Path_7471" class="st13" d="M480.78,166.28c-2.12-5.55-7.54-10.25-13.85-9.39-5.4.74-8.72,4.37-10.13,8.66-2.78,8.53,3.52,18.11,9.21,23.83,5.61,5.65,12.49,9.48,18.75,14.25,5.83-4.56,17.27-16.52,19.81-20.19,4.69-6.77,4.09-13.42,3.42-17.02-.48-2.58-2.32-10.01-8.71-11.06-14.83-2.44-18.8,9.51-18.51,10.91h0Z"/>
    <g id="Group_5762">
      <g id="Group_5761">
        <path id="Path_7472" class="st27" d="M466.02,138.26c1.35.55,2.5,1.65,3.61,2.56-4.49,3.9-9.2,6.99-12.62,12-1.19,1.74-1.87,3.34-2.49,5.34-.49,1.57-1.41,3.82-1.16,5.47-1.82.18-3.84-.55-5.74-.45.28-3.89,2.49-7.73,3.98-11.26,1.3-3.07,2.74-5.17,5-7.53,1.62-1.68,6.02-5.15,9.41-6.14h0Z"/>
      </g>
    </g>
    <g id="Group_5765">
      <g id="Group_5764">
        <path id="Path_7473" class="st27" d="M467.77,140.86c1.13.49,2.43,1.84,3.24,2.67,1.01-1.09,3.54-1.31,4.92-1.65-.69-1.2-2.15-2.45-3.54-2.56-1.38-.11-3.95.46-4.62,1.54Z"/>
      </g>
    </g>
    <g id="Group_5768">
      <g id="Group_5767">
        <path id="Path_7474" class="st27" d="M512.2,197.92c-.75,2.3-3.7,4.47-5.66,5.61-3.54,2.06-8.34,3.6-12.36,4.21-2.27.34-4.32.53-6.62.61,0,.61-.28,2.54.03,3.03.41.67.83.48,1.78.47,3.57,0,6.91-.91,10.36-1.71,3.82-.89,8.04-2.38,11.06-4.96,1.48-1.26,3.22-2.9,4.22-4.57,1.23-2.06-.62-1.94-2.81-2.69h0Z"/>
      </g>
    </g>
  </g>
  <g class="st22">
    <g id="Layer_11">
      <g>
        <g id="Path_7057">
          <path class="st28" d="M569.06,78.69c-2.44,6.49-4.06,13.42-6.49,19.97-1.18,3.16-3.47,6.5-2.8,9.86.91,4.58,8.71,9.03,12.37,11.83,6.54,5.02,14.41,8.77,22.02,12.15,2.8-4.14,11.37-11.3,7.72-16.13-4.15-5.48-14.33-5.33-15.74-13.02-1.2-6.61,3.78-12.91,3.88-19.24.09-5.11-5.95-8.62-10.98-9.53-3.74-.67-8.34.92-9.99,4.11"/>
          <path d="M562.58,98.66l-1.46-.55h0l1.46.55ZM559.77,108.52l-1.53.3h0l1.53-.3ZM572.14,120.34l.95-1.24h0l-.95,1.24ZM594.16,132.49l-.63,1.43,1.19.53.73-1.08-1.29-.87h0ZM601.88,116.36l-1.24.94h0l1.24-.94ZM586.15,103.35l-1.53.28h0l1.53-.28ZM590.03,84.1l1.56.02h0l-1.56-.02ZM579.05,74.58l-.27,1.53h0l.27-1.53ZM569.06,78.69l-1.46-.55c-1.24,3.3-2.27,6.71-3.28,10.06-1.02,3.37-2.02,6.69-3.21,9.91l1.46.55,1.46.55c1.23-3.33,2.26-6.74,3.27-10.1,1.02-3.37,2.02-6.68,3.22-9.86l-1.46-.55h0ZM562.58,98.66l-1.46-.55c-.27.73-.61,1.48-.98,2.3-.37.8-.76,1.67-1.1,2.54-.67,1.75-1.21,3.75-.79,5.87l1.53-.3,1.53-.3c-.25-1.24.04-2.58.64-4.14.3-.77.65-1.55,1.03-2.37.37-.8.76-1.65,1.07-2.51l-1.46-.55h-.01ZM559.77,108.52l-1.53.3c.3,1.5,1.13,2.87,2.13,4.08,1.01,1.22,2.27,2.36,3.58,3.41,1.3,1.05,2.69,2.04,3.95,2.93,1.29.9,2.42,1.67,3.3,2.34l.94-1.24.95-1.24c-.95-.72-2.17-1.56-3.4-2.42-1.25-.88-2.56-1.82-3.79-2.8-1.22-.98-2.31-1.99-3.13-2.98-.83-1-1.32-1.91-1.47-2.7l-1.53.3h0s0,.02,0,.02ZM572.14,120.34l-.94,1.24c6.71,5.14,14.72,8.96,22.33,12.33l.63-1.43.63-1.43c-7.6-3.37-15.32-7.07-21.7-11.96l-.95,1.24h0ZM594.16,132.49l1.29.87c.64-.94,1.62-2.08,2.79-3.44,1.14-1.32,2.41-2.81,3.47-4.34,1.06-1.51,2.01-3.19,2.41-4.88.41-1.76.25-3.61-1-5.27l-1.24.94-1.24.94c.58.76.71,1.6.45,2.67-.26,1.13-.95,2.42-1.93,3.81-.97,1.39-2.14,2.77-3.29,4.1-1.11,1.29-2.24,2.6-3.01,3.73l1.29.87h.01ZM601.88,116.36l1.24-.94c-1.22-1.61-2.85-2.76-4.5-3.68-1.6-.9-3.45-1.71-4.95-2.45-3.2-1.59-5.44-3.18-5.99-6.22l-1.53.28-1.53.28c.84,4.65,4.4,6.82,7.67,8.45,1.73.86,3.3,1.52,4.81,2.38,1.47.83,2.68,1.72,3.54,2.84l1.24-.94h0ZM586.15,103.35l1.53-.28c-.52-2.86.28-5.73,1.39-8.94,1.06-3.06,2.46-6.52,2.52-10l-1.56-.02-1.56-.02c-.05,2.85-1.19,5.71-2.34,9.04-1.11,3.19-2.19,6.76-1.51,10.51l1.53-.28h0ZM590.03,84.1l1.56.02c.05-3.23-1.84-5.8-4.18-7.6-2.35-1.8-5.35-2.99-8.07-3.48l-.27,1.53-.27,1.53c2.31.41,4.83,1.43,6.73,2.89,1.91,1.46,2.99,3.2,2.96,5.08l1.56.02h-.02,0ZM579.05,74.58l.27-1.53c-2.17-.39-4.55-.12-6.62.69-2.06.81-3.98,2.22-5.02,4.25l1.39.72,1.39.72c.6-1.17,1.81-2.15,3.39-2.77,1.57-.62,3.37-.8,4.94-.52l.27-1.53v-.03h-.01Z"/>
        </g>
        <g id="Path_7058">
          <path d="M594.87,135.01l-1.53-.68c-7.21-3.2-15.49-7.07-22.43-12.39-.7-.53-1.59-1.16-2.54-1.82-4.32-3.01-9.69-6.76-10.58-11.21-.62-3.13.71-6.04,1.88-8.61.37-.82.73-1.59,1.01-2.34,1.17-3.16,2.18-6.5,3.15-9.74.75-2.48,1.52-5.03,2.37-7.53h-.45l1.5-2.92c2.17-4.22,7.87-5.94,12.13-5.16,6.35,1.15,12.73,5.48,12.62,11.53-.05,3.09-1.1,6.07-2.12,8.95-1.22,3.45-2.37,6.7-1.79,9.9.64,3.49,3.78,4.98,7.42,6.7,2.92,1.38,5.94,2.81,7.95,5.47,3.76,4.97-1.35,10.92-5.07,15.26-1.02,1.19-1.99,2.31-2.59,3.2l-.94,1.39h.01ZM570.9,79.46c-1.2,3.21-2.23,6.62-3.23,9.92-.99,3.29-2.02,6.69-3.24,9.98-.33.88-.73,1.76-1.12,2.61-1.01,2.21-1.97,4.31-1.6,6.17.57,2.87,5.61,6.39,8.94,8.71.98.69,1.91,1.33,2.68,1.92,6.14,4.71,13.52,8.28,20.16,11.26.56-.7,1.2-1.44,1.85-2.21,2.84-3.31,6.73-7.84,4.92-10.24-1.42-1.88-3.88-3.04-6.47-4.27-4.04-1.91-8.63-4.08-9.64-9.6-.77-4.25.62-8.16,1.96-11.95.95-2.7,1.85-5.24,1.89-7.68.07-4.02-5.42-6.82-9.34-7.53-3.04-.55-6.55.77-7.78,2.91h.02Z"/>
        </g>
        <g id="Path_7059">
          <path class="st25" d="M549.46,86.1c-2.44,6.49-4.06,13.42-6.49,19.97-1.18,3.16-3.47,6.5-2.8,9.86.91,4.58,17.95,22.12,25.55,25.5,14.15,3.27,32.1-4.09,28.44-8.91-4.15-5.48-26.22-14.06-27.62-21.75-1.2-6.61,3.77-12.91,3.88-19.24.09-5.11-5.95-8.62-10.98-9.53-3.74-.67-8.34.91-9.99,4.11h0Z"/>
          <path d="M573.27,144.24c-2.71,0-5.43-.27-8.01-.86l-.36-.12c-7.88-3.5-25.59-21.38-26.7-26.94-.62-3.13.71-6.04,1.88-8.61.37-.82.73-1.59,1.01-2.34,1.17-3.16,2.18-6.5,3.15-9.73,1.02-3.38,2.08-6.88,3.34-10.24l.74.28-.66-.48c2.17-4.2,7.87-5.92,12.12-5.16,6.36,1.15,12.73,5.48,12.63,11.53-.05,3.09-1.1,6.06-2.12,8.94-1.22,3.45-2.37,6.71-1.79,9.91.68,3.73,9.31,8.86,15.61,12.61,5.23,3.11,9.74,5.79,11.63,8.29,1.16,1.53,1.19,3.4.07,5.13-2.73,4.21-12.62,7.8-22.55,7.8h0ZM566.36,139.52c11.27,2.52,24-2,26.1-5.25.24-.37.19-.43.1-.54-1.42-1.87-6.03-4.62-10.49-7.27-8.11-4.82-16.5-9.81-17.51-15.33-.77-4.25.61-8.17,1.96-11.96.95-2.69,1.85-5.23,1.89-7.67.07-4.01-5.42-6.82-9.34-7.53-3.06-.55-6.58.79-7.79,2.93-1.2,3.2-2.22,6.6-3.22,9.89-.99,3.29-2.02,6.69-3.24,9.97-.33.88-.73,1.76-1.12,2.61-1.01,2.21-1.97,4.3-1.6,6.17.69,3.49,16.61,20.45,24.23,23.99h.03Z"/>
        </g>
        <g id="Path_7060">
          <path d="M573.27,144.24c-2.71,0-5.43-.27-8.01-.86l-.36-.12c-7.88-3.5-25.59-21.38-26.7-26.94-.62-3.13.71-6.04,1.88-8.61.37-.82.73-1.59,1.01-2.34,1.17-3.16,2.18-6.5,3.15-9.73.21-.71.43-1.43.65-2.15l-3.11,3.11,5.88-11.4c.76-1.48,1.96-2.65,3.38-3.51l3.53-3.53-.88,2.33c2.02-.64,4.2-.79,6.09-.45,6.36,1.15,12.73,5.48,12.63,11.53-.05,3.09-1.1,6.06-2.12,8.94-1.22,3.45-2.37,6.71-1.79,9.91.68,3.73,9.31,8.86,15.61,12.61,5.23,3.11,9.74,5.79,11.63,8.29,1.16,1.53,1.19,3.4.07,5.13-2.73,4.21-12.62,7.8-22.55,7.8h0ZM566.36,139.52c11.27,2.52,24-2,26.1-5.25.24-.37.19-.43.1-.54-1.42-1.87-6.03-4.62-10.49-7.27-8.11-4.82-16.5-9.81-17.51-15.33-.77-4.25.61-8.17,1.96-11.96.95-2.69,1.85-5.23,1.89-7.67.07-4.01-5.42-6.82-9.34-7.53-3.05-.55-6.58.79-7.79,2.93-1.2,3.2-2.22,6.6-3.22,9.89-.99,3.29-2.02,6.69-3.24,9.97-.33.88-.73,1.76-1.12,2.61-1.01,2.21-1.97,4.3-1.6,6.17.69,3.49,16.61,20.45,24.23,23.99h.03Z"/>
        </g>
        <g id="Path_7061">
          <path class="st30" d="M559.01,50.57c-3.17.83-8.27,5.16-11.02,7.02-8.58,5.75-40.41,26.5-44.02,30.18-15.38,15.67-27.25,33.56-40.66,50.78-3.79,4.87-8.33,9.29-8.86,15.74-.63,7.67,9.47,9.52,14.72,6.05,4.5-2.98,8.55-7.01,13.24-10.12,5.55-3.67,10.58-8.39,15.39-12.98,4.53-4.32,8.35-9.37,13.23-13.2,3.01-2.36,13.65-12.15,19.72-17.38,7.71-6.65,27.44-9.54,36.94-8.86,9.55.69,11,18.23,9.56,30.07-1.93,15.88-8.78,19.72-21.27,30.04-5.86,4.84-10.41,6.54-17.59,8.85-6.52,2.1-8.58,11.12-9.58,15.38-1.62,6.89,21.42,2.12,26.9,2.63,13.91,1.31,23.05-7.2,29.98-8.83,27.55-6.51,55.55-25.47,58.06-32.66,2.15-6.14,10.83-24.36,14.2-29.81,6.05-9.77,24.88-8.51,34.63-9.42,7.74-.72,6.62-3.63,8.09-11.67,1.18-6.48,4.46-16.83-.4-22.69-3.84-4.63-5.15-26.05-11.13-27.35-13.21-2.87-126.95,7.39-130.15,8.23"/>
          <path d="M547.98,57.59l1.3,1.94h0l-1.3-1.94ZM503.97,87.77l1.67,1.64h0l-1.67-1.64ZM463.31,138.55l1.85,1.44h0l-1.85-1.44ZM454.46,154.29l2.33.19h0l-2.33-.19ZM469.18,160.33l1.29,1.95h0l-1.29-1.95ZM482.42,150.22l-1.29-1.95h0l1.29,1.95h0ZM497.81,137.24l-1.61-1.69h0l1.61,1.69ZM511.04,124.04l1.44,1.84h0l-1.44-1.84ZM530.76,106.66l1.53,1.77h0l-1.53-1.77ZM567.7,97.8l-.16,2.33h0l.16-2.33ZM577.26,127.87l-2.32-.29h0l2.32.29ZM555.99,157.91l-1.49-1.8h0l1.49,1.8ZM538.4,166.76l.72,2.23h0l-.72-2.23ZM528.82,182.14l2.27.54h0l-2.27-.54ZM555.72,184.78l-.22,2.33h0l.22-2.33ZM585.7,175.94l-.54-2.27h0l.54,2.27ZM643.77,143.29l-2.2-.77h0l2.2.77ZM657.97,113.47l1.99,1.23h0l-1.99-1.23ZM692.6,104.05l.22,2.33h0l-.22-2.33ZM700.69,92.38l2.3.42h0l-2.3-.42ZM700.29,69.69l1.8-1.5h0l-1.8,1.5ZM689.17,42.34l.5-2.28h0l-.5,2.28ZM559.01,50.57l-.6-2.26c-2.05.54-4.44,2.09-6.42,3.47-1.04.73-2.06,1.49-2.96,2.17-.93.69-1.71,1.27-2.35,1.7l1.3,1.94,1.3,1.94c.75-.5,1.63-1.15,2.53-1.82.92-.69,1.89-1.41,2.87-2.1,2.06-1.45,3.79-2.49,4.92-2.78l-.6-2.26h0ZM547.98,57.59l-1.3-1.94c-4.14,2.78-14.51,9.57-23.88,15.87-4.74,3.19-9.35,6.32-12.99,8.88-1.82,1.29-3.42,2.43-4.68,3.39-1.22.92-2.24,1.75-2.84,2.34l1.67,1.64,1.67,1.64c.31-.32,1.08-.95,2.31-1.89,1.2-.91,2.75-2.03,4.56-3.3,3.61-2.54,8.17-5.64,12.91-8.83,9.59-6.44,19.44-12.89,23.87-15.87l-1.3-1.94h0ZM503.97,87.77l-1.67-1.64c-15.5,15.79-27.57,33.94-40.83,50.98l1.85,1.43,1.85,1.44c13.55-17.4,25.23-35.04,40.48-50.57l-1.67-1.64h0ZM463.31,138.55l-1.85-1.44c-1.75,2.25-4.02,4.81-5.76,7.42-1.8,2.71-3.28,5.81-3.58,9.57l2.33.19,2.33.19c.22-2.7,1.28-5.03,2.82-7.36,1.61-2.43,3.51-4.52,5.55-7.14l-1.85-1.44h.01ZM454.46,154.29l-2.33-.19c-.2,2.48.47,4.62,1.78,6.3,1.29,1.64,3.1,2.72,4.99,3.32,3.7,1.18,8.29.73,11.57-1.44l-1.29-1.95-1.29-1.95c-1.98,1.31-5.07,1.67-7.57.88-1.22-.38-2.14-1-2.73-1.75-.56-.71-.92-1.67-.8-3.03l-2.33-.19h0ZM469.18,160.33l1.29,1.95c2.37-1.57,4.6-3.4,6.74-5.15,2.17-1.78,4.27-3.49,6.5-4.96l-1.29-1.95-1.29-1.95c-2.46,1.63-4.74,3.49-6.88,5.24-2.18,1.78-4.22,3.46-6.36,4.87l1.29,1.95h0ZM482.42,150.22l1.29,1.95c5.75-3.8,10.92-8.66,15.71-13.24l-1.61-1.69-1.61-1.69c-4.82,4.6-9.71,9.18-15.07,12.72l1.29,1.95h0ZM497.81,137.24l1.61,1.69c2.33-2.22,4.5-4.66,6.58-6.88,2.12-2.27,4.19-4.37,6.48-6.17l-1.44-1.84-1.44-1.84c-2.59,2.03-4.86,4.35-7.01,6.65-2.18,2.34-4.19,4.59-6.39,6.69l1.61,1.69h0ZM511.04,124.04l1.44,1.84c1.58-1.24,5.07-4.35,8.83-7.71,3.81-3.4,7.96-7.14,10.98-9.74l-1.53-1.77-1.53-1.77c-3.05,2.63-7.25,6.41-11.04,9.8-3.83,3.43-7.17,6.4-8.6,7.52l1.44,1.84h.01ZM530.76,106.66l1.53,1.77c3.38-2.91,9.73-5.2,16.75-6.66,6.93-1.44,14.01-1.96,18.49-1.64l.16-2.33.16-2.33c-5.02-.36-12.54.23-19.78,1.72-7.14,1.48-14.51,3.96-18.85,7.7l1.53,1.77s.01,0,.01,0ZM567.7,97.8l-.16,2.33c1.58.11,2.89.9,4.03,2.4,1.18,1.57,2.11,3.83,2.77,6.65,1.29,5.61,1.32,12.67.62,18.41l2.32.29,2.32.28c.74-6.09.76-13.73-.7-20.03-.72-3.15-1.86-6.12-3.59-8.41-1.78-2.34-4.23-4.01-7.42-4.25l-.16,2.33h-.03ZM577.26,127.87l-2.32-.29c-.92,7.58-2.98,12.07-6.15,15.9-3.33,4.01-7.88,7.32-14.29,12.62l1.49,1.8,1.49,1.8c6.08-5.02,11.2-8.78,14.9-13.24,3.85-4.64,6.19-10.01,7.2-18.32l-2.32-.28h0ZM555.99,157.91l-1.49-1.8c-5.51,4.56-9.71,6.15-16.82,8.43l.72,2.23.72,2.23c7.28-2.34,12.17-4.14,18.37-9.27l-1.49-1.8v-.02h0ZM538.4,166.76l-.72-2.23c-4.16,1.34-6.68,4.81-8.25,8.09-1.58,3.31-2.39,6.87-2.89,8.97l2.27.54,2.27.54c.51-2.16,1.22-5.24,2.56-8.03,1.35-2.82,3.11-4.9,5.47-5.66l-.72-2.23h0ZM528.82,182.14l-2.27-.54c-.36,1.53-.05,3.02,1.02,4.18.93,1.01,2.23,1.55,3.41,1.85,2.39.63,5.6.67,8.73.54,3.19-.13,6.61-.48,9.48-.74,3.01-.28,5.21-.44,6.31-.34l.22-2.33.22-2.33c-1.64-.16-4.37.08-7.17.33-2.94.27-6.21.59-9.25.72-3.11.13-5.69.05-7.35-.39-.83-.22-1.11-.45-1.15-.49l.02.04s.03.06.04.09c.02.07,0,.05.02-.09l-2.27-.54v.04h0ZM555.72,184.78l-.22,2.33c7.51.71,13.7-1.25,18.77-3.5,2.5-1.11,4.84-2.34,6.8-3.3,2.05-1,3.71-1.74,5.16-2.08l-.54-2.27-.54-2.27c-2.02.48-4.1,1.43-6.15,2.43-2.13,1.04-4.25,2.17-6.64,3.23-4.7,2.08-10.04,3.72-16.45,3.12l-.22,2.33h0l.03-.02h0ZM585.7,175.94l.54,2.27c14.06-3.33,28.18-9.8,39.08-16.34,5.46-3.27,10.17-6.59,13.7-9.58,1.76-1.5,3.26-2.94,4.42-4.27,1.13-1.3,2.07-2.65,2.52-3.96l-2.2-.77-2.2-.77c-.17.48-.65,1.3-1.64,2.44-.96,1.1-2.27,2.38-3.92,3.77-3.29,2.79-7.77,5.96-13.08,9.14-10.61,6.36-24.27,12.62-37.76,15.81l.54,2.27h0ZM643.77,143.29l2.2.77c1.03-2.94,3.68-8.92,6.54-14.93,2.87-6.01,5.83-11.82,7.44-14.42l-1.99-1.23-1.99-1.23c-1.76,2.84-4.82,8.87-7.68,14.87-2.86,6-5.62,12.19-6.74,15.39l2.2.77h.02,0ZM657.97,113.47l1.99,1.23c2.43-3.93,7.68-5.94,14.3-6.95,3.23-.49,6.58-.72,9.79-.88,3.16-.16,6.27-.26,8.77-.49l-.22-2.33-.22-2.33c-2.37.22-5.27.31-8.57.48-3.25.16-6.8.41-10.27.93-6.75,1.03-13.94,3.27-17.56,9.11l1.99,1.23h0ZM692.6,104.05l.22,2.33c2.04-.19,3.76-.55,5.15-1.23,1.49-.74,2.49-1.82,3.14-3.18.6-1.25.87-2.7,1.1-4.11.24-1.53.42-3.07.79-5.06l-2.3-.42-2.3-.42c-.37,2.03-.6,3.86-.8,5.17-.23,1.41-.42,2.24-.7,2.82-.22.45-.48.75-1,1.01-.62.31-1.67.59-3.51.76l.22,2.33v-.02.02h0ZM700.69,92.38l2.3.42c.55-2.98,1.73-7.53,2.1-11.79.37-4.3.04-9.15-3-12.82l-1.8,1.5-1.8,1.49c1.82,2.2,2.28,5.45,1.94,9.42-.35,4-1.4,7.85-2.04,11.36l2.3.42h0ZM700.29,69.69l1.8-1.5c-.25-.3-.58-.88-.97-1.83-.37-.92-.73-2.05-1.1-3.36-.75-2.65-1.43-5.67-2.23-8.83-.78-3.05-1.67-6.18-2.78-8.65-.56-1.24-1.22-2.42-2.04-3.37-.82-.96-1.91-1.82-3.32-2.13l-.5,2.28-.5,2.28c.09.02.34.11.76.59.41.48.86,1.23,1.33,2.26.93,2.06,1.74,4.83,2.51,7.88.75,2.94,1.5,6.23,2.26,8.94.39,1.38.8,2.69,1.26,3.83.45,1.11,1,2.21,1.71,3.07l1.8-1.49v.02h0ZM689.17,42.34l.5-2.28c-1.94-.42-5.41-.57-9.75-.56-4.43,0-10.01.18-16.31.47-12.6.57-28.19,1.61-43.44,2.77s-30.2,2.43-41.53,3.47c-5.66.52-10.43.98-13.89,1.34-1.73.18-3.13.33-4.16.45-.93.11-1.77.22-2.17.33l.6,2.26.6,2.26s.02,0,.35-.05c.29-.04.68-.09,1.18-.15,1-.12,2.38-.27,4.09-.44,3.43-.36,8.18-.81,13.84-1.33,11.31-1.04,26.23-2.31,41.46-3.46s30.76-2.2,43.3-2.77c6.27-.29,11.77-.45,16.1-.46,4.42,0,7.39.16,8.76.45l.5-2.28h-.02v-.02h0Z"/>
        </g>
        <g id="Path_7062">
          <path d="M536.94,187.9c-4.43,0-7.63-.61-9.21-2.43-.89-1.02-1.2-2.37-.86-3.8l.03-.12c1.09-4.64,3.35-14.28,10.89-16.71,7.41-2.38,11.49-4,16.93-8.49,1.34-1.1,2.61-2.13,3.82-3.11,10.06-8.15,15.11-12.24,16.74-25.62,1.08-8.87.39-20.66-3.68-25.59-1.15-1.39-2.47-2.13-4.04-2.24-9.48-.68-28.46,2.32-35.49,8.38-2.65,2.29-6.18,5.44-9.58,8.49-4.36,3.9-8.47,7.58-10.21,8.95-2.86,2.25-5.33,4.92-7.94,7.74-1.64,1.78-3.34,3.61-5.14,5.33-5.3,5.06-10.14,9.55-15.67,13.2-2.28,1.51-4.47,3.3-6.58,5.03-2.13,1.75-4.34,3.55-6.65,5.08-3.83,2.53-9.66,2.69-13.58.37-3.02-1.79-4.53-4.72-4.24-8.25.49-6.01,4-10.3,7.39-14.46.63-.78,1.27-1.56,1.88-2.35,3.78-4.86,7.51-9.85,11.11-14.69,9.14-12.26,18.58-24.94,29.7-36.27,2.83-2.88,19.91-14.27,37.16-25.68,3.01-1.99,5.52-3.65,7.17-4.76.67-.45,1.54-1.1,2.45-1.78.7-.52,1.41-1.05,2.14-1.58l7.01-3.94c2-.52,33.46-3.43,61.68-5.57,27.65-2.1,62.13-4.26,69.4-2.68,4.75,1.03,6.68,8.91,8.71,17.25,1.06,4.33,2.25,9.24,3.53,10.78,4.74,5.72,2.85,14.67,1.46,21.21-.23,1.11-.46,2.16-.63,3.12-.24,1.31-.41,2.5-.56,3.56-.78,5.42-1.3,9-9.31,9.75-1.82.17-3.94.27-6.18.37-9.51.43-22.54,1.02-26.93,8.11-3.28,5.3-11.92,23.45-14.01,29.42-2.85,8.17-31.83,27.41-59.49,33.95-2,.47-4.31,1.63-7,2.98-6.06,3.05-13.61,6.83-23.63,5.89-1.35-.12-4.31.15-7.44.44-4.24.39-8,.7-11.14.7v.02ZM564.8,95.71c1.11,0,2.13.03,3.03.1,2.69.19,4.99,1.43,6.84,3.69,5.17,6.28,5.69,19.34,4.56,28.62-1.82,14.99-7.98,19.98-18.19,28.25-1.2.97-2.46,1.99-3.79,3.09-6.18,5.1-11.02,6.88-18.25,9.21-5.38,1.73-7.3,9.89-8.22,13.81l-.03.12c-.04.17-.03.24-.03.24,1.05,1.86,13.04.75,16.98.38,3.61-.34,6.46-.6,8.18-.44,8.87.83,15.85-2.67,21.46-5.48,2.91-1.46,5.42-2.72,7.88-3.3,28.24-6.67,54.64-25.69,56.63-31.37,2.2-6.28,10.94-24.62,14.39-30.2,5.51-8.89,19.75-9.54,30.15-10.01,2.2-.1,4.27-.19,5.99-.35,4.87-.45,4.97-1.12,5.72-6.34.16-1.09.33-2.32.59-3.7.18-1,.41-2.08.65-3.23,1.28-6.06,2.88-13.59-.63-17.82-1.86-2.25-3.01-6.94-4.34-12.38-1.26-5.16-3.37-13.79-5.68-14.29-11.87-2.59-122.17,6.83-129.14,8.2h-.05c-1.97.53-5.34,3.04-7.8,4.87-.96.71-1.86,1.38-2.61,1.89-1.66,1.11-4.18,2.78-7.2,4.77-11.79,7.8-33.75,22.33-36.52,25.15-10.93,11.14-20.3,23.7-29.35,35.86-3.61,4.85-7.35,9.86-11.16,14.75-.63.81-1.29,1.62-1.94,2.42-3.14,3.85-6.11,7.49-6.5,12.26-.16,1.98.61,3.48,2.29,4.48,2.6,1.54,6.79,1.42,9.34-.26,2.15-1.42,4.18-3.08,6.33-4.84,2.19-1.79,4.46-3.65,6.91-5.27,5.25-3.47,9.95-7.83,15.11-12.76,1.71-1.63,3.36-3.42,4.96-5.15,2.6-2.82,5.3-5.73,8.41-8.18,1.64-1.28,5.7-4.93,10.01-8.78,3.42-3.06,6.96-6.23,9.64-8.54,7.76-6.69,25.28-9.44,35.36-9.44l.02-.03Z"/>
        </g>
        <g id="Path_7063">
          <path class="st26" d="M712.25,104.61c5.24-4.53,727.45-11.72,749.1-15.17,4.07-.65-9.11-10.01-6.19-12.9,5.25-5.2,5.1-19.96,5.66-26.65.97-11.72,1.71-33.3-5.22-42.95-2.32-3.23-3.47-3.76-6.98-4.67-12.07-3.11-574.88,27.02-623.51,23.13-33,1.22-73.88,1.14-105.12,6.19-9.47,1.53-13.8.16-12.75,14.28,1.23,16.5,6.45,31.99,5.02,58.75"/>
          <path d="M1461.35,89.43l.37,2.31h0l-.37-2.31ZM1455.16,76.53l1.64,1.66h0l-1.64-1.66ZM1460.81,49.88l2.33.19h0l-2.33-.19ZM1455.59,6.93l1.89-1.36h0l-1.89,1.36ZM1448.61,2.26l.58-2.26h0l-.58,2.26h0ZM816.1,18.93l.59,2.26h0l-.59-2.26ZM719.98,31.58l-.37-2.31h0l.37,2.31ZM707.23,45.85l-2.33.17h0l2.33-.17ZM712.25,104.61l1.53,1.77c-.22.19-.32.17.02.06.27-.09.69-.19,1.26-.29,1.15-.2,2.76-.4,4.8-.57,4.07-.33,9.67-.58,16.35-.76,13.37-.36,30.94-.46,49.06-.52,18.1-.06,627.49-10.78,642.96-11.01,14.36-.21,26.17-.6,32.26-1.37.67-.09,1.13-.71,1.03-1.38l-.17-1.1-.18-1.14c-.1-.64-.7-1.09-1.34-1-5.71.72-17.19,1.11-31.65,1.32-15.43.23-624.79,10.95-642.91,11.01-18.1.06-35.73.16-49.17.52-6.71.18-12.41.43-16.62.78-2.1.17-3.87.38-5.24.62-.68.12-1.3.26-1.84.43-.46.15-1.14.4-1.68.86l1.53,1.77h.02-.02ZM1461.35,89.43l.13.81c.14.89,1.21,1.35,1.9.78,0,0,.01,0,.02-.01.63-.51.97-1.22,1.05-1.96.07-.65-.08-1.22-.22-1.6-.15-.41-.35-.79-.55-1.12-.75-1.23-2.1-2.74-3.24-4.04-1.25-1.43-2.34-2.73-2.97-3.8-.32-.55-.4-.83-.41-.92,0-.02.02.07-.03.21-.05.16-.14.3-.23.41l-1.64-1.66-.58-.59c-.65-.66-1.76-.36-2.02.52-.17.59-.19,1.19-.12,1.74.13.98.58,1.9,1.01,2.66.89,1.52,2.29,3.14,3.47,4.5,1.29,1.48,2.28,2.61,2.77,3.41.05.09.09.15.12.2.02.02.02.05.03.06v.02h0v-.02s-.02-.05-.02-.09c-.02-.07-.02-.2,0-.37.05-.41.25-.85.62-1.15.16-.13.3-.2.4-.23.09-.04.15-.05.15-.05l.37,2.31h0v-.02h-.01ZM1455.16,76.53l.74.75c.5.51,1.35.48,1.79-.09,1.2-1.53,2.07-3.4,2.71-5.34.79-2.41,1.32-5.11,1.67-7.77.61-4.62.79-9.59,1-12.83.04-.66-.45-1.22-1.1-1.28l-1.14-.1-1.12-.09c-.67-.06-1.26.44-1.3,1.12-.23,3.47-.36,7.98-.96,12.56-.33,2.52-.8,4.9-1.47,6.93-.51,1.54-1.1,2.77-1.76,3.68-.36.49-.33,1.16.09,1.59l.87.88h-.02ZM1460.81,49.88l1.13.09c.67.06,1.25-.44,1.3-1.11.45-5.82.79-13.71.25-21.4-.52-7.59-1.93-15.43-5.29-20.82-.37-.6-1.17-.76-1.74-.35l-.88.63-.96.69c-.51.36-.66,1.05-.33,1.59,2.65,4.33,4.01,11.11,4.54,18.58.51,7.38.18,15-.26,20.71-.05.66.44,1.23,1.1,1.29l1.13.09h0ZM1455.59,6.93l.9-.65c.55-.4.67-1.18.25-1.72-.93-1.19-1.83-2.11-2.94-2.82-1.05-.67-2.17-1.08-3.42-1.44-.65-.19-1.33.2-1.5.86l-.28,1.08-.29,1.11c-.16.63.21,1.28.84,1.46,1.03.3,1.62.54,2.13.86.49.32,1,.78,1.72,1.68.4.5,1.12.6,1.64.23l.94-.67v.02h.01ZM719.98,31.58l-.37-2.31c-1.15.19-2.22.33-3.25.47-1.01.13-2.01.27-2.93.43-1.8.32-3.65.81-5.18,1.96-1.62,1.22-2.59,2.98-3.08,5.26-.48,2.2-.53,5.03-.26,8.64l2.33-.17,2.33-.17c-.26-3.46-.16-5.76.17-7.31.32-1.48.82-2.13,1.34-2.52.61-.46,1.54-.79,3.19-1.09.8-.14,1.69-.26,2.73-.4,1.02-.14,2.15-.29,3.37-.48l-.37-2.31h-.02ZM707.23,45.85l-2.33.17c.62,8.34,2.27,16.59,3.52,25.67,1.27,9.18,2.2,19.58,1.5,32.78l2.33.12,2.33.12c.72-13.57-.23-24.29-1.53-33.67-1.31-9.47-2.88-17.22-3.5-25.38l-2.33.17h0v.02h.01Z"/>
        </g>
        <g id="Path_7064">
          <path d="M714.01,109.21l-4.69-4.69.98-.86c.84-17.28-1.15-29.88-2.9-41.03-.9-5.7-1.75-11.08-2.16-16.61-1.02-13.67,3.17-14.87,11.29-15.95.97-.13,2.02-.27,3.14-.45,16.12-2.61,198.32-10.79,371.74-17.74C1220.77,6.68,1441.67-1.58,1449.12.33c3.75.97,5.41,1.69,8.11,5.44,6.86,9.55,6.82,29.35,5.59,44.28-.09,1.08-.16,2.37-.24,3.8-.44,8.01-1.05,18.93-5.82,23.92.26,1.1,2.58,3.76,3.73,5.08,2.54,2.91,4.21,4.83,3.5,6.8-.16.44-.71,1.51-2.31,1.76-10.01,1.59-166.55,3.96-332.29,6.47-186.09,2.81-396.33,5.99-415.2,8.35l-.16,2.97h-.02ZM1441.4,4c-31.92,0-171.15,4.7-350.8,11.9-167.24,6.71-354.46,15.1-370.29,17.66-1.16.19-2.24.33-3.25.47-6.96.93-8.61,1.15-7.83,11.69.4,5.36,1.23,10.67,2.12,16.28,1.73,10.99,3.68,23.38,3.02,40.25,7.77-.84,34.58-1.94,132.81-3.81,79.04-1.5,182.29-3.06,282.13-4.57,159.3-2.41,310.1-4.69,329.98-6.24-.56-.71-1.28-1.53-1.83-2.17-2.92-3.36-6.57-7.53-3.71-10.36,3.84-3.81,4.46-14.88,4.83-21.49.08-1.47.16-2.8.25-3.91.97-11.67,1.62-32.6-4.85-41.62-2.03-2.83-2.76-3.1-5.86-3.9-.66-.14-2.93-.2-6.72-.2v.02Z"/>
        </g>
        <g id="Path_7065">
          <path class="st26" d="M677.54,37.19c9.29,21.08,8.92,44.27,10.91,65.98.5,5.45.32,6.02,6.52,7.24,3.86.76,14.32.57,17.74-2.56,4.62-4.22,7.17-8,6.65-13.46-.74-7.84-7.21-57.7-14.68-64.61-6.65-6.14-21.61-3.2-27.15,7.41h.01Z"/>
          <path d="M700.04,113.78c-2.36,0-4.41-.18-5.65-.43-7.38-1.45-8.32-3.17-8.88-9.33l-.05-.57c-.4-4.39-.71-8.91-1.02-13.29-1.16-16.77-2.35-34.08-8.89-49.97h-2.98l2.29-4.39c3.22-6.16,9.47-10.59,16.73-11.85,5.98-1.04,11.5.28,15.12,3.63,9.32,8.62,15.58,65.96,15.63,66.53.69,7.28-3.25,11.97-7.61,15.96-3.14,2.88-9.63,3.72-14.69,3.72h0ZM680.88,37.38c7.1,16.93,8.34,34.93,9.55,52.36.3,4.34.61,8.83,1,13.15l.05.58c.11,1.26.24,2.7.43,3.04.25.19,1.49.53,3.63.95,3.97.78,12.95.17,15.14-1.83,4.57-4.18,6.06-7.05,5.69-10.96-1.5-15.9-8.17-57.55-13.73-62.69-2.2-2.03-5.95-2.83-10.02-2.12-4.94.86-9.23,3.63-11.74,7.52Z"/>
        </g>
        <g id="Path_7066">
          <path d="M700.01,112.78c-2.29,0-4.26-.17-5.43-.4-6.85-1.35-7.55-2.61-8.07-8.44l-.05-.58c-.4-4.38-.71-8.9-1.01-13.26-1.18-17.06-2.39-34.69-9.22-50.9h-1.99l1.53-2.93c3.07-5.89,9.06-10.12,16.01-11.33,5.68-.99,10.88.24,14.27,3.38,8.91,8.24,15.26,65.32,15.31,65.89.65,6.84-3.12,11.31-7.29,15.12-2.91,2.67-9.18,3.45-14.04,3.45h-.02ZM679.76,37.29c7.22,16.91,8.46,35.01,9.67,52.52.3,4.35.61,8.84,1.01,13.17l.05.58c.17,1.84.29,3.16.65,3.57.48.54,2.42.95,4.21,1.31,3.77.74,13.34.37,16-2.07,4.78-4.37,6.41-7.57,6.01-11.8-1.26-13.3-7.87-57.61-14.05-63.33-2.43-2.24-6.49-3.13-10.87-2.37-5.4.94-10.07,4.06-12.69,8.42h0Z"/>
        </g>
      </g>
      <g id="Path_7067">
        <path class="st24" d="M458.17,630.01l-.24,1.98h0l.24-1.98ZM458.17,630.01l-.24,1.98c.58.07,1.23.18,2.04.31.78.12,1.65.25,2.54.32,1.71.14,3.84.1,5.63-.9l-.98-1.74-.98-1.74c-.7.39-1.82.53-3.36.4-.73-.06-1.48-.16-2.24-.28-.72-.11-1.51-.25-2.17-.33l-.24,1.98h0ZM467.16,629.98l-1.91-.59c-.1.32-.17.61-.23.9-.05.27-.09.58-.08.89.01.29.07.77.36,1.24.16.25.38.5.68.7.3.19.62.29.92.33.56.07,1.01-.09,1.26-.19.27-.12.49-.27.65-.39.33-.25.62-.56.86-.85.23-.29.47-.64.65-1.02.09-.19.18-.43.24-.72.05-.26.11-.73-.07-1.26-.1-.28-.26-.57-.51-.83s-.54-.43-.82-.53c-.53-.2-1.01-.15-1.3-.1-.31.06-.6.16-.86.26-.26.11-.54.25-.83.41l.98,1.74.98,1.74c.19-.11.33-.17.41-.21.09-.04.09-.03,0-.01-.06.01-.37.06-.77-.09-.22-.08-.46-.22-.66-.43-.21-.21-.34-.46-.42-.68-.14-.41-.08-.74-.06-.83.01-.07.03-.11.04-.14,0-.03.02-.04.02-.04,0,0-.01.02-.04.07-.03.04-.06.09-.1.14s-.08.09-.11.13c-.04.04-.06.05-.06.05,0,0,.01-.01.04-.02.02-.01.07-.04.13-.07.09-.04.4-.17.84-.11.24.03.5.11.76.28.25.16.43.37.55.56.22.36.23.67.24.72,0,.08,0,.09.01-.01.02-.09.05-.24.12-.46l-1.91-.59h0Z"/>
      </g>
      <g id="Path_7295">
        <path d="M1.9,386.34l-1.9-.62h0l1.9.62Z"/>
      </g>
      <g id="Path_7296">
        <path d="M1.9,386.34l-1.9-.62h0l1.9.62Z"/>
      </g>
    </g>
  </g>
</svg>