<?xml version="1.0" encoding="UTF-8"?>
<svg id="Layer_1" xmlns="http://www.w3.org/2000/svg" version="1.1" viewBox="0 0 1578.16 780.64">
  <!-- Generator: Adobe Illustrator 30.6.0, SVG Export Plug-In . SVG Version: 2.1.4 Build 109)  -->
  <defs>
    <style>
      .st0, .st1, .st2, .st3, .st4, .st5, .st6, .st7, .st8, .st9, .st10, .st11, .st12, .st13, .st14, .st15, .st16, .st17, .st18, .st19, .st20, .st21, .st22, .st23 {
        stroke: #000;
      }

      .st0, .st2, .st24 {
        fill: #c48949;
      }

      .st0, .st3, .st4, .st5, .st9, .st10, .st11, .st15, .st18, .st19, .st21, .st22, .st23 {
        stroke-width: 4px;
      }

      .st1, .st6, .st13 {
        stroke-width: 2px;
      }

      .st1, .st23 {
        fill: none;
      }

      .st2, .st12, .st14, .st17 {
        stroke-width: 3px;
      }

      .st3 {
        fill: #dda999;
      }

      .st4 {
        fill: #b25b54;
      }

      .st5 {
        fill: #e15828;
      }

      .st6, .st10, .st12 {
        fill: #e7a234;
      }

      .st7 {
        fill: #f2d0c3;
      }

      .st7, .st16 {
        stroke-width: 6px;
      }

      .st8, .st13, .st17, .st18 {
        fill: #fcdd3a;
      }

      .st9 {
        fill: #ef8273;
      }

      .st11, .st14, .st25, .st20 {
        fill: #f3c538;
      }

      .st26, .st15 {
        fill: #fff;
      }

      .st16 {
        fill: #529bff;
      }

      .st27 {
        fill: #d9b96c;
      }

      .st19 {
        fill: #f4a69d;
      }

      .st21 {
        fill: #d19d8f;
      }

      .st28, .st22 {
        fill: #ce665b;
      }
    </style>
  </defs>
  <path id="Path_7323" class="st21" d="M567.77,103.35c-3.67,9.77-6.12,20.19-9.78,30.04-1.77,4.76-5.22,9.79-4.22,14.83,1.37,6.89,13.11,13.57,18.61,17.79,9.85,7.54,21.69,13.18,33.13,18.25,4.21-6.23,17.12-17.01,11.62-24.27-6.25-8.24-21.57-8-23.67-19.56-1.81-9.94,5.69-19.42,5.85-28.95.13-7.68-8.95-12.97-16.51-14.32-5.63-1.01-12.56,1.39-15.03,6.19h0Z"/>
  <path id="Path_7324" class="st23" d="M567.77,103.35c-3.67,9.77-6.12,20.19-9.78,30.04-1.77,4.76-5.22,9.79-4.22,14.83,1.37,6.89,13.11,13.57,18.61,17.79,9.85,7.54,21.69,13.18,33.13,18.25,4.21-6.23,17.12-17.01,11.62-24.27-6.25-8.24-21.57-8-23.67-19.56-1.81-9.94,5.69-19.42,5.85-28.95.13-7.68-8.95-12.97-16.51-14.32-5.63-1.01-12.56,1.39-15.03,6.19h0Z"/>
  <path id="Path_7325" class="st3" d="M538.26,114.49c-3.67,9.77-6.12,20.19-9.78,30.04-1.77,4.76-5.22,9.79-4.22,14.83,1.37,6.89,27,33.26,38.44,38.33,21.29,4.91,48.31-6.17,42.81-13.43-6.25-8.24-39.46-21.13-41.56-32.7-1.8-9.94,5.69-19.42,5.85-28.95.13-7.68-8.95-12.97-16.51-14.32-5.63-1.01-12.56,1.38-15.03,6.19h0Z"/>
  <path id="Path_7326" class="st23" d="M538.26,114.49c-3.67,9.77-6.12,20.19-9.78,30.04-1.77,4.76-5.22,9.79-4.22,14.83,1.37,6.89,27,33.26,38.44,38.33,21.29,4.91,48.31-6.17,42.81-13.43-6.25-8.24-39.46-21.13-41.56-32.7-1.8-9.94,5.69-19.42,5.85-28.95.13-7.68-8.95-12.97-16.51-14.32-5.63-1.01-12.56,1.38-15.03,6.19h0Z"/>
  <path id="Path_7327" class="st7" d="M552.65,61.05c-4.78,1.26-12.44,7.78-16.6,10.57-12.92,8.66-60.83,39.91-66.26,45.44-23.16,23.58-41.03,50.51-61.21,76.43-5.71,7.33-12.53,13.99-13.33,23.69-.95,11.54,14.24,14.32,22.15,9.08,6.79-4.49,12.86-10.55,19.93-15.23,8.35-5.52,15.93-12.63,23.17-19.54,6.83-6.51,12.57-14.11,19.92-19.87,4.53-3.55,20.55-18.29,29.69-26.17,11.61-10.01,41.3-14.38,55.6-13.36,14.38,1.02,16.55,27.42,14.38,45.24-2.91,23.9-13.23,29.67-32.03,45.21-8.81,7.29-15.66,9.84-26.48,13.33-9.81,3.16-12.92,16.73-14.42,23.14-2.44,10.38,32.23,3.17,40.49,3.94,20.94,1.97,34.7-10.85,45.13-13.32,41.47-9.82,83.62-38.37,87.41-49.18,3.23-9.24,16.31-36.66,21.39-44.86,9.1-14.7,37.46-12.82,52.12-14.2,11.66-1.1,9.96-5.47,12.18-17.56,1.79-9.75,6.74-25.33-.59-34.14-5.77-6.95-7.75-39.19-16.74-41.15-19.88-4.32-191.07,11.22-195.9,12.5h0Z"/>
  <path id="Path_7328" class="st23" d="M552.65,61.05c-4.78,1.26-12.44,7.78-16.6,10.57-12.92,8.66-60.83,39.91-66.26,45.44-23.16,23.58-41.03,50.51-61.21,76.43-5.71,7.33-12.53,13.99-13.33,23.69-.95,11.54,14.24,14.32,22.15,9.08,6.79-4.49,12.86-10.55,19.93-15.23,8.35-5.52,15.93-12.63,23.17-19.54,6.83-6.51,12.57-14.11,19.92-19.87,4.53-3.55,20.55-18.29,29.69-26.17,11.61-10.01,41.3-14.38,55.6-13.36,14.38,1.02,16.55,27.42,14.38,45.24-2.91,23.9-13.23,29.67-32.03,45.21-8.81,7.29-15.66,9.84-26.48,13.33-9.81,3.16-12.92,16.73-14.42,23.14-2.44,10.38,32.23,3.17,40.49,3.94,20.94,1.97,34.7-10.85,45.13-13.32,41.47-9.82,83.62-38.37,87.41-49.18,3.23-9.24,16.31-36.66,21.39-44.86,9.1-14.7,37.46-12.82,52.12-14.2,11.66-1.1,9.96-5.47,12.18-17.56,1.79-9.75,6.74-25.33-.59-34.14-5.77-6.95-7.75-39.19-16.74-41.15-19.88-4.32-191.07,11.22-195.9,12.5h0Z"/>
  <path id="Path_7329" class="st16" d="M783.29,142.37c7.88-6.83,758.99-1.82,791.59-7.02-1.24-12.02-2.68-24.02-2.68-36.16-.04-14.88,1.97-31.32.74-46.47-.66-7.75-2.12-15.83-4.35-23.11-2.94-10.42-9.64-22.54-19.6-24.84-111.12-5.55-512.65,3.26-609.34,8.61-48.11,12.53-97.66,11.47-144.69,19.11-14.26,2.32-20.78.24-19.2,21.49,1.85,24.82,9.7,48.12,7.54,88.39h0Z"/>
  <path id="Path_7330" class="st23" d="M783.29,142.37c7.88-6.83,758.99-1.82,791.59-7.02-1.24-12.02-2.68-24.02-2.68-36.16-.04-14.88,1.97-31.32.74-46.47-.66-7.75-2.12-15.83-4.35-23.11-2.94-10.42-9.64-22.54-19.6-24.84-111.12-5.55-532.57-.91-609.34,8.61-76.77,9.52-97.66,11.47-144.69,19.11-14.26,2.32-20.78.24-19.2,21.49,1.85,24.82,9.7,48.12,7.54,88.39h0Z"/>
  <path id="Path_7331" class="st16" d="M731.07,40.92c13.98,31.7,13.4,66.59,16.4,99.24.75,8.21.48,9.06,9.81,10.88,5.82,1.13,21.55.85,26.7-3.86,6.95-6.35,10.79-12.04,10.02-20.26-1.11-11.8-10.82-86.79-22.06-97.16-10-9.22-32.52-4.8-40.86,11.17h-.01Z"/>
  <path id="Path_7332" class="st23" d="M731.07,40.92c13.98,31.7,13.4,66.59,16.4,99.24.75,8.21.48,9.06,9.81,10.88,5.82,1.13,21.55.85,26.7-3.86,6.95-6.35,10.79-12.04,10.02-20.26-1.11-11.8-10.82-86.79-22.06-97.16-10-9.22-32.52-4.8-40.86,11.17h-.01Z"/>
  <path id="Path_7333" class="st23" d="M548.79,768.19c-.4.23-6.48,10.34-10.87,10.43-29.09.61-129.13-12.04-210.89-28.2-92.06-18.67-120.96-37.9-120.43-43.29,5.17-52.59-4.46,11.46,7.44-40.17,3.48-15.1,41.84-260.22,68.35-296.04,13.86-18.73,39.84-25.83,44.64-37.75,4.92-12.22,3.09-12.6,6.08-25.53.11-7.32,4.62-12.27,8.58-14.1,6.15-2.84,12.52-1.48,18.53-.44,26.77,4.61,51.52,15.4,77.69,22.29,29.6,7.8,57.78,20.09,87.71,26.91,9.19,2.09,18.37,4.23,27.56,6.35,3.29.76,17.99,1.48,19.08,5.72.79,3.09-2.25,12.16-2.51,16.02-.4,5.8-.59,11.97,1.24,17.2,1.27,3.64,4.84,7.4,7.01,10.41,5.61,7.73,11.46,14.77,15.83,23.71,8.2,16.78,7.23,35.89,6.13,55.61-1.63,29.31-5.79,58.84-11.18,87.82-3.59,19.28-35.34,188-39.99,203.05ZM548.79,768.19c-3.98,6.13,0,0,0,0Z"/>
  <path class="st28" d="M336.93,255.04c-2.88,12.47-5.5,24.91-7.91,37.42-.94,4.88-5.3,11.82-1.57,13.72,107.8,54.84,225.91,61.31,247.65,57.36,3.39-13.28,8.21-25.72,9.9-39.69.25-2.09,2.09-10.14,1.44-12.08-1.23-3.64-9.26-3.83-11.44-4.29-13.07-2.76-26.38-4.3-39.51-6.78-47.77-9-95-21.77-142.37-32.7-12.92-2.98-26.21-7.47-39.53-8.3"/>
  <path class="st23" d="M336.93,255.04c-2.88,12.47-5.5,24.91-7.91,37.42-.94,4.88-5.3,11.82-1.57,13.72,107.8,54.84,225.91,61.31,247.65,57.36,3.39-13.28,8.21-25.72,9.9-39.69.25-2.09,2.09-10.14,1.44-12.08-1.23-3.64-9.26-3.83-11.44-4.29-13.07-2.76-26.38-4.3-39.51-6.78-47.77-9-95-21.77-142.37-32.7-12.92-2.98-26.21-7.47-39.53-8.3"/>
  <path id="Path_7335" class="st4" d="M342.54,260.47l-11.02,47.75c.62.31,1.23.61,1.85.91l11.13-48.21-1.96-.45h0Z"/>
  <path id="Path_7336" class="st4" d="M349.95,263.09l-1.96-.45c-2.15,9.3-4.43,18.74-6.63,27.86-1.6,6.61-3.23,13.39-4.83,20.16.62.3,1.24.59,1.85.89,1.63-6.91,3.3-13.83,4.93-20.58,2.2-9.13,4.48-18.57,6.64-27.89h0Z"/>
  <path id="Path_7337" class="st4" d="M355.96,267.67l-10.86,47.02c.62.29,1.24.57,1.87.85l10.95-47.42-1.96-.45h0Z"/>
  <path id="Path_7338" class="st4" d="M373.69,273.64l-1.93-.55c-3.1,11.42-5.25,23.35-7.34,34.88-.83,4.61-1.69,9.31-2.6,14,.63.26,1.26.52,1.89.78.95-4.84,1.83-9.69,2.69-14.45,2.08-11.48,4.22-23.35,7.29-34.66h0Z"/>
  <path id="Path_7339" class="st4" d="M357.5,309.81c.82-3.97,1.97-8.16,3.18-12.6,2.67-9.78,5.43-19.89,5.1-28.99l-2.02.24c.32,8.7-2.39,18.61-5.01,28.2-1.22,4.48-2.38,8.71-3.22,12.76l-.19.9c-.56,2.69-1.13,5.43-1.71,8.18.63.27,1.26.54,1.89.81.61-2.89,1.21-5.77,1.8-8.6l.19-.9h-.01Z"/>
  <path id="Path_7340" class="st4" d="M381.56,273.58l-11.9,51.56c.63.25,1.26.5,1.89.74l11.97-51.85-1.96-.45h0Z"/>
  <path id="Path_7341" class="st4" d="M395.68,307.63c1.8-8.77,3.65-17.85,4.02-26.46l-2.02.03c-.36,8.4-2.2,17.37-3.97,26.05-.82,4-1.66,8.13-2.33,12.07-.83,4.88-1.62,9.13-2.42,13.03.64.22,1.28.44,1.91.66.83-4.01,1.65-8.37,2.5-13.39.66-3.9,1.46-7.83,2.32-11.99h-.01Z"/>
  <path id="Path_7342" class="st4" d="M386.26,275.58c-3.99,17.27-7.96,35.46-10.22,52.04.64.24,1.29.49,1.93.73,2.24-16.61,6.23-34.93,10.25-52.32l-1.96-.45Z"/>
  <path id="Path_7343" class="st4" d="M413.68,286.01l-1.96-.45c-1.99,8.65-4.12,17.44-6.19,25.93-1.95,8.02-3.95,16.3-5.85,24.5.64.21,1.28.42,1.92.62,1.91-8.23,3.93-16.57,5.89-24.64,2.06-8.5,4.19-17.29,6.19-25.96h0Z"/>
  <path id="Path_7344" class="st4" d="M425.53,289.65l-1.96-.43c-1.82,8.19-3.39,16.57-4.91,24.66-1.63,8.68-3.32,17.65-5.31,26.42.64.19,1.29.38,1.93.57,2.02-8.86,3.72-17.89,5.36-26.65,1.52-8.08,3.08-16.43,4.89-24.58h0Z"/>
  <path id="Path_7345" class="st4" d="M432.23,291.21l-11.81,51.17c.65.18,1.29.37,1.93.55l11.84-51.27-1.96-.45h0Z"/>
  <path id="Path_7346" class="st4" d="M432.79,323.51c1.87-8.03,3.73-16.06,5.57-24.1.11-.48.21-.99.32-1.51.36-1.76.78-3.76,1.48-4.89l-1.63-1.24c-.95,1.53-1.39,3.67-1.82,5.74-.1.5-.2.99-.31,1.45-1.83,8.03-3.7,16.06-5.57,24.08-1.01,4.34-1.92,8.76-2.81,13.04-.54,2.61-1.1,5.28-1.68,7.95.65.18,1.3.36,1.94.54.59-2.72,1.16-5.44,1.72-8.1.88-4.26,1.79-8.67,2.79-12.98v.02Z"/>
  <path id="Path_7347" class="st4" d="M459.1,291.98l-1.94-.53c-2.82,10.7-4.73,21.84-6.59,32.62-1.42,8.24-2.89,16.75-4.75,25.01.65.16,1.31.32,1.95.47,1.88-8.34,3.36-16.89,4.79-25.18,1.84-10.72,3.75-21.8,6.54-32.39h0Z"/>
  <path id="Path_7348" class="st4" d="M446.97,290.96l-12.74,55.21c.65.17,1.3.34,1.95.5l12.76-55.26-1.96-.45h-.01Z"/>
  <path id="Path_7349" class="st4" d="M461.58,299.54l-8.05,51.35c.66.15,1.31.3,1.97.44l8.08-51.52-1.99-.27h-.01Z"/>
  <path id="Path_7350" class="st4" d="M470.41,296.18l-1.99-.27c-1.47,9.4-3.07,18.95-4.61,28.18-1.54,9.18-3.12,18.68-4.59,28.04.65.14,1.32.29,1.97.43,1.47-9.4,3.07-18.95,4.61-28.18,1.54-9.24,3.14-18.79,4.62-28.21h-.01Z"/>
  <path id="Path_7351" class="st4" d="M470.63,352.17l8.11-51.74-1.99-.27-8.12,51.74,1.99.27h.01Z"/>
  <path id="Path_7352" class="st4" d="M494.95,304.44l-1.98-.36c-2.28,11.61-3.57,23.64-4.83,35.27-.64,5.92-1.3,11.98-2.09,17.99.66.11,1.33.23,1.99.34.8-6.09,1.47-12.21,2.11-18.19,1.25-11.58,2.54-23.55,4.79-35.05h.01Z"/>
  <path id="Path_7353" class="st4" d="M481.35,341.81c.54-4.01,1.38-8.28,2.27-12.79,1.97-9.95,4-20.23,3.01-29.23l-2.01.42c.95,8.6-1.05,18.68-2.97,28.43-.9,4.56-1.75,8.86-2.3,12.95l-.11.83c-.59,4.39-1.21,8.89-1.86,13.37.66.12,1.32.25,1.98.37.66-4.54,1.29-9.09,1.88-13.53l.11-.83h0Z"/>
  <path id="Path_7354" class="st4" d="M502.83,303.65l-8.63,55.02c.66.1,1.33.21,1.99.31l8.64-55.06-1.99-.27h-.01Z"/>
  <path id="Path_7355" class="st4" d="M519.43,336.09c1.16-8.87,2.37-18.03,2.12-26.6l-2.03.22c.24,8.36-.94,17.42-2.09,26.19-.53,4.04-1.08,8.22-1.46,12.2-.48,5-.97,9.35-1.51,13.36.67.08,1.34.16,2,.23.54-4.05,1.04-8.45,1.53-13.49.38-3.93.9-7.9,1.45-12.11h0Z"/>
  <path id="Path_7356" class="st4" d="M509.67,305.46l-1.99-.27c-2.86,18.19-5.63,37.37-6.61,54.51.6.09,1.2.17,1.8.25h.2c.22-3.96.54-8.04.97-12.49,1.28-13.45,3.43-28.02,5.63-42.01h0Z"/>
  <path id="Path_7357" class="st4" d="M535.9,312.99l-1.99-.27c-1.37,8.74-2.86,17.62-4.31,26.21-1.31,7.78-2.65,15.79-3.91,23.73.68.07,1.34.13,2.01.19,1.25-7.9,2.59-15.88,3.89-23.62,1.45-8.6,2.94-17.49,4.31-26.24h0Z"/>
  <path id="Path_7358" class="st4" d="M548.04,315.49l-2-.24c-1.23,8.29-2.19,16.74-3.13,24.91-.89,7.77-1.82,15.75-2.96,23.65.68.04,1.35.08,2.01.12,1.14-7.9,2.07-15.87,2.96-23.62.93-8.15,1.9-16.58,3.12-24.82Z"/>
  <path id="Path_7359" class="st4" d="M554.86,316.42l-7.49,47.79c.68.03,1.36.06,2.02.08l7.47-47.61-1.99-.27h-.01Z"/>
  <path id="Path_7360" class="st4" d="M557.75,348.39c1.29-8.13,2.58-16.27,3.84-24.41.08-.49.15-1,.21-1.53.24-1.78.5-3.79,1.13-4.99l-1.73-1.08c-.84,1.6-1.12,3.77-1.4,5.86-.07.5-.13,1-.21,1.47-1.26,8.14-2.54,16.27-3.83,24.4-.7,4.4-1.29,8.86-1.87,13.18-.14,1.03-.28,2.08-.42,3.12.69.02,1.36.03,2.03.04.13-.98.27-1.98.4-2.95.58-4.3,1.17-8.75,1.86-13.12h-.01Z"/>
  <path id="Path_7361" class="st4" d="M581.84,314.69l-1.98-.35c-2.05,10.87-3.16,22.1-4.24,32.96-.54,5.41-1.1,10.93-1.77,16.44.44-.06.87-.13,1.25-.2.45-1.74.92-3.47,1.4-5.19.4-3.67.77-7.33,1.13-10.93,1.07-10.8,2.17-21.98,4.21-32.74h0Z"/>
  <path id="Path_7362" class="st4" d="M569.6,314.8l-7.79,49.67c.7,0,1.38-.02,2.04-.04l7.74-49.37-1.99-.27h0Z"/>
  <path id="Path_7363" class="st9" d="M457.9,256.68c33.85,5.76,124.9,31.12,128.35,45.17,2.16,8.81.4,14.29-8.8,15.34-15.62,1.77-62.53-5.39-69.02-6.89-19.77-4.56-39.55-9.13-59.32-13.7-21.3-4.92-87.37-23.35-99.17-26.83-6.76-1.99-15.41-4.28-13.23-13.75,6.1-26.4,98.93-3.12,121.19.66Z"/>
  <path id="Path_7364" class="st0" d="M214.4,691.2c-3.65-13.43-1.55-31.61,7.3-42.98,11.56-14.85,23.4-12.05,38.27-10.85,6.92-19.2-24.71-27.42-12.94-52.18,7.83-16.47,31.12-31.46,49.02-27.92,13.58,2.69,20.54,12.1,29.6,18.87,2.45,1.83,1.71,5.44,5.43,6.93,6.84,2.75,24.91-12.03,33.36-12.69,13.69-1.07,33.29,1.33,44.6,8.29,20.57,12.67,22.25,32.29,21.66,52.71,22.7-3.17,60.68-17.91,79.2,7.18,2.26,3.06,1.92,8.96,4.03,11.49,5.18,6.2,15.57,6.35,24.35,9.03,8.74,2.66,12.64,3.22,15.28,12.51,5.39,18.96-6.49,49.73-19,63-12.01,12.74-22.75,15.25-39.86,14.4-30.62-1.53-60.05-2.97-90.21-8.06-30.79-5.2-60.95-11.56-91.45-18.6-27.65-6.38-59.78-9.91-98.63-31.1v-.03Z"/>
  <path id="Path_7366" class="st11" d="M426.2,621.18c-9.4-8.66-21.67-11.96-29.8-14.12-14.76-3.93-29.14-1.56-41.49,7.6-10.24,7.6-17.37,19.87-20.54,32.14-3.66,14.16-2.59,35.53,7.72,47.15,11.46,12.91,39.23,16.99,55.49,17.35,22.94.5,36.48-17.47,39.73-39.56,1.81-12.37,3.67-19.85-.2-31.37-1.48-4.41-4.17-14.03-10.91-19.19Z"/>
  <path id="Path_7367" class="st24" d="M348.04,693.21c-.96-.82-1.85-1.67-2.65-2.57-9.48-10.69-10.84-30.25-7.28-44.04,3.2-12.36,10.18-23.28,19.16-29.95,11.31-8.4,24.72-10.86,38.79-7.12,7.49,1.99,18.78,4.98,27.64,13.11,5.83,4.53,8.5,12.57,9.91,16.9l.36,1.09c3.23,9.6,2.2,16.29.77,25.55-.18,1.15-.36,2.35-.54,3.6-4.08,27.82-21.96,37.36-37.34,37.03-16.07-.35-37.65-4.17-48.83-13.62v.02ZM421.2,623.05c-8.29-7.01-18.66-9.77-25.64-11.63-13.47-3.58-26.31-1.23-37.12,6.8-8.63,6.41-15.35,16.93-18.43,28.87-3.43,13.29-2.18,32.07,6.85,42.25,9.65,10.87,32.99,15.16,50.06,15.54,22.17.49,32.81-17.95,35.36-35.36.18-1.26.37-2.46.55-3.62,1.43-9.32,2.38-15.49-.69-24.64l-.37-1.11c-1.35-4.14-3.87-11.81-9.28-15.98l-.04-.03-.03-.03c-.4-.37-.8-.72-1.21-1.07h-.01Z"/>
  <path id="Path_7368" class="st0" d="M388.2,645.62c-.6-7.08-5.27-14.28-12.8-15.37-6.45-.94-11.47,2.13-14.51,6.6-6.03,8.88-1.95,21.97,2.69,30.44,4.58,8.35,11.2,15.02,16.83,22.58,8.21-3.32,25.31-13.26,29.45-16.64,7.63-6.22,9.14-14.08,9.57-18.42.3-3.12.65-12.27-6.35-15.6-16.24-7.72-24.76,4.7-24.89,6.41h0Z"/>
  <path id="Path_7369" class="st0" d="M347.3,641.98c-.22-.18-.43-.37-.63-.54l1.29-1.46c1.71,1.51,4.28,3.52,6.77,4.57l-.76,1.8c-2.43-1.03-4.87-2.85-6.67-4.36h0Z"/>
  <path id="Path_7370" class="st0" d="M345.81,653.55l.21-1.94c2.69.29,5.52.57,8.08.5l.05,1.95c-2.67.06-5.58-.22-8.33-.52h0Z"/>
  <path id="Path_7371" class="st0" d="M344.86,665.55l-.53-1.88c2.46-.69,5.03-1.02,7.51-1.34,1.43-.18,2.86-.37,4.25-.62l.35,1.92c-1.42.25-2.88.44-4.35.63-2.42.31-4.91.64-7.23,1.29h0Z"/>
  <path id="Path_7372" class="st0" d="M350.58,675.29l-1.32-1.44c1.07-.97,2.38-1.61,3.64-2.22,1.07-.52,2.09-1.01,2.92-1.67.19-.15.36-.3.54-.45.49-.42.99-.85,1.68-1.24l.97,1.69c-.52.3-.92.64-1.38,1.03-.19.16-.38.32-.58.49-1,.8-2.17,1.36-3.29,1.9-1.2.58-2.32,1.12-3.18,1.9h0Z"/>
  <path id="Path_7373" class="st0" d="M354.4,636.71c-.82-.7-1.68-1.72-2.02-2.61l1.83-.68c.24.65,1.27,1.8,1.98,2.18l-.95,1.7c-.26-.15-.54-.35-.84-.6h0Z"/>
  <path id="Path_7374" class="st0" d="M423.1,654.21l-1.32-1.44c.8-.73,1.95-1.28,2.97-1.77.35-.17.68-.33.99-.49l.91,1.72c-.32.17-.68.34-1.05.52-.9.43-1.91.92-2.5,1.46Z"/>
  <path id="Path_7375" class="st0" d="M420.02,660.41l.52-1.88c1.58.43,3.22.79,4.82,1.14,2.02.44,4.1.9,6.11,1.51l-.57,1.87c-1.94-.59-3.98-1.04-5.96-1.48-1.62-.35-3.29-.72-4.92-1.17h0Z"/>
  <path id="Path_7376" class="st0" d="M418.29,667.57l1.16-1.57c2.15,1.59,5.06,2.74,7.87,3.85.84.33,1.67.66,2.44.98l-.76,1.8c-.76-.32-1.57-.64-2.4-.97-2.8-1.1-5.96-2.35-8.32-4.09h.01Z"/>
  <path id="Path_7377" class="st0" d="M420.08,687.83c-1.06-.9-2.06-2.21-2.96-3.38-.32-.41-.61-.8-.89-1.14l-.58-.7c-1.83-2.21-4.33-5.22-4.93-7.87l1.9-.44c.5,2.19,2.93,5.12,4.53,7.06l.59.71c.29.35.6.76.93,1.18.94,1.23,2.03,2.63,3.01,3.34l-1.13,1.59c-.16-.11-.32-.23-.47-.37v.02Z"/>
  <path id="Path_7378" class="st0" d="M406.15,688.39c-.26-1.18-.69-2.34-1.15-3.56-.52-1.4-1.07-2.85-1.34-4.37l1.92-.34c.24,1.35.73,2.65,1.25,4.03.46,1.24.95,2.51,1.23,3.84l-1.91.41h0Z"/>
  <g id="Group_5679">
    <g id="Group_5678">
      <path id="Path_7379" class="st27" d="M379.29,612.78c1.37,1.08,2.33,2.73,3.3,4.14-6.45,3-12.88,4.98-18.47,9.61-1.94,1.6-3.26,3.22-4.64,5.31-1.08,1.64-2.88,3.91-3.14,5.9-2.16-.39-4.23-1.9-6.45-2.41,1.62-4.38,5.42-8.06,8.3-11.62,2.5-3.09,4.86-5.04,8.24-7,2.4-1.39,8.63-3.92,12.85-3.93h.01Z"/>
    </g>
  </g>
  <g id="Group_5682">
    <g id="Group_5681">
      <path id="Path_7380" class="st27" d="M381.67,612.09c1.13.93,2.18,2.92,2.84,4.15,1.53-.91,4.5-.33,6.19-.27-.39-1.61-1.66-3.53-3.22-4.11-1.55-.58-4.69-.77-5.82.24h.01Z"/>
    </g>
  </g>
  <g id="Group_5685">
    <g id="Group_5684">
      <path id="Path_7381" class="st27" d="M413.83,692.37c-1.62,2.4-5.72,3.91-8.36,4.57-4.75,1.2-10.77,1.38-15.6.75-2.72-.36-5.14-.82-7.8-1.49-.22.69-1.17,2.82-.98,3.49.25.91.8.82,1.89,1.14,4.09,1.16,8.24,1.24,12.48,1.46,4.68.24,10.04-.07,14.35-2.04,2.11-.96,4.65-2.26,6.36-3.86,2.1-1.97-.07-2.44-2.34-4.03h0Z"/>
    </g>
  </g>
  <path id="Path_7383" class="st14" d="M328.4,632.82c-2.08-11.21-9.08-20.13-13.72-26.01-8.44-10.7-19.97-16.7-33.69-16.76-11.37-.05-23.03,4.89-31.85,11.96-10.19,8.16-20.86,23.98-19.71,37.79,1.27,15.34,18.92,33.11,30.34,42.06,16.11,12.63,35.39,7.04,49.52-6.99,7.91-7.86,13.24-12.21,16.64-22.51,1.3-3.94,4.53-12.24,2.48-19.53h-.01Z"/>
  <path id="Path_7384" class="st24" d="M234.09,642.44c-.25-1.1-.43-2.18-.52-3.26-1.05-12.7,8.44-27.39,18.36-35.33,8.89-7.12,19.71-11.18,29.69-11.13,12.56.05,23.46,5.47,31.5,15.67,4.28,5.43,10.74,13.6,12.72,24.14,1.74,6.36-.66,13.52-1.96,17.37l-.33.97c-2.83,8.58-7.15,12.81-13.12,18.66-.74.73-1.52,1.48-2.32,2.28-17.79,17.67-35.66,14.93-46.46,6.46-11.28-8.85-24.64-23.11-27.57-35.84h0ZM323.84,631.48c-2.17-9.44-8.1-16.96-12.09-22.01-7.7-9.76-18.12-14.95-30.14-15.01-9.59-.04-20.01,3.88-28.6,10.75-9.56,7.65-18.71,21.73-17.71,33.83,1.08,12.92,15.45,28.47,27.43,37.87,15.57,12.21,33.02,4.73,44.16-6.33.8-.8,1.58-1.56,2.33-2.29,6.01-5.89,9.98-9.78,12.68-17.96l.33-.99c1.25-3.67,3.55-10.5,1.92-16.38v-.04l-.02-.04c-.09-.47-.19-.94-.29-1.41h0Z"/>
  <path id="Path_7385" class="st0" d="M288.21,629.94c3.36-5.38,3.88-13.01-.91-17.82-4.1-4.12-9.33-4.61-13.89-3.04-9.05,3.11-13.14,14.64-14.36,23.17-1.2,8.41-.04,16.72-.06,25.12,7.63,2.02,25.15,4.07,29.92,3.87,8.77-.36,14.05-5.16,16.68-8.04,1.88-2.06,7.02-8.41,3.81-14.53-7.46-14.19-20.18-9.89-21.19-8.74h0Z"/>
  <g id="Group_5688">
    <g id="Group_5687">
      <path id="Path_7386" class="st27" d="M307.8,606.57c.4,1.5.2,3.2.14,4.72-6.21-1.31-11.86-3.33-18.33-3.02-2.24.11-4.05.56-6.15,1.31-1.65.6-4.15,1.25-5.39,2.53-1.33-1.43-2-3.62-3.31-5.17,3.5-2.26,8.18-2.85,12.14-3.85,3.44-.87,6.17-1,9.63-.59,2.46.29,8.26,1.81,11.27,4.07h0Z"/>
    </g>
  </g>
  <g id="Group_5691">
    <g id="Group_5690">
      <path id="Path_7387" class="st27" d="M301.48,602.52c.31,1.27,0,3.25-.19,4.48,1.58.16,3.39,2.17,4.57,3.12.58-1.36.7-3.4-.1-4.66-.79-1.24-2.94-3.06-4.28-2.94Z"/>
    </g>
  </g>
  <g id="Group_5694">
    <g id="Group_5693">
      <path id="Path_7388" class="st27" d="M281.5,677.03c-2.44.84-6.18-.27-8.42-1.21-4.03-1.69-8.43-4.77-11.53-7.81-1.75-1.71-3.24-3.34-4.77-5.24-.52.38-2.34,1.39-2.57,1.97-.31.79.13,1.01.74,1.82,2.3,3.02,5.22,5.29,8.12,7.72,3.21,2.68,7.2,5.32,11.33,6.22,2.02.44,4.53.88,6.61.65,2.55-.28,1.25-1.78.48-4.12h.01Z"/>
    </g>
  </g>
  <path id="Path_7389" class="st2" d="M359.22,518.07c-10.35-5.33-21.94-5.27-29.6-5.2-13.92.12-25.99,5.67-34.62,16.71-7.16,9.15-10.46,21.66-10.28,33.21.21,13.33,6.32,31.86,18.19,39.57,13.19,8.57,38.58,5.44,52.96,1.83,20.28-5.1,27.84-24.17,25.35-44.37-1.4-11.31-1.57-18.33-7.76-27.52-2.37-3.52-7.05-11.32-14.23-14.23h0Z"/>
  <path id="Path_7390" class="st20" d="M357.02,517.31c-10.13-5.22-21.47-5.16-28.97-5.09-13.62.12-25.43,5.56-33.88,16.36-7.01,8.96-10.24,21.2-10.06,32.51.2,13.05,6.18,31.18,17.8,38.73,12.91,8.39,37.76,5.33,51.83,1.79,19.85-5,27.24-23.66,24.81-43.42-1.37-11.07-1.54-17.94-7.6-26.93-2.32-3.44-6.9-11.08-13.92-13.92v-.03Z"/>
  <path id="Path_7391" class="st24" d="M306.85,597.75c-1.02-.47-1.99-1-2.89-1.58-10.69-6.95-16.48-23.45-16.68-36.15-.18-11.39,3.24-22.43,9.39-30.29,7.74-9.9,18.69-15.19,31.68-15.3,6.92-.06,17.33-.16,26.87,4.74,6.09,2.52,10.29,8.8,12.53,12.19l.57.85c5.05,7.49,5.75,13.49,6.71,21.8.12,1.04.24,2.11.38,3.23,3.07,24.89-10.05,37.33-23.35,40.68-13.9,3.5-33.37,5.32-45.22-.16h.01ZM353.16,520.1c-8.79-4.07-18.37-3.98-24.8-3.93-12.43.11-22.92,5.16-30.32,14.63-5.9,7.55-9.19,18.19-9.02,29.19.2,12.24,5.71,28.1,15.89,34.72,10.87,7.07,31.96,5.24,46.73,1.52,19.18-4.82,23.97-23.2,22.05-38.78-.14-1.12-.26-2.2-.39-3.24-.97-8.36-1.62-13.88-6.43-21.02l-.58-.87c-2.14-3.24-6.12-9.24-11.77-11.55h-.04l-.04-.03c-.43-.22-.86-.43-1.29-.63h0Z"/>
  <path id="Path_7392" class="st0" d="M330.13,547.32c-2.19-5.95-7.91-11.03-14.64-10.2-5.77.72-9.36,4.54-10.91,9.11-3.08,9.06,3.52,19.36,9.52,25.54,5.92,6.1,13.19,10.27,19.82,15.44,6.27-4.79,18.63-17.39,21.39-21.28,5.09-7.16,4.53-14.27,3.87-18.11-.48-2.75-2.35-10.71-9.15-11.91-15.79-2.79-20.18,9.9-19.89,11.4h-.01Z"/>
  <path id="Path_7393" class="st0" d="M361.2,559.09l.63-1.62c2.23.86,5,1.16,7.68,1.45.8.09,1.59.17,2.33.27l-.23,1.73c-.73-.1-1.5-.18-2.29-.26-2.66-.29-5.68-.61-8.12-1.55v-.02Z"/>
  <path id="Path_7394" class="st0" d="M367.53,576.08c-1.13-.52-2.3-1.41-3.35-2.2-.37-.28-.71-.54-1.03-.77l-.66-.47c-2.09-1.46-4.96-3.47-6.11-5.6l1.53-.82c.95,1.76,3.73,3.71,5.57,4.99l.67.47c.34.23.7.51,1.08.8,1.1.84,2.37,1.78,3.38,2.16l-.6,1.63c-.16-.06-.33-.13-.49-.2h0Z"/>
  <path id="Path_7395" class="st0" d="M355.69,579.86c-.5-.96-1.15-1.85-1.83-2.79-.78-1.08-1.59-2.2-2.19-3.44l1.57-.75c.53,1.11,1.26,2.11,2.03,3.17.69.95,1.41,1.94,1.96,3.01l-1.54.81h0Z"/>
  <g id="Group_5697">
    <g id="Group_5696">
      <path id="Path_7396" class="st27" d="M316.48,513.61c1.43.6,2.65,1.8,3.82,2.78-4.84,4.1-9.9,7.33-13.61,12.64-1.29,1.84-2.04,3.54-2.73,5.67-.54,1.67-1.55,4.05-1.3,5.81-1.95.17-4.09-.64-6.12-.55.36-4.15,2.76-8.21,4.39-11.96,1.42-3.25,2.99-5.49,5.43-7.97,1.74-1.77,6.49-5.42,10.12-6.42h0Z"/>
    </g>
  </g>
  <g id="Group_5700">
    <g id="Group_5699">
      <path id="Path_7397" class="st27" d="M316.57,520.03c1.19.53,2.57,2,3.42,2.89,1.1-1.15,3.79-1.35,5.26-1.7-.71-1.29-2.26-2.64-3.74-2.78-1.47-.14-4.22.45-4.95,1.58h0Z"/>
    </g>
  </g>
  <g id="Group_5703">
    <g id="Group_5702">
      <path id="Path_7398" class="st27" d="M363.23,581.47c-.83,2.45-4,4.72-6.11,5.91-3.8,2.15-8.93,3.74-13.24,4.33-2.42.34-4.62.51-7.06.56-.02.65-.34,2.7-.01,3.24.43.72.88.52,1.89.53,3.8.03,7.38-.88,11.08-1.69,4.08-.9,8.62-2.44,11.86-5.15,1.59-1.33,3.47-3.05,4.56-4.83,1.34-2.19-.64-2.08-2.96-2.91h-.01Z"/>
    </g>
  </g>
  <path id="Path_7399" class="st6" d="M392.32,564.24c-11.91-5.35-24.87-4.59-33.45-4.06-15.58.96-28.75,7.91-37.76,20.78-7.47,10.67-10.42,24.88-9.53,37.79,1.03,14.91,8.97,35.28,22.72,43.21,15.27,8.81,43.51,3.79,59.39-1.11,22.4-6.92,29.72-28.72,25.73-51.18-2.24-12.58-2.86-20.43-10.34-30.35-2.86-3.8-8.57-12.25-16.77-15.08h.01Z"/>
  <path id="Path_7400" class="st18" d="M389.81,561.52c-11.65-5.24-24.34-4.49-32.73-3.97-15.24.94-28.14,7.74-36.95,20.33-7.31,10.45-10.2,24.35-9.32,36.99,1.01,14.6,8.78,34.53,22.23,42.29,14.95,8.62,42.59,3.71,58.12-1.09,21.93-6.77,29.09-28.11,25.18-50.09-2.19-12.31-2.79-19.99-10.11-29.7-2.8-3.71-8.39-11.99-16.42-14.76h0Z"/>
  <path id="Path_7402" class="st10" d="M361.49,596.72c-2.81-6.53-9.51-11.88-17-10.54-6.42,1.15-10.21,5.65-11.68,10.85-2.91,10.33,5.1,21.46,12.18,28.02,6.99,6.47,15.38,10.71,23.11,16.1,6.74-5.74,19.81-20.58,22.68-25.09,5.27-8.32,4.22-16.24,3.25-20.5-.7-3.06-3.27-11.85-10.96-12.79-17.84-2.19-22,12.28-21.58,13.95Z"/>
  <g id="Group_5706">
    <g id="Group_5705">
      <path id="Path_7403" class="st27" d="M344.32,562.61c1.64.59,3.07,1.85,4.44,2.89-5.17,4.88-10.64,8.8-14.48,14.96-1.33,2.13-2.07,4.09-2.72,6.5-.51,1.9-1.5,4.62-1.11,6.59-2.17.31-4.61-.47-6.88-.25.15-4.67,2.59-9.36,4.2-13.65,1.39-3.73,3.02-6.32,5.6-9.25,1.84-2.08,6.95-6.45,10.95-7.79h0Z"/>
    </g>
  </g>
  <g id="Group_5709">
    <g id="Group_5708">
      <path id="Path_7404" class="st27" d="M344.69,566.98c1.37.53,2.99,2.08,4.01,3.03,1.16-1.35,4.17-1.73,5.79-2.22-.88-1.4-2.69-2.82-4.35-2.89-1.65-.06-4.7.75-5.44,2.07h-.01Z"/>
    </g>
  </g>
  <g id="Group_5712">
    <g id="Group_5711">
      <path id="Path_7405" class="st27" d="M400.59,632.97c-.78,2.79-4.2,5.52-6.49,6.98-4.13,2.64-9.78,4.72-14.56,5.64-2.69.52-5.14.85-7.87,1.05.01.72-.22,3.04.18,3.62.53.78,1.02.53,2.15.48,4.25-.19,8.21-1.43,12.3-2.56,4.52-1.25,9.5-3.24,12.97-6.47,1.7-1.58,3.7-3.62,4.82-5.67,1.37-2.53-.84-2.29-3.49-3.08h-.01Z"/>
    </g>
  </g>
  <path id="Path_7407" class="st11" d="M500.31,590.87c-12.32-3.4-24.74-.72-32.95,1.07-14.92,3.26-26.63,11.94-33.42,25.73-5.63,11.44-6.36,25.61-3.57,37.98,3.23,14.27,13.95,32.79,28.43,38.4,16.09,6.24,42.65-2.83,57.28-9.95,20.63-10.05,24.46-32.22,17.24-53.35-4.04-11.83-5.81-19.33-14.53-27.81-3.33-3.24-10.12-10.57-18.48-12.08h0Z"/>
  <path id="Path_7408" class="st24" d="M463.74,690.67c-1.23-.28-2.41-.64-3.53-1.08-13.32-5.17-23.47-21.94-26.61-35.84-2.81-12.45-1.6-25.35,3.34-35.39,6.22-12.64,17.02-20.96,31.24-24.07,7.58-1.65,18.98-4.16,30.58-.98,7.26,1.37,13.31,7.29,16.55,10.5l.82.81c7.26,7.06,9.4,13.48,12.37,22.37.37,1.11.75,2.26,1.16,3.45,9.09,26.6-2.44,43.27-16.27,50-14.45,7.03-35.39,13.5-49.65,10.21v.02ZM496.72,594.82c-10.58-2.44-21.07-.15-28.12,1.39-13.62,2.97-23.96,10.93-29.91,23.02-4.74,9.64-5.9,22.07-3.19,34.1,3.03,13.39,12.73,29.52,25.41,34.44,13.55,5.25,36.28-1.6,51.62-9.07,19.94-9.71,20.97-30.96,15.28-47.62-.41-1.2-.79-2.35-1.17-3.47-2.99-8.95-4.96-14.86-11.88-21.59l-.83-.82c-3.09-3.06-8.84-8.73-15.57-9.97h-.04l-.04-.02c-.52-.15-1.04-.28-1.57-.4h0Z"/>
  <path id="Path_7409" class="st0" d="M477.7,629.98c-3.77-6.02-11.21-10.29-18.41-7.82-6.16,2.11-9.23,7.14-9.88,12.51-1.3,10.65,8.32,20.43,16.31,25.84,7.89,5.33,16.84,8.23,25.3,12.38,5.78-6.7,16.44-23.36,18.58-28.26,3.94-9.02,1.7-16.7.08-20.76-1.16-2.91-5.04-11.2-12.78-10.96-17.97.56-19.87,15.5-19.2,17.08h0Z"/>
  <path id="Path_7410" class="st0" d="M439.66,645.45c-.28-.06-.55-.13-.81-.19l.48-1.89c2.22.56,5.42,1.17,8.11.97l.15,1.95c-2.63.2-5.63-.3-7.93-.83h0Z"/>
  <path id="Path_7411" class="st0" d="M443.62,656.42l-.7-1.82c2.52-.97,5.17-2.02,7.41-3.25l.93,1.71c-2.35,1.28-5.07,2.36-7.65,3.35h.01Z"/>
  <path id="Path_7412" class="st0" d="M448.27,667.53l-1.33-1.43c1.87-1.74,4.01-3.21,6.07-4.63,1.19-.82,2.37-1.64,3.5-2.5l1.19,1.55c-1.15.88-2.36,1.71-3.58,2.55-2.01,1.38-4.08,2.81-5.85,4.45h0Z"/>
  <path id="Path_7413" class="st0" d="M457.81,673.57l-1.83-.68c.5-1.35,1.38-2.52,2.23-3.64.72-.95,1.4-1.85,1.83-2.82.1-.22.18-.43.27-.64.24-.6.49-1.21.93-1.87l1.63,1.06c-.33.51-.53.99-.76,1.55-.1.23-.19.46-.29.7-.52,1.17-1.3,2.2-2.05,3.2-.8,1.06-1.55,2.06-1.95,3.15h0Z"/>
  <g id="Group_5715">
    <g id="Group_5714">
      <path id="Path_7414" class="st27" d="M457.95,598.4c1.71.33,3.32,1.36,4.83,2.17-4.37,5.62-9.17,10.32-12.03,16.99-.99,2.31-1.43,4.36-1.7,6.84-.21,1.96-.77,4.8-.09,6.68-2.1.64-4.63.24-6.84.8-.56-4.64,1.14-9.65,2.07-14.13.81-3.9,2.02-6.71,4.13-9.99,1.5-2.34,5.88-7.43,9.63-9.37h0Z"/>
    </g>
  </g>
  <g id="Group_5718">
    <g id="Group_5717">
      <path id="Path_7415" class="st27" d="M456.55,603.16c1.43.31,3.27,1.6,4.42,2.39.94-1.51,3.85-2.35,5.38-3.08-1.08-1.26-3.09-2.38-4.74-2.19-1.64.19-4.53,1.46-5.06,2.88h0Z"/>
    </g>
  </g>
  <g id="Group_5721">
    <g id="Group_5720">
      <path id="Path_7416" class="st27" d="M521.87,659.84c-.34,2.87-3.3,6.09-5.34,7.89-3.68,3.24-8.94,6.15-13.53,7.8-2.58.93-4.95,1.63-7.62,2.24.13.71.25,3.04.73,3.55.64.69,1.09.37,2.2.15,4.17-.84,7.9-2.67,11.77-4.4,4.27-1.92,8.89-4.65,11.83-8.38,1.44-1.82,3.11-4.14,3.89-6.34.97-2.71-1.18-2.13-3.92-2.51h-.01Z"/>
    </g>
  </g>
  <path id="Path_7417" class="st0" d="M542.9,693.84c-7.4-8.81-17.99-13.17-24.99-16.03-12.73-5.2-25.85-4.74-37.93,2.03-10.02,5.61-17.8,15.76-22.04,26.35-4.9,12.23-6.39,31.45,1.48,43.01,8.75,12.84,33.09,19.68,47.57,21.86,20.43,3.08,34.59-11.42,40.03-30.77,3.04-10.84,5.56-17.31,3.42-28.05-.82-4.11-2.11-13.01-7.54-18.39h0Z"/>
  <path id="Path_7418" class="st25" d="M541.18,692.31c-7.24-8.62-17.6-12.89-24.46-15.69-12.46-5.09-25.3-4.64-37.12,1.99-9.8,5.49-17.42,15.42-21.57,25.79-4.79,11.97-6.26,30.78,1.45,42.09,8.56,12.57,32.38,19.26,46.56,21.4,20,3.02,33.86-11.17,39.17-30.12,2.98-10.61,5.44-16.94,3.35-27.45-.8-4.02-2.06-12.73-7.38-18h0Z"/>
  <path id="Path_7419" class="st1" d="M464.76,746.49c-.75-.82-1.43-1.67-2.03-2.55-7.09-10.41-6.08-27.65-1.41-39.31,4.18-10.45,11.51-19.2,20.11-24.02,10.83-6.07,22.83-6.72,34.71-1.86,6.33,2.58,15.86,6.47,22.69,14.57,4.59,4.62,6.02,11.95,6.77,15.89l.19,1c1.74,8.76.09,14.49-2.2,22.43-.29.99-.58,2.01-.88,3.09-6.69,23.86-23.4,30.19-36.8,28.17-14.01-2.11-32.44-7.88-41.15-17.39h0v-.02ZM536.6,693.38c-6.46-7.06-15.22-10.64-21.11-13.04-11.37-4.65-22.86-4.04-33.22,1.77-8.26,4.63-15.31,13.07-19.35,23.17-4.49,11.23-5.51,27.79,1.24,37.7,7.22,10.59,27.14,16.96,42.01,19.21,19.33,2.92,30.7-12,34.89-26.94.3-1.08.6-2.11.89-3.1,2.3-7.99,3.82-13.27,2.16-21.61l-.2-1.01c-.72-3.77-2.06-10.76-6.32-15.02l-.03-.03-.03-.03c-.3-.36-.62-.72-.94-1.07h.01Z"/>
  <path id="Path_7420" class="st0" d="M505.22,709.4c.27-6.26-3-13.07-9.46-14.88-5.53-1.54-10.26.57-13.42,4.14-6.27,7.08-4.17,18.99-1.07,26.91,3.06,7.82,8.11,14.39,12.18,21.63,7.54-1.97,23.61-8.75,27.61-11.23,7.37-4.58,9.57-11.28,10.43-15.03.62-2.69,1.94-10.65-3.8-14.35-13.33-8.57-22.17,1.32-22.47,2.81Z"/>
  <path id="Path_7421" class="st0" d="M469.87,701.62c-.17-.19-.33-.37-.49-.54l1.29-1.14c1.33,1.51,3.35,3.56,5.4,4.76l-.86,1.49c-2.01-1.17-3.94-3.03-5.34-4.56h0Z"/>
  <path id="Path_7422" class="st0" d="M467.27,711.57l.4-1.67c2.32.55,4.77,1.12,7.01,1.35l-.18,1.71c-2.34-.25-4.86-.82-7.23-1.39Z"/>
  <path id="Path_7425" class="st0" d="M476.67,697.82c-.64-.7-1.28-1.69-1.47-2.51l1.68-.39c.14.6.91,1.72,1.48,2.13l-1.02,1.38c-.21-.16-.44-.37-.66-.62h-.01Z"/>
  <g id="Group_5724">
    <g id="Group_5723">
      <path id="Path_7431" class="st27" d="M501.11,679.69c1.08,1.09,1.73,2.65,2.42,3.99-5.98,1.89-11.82,2.91-17.23,6.33-1.87,1.18-3.21,2.45-4.65,4.12-1.13,1.31-2.96,3.1-3.4,4.8-1.84-.59-3.48-2.14-5.37-2.83,1.91-3.65,5.65-6.43,8.56-9.22,2.53-2.42,4.82-3.86,7.99-5.19,2.26-.95,7.98-2.46,11.67-1.99h0Z"/>
    </g>
  </g>
  <g id="Group_5727">
    <g id="Group_5726">
      <path id="Path_7432" class="st27" d="M503.27,679.36c.88.94,1.58,2.8,2.02,3.94,1.44-.63,3.97.22,5.44.46-.16-1.45-1.05-3.27-2.35-3.96-1.29-.68-4.02-1.2-5.11-.44Z"/>
    </g>
  </g>
  <g id="Group_5730">
    <g id="Group_5729">
      <path id="Path_7433" class="st27" d="M522.37,753.15c-1.69,1.92-5.44,2.77-7.83,3.06-4.28.51-9.57,0-13.71-1.1-2.34-.62-4.41-1.29-6.65-2.18-.27.58-1.34,2.33-1.25,2.94.12.82.6.81,1.52,1.21,3.45,1.48,7.06,2.01,10.74,2.68,4.06.74,8.78,1.06,12.77-.17,1.96-.6,4.32-1.45,5.99-2.66,2.06-1.48.21-2.14-1.59-3.78h.01Z"/>
    </g>
  </g>
  <path id="Path_7434" class="st6" d="M522.31,522.36c-6.21-11.48-16.98-18.74-24.11-23.53-12.96-8.69-27.65-11.17-42.62-6.41-12.42,3.95-23.38,13.45-30.51,24.26-8.23,12.48-14.29,33.49-8.17,48.13,6.79,16.27,32.28,29.43,47.88,35.16,22.01,8.09,41.05-4.79,51.51-25.06,5.86-11.35,10.13-17.97,10.21-30.39.03-4.75.63-14.94-4.18-22.17h-.01Z"/>
  <path id="Path_7435" class="st17" d="M520.74,520.27c-6.08-11.24-16.62-18.34-23.6-23.02-12.69-8.5-27.06-10.93-41.71-6.27-12.15,3.87-22.88,13.16-29.86,23.74-8.06,12.21-13.98,32.77-8,47.11,6.64,15.93,31.59,28.8,46.86,34.41,21.54,7.92,40.18-4.68,50.41-24.53,5.73-11.11,9.91-17.59,9.99-29.74.03-4.65.61-14.62-4.09-21.69h0Z"/>
  <path id="Path_7437" class="st10" d="M476.88,531.05c1.73-6.9-.35-15.21-7.11-18.69-5.8-2.98-11.54-1.71-15.87,1.54-8.58,6.44-8.97,20.15-7.33,29.66,1.62,9.38,5.72,17.85,8.6,26.82,8.83-.47,28.24-4.33,33.25-6.18,9.24-3.41,13.22-10.35,15.03-14.32,1.3-2.85,4.59-11.4-.95-16.81-12.85-12.57-24.94-3.59-25.62-2.02h0Z"/>
  <g id="Group_5733">
    <g id="Group_5732">
      <path id="Path_7438" class="st27" d="M478.4,491.39c.95,1.46,1.32,3.34,1.78,4.99-7.07.74-13.8.53-20.59,3.09-2.35.89-4.13,1.99-6.11,3.52-1.56,1.2-3.99,2.77-4.88,4.56-1.91-1.07-3.38-3.17-5.32-4.38,2.95-3.62,7.74-5.86,11.62-8.3,3.37-2.11,6.24-3.19,10.07-3.95,2.73-.53,9.43-.91,13.43.45v.02Z"/>
    </g>
  </g>
  <g id="Group_5736">
    <g id="Group_5735">
      <path id="Path_7439" class="st27" d="M481.57,497.22c.77,1.25,1.11,3.47,1.34,4.84,1.74-.37,4.36,1.15,5.95,1.75.16-1.65-.42-3.87-1.71-4.94-1.28-1.05-4.19-2.25-5.58-1.66h0Z"/>
    </g>
  </g>
  <g id="Group_5739">
    <g id="Group_5738">
      <path id="Path_7440" class="st27" d="M485.94,583.6c-2.31,1.74-6.68,1.84-9.39,1.61-4.88-.41-10.63-2.18-14.99-4.35-2.46-1.22-4.6-2.44-6.89-3.95-.43.59-2.02,2.29-2.06,2.99-.06.94.49,1.04,1.42,1.69,3.49,2.43,7.39,3.85,11.33,5.43,4.35,1.75,9.52,3.19,14.24,2.73,2.31-.23,5.14-.63,7.27-1.59,2.62-1.18.72-2.33-.9-4.57h-.03Z"/>
    </g>
  </g>
  <path id="Path_7441" class="st6" d="M421.03,378.53c-10.32-5.16-21.79-4.96-29.37-4.8-13.78.28-25.67,5.93-34.08,16.96-6.98,9.15-10.1,21.58-9.79,33.01.36,13.2,6.64,31.47,18.48,38.97,13.16,8.33,38.27,4.93,52.47,1.18,20.03-5.3,27.28-24.27,24.57-44.24-1.51-11.18-1.78-18.14-8.01-27.16-2.39-3.45-7.12-11.13-14.26-13.92h-.01Z"/>
  <path id="Path_7442" class="st13" d="M418.84,377.81c-10.1-5.05-21.32-4.85-28.74-4.7-13.49.28-25.12,5.8-33.36,16.6-6.83,8.96-9.89,21.12-9.58,32.31.36,12.92,6.49,30.8,18.08,38.14,12.88,8.16,37.46,4.83,51.35,1.15,19.6-5.18,26.7-23.75,24.05-43.3-1.49-10.94-1.74-17.75-7.85-26.58-2.34-3.38-6.97-10.89-13.95-13.62h0Z"/>
  <path id="Path_7444" class="st10" d="M392.56,407.84c-2.24-5.87-7.96-10.83-14.62-9.92-5.71.78-9.22,4.61-10.7,9.15-2.95,9.01,3.72,19.13,9.73,25.18,5.93,5.97,13.19,10.01,19.82,15.05,6.15-4.82,18.24-17.44,20.93-21.32,4.96-7.15,4.32-14.18,3.61-17.98-.51-2.72-2.45-10.57-9.21-11.68-15.67-2.58-19.87,10.04-19.56,11.52h0Z"/>
  <g id="Group_5742">
    <g id="Group_5741">
      <path id="Path_7445" class="st27" d="M377.97,376.94c1.43.58,2.64,1.75,3.82,2.71-4.74,4.12-9.71,7.38-13.33,12.68-1.25,1.83-1.98,3.53-2.64,5.64-.52,1.66-1.49,4.03-1.22,5.77-1.93.19-4.06-.58-6.06-.47.3-4.11,2.63-8.17,4.2-11.89,1.37-3.24,2.89-5.47,5.28-7.96,1.7-1.77,6.37-5.44,9.95-6.48h0Z"/>
    </g>
  </g>
  <g id="Group_5745">
    <g id="Group_5744">
      <path id="Path_7446" class="st27" d="M378.81,380.98c1.19.52,2.57,1.95,3.43,2.83,1.07-1.15,3.74-1.38,5.19-1.75-.72-1.27-2.27-2.59-3.74-2.71-1.46-.12-4.18.49-4.88,1.63Z"/>
    </g>
  </g>
  <g id="Group_5748">
    <g id="Group_5747">
      <path id="Path_7447" class="st27" d="M425.75,441.27c-.79,2.43-3.9,4.72-5.98,5.93-3.74,2.18-8.8,3.81-13.05,4.45-2.4.36-4.57.56-6.99.64-.01.64-.3,2.68.02,3.21.44.71.88.51,1.88.5,3.76-.01,7.3-.96,10.95-1.81,4.03-.94,8.5-2.52,11.68-5.24,1.56-1.34,3.4-3.06,4.46-4.83,1.3-2.18-.66-2.05-2.97-2.85h0Z"/>
    </g>
  </g>
  <path id="Path_7448" class="st12" d="M464.85,643.12c-10.01-2.76-20.11-.59-26.78.87-12.13,2.65-21.64,9.7-27.15,20.91-4.57,9.3-5.17,20.82-2.9,30.86,2.62,11.6,11.33,26.64,23.1,31.21,13.07,5.07,34.66-2.3,46.54-8.09,16.77-8.16,19.87-26.18,14.01-43.35-3.28-9.61-4.72-15.71-11.8-22.6-2.71-2.63-8.22-8.59-15.01-9.81h-.01Z"/>
  <path id="Path_7449" class="st8" d="M462.78,642.86c-9.79-2.7-19.67-.58-26.2.85-11.87,2.59-21.18,9.49-26.57,20.46-4.48,9.1-5.06,20.37-2.84,30.2,2.56,11.35,11.09,26.07,22.61,30.54,12.79,4.96,33.92-2.25,45.55-7.91,16.41-7.99,19.45-25.62,13.71-42.42-3.21-9.41-4.62-15.37-11.55-22.11-2.65-2.58-8.05-8.41-14.69-9.6h-.02Z"/>
  <path id="Path_7451" class="st10" d="M444.8,673.96c-3-4.79-8.92-8.18-14.64-6.22-4.9,1.68-7.34,5.68-7.86,9.95-1.03,8.47,6.61,16.25,12.97,20.55,6.28,4.24,13.39,6.55,20.12,9.85,4.6-5.33,13.07-18.58,14.77-22.48,3.14-7.17,1.35-13.28.07-16.51-.92-2.31-4.01-8.91-10.16-8.72-14.29.45-15.8,12.32-15.27,13.58h0Z"/>
  <g id="Group_5751">
    <g id="Group_5750">
      <path id="Path_7462" class="st27" d="M426.55,653.98c1.36.26,2.64,1.08,3.84,1.73-3.47,4.46-7.3,8.21-9.57,13.51-.79,1.84-1.13,3.46-1.35,5.44-.17,1.55-.61,3.82-.08,5.31-1.67.51-3.68.19-5.44.64-.45-3.69.9-7.67,1.65-11.23.64-3.1,1.6-5.34,3.28-7.95,1.2-1.86,4.68-5.91,7.66-7.45h.01Z"/>
    </g>
  </g>
  <g id="Group_5754">
    <g id="Group_5753">
      <path id="Path_7463" class="st27" d="M427.99,652.63c1.14.25,2.6,1.27,3.52,1.9.75-1.2,3.06-1.87,4.28-2.44-.86-1-2.45-1.89-3.77-1.74-1.31.15-3.6,1.16-4.03,2.29h0Z"/>
    </g>
  </g>
  <g id="Group_5757">
    <g id="Group_5756">
      <path id="Path_7464" class="st27" d="M479.93,697.71c-.27,2.29-2.63,4.84-4.25,6.28-2.92,2.57-7.11,4.89-10.76,6.2-2.05.73-3.94,1.29-6.06,1.78.1.57.2,2.42.58,2.83.51.55.86.29,1.75.12,3.32-.67,6.28-2.12,9.36-3.5,3.4-1.53,7.07-3.7,9.41-6.66,1.14-1.45,2.47-3.29,3.1-5.04.77-2.15-.94-1.7-3.12-2h0Z"/>
    </g>
  </g>
  <path id="Path_7465" class="st15" d="M289.64,397.91c5.44,1.26,10.92,2.42,16.31,3.84-1.34,10.61-6.05,21.45-9.02,31.82-6.44,22.52-12.11,45.25-18.56,67.73-3.96-.68-8.22-1.62-12.01-2.85-1.36-16.48,7.57-37.02,10.36-53.29,2.59-15.15,6.97-30.17,12.92-47.24h0Z"/>
  <path class="st26" d="M264.5,506.84c3.34.77,6.75,1.49,10.02,2.41-.13,4.05-1.11,7.95-1.96,12.02-4.22-.7-8.52-1.77-12.65-2.89.67-3.57,1.58-7.15,2.41-10.72"/>
  <path class="st23" d="M264.5,506.84c3.34.77,6.75,1.49,10.02,2.41-.13,4.05-1.11,7.95-1.96,12.02-4.22-.7-8.52-1.77-12.65-2.89.67-3.57,1.58-7.15,2.41-10.72"/>
  <path id="Path_7467" class="st22" d="M403.02,259.32c41.37,9.52,83.89,14.06,124.78,25.56.05,1.16-.43,3.13-1.04,4.11-23.02-2.37-45.33-8.76-68.24-12.89-18.99-3.42-39.5-5.5-58.12-10.76.23-1.51.35-3.64,2.62-6.02h0Z"/>
  <path id="Path_7468" class="st10" d="M495.94,198.95c-11.36-5.68-24-5.46-32.36-5.29-15.18.31-28.27,6.53-37.54,18.68-7.69,10.08-11.13,23.77-10.78,36.36.4,14.54,7.31,34.67,20.36,42.93,14.49,9.18,42.15,5.43,57.79,1.29,22.06-5.83,30.05-26.73,27.06-48.73-1.67-12.32-1.96-19.98-8.83-29.92-2.63-3.8-7.84-12.26-15.71-15.33h0Z"/>
  <path id="Path_7469" class="st18" d="M493.53,198.15c-11.12-5.56-23.49-5.34-31.66-5.17-14.86.3-27.67,6.39-36.74,18.28-7.52,9.86-10.89,23.26-10.55,35.59.4,14.23,7.15,33.93,19.92,42.01,14.19,8.98,41.25,5.32,56.56,1.27,21.59-5.71,29.41-26.16,26.49-47.69-1.64-12.05-1.92-19.55-8.64-29.28-2.57-3.72-7.67-11.99-15.37-15h-.01Z"/>
  <path id="Path_7471" class="st10" d="M464.58,231.23c-2.47-6.46-8.77-11.93-16.11-10.93-6.28.86-10.15,5.08-11.79,10.08-3.24,9.92,4.1,21.07,10.72,27.73,6.53,6.58,14.53,11.03,21.82,16.58,6.78-5.31,20.09-19.22,23.05-23.49,5.46-7.88,4.76-15.62,3.98-19.8-.56-3-2.7-11.65-10.14-12.87-17.26-2.84-21.88,11.06-21.54,12.7h.01Z"/>
  <g id="Group_5762">
    <g id="Group_5761">
      <path id="Path_7472" class="st27" d="M447.4,198.63c1.57.64,2.91,1.92,4.2,2.98-5.22,4.54-10.7,8.13-14.68,13.96-1.38,2.02-2.18,3.89-2.9,6.21-.57,1.83-1.64,4.44-1.35,6.36-2.12.21-4.47-.64-6.68-.52.33-4.53,2.9-9,4.63-13.1,1.51-3.57,3.19-6.02,5.82-8.76,1.88-1.95,7.01-5.99,10.95-7.14h0Z"/>
    </g>
  </g>
  <g id="Group_5765">
    <g id="Group_5764">
      <path id="Path_7473" class="st27" d="M449.44,201.65c1.31.57,2.83,2.14,3.77,3.11,1.18-1.27,4.12-1.52,5.72-1.92-.8-1.4-2.5-2.85-4.12-2.98-1.6-.13-4.6.54-5.37,1.79Z"/>
    </g>
  </g>
  <g id="Group_5768">
    <g id="Group_5767">
      <path id="Path_7474" class="st27" d="M501.14,268.05c-.87,2.68-4.3,5.2-6.59,6.53-4.12,2.4-9.7,4.19-14.38,4.9-2.64.4-5.03.62-7.7.71-.01.71-.33,2.95.03,3.53.48.78.97.56,2.07.55,4.15-.01,8.04-1.06,12.06-1.99,4.44-1.03,9.36-2.77,12.87-5.77,1.72-1.47,3.75-3.37,4.91-5.32,1.43-2.4-.72-2.26-3.27-3.13h0Z"/>
    </g>
  </g>
  <path id="Path_7476" class="st23" d="M162.03,403.85c-18.72,79.23-9.93,164.06,11.27,242.04,6.97,25.65,18.36,42.22,34.33,61.1"/>
  <path id="Path_7477" class="st23" d="M154.29,491.68c4.3-11.04,12.96-29.9,24.79-35.05,8.92-3.89,14.03,1.29,12.65,9.68-2.53,15.34-27.46,27.47-41.09,29.06-1.89-6.05-18.46-51.09-31.89-36.11-10.96,12.23,25.52,30.93,35.54,32.42h0Z"/>
  <path id="Path_7478" class="st23" d="M155.89,450.82c2.63-6.76,7.94-18.32,15.19-21.48,5.47-2.38,8.6.79,7.75,5.93-1.55,9.4-16.83,16.83-25.18,17.81-1.15-3.71-11.31-31.31-19.54-22.13-6.72,7.49,15.64,18.95,21.78,19.87h0Z"/>
  <path id="Path_7479" class="st23" d="M162.2,572.4c2.87-12.27,9.16-33.44,20.84-40.65,8.82-5.44,14.98-.75,14.78,8.3-.36,16.54-24.8,33.06-38.92,36.78-2.9-6.09-27.12-51.04-39.01-33.25-9.71,14.53,31.53,28.75,42.31,28.82h0Z"/>
  <path id="Path_7480" class="st23" d="M167.98,611.94c2.14-9.15,6.83-24.94,15.54-30.31,6.57-4.05,11.17-.56,11.02,6.19-.27,12.34-18.49,24.65-29.02,27.43-2.16-4.54-20.22-38.06-29.09-24.79-7.24,10.84,23.51,21.44,31.55,21.49h0Z"/>
  <path id="Path_7481" class="st23" d="M178.31,652.07c2.14-9.15,6.83-24.94,15.54-30.31,6.57-4.05,11.17-.56,11.02,6.19-.27,12.34-18.49,24.65-29.02,27.43-2.16-4.54-20.22-38.06-29.09-24.79-7.24,10.84,23.51,21.44,31.55,21.49h0Z"/>
  <path id="Path_7482" class="st23" d="M153.24,527.44c3.2-4.85,33.26-53.4,41.61-27.08,5.53,17.42-34.55,29.5-46.48,27.68-2.25-12.07-42.44-32.34-39.31-11.75,1.85,12.13,31.74,16.38,44.17,11.15h0Z"/>
  <path id="Path_7483" class="st23" d="M56.56,544.47c15.05,60.46,50.77,115.07,92.54,160.69,13.73,15,27.29,22.28,44.77,29.52"/>
  <path id="Path_7484" class="st23" d="M82.09,606.93c-.95-9.02-1.67-24.88,4.57-32.53,4.71-5.77,10-4.05,12,2.15,3.66,11.32-9.05,28.31-17.76,34.18-3.4-3.46-30.47-28.28-34.35-13.38-3.17,12.17,28.21,12.09,35.55,9.59h-.01Z"/>
  <path id="Path_7485" class="st23" d="M68.85,578.57c-.58-5.52-1.02-15.25,2.8-19.94,2.88-3.54,6.13-2.48,7.35,1.32,2.24,6.94-5.54,17.35-10.88,20.94-2.09-2.12-18.67-17.33-21.05-8.2-1.94,7.45,17.29,7.41,21.78,5.88Z"/>
  <path id="Path_7486" class="st23" d="M115.78,659.06c-2.35-9.35-5.5-25.96-.07-34.96,4.09-6.79,9.92-5.76,12.96.46,5.56,11.38-5.28,31.18-13.58,38.66-4.11-3.13-36.34-25.21-38.19-8.94-1.51,13.29,31.53,8.5,38.88,4.76v.02Z"/>
  <path id="Path_7487" class="st23" d="M133.57,683.93c-1.76-6.97-4.1-19.36-.06-26.07,3.05-5.06,7.4-4.3,9.67.35,4.15,8.48-3.93,23.25-10.12,28.83-3.06-2.33-27.1-18.8-28.48-6.66-1.13,9.91,23.51,6.34,28.99,3.55h0Z"/>
  <path id="Path_7488" class="st23" d="M154.67,707.61c-1.76-6.97-4.1-19.36-.06-26.07,3.05-5.06,7.4-4.3,9.67.35,4.14,8.48-3.93,23.25-10.12,28.83-3.06-2.33-27.1-18.8-28.48-6.66-1.13,9.91,23.51,6.34,28.99,3.55h0Z"/>
  <path id="Path_7489" class="st23" d="M93.92,631.62c.47-4.42,3.9-47.99,18.81-33.01,9.87,9.91-13.16,32.18-21.91,35.12-5.76-7.42-40.21-7.12-30.85,5.79,5.51,7.6,27.33.01,33.95-7.91h0Z"/>
  <path id="Path_7490" class="st5" d="M797.6,298.09c1.11-3.91,4.53-7.44,8.88-7.23,3.73.18,6.21,2.46,7.43,5.3,2.41,5.65-1.32,12.56-4.85,16.8-3.49,4.19-7.95,7.21-11.94,10.84-4.24-2.76-12.76-10.23-14.72-12.58-3.6-4.33-3.59-8.91-3.35-11.4.17-1.78.98-6.96,5.28-8.06,9.97-2.55,13.39,5.35,13.28,6.33h-.01Z"/>
  <path id="Path_7491" class="st23" d="M797.6,298.09c1.11-3.91,4.53-7.44,8.88-7.23,3.73.18,6.21,2.46,7.43,5.3,2.41,5.65-1.32,12.56-4.85,16.8-3.49,4.19-7.95,7.21-11.94,10.84-4.24-2.76-12.76-10.23-14.72-12.58-3.6-4.33-3.59-8.91-3.35-11.4.17-1.78.98-6.96,5.28-8.06,9.97-2.55,13.39,5.35,13.28,6.33h-.01Z"/>
  <path id="Path_7492" class="st5" d="M649.63,398.2c4.55-4.5,11.96-6.7,17.75-3.04,4.97,3.13,6.61,8.17,6.07,13.01-1.07,9.6-11.52,16.19-19.65,19.27-8.02,3.04-16.46,3.73-24.74,5.61-3.68-7.07-9.57-23.88-10.43-28.62-1.59-8.73,1.97-14.99,4.23-18.21,1.62-2.31,6.74-8.78,13.47-6.96,15.63,4.21,14.21,17.7,13.29,18.95h.01Z"/>
  <path id="Path_7493" class="st23" d="M649.63,398.2c4.55-4.5,11.96-6.7,17.75-3.04,4.97,3.13,6.61,8.17,6.07,13.01-1.07,9.6-11.52,16.19-19.65,19.27-8.02,3.04-16.46,3.73-24.74,5.61-3.68-7.07-9.57-23.88-10.43-28.62-1.59-8.73,1.97-14.99,4.23-18.21,1.62-2.31,6.74-8.78,13.47-6.96,15.63,4.21,14.21,17.7,13.29,18.95h.01Z"/>
  <path id="Path_7494" class="st19" d="M48.53,484.19c-4.01-10.48-14.23-19.36-26.13-17.73-10.19,1.4-16.47,8.24-19.12,16.36-5.26,16.1,6.65,34.19,17.39,45,10.6,10.67,23.57,17.9,35.41,26.9,11-8.61,32.6-31.18,37.41-38.11,8.86-12.77,7.72-25.35,6.46-32.13-.9-4.86-4.38-18.9-16.45-20.89-28.01-4.61-35.5,17.95-34.96,20.6h0Z"/>
  <path id="Path_7495" class="st23" d="M48.53,484.19c-4.01-10.48-14.23-19.36-26.13-17.73-10.19,1.4-16.47,8.24-19.12,16.36-5.26,16.1,6.65,34.19,17.39,45,10.6,10.67,23.57,17.9,35.41,26.9,11-8.61,32.6-31.18,37.41-38.11,8.86-12.77,7.72-25.35,6.46-32.13-.9-4.86-4.38-18.9-16.45-20.89-28.01-4.61-35.5,17.95-34.96,20.6h0Z"/>
  <path id="Path_7496" class="st5" d="M94.09,375.04c.88-3.57-.22-7.87-3.73-9.66-3.01-1.53-5.98-.86-8.21.83-4.43,3.36-4.6,10.45-3.73,15.37.86,4.85,3.01,9.22,4.51,13.86,4.57-.27,14.61-2.31,17.2-3.28,4.77-1.78,6.82-5.39,7.74-7.45.66-1.48,2.35-5.91-.53-8.7-6.68-6.48-12.92-1.8-13.26-.98h.01Z"/>
  <path id="Path_7497" class="st23" d="M94.09,375.04c.88-3.57-.22-7.87-3.73-9.66-3.01-1.53-5.98-.86-8.21.83-4.43,3.36-4.6,10.45-3.73,15.37.86,4.85,3.01,9.22,4.51,13.86,4.57-.27,14.61-2.31,17.2-3.28,4.77-1.78,6.82-5.39,7.74-7.45.66-1.48,2.35-5.91-.53-8.7-6.68-6.48-12.92-1.8-13.26-.98h.01Z"/>
  <path id="Path_7498" class="st19" d="M224.97,254.52c-4.57-8.14-14.06-14.21-23.66-11.42-8.22,2.38-12.56,8.78-13.76,15.79-2.38,13.89,9.62,27.34,19.77,34.93,10.02,7.49,21.57,11.87,32.41,17.85,8.01-8.43,23.05-29.62,26.17-35.91,5.74-11.59,3.28-21.8,1.42-27.23-1.33-3.89-5.9-15.02-16.08-15.19-23.62-.4-27.05,19.08-26.28,21.19h0Z"/>
  <path id="Path_7499" class="st23" d="M224.97,254.52c-4.57-8.14-14.06-14.21-23.66-11.42-8.22,2.38-12.56,8.78-13.76,15.79-2.38,13.89,9.62,27.34,19.77,34.93,10.02,7.49,21.57,11.87,32.41,17.85,8.01-8.43,23.05-29.62,26.17-35.91,5.74-11.59,3.28-21.8,1.42-27.23-1.33-3.89-5.9-15.02-16.08-15.19-23.62-.4-27.05,19.08-26.28,21.19h0Z"/>
  <path id="Path_7500" class="st23" d="M178.15,364.82c1.03-7.58-2.18-16.22-9.83-19.13-6.55-2.5-12.54-.45-16.77,3.54-8.4,7.91-7.19,22.61-4.3,32.58,2.85,9.84,8.24,18.39,12.38,27.65,9.39-1.56,29.67-7.99,34.81-10.57,9.47-4.74,12.89-12.63,14.36-17.1,1.05-3.2,3.55-12.73-3.02-17.86-15.24-11.9-27.08-.87-27.62.9h0Z"/>
  <path id="Path_7501" class="st5" d="M178.15,364.82c1.03-7.58-2.18-16.22-9.83-19.13-6.55-2.5-12.54-.45-16.77,3.54-8.4,7.91-7.19,22.61-4.3,32.58,2.85,9.84,8.24,18.39,12.38,27.65,9.39-1.56,29.67-7.99,34.81-10.57,9.47-4.74,12.89-12.63,14.36-17.1,1.05-3.2,3.55-12.73-3.02-17.86-15.24-11.9-27.08-.87-27.62.9h0Z"/>
</svg>