<?xml version="1.0" encoding="UTF-8"?>
<svg id="Layer_1" xmlns="http://www.w3.org/2000/svg" version="1.1" viewBox="0 0 832.24 420.44">
  <!-- Generator: Adobe Illustrator 30.6.0, SVG Export Plug-In . SVG Version: 2.1.4 Build 109)  -->
  <defs>
    <style>
      .st0 {
        fill: #231f20;
      }
    </style>
  </defs>
  <path id="Path_7042" class="st0" d="M115.65,132.41c33.75-35.08,88.54-40.68,128.03-14.96.47-.75.94-1.5,1.42-2.26-27.85-18.79-62.25-21.05-96.04-15.25-2.23.38-2.72-2.8-.89-3.71,31.73-15.8,71.71-7.33,100.76,13.05,5.46-8.16,11.5-15.91,18.7-22.04.06-.11.12-.23.19-.34,2.42-4.54,4.78-9.12,7.31-13.6.86-1.5,2.25-2.11,3.6-2.09.07-.76.15-1.52.2-2.29.29-4.49,1.57-14.68-.4-19.34-1.73-4.08-7.98-6.33-10.87-9.67-1.08-1.23-2-2.57-2.78-4-.28-.22-.56-.43-.84-.66-2.08-1.72-5.91-3.98-6.91-6.65-1.72-4.57-.06-12.87,1.76-17.16,5.47-12.86,22.04-10.46,32.88-7.65-.13-1.05-.03-2.19.39-3.46,10.79-.98,22.23.51,33.15,1.05,5.03.25,11.72,2.32,11.23,7.45-.47,4.96-7.15,5.97-11.98,5.28-1.58-.22-3.2-.47-4.85-.73-10.09.23-21.72-1.11-26.17-5.85-.41.5-1.03.84-1.9.79-9.5-.63-24.5-2.58-26.73,9.78-.38,2.12-.5,3.61-.34,4.84,4.8-5.11,17.36-4.2,25.69-2.98v-.09c.19.03.4.06.59.09.05-.03.1-.07.16-.1,1.99-.93,4.28-.52,6.42-.1.74.15,3.07.48,6.28.97l-8.18-2.77c13.6,1.43,39.81-.13,48.06,13.35-1.15,1.5-2.4,2.55-3.75,3.31-.24.31-.53.63-.9.96-1.84,1.58-4.56,1.2-6.91.71-.47-.1-.94-.21-1.41-.31-.18-.02-.35-.03-.53-.05-13.73-1.67-27.23-5.16-40.06-10.33-1.75.29-3.52.51-5.36.7-2.03.21-8.58-.48-10.32.86-2.61,2.02-2.82,3.84-1.79,5.52.34.39.67.81.98,1.22,3.1,3.16,9.9,5.8,11.59,8.24,3.54,5.12,2.74,13.55,2.75,19.45,0,6.5-.47,12.96-1.47,19.36,34,25.83,67.12,52.78,101.52,78.1,7.21,5.3,14.49,10.51,21.8,15.68,2.81-5.62,5.59-11.26,8.34-16.91,11.32-23.21,21.14-47.34,33.17-70.16-14.2-6.05-27.86-13.42-40.75-22-2.36-1.57-4.86-3.41-5.61-6.2-.56-2.05.54-4.57,2.26-5.47,23.3,5.83,47.04,9.89,70.95,12.09,2.42.22,4.94.45,7.06,1.66,5.72,3.27,5.72,12.26,1.87,17.74-2.74,3.91-6.98,6.7-11.6,7.64-6.45,1.3-13.02-.93-19.12-3.37-.2-.08-.39-.16-.59-.24-3.54,10.68-7.76,21.2-12.3,31.6.46.05.91.2,1.36.49,43.02,28.09,86.04,56.18,129.06,84.27,4.04-8.32,8.15-16.6,12.28-24.87,10.23-20.52,20.23-41.89,32.83-61.08-12.55-4.59-25.51-12.07-35.17-18.45-3.14-2.08-5.94-4.04-8.25-5.74-3.16-2.33-6.4-6.73-3.92-9.84,19.18,2.97,38.35,5.94,57.52,8.92,7.59,1.17,15.79,2.66,21.02,8.37,5.24,5.71,4.81,17.1-2.46,19.7-6.85,2.44-15.73,1.29-25.04-1.69-3.45,8.78-7.34,17.43-11.44,25.99,6.13,8.68,9.43,20.96,13.94,30.39.89,1.88,1.82,3.74,2.74,5.6,19.9-12.46,42.77-18.49,66.35-14.64,62.59,10.22,106.11,76.67,89.95,140.08-.26,1.05-1.71.84-1.63-.25,2.26-30.19-1.77-60.2-18.44-85.85-16.02-24.65-42.17-42.17-71.12-45.99-21.75-2.86-43.02,2.54-61.46,13.91.38.75.76,1.5,1.15,2.25,39.18-21.83,92.87-11.92,121.27,23.08,15.85,17.88,25.72,41.4,25.72,65.62,0,46.2-34.79,89.37-78.79,99.48-44.68,10.26-93.37-16.29-111.8-58.44-6.95-15.9-9.04-33.38-7.04-50.47-3.35-.46-6.7-.94-10.05-1.4.69,5.24.01,10.64-2.11,15.58-1.08,4.07-2.79,7.88-5.15,11.07-3.31,4.49-7.39,7.5-11.79,9.23.31,1.95.62,3.89.93,5.84.98,6.07,1.98,12.12,2.8,18.22.39,2.94.05,7.43,1.31,10.15,2.99,6.53,9.12,6.22,15.27,6.32,3.61.06,4.48,5.57.65,5.89-5.52.46-15.46,2.32-20.42-1.2-4.1-2.91-3.68-9.55-4.25-14.09-1.23-9.73-2.49-19.58-3.44-29.46-14.29,1.34-29.56-8.6-33.26-24.33-1.77-7.54-.61-14.89,2.5-21.15-1.4-.19-2.79-.38-4.18-.58-28.3-3.97-56.59-7.95-84.9-11.92-11.62-1.63-23.24-3.24-34.87-4.85.79,7.01-1.27,14.47-6.96,19.9-2.28,2.17-4.77,3.76-7.34,4.86.73,3.61,1.45,7.19,2.24,10.7,1.43,6.36,2.9,12.72,4.21,19.11,1.14,5.52,1.03,10.59,7.13,13.64,2.79,1.4,7.84,1.05,10.84,1.44,2.85.37,2.41,4.31-.11,4.87-5.73,1.27-15.46,2.91-20.57-1.13-4.03-3.2-4.08-11.46-4.94-15.95-1.92-10-4.29-20.42-6.19-30.89-3.56.27-7.1-.29-10.41-1.54-1.95-.56-3.79-1.34-5.43-2.32-.51-.31-.87-.78-1.11-1.31-6.3-4.81-10.52-12.6-9.95-21.97.17-2.84.76-5.43,1.64-7.78-.1-.03-.19-.06-.29-.09-1.63-.56-2.34-2.9-1.62-4.39,2.26-4.65,5.66-7.65,9.67-9.55-14.87-18.38-28.3-38.13-42.13-57.28-7.54-10.43-15.08-20.85-22.57-31.32-5.06-7.07-12.5-14.9-17.07-23.17-.33.03-.64.02-.95-.04-3.79-.81-6.26-3.26-7.15-6.49-2.32,3.09-4.54,6.25-6.69,9.48,4.64,3.76,8.93,7.82,12.75,12.15,28.92,32.74,37.2,83.57,18.62,123.82-.78,1.71-3.18.56-2.58-1.18,14.03-40.13,7.68-86.83-21.19-118.29-3.62-3.95-7.42-7.48-11.38-10.65-.45.71-.9,1.43-1.35,2.15.93.72,1.85,1.44,2.76,2.19.96.81.97,1.84.52,2.64,1.14,1.03,2.25,2.08,3.33,3.17,18.64,18.74,26.86,44.98,28.33,71.27,2.72,48.23-27.81,93.17-73.87,106.33-42.69,12.2-89.7-8.98-112.2-47.21-23.69-40.26-15.69-94.62,16.54-128.11h0ZM441.07,126.5c-5.2,11.62-10.73,23.1-16.09,34.5-2.88,6.13-5.82,12.23-8.79,18.31,24.25,17.05,48.77,33.76,72.52,51.47,13.68,1.95,27.31,4.13,40.91,6.56-.38-6.11-.01-12.31-.79-18.36-5.24-1.03-10.47-2.45-15.61-3.87-4.78-1.32-3.67-9.18,1.23-7.91,6.31,1.64,12.73,3.3,18.85,5.57,1.41.52,2.19,2.29,1.97,3.74-1.08,7.18.02,14.54-.24,21.79.79.14,1.58.28,2.36.42,6.46,1.2,12.92,2.47,19.36,3.77,4.61-10.43,9.45-20.77,14.4-31.05-43.37-28.32-86.73-56.64-130.1-84.95h0ZM375.14,262.14c5.93-3.55,8.05-11.18,6.59-18.1-4.06-.56-8.15-1.07-12.22-1.63,2.45,6.27,4.15,12.97,5.63,19.73h0ZM378.94,237.2c-3.07-4.84-8.13-8.53-13.95-8.15.19,2.09.36,4.19.5,6.29,4.46.72,8.96,1.32,13.45,1.86h0ZM361.58,229.73c-2.22.74-4.25,2.01-5.97,3.66,2.23.53,4.48,1,6.74,1.42-.27-1.69-.54-3.37-.77-5.07h0ZM382.03,228.82c.06-.45.2-.92.45-1.41.08-.15.16-.29.24-.43-.99-.09-2.01-.19-3.06-.29.83.64,1.62,1.36,2.37,2.13h0ZM412.59,186.56c-5.71,11.52-11.56,22.96-17.54,34.33,9.4.67,18.78,1.57,28.08,2.37,17.42,1.51,34.81,3.41,52.15,5.67-21.4-13.2-42.2-27.66-62.69-42.38h0ZM534.23,245.34c-.08.4-.31.74-.62,1,1.23-.41,2.49-.74,3.77-.99-1.02-.19-2.03-.39-3.06-.58-.04.19-.05.38-.09.57h0ZM544.83,271.84c-.34-.31-.69-.58-1.1-.78-1.76-.82-3.63.65-3.41,2.64.19,1.72,2.35,2.34,3.73,1.56,1.16-.66,1.25-2.16.79-3.42h0ZM561.07,262.86c-2.87-4.53-7.42-8.06-13.61-9.52-7.06-1.67-13.92.52-19.13,4.84,10.91,1.54,21.83,3.11,32.74,4.68h0ZM578.98,264.51c-.13.41-.4.67-.73.8l4.69.67c.65-3.67,1.46-7.32,2.47-10.92l-3.34-.74c-1.01,3.36-2.01,6.75-3.09,10.18h0ZM679.38,305.29c-.3-3.77-.57-7.54-.86-11.32l-.7-1.06c-.47,2.97-.95,5.95-1.41,8.93.44,4.74.87,9.48,1.3,14.22l1.67-10.76ZM677.82,317.27c1.72,19.04,3.33,38.09,4.71,57.17,1.23-.01,2.45-.04,3.67-.11-2.84-22.48-4.92-45.05-6.71-67.64-.56,3.53-1.12,7.05-1.67,10.58h0ZM607.75,228.04c4.18,2.73,8.36,5.46,12.54,8.19l-10.65-9.25c4.17,3.43,8.28,6.91,12.4,10.39l20.02,13.07c-10.02-8.57-19.87-17.29-29.41-26.3l33.18,28.76c3.34,2.18,6.67,4.36,10.01,6.54-2.58-3.96-5.15-7.92-7.72-11.88-7.41-11.4-14.78-22.82-22.12-34.27l31.5,47.22c2.85,1.86,5.71,3.73,8.57,5.6-12.95-18.9-25.83-37.88-38.19-57.26l38.19,57.27c2.44,1.59,4.88,3.18,7.31,4.77l-.29-3.23c-13.27-15.99-24.35-34.8-34.67-52.3-2.31-3.91-4.54-7.88-6.74-11.86-9.4,6.52-17.48,14.93-23.94,24.53h0ZM671.66,278.77c.15-.46.34-.9.56-1.33-.38-.24-.74-.48-1.11-.72-1.15-.33-2.3-.65-3.45-.97h-.03s1.81,2.71,1.81,2.71c.74.11,1.47.21,2.21.32h0ZM677.81,290.17c-.08,0-.16-.01-.23-.03-.06.08-.11.16-.17.23l.3.45.1-.66ZM678.07,291.36l.29.44c-.04-.51-.08-1.03-.11-1.55l-.17,1.11h0ZM677.55,290.14c-.11-.02-.23-.04-.34-.06l.18.27.16-.21ZM675.61,289.59c-.13-.05-.25-.1-.37-.15.11,1.12.21,2.25.31,3.37l1.16-1.55c-.37-.56-.73-1.11-1.1-1.67h0ZM666.22,275.33c-.31-.09-.62-.17-.93-.26.61.55,1.22,1.09,1.83,1.63-.3-.46-.6-.91-.9-1.37h0ZM657.82,268.03c-.58-.38-1.16-.76-1.74-1.13.35.31.7.61,1.05.92l.69.21h0ZM654.16,265.64c-16.56-10.81-33.12-21.63-49.68-32.44-3.35,5.68-6.15,11.71-8.35,17.95,17.96,4.29,35.81,9.05,53.5,14.37,2.26.68,4.52,1.38,6.79,2.07l-2.26-1.96ZM673.5,270.97c1.17.76,2.33,1.52,3.5,2.28-.03-.38-.05-.76-.08-1.14-1.26-1.42-2.5-2.86-3.72-4.33.1,1.06.2,2.12.3,3.19h0ZM677.45,273.15c.11-.03.21-.05.31-.07-.12-.13-.24-.25-.35-.39l.04.46ZM687.39,276.71c1.74-2.39,3.48-4.78,5.23-7.16l-6.97,5.55c.66.44,1.25.98,1.74,1.61h0ZM688.2,278l.26-.2-.34.04c.03.05.06.1.08.15h0ZM678.95,290.27l.25,2.79,1.69,2.54.89-5.7c-.91.26-1.86.39-2.82.37h0ZM679.39,295.28l.55,6.36.7-4.48c-.42-.63-.84-1.25-1.25-1.88h0ZM677.47,292.39c-.24-.37-.49-.73-.73-1.1-.39.53-.78,1.07-1.17,1.61.23,2.43.46,4.87.68,7.31l1.22-7.82ZM675.35,293.2c-15.44,21.15-31,42.32-47.21,63.19,11,7.97,23.63,13.64,36.82,16.31l11.11-71.32-.72-8.18ZM675.34,293.1l-.33-3.76c-.15-.08-.31-.18-.46-.26l-.59.47c-16.17,21.63-32.43,43.07-48.97,64.44,1.02.81,2.06,1.59,3.11,2.36l47.25-63.26ZM671.73,291.33l-61.12,48.69c4.27,5.14,9.09,9.81,14.33,13.95l46.79-62.64ZM639.03,317.1c11.05-8.85,22.13-17.66,33.22-26.46l1.53-2.05c-.35-.29-.62-.68-.78-1.12-.69-.22-1.34-.47-1.94-.73l-62.94,50.15c.81,1.06,1.63,2.1,2.48,3.12,9.45-7.67,18.93-15.31,28.43-22.91h0ZM668.15,278.26c-.24-.36-.48-.73-.72-1.1l-2.53-2.2c-2.21-.62-4.41-1.25-6.63-1.85-6.9-1.9-13.83-3.71-20.75-5.53-13.86-3.64-27.78-7.04-41.75-10.23-.49-.11-.99-.21-1.48-.33-.97,3.37-1.78,6.79-2.39,10.23,25.42,3.66,50.84,7.33,76.26,11h0ZM587.3,249.09c2.49-7.25,5.71-14.25,9.63-20.82-.95-.62-1.89-1.24-2.84-1.85-.44.66-.88,1.3-1.3,1.97-3.99,6.4-6.6,13.08-8.83,19.93,1.11.26,2.22.51,3.34.77h0ZM588.53,222.79c-3.42-2.23-6.84-4.47-10.26-6.7-4.3,9.4-8.62,18.78-12.98,28.15,4.16.87,8.32,1.78,12.47,2.69,2.14-8.26,5.98-16.46,10.77-24.14h0ZM620.98,183.16c-4.17-8.35-10.42-18.33-13.55-28.09-5.09,10.35-10.31,20.64-15.2,30.97-3.85,8.12-7.62,16.28-11.37,24.44,3.68,2.4,7.36,4.81,11.04,7.21,7.04-10.08,15.5-18.98,23.46-25.48,2.41-1.96,4.88-3.81,7.4-5.57-.59-1.16-1.2-2.31-1.78-3.48h0ZM626.46,193.82c-2.21,1.54-4.39,3.14-6.5,4.86-8.24,6.68-15.94,14.21-22.36,22.74.87.57,1.74,1.13,2.61,1.7,6.13-9.08,13.62-17.19,22.3-23.79,1.63-1.24,3.31-2.39,5.01-3.5-.36-.67-.72-1.34-1.07-2.02h0ZM771.01,296.87c7.23-37.08-10.2-72.46-38.46-93.57-27.37-16.88-62.36-20.63-91.89-5.23-1.35.71-2.67,1.46-3.99,2.24,2.36,4.43,4.77,8.84,7.23,13.21,8.6,15.23,18.7,29.49,28.31,44.02l-.29-3.31c.1,1.12.21,2.23.31,3.35,1.38,2.07,2.73,4.16,4.08,6.25-.57-7.97-1.16-15.95-1.77-23.92l2.14,24.51c1.39,2.17,2.78,4.34,4.12,6.54l12.25-78.67c-3.82,26.28-7.81,52.72-11.91,79.24.39.64.77,1.28,1.15,1.92.57.22,1.12.51,1.63.85.09.03.18.06.26.09l12.62-81.05c-4.04,27.33-8.1,54.14-12.23,80.8l48.61-65.07c-16.14,22.23-32.14,44.06-48.18,65.66.22.11.43.25.64.38,2.33-1.85,4.65-3.7,6.97-5.55,14.29-19.52,28.67-38.93,43.58-57.95l-42.82,57.34c18.66-14.87,37.32-29.74,55.99-44.61l-55.99,44.61-5.9,7.89c.24.32.45.65.63,1,.11-.02.22-.03.34-.04,21.09-16.71,42.2-33.39,63.24-50.17l-62.92,50.12c8.66-1.13,17.32-2.26,25.98-3.4,18.13-2.37,36.27-4.75,54.41-7.12l-80.38,10.52-.49.39c.14.3.25.6.34.92.19.66.26,1.34.23,1.99.27.26.47.53.6.83l78.27-10.24c-25.69,3.42-51.93,6.93-78.19,10.41.56,1.63-.85,3.58-2.68,3.92-.22.39-.47.76-.75,1.11,21.35,17.61,42.6,35.49,62.54,54.93l-62.89-54.52c-.95,1.02-2.15,1.77-3.47,2.24.18.26.35.52.53.77l62.94,54.66c-21.55-17.68-42.18-35.97-62.64-54.24,15.46,22.57,30.79,45.23,45.25,68.55l-46.25-69.34-.92,5.88,44.01,65.99c23.1-13.92,40.55-38.09,45.83-65.14h0ZM725.16,362.02c-15.14-21.18-29.81-42.73-44.24-64.43-.29,1.81-.57,3.63-.86,5.44l6.24,71.29c13.85-.77,27.08-5.21,38.85-12.3h0ZM682.22,374.44c.09,0,.19,0,.28,0l-4.9-55.76c-2.86,18.02-5.76,36.06-8.73,54.19l8.62-55.4-1.27-14.43c-3.67,23.21-7.4,46.44-11.25,69.67,5.68,1.15,11.46,1.76,17.26,1.74h0ZM593.02,305.88c2.87,11.37,8.13,21.85,15.1,31.01,4.26-3.39,8.51-6.78,12.77-10.17,16.73-13.33,33.45-26.65,50.17-39.98-.55-.23-1.07-.47-1.52-.71-.55-.3-.68-.82-.55-1.27-25.46,3.34-50.84,6.62-75.68,9.7l75.75-9.91c.12-.23.3-.42.55-.53-4.68-.64-9.35-1.28-14.03-1.92l-63.2,8.27c9.84-1.29,19.68-2.57,29.52-3.86,11.23-1.47,22.46-2.94,33.69-4.41-21.52-2.94-43.03-5.9-64.55-8.86-1.25,10.91-.69,21.99,2,32.64h0ZM576.64,265.08c-.33-.24-.59-.58-.62-1.03-.27-3.61-.08-7.27.48-10.95-4.66-1-9.33-1.94-14-2.89-.22.46-.43.92-.64,1.38.85.77,1.63,1.6,2.37,2.49,2.79,2.96,4.87,6.41,6.22,10.12,2.06.3,4.13.59,6.2.88h0ZM554.71,299.06c-.67-.91-.72-2.26.48-3.24,8.21-6.71,11.02-17.32,8.7-26.36-5.37-.74-10.73-1.49-16.1-2.23,2.91,2.11,4.87,5.64,3.16,8.94-.33.64-1.08,1.07-1.76.94-.24.44-.52.87-.86,1.28-.2.23-.44.39-.65.58,1.78,7.09,3.11,14.27,4.3,21.48.93-.39,1.84-.85,2.74-1.39h0ZM520.06,283.72c3.44,11.48,14.51,18.89,25.19,18.29-.58-7.11-.94-14.23-.99-21.31-3.24.66-6.88-.66-8.44-3.76-1.95-3.9-.09-8.94,3.61-10.85-5.39-.75-10.77-1.49-16.16-2.25-3.75,5.68-5.31,12.86-3.21,19.89h0ZM391.42,238.8c13.16,1.87,26.31,3.75,39.47,5.61,28.3,4,56.59,7.99,84.88,11.98,1.01.14,2.01.29,3.01.43,3.54-4.43,8.18-7.93,13.42-9.98-.61-.01-1.18-.33-1.38-1.11-.14-.54-.22-1.08-.33-1.62-5.74-1.01-11.47-2.01-17.23-2.93-6.16-.99-12.32-1.92-18.48-2.82-.6.8-1.58,1.26-2.61.67-.79-.45-1.55-.93-2.34-1.38-19.92-2.84-39.91-5.24-59.95-7.11-12.78-1.19-25.58-2.14-38.39-2.92-.56,1.05-1.1,2.11-1.66,3.16-.84,1.57-2.24,2.21-3.64,2.21,1.29,1.67,2.35,3.54,3.17,5.54.68.09,1.37.18,2.05.28h0ZM349.86,246.75c.3,8.03,5.05,14.13,11.16,16.81,2.36.32,4.72.64,7.07.56-1.08-7.07-1.84-14.12-1.96-21.02,0-.44.14-.81.34-1.12-5.04-.74-10.06-1.63-15-2.87-1.11,2.4-1.7,5.03-1.61,7.64h0ZM293.07,129.97c7.47,10.48,14.88,21,22.31,31.51,13.92,19.71,28.55,39.2,41.34,59.74,1.25-.33,2.53-.59,3.83-.79-.43-4.53-.78-9.07-1.13-13.59-.38-4.95.33-10.92-4.28-13.2-3.2-1.59-8.15-1.84-11.67-3.06-5-1.73-1.56-9.93,3.46-7.79,4.56,1.95,9.19,3.27,14,4.37,2.21.5,3.34,2.61,2.53,4.8-2.49,6.69-.23,16.4.3,23.35.12,1.58.25,3.15.4,4.72,1.58-.12,3.17-.18,4.76-.18,5.74-.01,11.52.19,17.3.49,6.76-12.74,13.39-25.56,19.89-38.44-7.19-5.19-14.37-10.4-21.52-15.58-34.04-24.66-68.44-49.7-100.63-76.9-.16.15-.34.29-.51.41-1.93,5.51-4.56,10.62-7.68,15.49,6.76,7.01,11.97,17.18,17.3,24.65h0ZM270.4,99.38c2.36-3.72,4.51-7.56,6.58-11.46l-.04-.1c-.54.5-1.05,1.02-1.58,1.53-.83,1.48-3.67,6.43-4.96,10.03h0ZM184.29,199.59c.38.56.77,1.13,1.16,1.69l1.15-.15-2.36-2.05c.01.17.03.33.05.5h0ZM184.08,198.94l-.57-.5c.2.29.4.59.61.88l-.03-.39ZM180.58,201.92l2.69,4.04,1.41-.19-.05-.57-3.81-3.31-.24.03h0ZM180.82,201.88l-.64-.55.39.58.24-.03ZM189.73,228.09c-.17-2.18-.33-4.37-.5-6.56-.72.46-1.49.75-2.27.88-.11.7-.22,1.39-.33,2.09.46,4.93.91,9.86,1.36,14.79l1.74-11.2ZM188.1,240.55c1.82,20.17,3.54,40.34,4.98,60.54,1.28-.1,2.56-.24,3.84-.4-3.01-23.65-5.19-47.38-7.07-71.15-.58,3.67-1.16,7.34-1.75,11.01h0ZM276.67,189.35c-16.72,2.19-33.43,4.37-50.15,6.56-7.57.99-15.15,1.98-22.72,2.97-1,1.61-2.04,3.19-3.05,4.79l76.38-9.99c-.13-1.45-.29-2.89-.47-4.33h0ZM188.45,202.91l.13,1.54.73-.97-.75-.65-.11.09ZM188.55,202.82l-.12-.11v.19s.12-.09.12-.09h0ZM188.68,205.58v.11c.06-.09.11-.18.17-.27h-.05c-.05.06-.08.11-.12.16h0ZM185.58,206.02l-.17-.15c-.18.02-.35.05-.52.07l.02.2c.22-.05.44-.09.67-.12h0ZM185.59,206.02c.61-.08,1.24-.1,1.86-.06l.3-.4c-.78.1-1.55.2-2.33.3l.17.15h0ZM188.98,205.2s.05-.08.07-.13l-.09.13h.02ZM184.61,214.66c0,.06.02.11.04.17-.01-.05-.03-.11-.04-.17h0ZM184.72,206.18l-.03-.22s-.07.01-.1.01l-.4.32c.17-.05.34-.08.53-.11h0ZM184.89,205.74c.06-.05.13-.1.19-.15l-.24-.21.04.37h.02ZM184.89,205.74l.31-.04-.13-.11-.19.15ZM185.22,205.7l2.68-.35-.87-1.31-1.93,1.54.13.12h0ZM187.99,204.97c-.04-.54-.07-1.07-.12-1.61l-.64.51c.25.37.5.74.75,1.1h0ZM189.51,203.2l.03-.02.2-1.3-.93.74c.24.19.47.39.71.58h0ZM190.12,202.39l1.42-1.91h-.06s-1.22.98-1.22.98l-.14.93h0ZM191.54,200.48l.08-.11-.14.12h.06ZM207.5,192.88c18.68-14.79,37.37-29.57,56-44.43-.71-1.22-1.46-2.41-2.22-3.58l-47.56,37.91c-2.06,3.38-4.14,6.74-6.22,10.1h0ZM195.65,211.69c.6,1.24,1,2.62.95,3.9l59.4,51.58c.95-1.14,1.87-2.31,2.78-3.49l-62.01-53.75c-.38.58-.74,1.17-1.12,1.75h0ZM195.38,218.45c-.91.88-2.09,1.15-3.22.59-.11-.05-.19-.12-.29-.18l44.32,66.45c1.15-.8,2.29-1.62,3.41-2.46l-43.54-65.28c-.17.31-.38.61-.67.88h0ZM190.51,220.49c-.16.16-.32.29-.49.44l.3,3.37.69-4.43c-.16.22-.31.43-.5.63h0ZM186.52,222.49h-.08c.01.12.02.22.03.32l.05-.32ZM179.04,218.45c-15.81,21.09-31.72,42.02-47.9,62.89,1.08.85,2.17,1.67,3.29,2.46l46.95-62.86c-.92-.67-1.73-1.52-2.34-2.49h0ZM178.66,217.73c-.2-.41-.38-.84-.52-1.28l-62.43,49.74c4.56,5.61,9.75,10.7,15.43,15.15l47.52-63.61ZM147.75,240.37c10.09-8.07,20.2-16.12,30.32-24.16-.19-.72-.27-1.48-.22-2.25.08-1.25.42-2.35.91-3.33-16.63,13.25-33.26,26.51-49.89,39.76-5.24,4.18-10.47,8.35-15.71,12.52.83,1.11,1.69,2.21,2.56,3.28,10.65-8.64,21.33-17.25,32.04-25.82h0ZM184.19,206.3c.13-.11.27-.21.4-.32-.41.05-.8.11-1.21.16l.24.35c.19-.07.37-.14.57-.19h0ZM184.62,205.16l-.33-3.74c-1.12.15-2.24.29-3.36.44,1.23,1.1,2.46,2.2,3.69,3.3h0ZM184.83,205.35c.09.08.17.15.26.23l1.93-1.54-1.82-2.73c-.25.03-.5.06-.74.1l.37,3.94h0ZM185.21,201.31l-.88-1.32c.04.47.09.94.14,1.41l.74-.1ZM185.45,201.28c.6.86,1.19,1.73,1.78,2.59.21-.17.43-.34.64-.51l-.08-1.21-1.18-1.02c-.39.05-.77.1-1.15.15h0ZM187.76,201.76c-.02-.26-.04-.52-.06-.78-.25.03-.51.07-.76.1l.82.67h0ZM188.39,202.28c.14.11.28.23.41.34.31-.25.62-.49.93-.74l.18-1.19c-.55.07-1.1.15-1.64.21l.12,1.38ZM190.27,201.46c.41-.33.81-.65,1.22-.97-.37.05-.73.1-1.09.14l-.13.83h0ZM191.48,200.49s.1-.07.14-.12l1.29-1.72c.62-1.03,1.25-2.07,1.88-3.1l13.01-83.58c-1.32-.2-2.65-.37-3.98-.51-4.31,29.56-8.79,59.33-13.43,89.17l1.09-.14ZM207.81,111.97c-4.13,27.99-8.3,55.46-12.53,82.78,12.68-20.79,25.89-41.27,38.89-61.82,2-3.16,4-6.46,6.04-9.81-1.73-1.22-3.49-2.39-5.31-3.47-8.61-3.71-17.76-6.29-27.1-7.67h0ZM246.61,128.09c-3.21,5.33-6.36,10.71-9.59,16.06-1.73,2.87-3.46,5.74-5.18,8.62,5.62-7.42,11.27-14.81,17.02-22.14l-19.02,25.47c-5.36,8.9-10.72,17.81-16.12,26.69l47.56-37.91c-.54-.83-1.07-1.68-1.64-2.48-3.82-5.36-8.21-10.13-13.03-14.3h0ZM263.5,148.45l-56.24,44.8c-1.16,1.87-2.3,3.76-3.46,5.62l72.87-9.53c-1.78-14.55-6.13-28.84-13.17-40.89h0ZM277.14,193.68c-25.18,3.36-50.82,6.79-76.51,10.18-1.18,1.86-2.36,3.72-3.55,5.58,21.06,17.38,42.01,35.04,61.8,54.08,8.4-11.17,14.4-24.16,16.92-38.04,1.82-10.06,2.28-20.94,1.33-31.8h0ZM255.95,267.23c-20.35-16.81-39.96-34.09-59.37-51.4-.03.44-.13.87-.3,1.28,14.81,21.65,29.45,43.41,43.34,65.73,6-4.54,11.5-9.79,16.32-15.6h0ZM236.12,285.36c-15.31-21.47-30.17-43.29-44.79-65.29l-.88,5.66,6.56,74.95c13.97-1.8,27.39-7.24,39.12-15.33h0ZM192.4,301.16c.23-.01.44-.04.67-.06l-5.2-59.08c-2.98,18.75-6,37.51-9.08,56.38l8.97-57.64-1.32-15.02c-3.83,24.21-7.72,48.45-11.74,72.69l11.59-74.4-.13-1.52c-1.62.05-3.25-.5-4.64-1.47-15.37,21.04-30.89,42.07-47.06,62.8,16.81,12.09,37.35,18.79,57.95,17.33h0ZM113.15,262.91l65.61-52.28c.86-1.68,2.23-2.94,3.85-3.73l-.4-.61c-27.59,3.62-55.12,7.18-82.04,10.53l81.91-10.71c-.89-1.35-1.77-2.69-2.66-4.04l-8.37,1.1,8.37-1.1c-.72-1.08-1.43-2.16-2.14-3.25l-60.11-52.2c20.37,16.74,40.1,34.16,59.8,51.73-2.6-3.97-5.21-7.95-7.8-11.93-16.72-13.89-33.2-27.94-48.87-42.75l48.28,41.85c-3.8-5.82-7.59-11.65-11.37-17.48-7.71-11.86-15.38-23.74-23.01-35.65l36.87,55.29,8.09,7.02c-2.54-2.09-5.08-4.19-7.61-6.29l8.42,12.62c.32.29.64.57.96.86l3.36-.44-.15-1.71-1.13-1.71-3.85-3.34c1.2.99,2.4,1.98,3.61,2.98l-6.73-10.09c2.39,3.49,4.78,6.97,7.17,10.46.28.23.56.46.84.69l-2.09-23.77c.75,7.97,1.5,15.93,2.25,23.9.91.75,1.81,1.49,2.72,2.24l.76-.1c-.99-13.65-1.97-27.3-3.01-40.94l3.58,40.87,1.64-.21,13.9-89.23c-7.76-.86-15.61-.88-23.35-.04,1.33,13.17,2.49,26.35,3.54,39.54.23,3.02.46,6.05.69,9.08l-4.25-48.62c-1.35.14-2.68.32-4.02.52l5.54,63c-.76-8.11-1.52-16.22-2.25-24.32-1.16-12.88-2.28-25.78-3.31-38.67-14.37,2.15-28.21,7.37-40.2,15.88l39.84,59.74c-13.52-19.72-26.94-39.52-39.85-59.73-.59.42-1.19.83-1.77,1.26-32.67,24.45-47.83,72.09-33.68,110.93,2.99,8.21,7.22,15.91,12.41,22.89Z"/>
  <path id="Path_7043" class="st0" d="M408.07,53.71c.35-.05.71-.05,1.08.04l-1.08-.04Z"/>
  <path id="Path_7044" class="st0" d="M408.07,53.71c-.32.05-.63.15-.92.3-.55-.14-1.11-.27-1.66-.4l2.58.1Z"/>
  <path id="Path_7045" class="st0" d="M666.23,189.58l5.69,64.63c-.73-7.79-1.46-15.58-2.16-23.38-1.24-13.74-2.44-27.49-3.52-41.25Z"/>
  <path id="Path_7046" class="st0" d="M673.88,231.16c.23,2.91.44,5.82.66,8.74l-4.37-49.97c1.42,13.72,2.62,27.47,3.71,41.23Z"/>
  <path id="Path_7047" class="st0" d="M99.19,212.56c10.24-1.34,20.47-2.68,30.71-4.02,13.72-1.79,27.44-3.59,41.16-5.38l-71.87,9.4Z"/>
  <path id="Path_7048" class="st0" d="M831.82,415.03c-21.64-3.7-43.26-7.48-64.87-11.33-6.12-1.09-12.23-2.18-18.35-3.26-.52-.09-.39-.92.13-.83,21.63,3.76,43.27,7.44,64.87,11.35l18.34,3.32c.47.09.35.83-.12.75Z"/>
  <path id="Path_7049" class="st0" d="M790.36,420.44c-17.47-2.35-34.97-4.56-52.42-7.13-17.44-2.58-34.87-5.18-52.31-7.82-17.36-2.63-34.73-5.24-52.08-7.98-17.34-2.74-34.68-5.52-52.02-8.32-17.4-2.82-34.8-5.67-52.19-8.55-17.39-2.88-34.78-5.79-52.16-8.73-17.32-2.93-34.62-5.89-51.93-8.89-17.37-3-34.74-6.01-52.1-9.11-17.29-3.09-34.57-6.2-51.85-9.35-4.35-.79-8.68-1.74-13.03-2.56-4.28-.81-8.56-1.61-12.84-2.42-8.7-1.65-17.39-3.3-26.09-4.96-4.21-.8-8.4-1.75-12.61-2.53-.8-.15-.6-1.43.2-1.28,4.34.8,8.73,1.44,13.08,2.22l13.07,2.32c8.65,1.53,17.29,3.05,25.94,4.57,8.65,1.51,17.31,2.93,25.95,4.47,8.71,1.55,17.42,3.1,26.14,4.64,17.29,3.05,34.59,6.11,51.88,9.13,17.3,3.02,34.61,6,51.92,8.96,17.38,2.97,34.76,5.9,52.15,8.81,17.39,2.9,34.79,5.78,52.18,8.62,17.33,2.83,34.67,5.63,52.01,8.4,17.41,2.78,34.81,5.59,52.22,8.36,17.34,2.76,34.69,5.49,52.04,8.18,17.42,2.71,34.81,5.6,52.22,8.4,4.23.68,8.46,1.36,12.7,2.04.33.06.25.57-.08.53Z"/>
  <path id="Path_7050" class="st0" d="M714.74,398.13c-22.95-3.52-45.88-7.23-68.8-10.94l-68.78-11.11c-22.92-3.7-45.83-7.51-68.75-11.28l-68.74-11.32-68.74-11.31c-2.87-.47-5.72-.98-8.57-1.6-1.3-.29-1.01-2.25.33-2.1,5.77.64,11.49,1.69,17.22,2.62,5.73.94,11.46,1.87,17.19,2.81,11.46,1.87,22.92,3.74,34.38,5.62,22.92,3.74,45.84,7.49,68.76,11.24,22.92,3.75,45.85,7.43,68.75,11.24,22.91,3.81,45.82,7.63,68.73,11.44,22.91,3.81,45.83,7.54,68.71,11.54,2.86.5,5.72,1,8.58,1.5,1.03.18.78,1.81-.26,1.65Z"/>
  <path id="Path_7051" class="st0" d="M532.95,357.17c-3.78-.35-7.52-1.08-11.26-1.71-3.75-.63-7.49-1.26-11.24-1.88-7.56-1.27-15.12-2.53-22.68-3.8-15.05-2.52-30.11-5.03-45.14-7.68-15.03-2.65-30.07-5.3-45.1-7.94-15.03-2.65-30.07-5.29-45.1-7.94-14.96-2.64-29.93-5.27-44.9-7.91-1.91-.34-3.79-.78-5.68-1.19-1.07-.23-.83-1.87.27-1.72,7.53,1.01,15,2.43,22.48,3.73,7.55,1.32,15.1,2.63,22.65,3.95,15.04,2.62,30.07,5.25,45.11,7.87,15.04,2.63,30.07,5.25,45.11,7.88,15.04,2.62,30.06,5.34,45.07,8.09,14.95,2.74,29.89,5.48,44.84,8.21,1.92.35,3.8.73,5.68,1.22.5.13.4.87-.13.83Z"/>
  <path id="Path_7052" class="st0" d="M349.84,338.63c-14.41-3.13-28.84-6.14-43.3-9.01-14.39-2.86-28.82-5.59-43.26-8.19-14.45-2.6-28.92-5.06-43.41-7.4-14.56-2.35-29.14-4.56-43.73-6.64-7.29-1.04-14.65-1.82-21.91-3.12-7.18-1.29-14.43-2.28-21.65-3.33-1.84-.27-3.68-.55-5.51-.88-.76-.13-.57-1.26.19-1.2,7.35.55,14.68,1.53,22.01,2.38,3.63.42,7.27.75,10.89,1.26,3.69.52,7.37,1.05,11.05,1.6,14.52,2.15,29.02,4.42,43.5,6.83,14.48,2.41,28.94,4.96,43.37,7.63,14.5,2.69,28.98,5.5,43.43,8.45,14.39,2.94,28.75,6,43.08,9.2,1.82.4,3.63.81,5.45,1.22.74.17.57,1.36-.19,1.2Z"/>
  <path id="Path_7053" class="st0" d="M212.08,330.56c-13.7-2.9-27.43-5.67-41.13-8.56-13.77-2.9-27.56-5.75-41.35-8.55-13.72-2.79-27.46-5.52-41.21-8.21-13.74-2.69-27.5-5.28-41.27-7.83-6.92-1.28-13.84-2.55-20.76-3.81-6.93-1.26-13.82-2.69-20.72-4.1-1.69-.35-3.38-.71-5.06-1.13-.91-.23-.72-1.6.23-1.49,3.49.41,6.96,1.04,10.43,1.61,3.47.57,6.95,1.1,10.4,1.76,6.84,1.32,13.68,2.65,20.52,3.99,13.81,2.71,27.61,5.5,41.41,8.27,13.73,2.76,27.46,5.57,41.17,8.42,13.71,2.85,27.42,5.76,41.11,8.71,13.77,2.97,27.5,6.12,41.23,9.27,1.68.39,3.36.77,5.05,1.16.29.07.22.54-.07.47Z"/>
  <path id="Path_7054" class="st0" d="M785.74,395.06c-9.09-1.43-18.18-2.8-27.25-4.3-9.07-1.51-18.14-3.04-27.2-4.64-18.12-3.19-36.24-6.37-54.36-9.54-5.04-.88-10.1-1.7-15.12-2.66-5.15-.98-10.41-1.73-15.48-3.05-.82-.21-.66-1.43.21-1.35,4.6.43,9.18,1.38,13.74,2.12,4.51.73,9,1.55,13.49,2.36,9.06,1.62,18.11,3.23,27.17,4.86,18.11,3.25,36.24,6.42,54.31,9.89,10.2,1.96,20.37,4.04,30.54,6.09.14.03.11.25-.04.23Z"/>
  <path id="Path_7055" class="st0" d="M129.23,286.18c-3.26-1.13-6.57-2.11-9.85-3.19-3.32-1.1-6.63-2.22-9.98-3.21-6.63-1.97-13.34-3.63-20.1-5.07-3.78-.81-7.64-1.32-11.37-2.29-.97-.25-.76-1.64.25-1.58,3.5.23,6.99,1.03,10.42,1.74,3.37.69,6.72,1.45,10.05,2.32,6.72,1.77,13.37,3.83,19.91,6.18,3.71,1.33,7.31,3.02,10.88,4.7.26.12.08.51-.19.41Z"/>
  <path id="Path_7056" class="st0" d="M111.06,293.67c-11.06-2.34-22.07-4.88-33.15-7.17-11.02-2.28-22.1-4.18-33.19-6.1-6.28-1.09-12.63-1.85-18.88-3.09-.76-.15-.57-1.25.19-1.2,5.67.37,11.33,1.3,16.95,2.1,5.64.79,11.25,1.73,16.86,2.75,11.07,2.01,22.09,4.27,33.03,6.93,6.19,1.5,12.36,3.06,18.45,4.92.48.15.23.97-.26.87Z"/>
</svg>