<svg width="789" height="616" viewBox="0 0 789 616" fill="none" xmlns="http://www.w3.org/2000/svg">
<g id="03_OurServices">
<g id="Group 5781" style="mix-blend-mode:multiply">
<g id="Group 5780">
<mask id="mask0_1_2" style="mask-type:alpha" maskUnits="userSpaceOnUse" x="0" y="0" width="789" height="616">
<path id="Rectangle 1382" d="M79.7015 0L788.109 112.201L708.408 615.416L2.18671e-05 503.215L79.7015 0Z" fill="black"/>
</mask>
<g mask="url(#mask0_1_2)">
<path id="Path 7503" d="M82.6046 8.57125C83.325 8.04672 90.4078 8.4414 91.9382 8.59256C135.018 12.8388 176.385 24.4418 218.759 30.0114C288.236 39.1439 357.552 46.8694 426.791 58.9741C472.214 66.9146 516.859 78.633 562.646 85.128C601.354 90.6181 640.563 94.6127 679.361 99.6357C688.526 100.822 698.437 103.428 707.483 104.14C713.289 104.597 719.519 103 725.365 103.1C737.16 103.302 761.511 108.179 772.875 111.937C785.563 116.134 780.164 123.33 778.905 134.096C775.828 160.383 770.499 186.411 767.113 212.674C762.962 244.869 759.468 277.315 755.106 309.477C750.908 340.427 747.79 372.229 741.62 402.883C737.533 423.193 732.728 441.541 729.516 462.445C724.339 496.13 718.156 530.071 714.125 563.964C712.549 577.208 713.235 591.513 709.667 604.47C706.555 615.772 688.323 610.705 679.77 609.244C634.363 601.486 588.834 594.512 543.202 587.56C483.616 578.481 423.638 571.752 364.396 559.948C334.809 554.052 305.913 544.425 275.865 540.639C267.591 539.597 258.963 539.682 250.716 538.672C227.606 535.841 204.984 529.324 182.202 525.151C146.206 518.556 109.915 516.603 73.8803 510.664C52.742 507.181 31.6713 505.957 10.4051 502.515C6.99109 501.963 5.21422 503.329 3.21199 498.755C1.74282 495.397 3.79551 495.277 4.40796 492.712C6.92306 482.189 6.34792 470.689 7.65892 459.953C9.35499 446.068 12.2946 432.227 14.2274 418.481C16.5326 402.091 18.0705 386.78 21.1933 370.498C32.2725 312.734 39.4308 254.418 50.0406 196.497C52.0372 185.597 55.2515 174.643 57.2576 163.689C62.9078 132.837 63.3959 101.596 69.3097 70.7052C70.9996 61.8796 73.7716 53.0783 75.5129 44.2724C76.5698 38.9278 79.8974 10.5417 82.6046 8.57125Z" fill="#030303"/>
<path id="Path 7504" d="M568.682 98.4833C569.966 96.7408 570.905 95.5258 573.327 95.9388C591.339 98.0427 609.145 101.476 626.914 104.463C636.498 106.074 644.246 105.766 653.393 106.643C664.109 107.669 675.22 110.79 685.957 111.819C692.181 112.416 698.647 111.765 704.88 112.213C724.824 113.647 744.521 118.445 764.365 120.942C766.392 121.216 767.223 123.181 767.244 125.062C767.299 130.083 766.337 137.267 765.823 142.468C763.692 164.062 759.222 185.567 757.546 207.201C755.971 227.543 756.19 243.842 752.396 264.627C750.732 273.746 748.594 286.328 746.246 295.031C744.432 301.755 734.522 294.783 729.636 296.64L728.714 297.8C725.351 296.976 721.955 296.531 718.529 296.463L717.409 295.357C704.235 293.876 691.091 292.098 677.935 290.386C651.677 286.971 627.52 279.099 601.116 275.603C592.365 274.445 581.583 273.099 572.861 272.47C563.59 271.801 554.116 272.966 544.829 271.975C541.059 271.572 529.861 270.021 527.258 267.893C525.51 266.465 526.332 255.861 526.137 252.756C525.717 246.061 524.339 237.903 521.548 231.81C520.436 229.381 516.127 223.918 516.369 222.019C527.075 192.619 539.599 164.002 551.131 134.946L550.549 133.477C557.097 122.631 563.723 111.287 567.263 99.0619L568.682 98.4833Z" fill="white"/>
<path id="Path 7505" d="M660.368 453.1C661.434 452.874 662.488 452.908 663.528 453.217C678.901 462.359 694.432 469.364 711.319 474.513L712.291 476.367C712.812 476.614 716.086 479.308 716.35 479.912C716.928 481.228 716.821 484.34 716.697 485.871C714.524 512.796 706.622 541.659 703.503 568.855C702.742 575.493 703.025 582.878 702.245 589.531C701.892 592.544 701.189 599.149 700.296 601.677C700.046 602.382 699.871 602.934 699.009 603.016C689.074 601.362 678.88 600.556 669.225 597.705C631.973 594.063 594.315 582.128 557.065 581.767C543.369 581.635 523.847 576.977 510.005 574.453C502.714 573.123 495.296 572.365 488.029 570.934C485.322 553.804 481.023 537.027 478.726 519.818C477.659 511.83 475.62 499.091 475.869 491.403C475.996 487.461 477.695 483.476 476.91 479.636L475.757 478.762C478.119 472.073 478.203 465.995 476.012 460.527C476.058 460.42 475.589 459.041 475.727 458.217C478.044 444.415 482.445 430.914 484.871 417.156C486.202 409.604 489.189 396.713 478.222 395.515C471.782 394.812 470.121 399.241 466.71 403.046C466.094 403.733 465.688 404.389 465.123 403.222C463.953 395.506 463.191 387.725 462.117 379.997C461.442 375.151 459.098 373.48 462.462 369.224C463.025 368.512 467.775 363.879 468.166 363.849C468.499 363.825 472.145 366.048 472.304 366.386C472.936 367.729 471.429 371.364 471.76 373.557C472.583 379.003 484.801 385.535 489.498 387.775C497.119 391.41 504.49 393.749 512.996 394.467C521.435 395.178 531.582 392.511 539.409 393.446C549.336 394.633 578.856 412.784 589.641 418.365C613.077 430.495 636.585 441.723 660.368 453.1Z" fill="white"/>
<path id="Path 7506" d="M437.721 219.011C459.44 203.352 491.408 206.246 506.339 229.87C526.626 261.97 511.017 297.034 489.723 323.59C467.465 351.346 441.408 375.558 415.97 400.058C413.152 402.772 407.15 410.835 404.544 412.309C398.894 415.508 389.793 408.604 385.055 405.479C372.119 396.943 359.064 385.956 347.251 375.91C313.79 347.455 272.81 309.262 277.993 260.778C282.965 214.269 334.35 196.321 368.019 229.267C377.51 238.555 385.259 252.816 394.996 261.053C396.533 262.353 398.691 264.919 400.691 263.04C410.175 250.278 418.747 236.543 429.589 224.918C432.02 222.492 434.73 220.524 437.721 219.011Z" fill="#EA5453"/>
<path id="Path 7507" d="M80.5189 107.498C87.4258 113.646 92.7553 120.636 99.0799 127.047C139.705 168.234 185.428 203.696 231.349 238.76C239.877 246.083 242.987 266.394 252.1 271.681C253.696 272.608 255.128 273.365 257.036 273.459C257.126 274.689 256.445 274.634 255.691 275.096C253.754 276.284 251.101 277.102 249.053 278.397C237.494 285.706 229.009 298.098 216.364 302.577C205.935 306.271 192.588 308.838 181.643 311.527C157.494 317.46 133.018 322.134 108.976 328.489C108.153 329.665 106.684 330.305 104.569 330.41C86.9806 335.966 67.2789 341.179 48.5829 345.371C45.5828 346.044 42.4965 346.178 39.4333 346.252C38.9946 346.356 34.2199 346.82 34.1732 346.398C36.8242 333.301 38.6774 320.057 41.0579 306.914C51.9688 246.661 63.326 186.199 71.764 125.432C72.7414 118.392 74.1468 111.402 75.1238 104.361C75.5061 103.043 80.0242 107.057 80.5189 107.498Z" fill="white"/>
<path id="Path 7508" d="M113.811 335.141C125.219 332.473 136.877 330.531 148.313 327.831C170.462 322.601 215.627 314.88 232.804 302.662C238.819 298.384 243.149 292.049 249.176 287.89C257.204 282.351 270.063 277.175 259.269 292.452C256.708 296.077 242.848 306.959 251.225 310.185C255.401 311.793 264.127 304.251 268.215 303.184C269.143 302.942 269.749 302.705 270.618 303.366C271.051 303.696 273.908 309.073 274.104 309.903C274.53 311.702 273.977 315.07 274.659 315.993C275.592 317.258 280.207 317.366 280.464 319.432C280.715 321.455 278.426 321.405 277.425 322.311C273.661 325.715 276.808 330.499 281.4 330.294C280.849 332.354 278.098 332.427 276.578 334.137C272.339 338.902 279.154 341.583 278.893 341.99C265.151 348.742 250.917 354.727 237.03 361.317C204.597 376.709 172.419 394.821 139.814 409.385C121.344 417.635 101.683 423.164 83.905 433.087L83.1753 434.56C64.3182 443.278 45.5958 452.86 26.9672 462.413L21.514 466.293L19.7976 466.099C17.8078 466.149 18.7238 464.927 18.8702 463.693C19.9049 454.942 22.0667 446.266 23.0103 437.511C23.9437 428.849 22.982 419.166 23.9419 410.866C25.2855 399.241 29.1487 385.747 31.1283 374.068C31.736 370.481 31.7389 358.01 34.3425 356.526C35.4022 355.922 44.123 353.76 46.1823 353.207L49.5231 351.411C68.2597 345.663 87.2304 340.106 106.341 335.607C107.534 335.326 108.773 335.232 110.024 335.154C111.281 335.075 112.545 335.094 113.811 335.141Z" fill="#FFE7C8"/>
<path id="Path 7509" d="M86.6811 460.996C90.031 459.615 93.7377 457.108 96.7856 455.084C110.484 445.989 123.934 436.443 137.764 427.547C170.232 406.663 205.83 387.217 240.284 369.681C253.035 363.191 269.238 357.512 281.131 350.509C286.592 347.293 291.638 343.315 290.271 336.278L292.755 337.009C298.715 343.565 304.36 350.437 310.217 357.074C311.721 358.779 319.596 366.107 319.388 367.373C318.97 369.921 304.91 376.711 302.182 378.697C300.787 379.712 299.832 379.999 299.351 381.847C297.188 390.165 309.757 385.584 314.166 387.806L313.788 389.62C302.734 393.207 288.429 395.414 278.378 401.116C255.073 414.337 234.977 432.023 212.889 446.993C205.583 451.945 197.65 456.1 190.349 461.047C168.199 476.055 147.356 493.142 125.309 508.318C124.455 508.899 123.556 509.151 122.523 509.147C101.703 509.088 76.1196 501.341 54.7804 499.083C51.2938 498.714 29.3057 498.643 28.5487 497.568C27.7768 496.471 30.8178 494.762 31.7104 494.147C31.9527 493.58 32.2165 493.028 32.5566 492.527C32.8959 492.027 33.2258 491.552 33.669 491.26C48.3307 481.605 63.5549 472.484 78.9796 464.537C81.5054 462.522 84.0726 461.341 86.6811 460.996Z" fill="#FFE7C8"/>
<path id="Path 7510" d="M304.197 537.27C294.066 535.999 284.017 533.759 273.886 532.478C269.066 531.868 263.242 531.978 258.411 531.388C228.073 527.682 199.372 519.833 169.476 514.632C159.275 512.858 149.017 511.275 138.673 511.059L137.907 509.344C152.305 499.644 165.531 488.245 179.759 478.337C188.996 471.905 198.949 466.373 208.215 459.987C232.627 443.163 257.369 421.948 283.292 407.878C292.793 402.721 313.198 400.616 319.871 395.27C321.432 394.021 322.752 390.01 323.61 394.211C324.32 397.689 323.781 402.384 324.629 406.457C326.212 414.061 332.281 425.156 331.004 432.77C330.505 435.747 327.879 437.903 327.363 440.6C326.746 443.825 328.027 446.999 326.992 450.914C325.173 457.795 321.659 459.935 320.199 469.525C318.948 477.742 316.839 483.016 314.844 490.923C310.972 506.274 308.462 522.017 304.197 537.27Z" fill="white"/>
<path id="Path 7511" d="M89.2205 27.7763L90.762 27.823C95.0337 33.1654 99.8295 38.0311 105.149 42.4207L104.968 44.005C132.159 68.9546 157.413 96.3718 185.064 121.058C208.252 141.76 233.172 160.261 256.985 180.05C269.43 190.392 280.989 201.963 293.552 212.201C279.078 219.212 272.227 233.541 268.2 248.409C267.268 249.098 259.499 239.94 256.098 245.355C253.358 249.719 260.47 263.02 257.163 264.693C255.078 265.748 253.609 263.03 252.76 261.602C243.613 246.217 245.098 239.806 229.491 227.123C191.325 196.106 150.575 168.127 115.935 132.873L97.1445 114.056L95.7574 114.018C92.1836 106.814 86.9755 100.691 80.1326 95.6481L80.0885 93.6953C79.2353 92.7247 78.803 92.0108 77.4893 91.3466L77.4107 89.7111C81.9957 69.9788 82.3243 47.167 87.2563 27.7804C87.727 25.9303 88.1041 27.7452 89.2205 27.7763Z" fill="#FFE7C8"/>
<path id="Path 7512" d="M693.018 300.651L695.201 300.128C709.292 301.3 723.349 302.702 737.372 304.333L739.374 305.376C741.141 305.537 744.386 305.542 744.227 307.779C741.694 325.687 738.176 343.482 735.707 361.396C735.331 364.129 736.274 373.66 732.147 373.592C730.88 373.571 729.314 372.476 727.836 372.194C722.444 371.166 716.922 370.651 711.531 369.639L709.991 370.132C700.895 367.983 691.746 365.852 682.546 363.74L680.026 362.034L637.545 351.388C603.669 343.757 568.587 338.186 535.077 329.262C531.205 328.231 510.893 322.398 509.324 320.303C508.808 319.614 508.843 319.095 508.965 318.291C509.385 315.511 515.312 307.295 516.912 303.499C517.959 301.015 520.287 291.425 521.984 291.003C524.187 290.455 526.957 291.783 528.024 288.431C529.253 284.573 523.853 283.372 523.793 282.576C523.682 281.123 524.516 276.285 526.158 275.87C527.186 275.61 532.453 277.765 534.027 278.079C541.343 279.54 549.037 279.923 556.484 280.24C581.195 281.293 606.249 282.836 630.552 288.147C638.316 289.845 645.959 292.828 653.738 294.456C666.392 297.104 680.158 298.529 693.018 300.651Z" fill="#FFE7C8"/>
<path id="Path 7513" d="M673.968 387.89L676.991 388.077C689.758 392.617 702.431 397.105 715.013 401.54L716.052 403.058C718.784 405.264 725.54 405.889 727.949 407.685C728.596 408.167 728.949 408.406 728.806 409.321L718.863 470.255L715.216 470.291C712.162 470.117 709.079 469.104 705.966 467.251C693.161 462.925 680.968 457.117 668.876 450.81C668.377 450.55 667.962 450.123 667.54 449.676C667.107 449.217 666.737 448.701 666.383 448.167C625.883 429.014 586.617 407.653 546.616 387.508C534.377 383.423 520.523 388.659 508.329 386.555C503.489 385.72 485.738 378.111 482.43 374.842C481.787 374.209 480.991 373.243 480.821 372.341L493.265 374.312C495.962 374.739 498.215 369.293 496.195 367.53C494.797 366.309 488.149 365.309 485.833 364.465C484.049 363.815 473.856 359.365 473.975 357.855C474.961 357.119 476.707 354.499 477.618 354.14C480.634 352.949 485.359 356.728 486.159 351.269C486.404 349.601 485.068 347.99 485.615 346.754C486.018 345.845 490.724 342.125 491.991 340.698C494.932 337.384 498.531 330.872 501.196 328.502C501.898 327.877 502.286 327.464 503.329 327.491C529.108 336.907 554.954 346.273 580.879 355.282C612.005 366.097 643.023 376.564 673.968 387.89Z" fill="#FFE7C8"/>
<path id="Path 7514" d="M368.498 197.583C369.534 199.228 368.706 200.348 366.817 199.933C364.955 202.672 363.017 205.4 361.258 208.206C360.632 206.245 346.168 190.656 347.506 189.687C354.671 190.319 363.869 184.434 358.744 176.718C353.099 168.219 335.368 171.503 329.043 163.849C305.646 131.805 281.836 99.6499 260.355 66.6537C255.977 63.4868 252.688 58.6801 251.324 53.4504C250.897 52.8482 250.685 51.351 249.899 50.2514C248.655 48.513 246.766 47.2953 245.728 45.3696C245.201 43.2375 249.665 45.3491 250.905 45.5687C297.609 53.8448 344.551 54.0499 392.024 63.3356C396.27 64.1661 403.046 64.3427 406.732 65.6386C407.247 65.8196 408.247 66.3995 408.176 66.8478L393.322 160.638C391.585 171.603 375.452 187.801 368.498 197.583Z" fill="white"/>
<path id="Path 7515" d="M245.948 58.4854C249.173 59.6213 251.831 63.8147 251.755 67.2539C274.722 101.255 297.53 135.377 322.495 168.04C329.426 178.13 342.357 174.863 351.512 180.831C348.243 184.022 341.122 181.006 337.926 182.897C331.574 186.654 343.849 197.947 346.029 201.198C346.511 201.917 347.056 202.288 346.658 203.277C343.432 203.262 340.607 201.568 337.508 201.131C331.19 200.24 315.465 202.341 308.918 203.8C304.946 204.684 304.529 207.378 299.151 204.193C293.925 201.098 284.225 192.944 279.172 188.779C262.403 174.957 242.306 151.362 228.017 134.465C218.735 123.489 211.555 111.066 202.791 99.7123C189.632 82.6633 174.636 67.4572 159.955 52.0599L158.329 52.1856C155.335 48.3406 152.123 44.6973 148.691 41.2575L148.808 39.8299C146.68 38.0637 144.855 35.8126 143.335 33.0766C141.227 32.8032 137.666 28.5205 138.501 26.4251C138.776 24.1824 138.385 24.6004 140.369 24.7567C159.089 26.2333 180.305 32.157 198.781 35.999C208.915 38.1067 222.967 39.362 232.399 42.6356C234.056 43.2105 244.249 56.0989 245.948 58.4854Z" fill="#FFE7C8"/>
<path id="Path 7516" d="M416.587 75.7019C418.197 74.7109 417.629 68.422 419.505 68.2887L469.009 78.8419C467.35 86.065 467.507 93.7492 466.262 100.93C464.134 113.206 459.73 126.405 456.993 138.682C452.177 160.28 448.574 182.19 441.847 203.319C435.446 205.362 429.661 210.198 424.688 214.676C416.27 222.255 409.502 231.317 402.627 240.256C400.821 237.622 404.732 234.533 402.383 231.412C397.983 225.571 393.563 235.707 393.267 239.437C389.568 237.333 387.662 232.755 388.402 228.531C389.859 220.224 394.005 211.028 395.778 202.876C398.001 192.657 390.279 192.197 387.006 200.514L386.953 201.843C382.393 204.626 378.2 207.904 374.374 211.678L372.859 211.355C371.966 211.198 370.618 211.924 369.57 211.485C369.748 207.313 373.708 204.912 375.113 201.247C374.398 199.91 379.429 192.674 380.088 192.768C380.396 192.812 380.697 192.91 380.996 193.022C383.074 190.628 385.616 188.676 388.053 185.638C387.822 183.877 390.6 181.046 392.255 179.763L392.43 177.12C398.673 167.017 401.459 155.334 403.191 143.695C405.33 125.637 407.771 107.667 412.313 89.9168L414.13 87.085L416.385 76.9777C415.466 76.6491 415.77 76.2451 416.587 75.7019Z" fill="#FFE7C8"/>
<path id="Path 7517" d="M495.618 101.3C497.843 98.8025 499.663 85.3488 502.583 84.8519C522.124 87.9455 541.829 90.4163 561.132 94.6637C562.925 95.0579 561.544 96.3637 561.662 97.3715L561.951 99.2169C552.585 113.888 544.974 129.905 539.066 146.268L537.42 147.163L509.906 213.439C495.316 198.396 475.826 192.489 455.404 198.265L494.474 104.389C493.123 103.218 493.893 101.321 495.618 101.3Z" fill="#FFE7C8"/>
<path id="Path 7518" d="M470.412 516.541C471.165 519.632 471.331 522.711 470.912 525.777C471.658 530.517 472.793 535.081 473.257 539.882L474.161 546.566C474.828 548.578 475.163 550.594 475.166 552.612C475.785 553.291 475.815 554.984 474.762 555.163C474.656 555.768 474.332 556.167 473.757 556.328C458.319 548.104 457.574 557.409 467.291 566.393C467.922 568.371 466.234 568.98 462.226 568.221C449.202 566.498 436.161 564.884 423.195 562.693C417.469 561.936 412.027 560.675 406.869 558.91C408.322 554.668 407.651 552.039 404.855 551.024L404.693 547.336C405.699 530.619 406.698 513.887 408.051 497.183C408.934 494.728 415.041 496.596 417.244 497.001L419.376 498.142L424.282 506.69L427.176 507.053C427.728 504.253 429.768 500.123 432.561 499.427C433.236 497.499 438.129 497.037 438.826 499.112C438.962 498.623 439.239 497.899 439.595 497.925C441.814 498.087 456.092 500.137 457.257 500.723L457.972 502.144C459.233 500.62 463.868 498.877 465.918 499.478C466.927 499.402 468.061 498.778 468.799 499.9C469.752 501.347 470.277 513.797 470.412 516.541Z" fill="#FE8CD1"/>
<path id="Path 7519" d="M333.506 480.468C334.151 479.754 334.867 479.281 335.716 479.71C342.042 483.294 348.414 485.369 354.831 485.935C361.788 484.154 366.458 484.061 373.491 485.77C374.693 486.063 381.782 487.896 382.179 488.111C382.725 488.405 382.95 489.038 383.084 489.628C388.586 491.656 384.641 503.19 384.104 507.803C382.579 520.892 381.034 534.142 379.834 547.322C379.544 551.071 378.356 553.063 376.27 553.298C359.058 549.865 344.064 547.36 326.895 542.862L327.37 541.185C333.866 536.905 344.827 522.296 327.526 532.118C319.321 516.352 319.205 531.571 323.485 538.628C324.885 542.253 322.675 541.866 319.976 541.112C315.723 539.927 311.346 540.853 312.512 534.4C315.542 517.635 321.469 500.329 324.679 483.475C325.992 479.217 329.931 479.736 333.506 480.468Z" fill="#FE8CD1"/>
<path id="Path 7520" d="M412.293 449.781C411.326 449.149 410.766 448.451 410.746 447.234C410.694 444.17 411.67 439.6 411.805 436.302C411.962 432.491 411.427 422.533 412.772 419.742C414.928 415.267 426.308 407.91 429.187 402.702C431.037 401.797 433.497 403.375 435.256 401.708C437.455 399.623 434.825 394.039 439.341 392.599C441.418 395.635 439.776 405.058 444.357 405.64C445.245 405.754 447.397 405.182 447.943 404.425C450.69 400.616 445.177 387.213 449.358 381.502C449.721 381.007 452.916 378.575 453.365 378.462C454.605 378.151 454.547 380.574 454.694 381.434C456.775 393.572 456.478 407.114 458.623 418.676C459.216 421.875 461.934 425.129 465.063 422.535C467.421 420.582 470.835 409.345 474.127 405.481C481.392 396.951 477.445 415.242 476.808 418.495C474.418 430.702 470.687 442.793 468.353 455.037C466.949 458.829 463.796 455.26 461.201 454.911C458.66 454.341 456.073 453.273 453.439 451.706C448.421 452.866 443.486 453.194 438.635 452.69C430.239 450.024 421.882 449.389 413.301 450.738L412.293 449.781Z" fill="#FFE7C8"/>
<path id="Path 7521" d="M133.661 32.1986C135.457 32.6566 138.145 35.5627 138.059 37.4732C140.791 40.06 143.152 43.0498 145.143 46.4439C147.185 46.7788 152.011 51.1128 151.254 53.2982C163.946 67.8849 177.986 81.2313 190.229 96.4148C200.697 109.396 209.472 123.452 219.474 136.718C220.723 138.374 223.054 140.05 223.903 141.971C224.333 142.942 224.261 143.599 223.09 143.13C194.225 120.133 167.535 94.6363 141.422 68.6258L110.111 36.3174L108.61 36.3335C105.149 32.8026 101.735 29.218 98.3702 25.5804L98.9642 24.0868L96.9154 20.499L124.259 23.5022C128.345 24.6695 130.083 30.126 133.661 32.1986Z" fill="white"/>
<path id="Path 7522" d="M343.335 434.935C336.859 434.455 338.578 426.06 337.366 420.92C335.497 412.991 330.219 405.058 331.769 396.477C332.122 396.128 338.302 402.681 338.861 403.46C340.384 405.587 343.74 414.338 344.353 414.854C346.142 416.363 349.48 416.608 350.413 414.02C352.692 407.696 350.071 399.104 352.023 392.493L395.155 425.81L391.163 451.012C388.804 450.749 388.077 448.36 385.877 447.213C384.708 446.603 383.591 446.747 382.733 446.407L380.291 446.878C369.543 443.651 359.004 440.16 348.675 436.407C346.348 436.587 344.567 436.096 343.335 434.935Z" fill="#FFE7C8"/>
<path id="Path 7523" d="M452.399 456.787C455.239 457.845 457.633 460.236 460.286 461.502C461.754 462.202 466.958 463.399 467.243 463.649C467.871 464.2 467.375 464.7 467.444 465.056C467.327 468.418 467.155 471.951 465.528 474.974L462.951 475.817C460.068 478.951 457.231 480.125 454.44 479.341C449.062 467.56 445.658 478.085 449.451 484.684C451.201 487.76 452.377 490.876 452.979 494.029C450.007 494.077 447.009 493.863 443.984 493.388L442.27 494.556C436.139 494.475 430.066 494.239 424.009 493.509C422.141 493.284 417.127 491.776 416.34 490.318C414.537 489.824 412.054 490.034 410.418 489.253C407.035 487.636 409.891 474.782 410.177 471.362C410.593 466.375 408.965 458.347 413.399 455.188C414.114 453.444 418.319 454.156 418.504 455.997L420.79 457.009C422.102 461.309 423.998 465.096 426.478 468.371C429.345 465.56 431.664 462.053 433.433 457.848L435.3 457.349L436.686 456.271C441.454 457.219 446.251 457.319 450.931 455.854L452.399 456.787Z" fill="#FE8CD1"/>
<path id="Path 7524" d="M371.176 449.155C372.414 449.553 373.611 450.002 374.904 450.399L376.16 451.801C375.635 454.923 377.034 472.673 382.008 468.381L388.469 461.996C389.149 461.718 389.76 461.81 390.297 462.297L387.589 481.84C386.81 484.745 386.311 484.366 383.355 483.785L381.254 484.253C372.365 480.093 363.656 479.63 354.405 481.872C349.818 482.054 341.871 478.816 337.708 476.641L336.969 475.13C335.536 473.109 329.428 474.608 329.017 472.141C328.756 470.578 332.189 461.935 332.911 459.445C335.844 456.014 336.51 461.017 335.204 463.757C334.345 471.873 346.465 454.975 346.925 453.892C347.8 451.834 344.39 451.497 343.084 451.674L336.425 452.102L335.602 450.715C336.216 448.242 336.032 443.426 337.655 441.883C338.958 441.965 340.301 441.742 341.686 441.214C342.424 441.187 344.207 440.969 344.34 440.98C346.109 439.709 348.395 439.721 351.196 441.015C357.634 444.085 364.148 446.316 370.738 447.709L371.176 449.155Z" fill="#FE8CD1"/>
<path id="Path 7525" d="M680.828 369.355C682.09 368.983 683.371 368.87 684.673 369.028L713.92 376.944L717.238 379.046C717.338 379.069 717.857 379.772 718.677 379.955C721.939 380.681 730.468 380.761 731.997 383.289C733.682 386.077 731.433 389.404 731.016 392.02C730.665 394.229 731.464 398.395 729.654 400.251C728.181 401.76 715.752 394.774 712.696 395.332L710.689 396.07C700.23 391.416 689.625 387.221 678.872 383.487L677.531 381.914L600.486 352.056C606.909 353.295 613.535 353.806 619.942 355.14C639.74 359.263 661.236 364.316 680.828 369.355Z" fill="white"/>
<path id="Path 7526" d="M84.6072 441.046L126.534 424.145L83.1233 454.546L82.8094 456.042C63.2865 464.841 43.9782 475.44 26.4023 487.684L24.9612 487.192C22.4585 487.252 15.4677 494.542 13.5774 490.658C12.8054 489.072 15.4617 475.954 17.8457 474.292L20.2152 471.841C40.2816 461.524 60.5124 451.471 80.9097 441.682L84.6072 441.046Z" fill="white"/>
<path id="Path 7527" d="M390.075 172.877C392.805 167.001 394.594 159.445 395.934 152.576C398.999 136.868 400.041 120.968 403.395 105.339C403.885 103.057 405.296 100.707 405.196 98.0999L406.485 100.26C408.526 98.3993 406.136 96.7102 406.118 96.4813C405.937 94.216 407.371 82.8336 407.959 80.603C408.436 78.7879 411.947 76.349 407.248 76.8385L408.764 67.2684C411.202 67.3407 411.92 70.0088 413.307 71.5936L411.201 72.555C412.191 74.4398 412.388 76.8546 414.458 74.7123L414.477 76.6721C417.018 76.4564 414.22 72.3155 415.282 71.5742L417.191 71.8691C417.041 73.1484 416.735 74.4215 416.587 75.7018C416.538 76.1284 416.443 76.5518 416.385 76.9777L414.13 87.085C412.781 95.3109 410.474 103.271 408.941 111.417C404.623 134.362 405.671 160.005 392.255 179.763L390.609 181.115C389.028 184.274 387.392 185.221 385.703 183.957C385.022 183.02 384.25 182.896 384.831 181.203L386.309 180.129C387.306 178.467 388.255 176.449 389.133 174.69C389.982 174.191 390.296 173.587 390.075 172.877Z" fill="black"/>
<path id="Path 7528" d="M86.6811 460.996C80.6092 465.932 72.9027 468.77 66.1824 472.809C55.0236 479.518 42.2375 486.904 31.7103 494.147C27.5852 491.774 25.8671 495.903 24.4169 496.157C22.8979 496.423 20.7059 495.463 19.0818 495.414C19.7001 490.985 21.9195 489.752 24.9611 487.192C33.8617 479.7 72.0326 458.535 83.1234 454.546C83.3732 454.456 84.6426 454.927 85.6921 454.615C87.5767 454.056 88.6989 450.715 90.5095 453.413C92.9041 456.98 89.0809 459.045 86.6811 460.996Z" fill="black"/>
<path id="Path 7529" d="M476.813 87.8563C477.045 86.9964 479.254 81.8376 479.747 81.4044C482.177 79.2681 489.926 83.5953 493.238 83.2668L490.752 90.7183C491.147 92.5471 490.662 94.5766 489.295 96.8092C488.855 99.4784 487.85 101.354 486.279 102.437L462.296 158.808C460.42 159.84 462.331 150.233 462.498 149.364C465.041 136.071 469.522 122.926 472.683 109.76C474.362 102.764 475.031 94.4628 476.813 87.8563Z" fill="white"/>
<path id="Path 7530" d="M84.6072 441.047C72.4539 448.25 58.8629 453.542 46.0841 459.918C36.6334 464.634 27.595 470.176 17.8458 474.293C15.3922 474.176 15.8647 473.853 16.292 471.787C17.0148 468.298 17.664 468.119 19.7977 466.099C27.6572 458.659 48.6438 450.291 59.0482 445.12C65.9326 441.7 76.8464 434.328 83.9051 433.087C86.2617 432.673 89.4899 431.501 89.9843 435.172C90.5198 439.141 87.3993 439.392 84.6072 441.047Z" fill="#010101"/>
<path id="Path 7531" d="M399.417 473.248C401.251 470.835 401.735 472.411 401.746 474.651C401.822 489.385 399.577 505.117 398.58 519.874C397.75 532.134 398.244 544.542 396.055 556.684C392.638 557.851 386.86 557.088 386.884 552.647C386.914 547.089 387.952 539.09 388.561 533.362C390.44 515.665 392.595 498.155 397.465 481.442C396.005 479.606 397.235 474.179 399.417 473.248Z" fill="white"/>
<path id="Path 7532" d="M108.976 328.489C113.223 328.739 116.564 330.838 113.81 335.141C91.091 340.453 68.7927 347.126 46.1818 353.206C45.0002 353.089 38.4889 349.721 38.285 349.332C38.2086 349.187 39.7277 347.183 39.4333 346.252C58.5813 341.716 77.7823 336.54 96.8716 331.648C100.548 330.706 104.909 328.248 108.976 328.489Z" fill="black"/>
<path id="Path 7533" d="M476.813 87.8564C475.097 93.3526 473.835 99.2995 472.188 104.416C471.612 106.204 470.034 107.139 469.477 109.251C468.876 111.529 469.575 113.525 469.259 115.146C468.973 116.612 467.723 117.103 467.449 118.121C467.039 119.637 467.414 123.396 466.889 125.883C464.686 136.311 461.694 148.535 458.983 157.849C458.652 158.989 456.921 160.587 456.431 162.809C455.722 166.02 456.874 168.543 456.338 171.931C455.205 179.102 451.523 186.677 451.436 194.365C450.116 192.941 447.697 194.524 447.544 194.384C447.441 194.287 447.885 192.519 445.796 192.818C445.545 191.108 447.632 191.678 448.086 190.744C449.977 186.859 449.884 182.698 450.503 178.848C450.969 175.946 448.955 176.462 453.14 175.336C453.692 174.012 451.509 174.138 451.573 172.496C451.65 170.55 452.714 169.017 452.949 167.466C453.367 164.725 452.681 161.722 454.45 158.878L455.509 160.346C457.397 157.886 455.009 157.338 455.059 154.756C455.133 150.94 457.874 139.381 458.878 135.057C460.827 126.661 464.543 118.485 464.884 109.513L466.687 110.451C466.829 108.991 465.895 108.464 465.929 106.772C466.066 99.9665 469.139 91.5348 469.463 84.5116C471.072 83.3945 472.002 83.6535 471.919 85.7693C473.07 86.1307 472.912 83.9052 472.645 83.261C472.148 82.0672 468.576 81.4496 469.681 79.2132C470.698 77.1561 474.206 79.6732 475.109 79.7623C475.499 79.801 475.63 78.5349 476.071 78.5409C477.031 78.5534 478.269 79.7651 479.405 79.7709C477.758 82.3361 477.628 85.2432 476.813 87.8564Z" fill="black"/>
<path id="Path 7534" d="M561.661 97.3716C564.135 93.901 565.007 94.4291 569.19 95.2905C569.034 96.353 568.845 97.4193 568.682 98.4835C567.406 106.799 556.135 127.44 551.131 134.946C550.804 135.435 549.7 135.877 549.252 136.624C547.903 138.873 549.514 139.622 545.708 140.31L547.469 141.562C547.589 142.859 543.552 146.792 543.477 147.132C543.357 147.682 544.336 148.662 544.073 149.739C544.007 150.012 541.721 154.55 541.517 154.742C540.41 155.779 536.551 155.384 535.937 154.166C535.587 153.474 537.051 148.344 537.42 147.162C541.493 134.112 553.758 108.461 561.661 97.3716Z" fill="#010101"/>
<path id="Path 7535" d="M680.026 362.034C690.491 363.525 701.447 367.065 711.532 369.64C711.613 369.661 712.003 370.286 712.952 370.558C717.25 371.787 730.798 371.882 732.829 375.905C733.488 377.208 732.804 380.856 731.84 381.267C730.386 381.886 719.83 378.925 717.238 379.047C704.422 376.149 693.226 372.544 680.829 369.355C678.922 367.527 673.328 368.761 673.112 365.06C673.089 364.676 674.145 361.286 674.311 361.168C674.557 360.993 678.969 361.884 680.026 362.034Z" fill="black"/>
<path id="Path 7536" d="M666.383 448.167C674.076 451.805 681.513 456.054 689.316 459.46C697.73 463.132 707.16 465.553 715.217 470.291C717.857 471.886 714.366 475.544 712.291 476.367C705.586 473.186 695.838 471.025 688.642 467.854C679.23 463.705 669.824 457.624 660.368 453.101L658.857 450.243C659.349 449.636 660.578 446.734 660.747 446.62C660.999 446.448 664.53 449.197 666.383 448.167Z" fill="#010101"/>
<path id="Path 7537" d="M729.635 296.64C734.422 297.353 743.696 297.458 745.812 302.113C747.734 306.343 741.554 304.604 739.373 305.377C723.409 303.925 708.813 303.256 693.019 300.651C690.627 298.642 688.644 296.049 685.33 295.504C684.818 294.713 687.436 292.908 688.196 292.797L708.245 297C711.957 295.69 713.427 296.455 717.408 295.358C720.365 294.543 726.278 296.14 729.635 296.64Z" fill="black"/>
<path id="Path 7538" d="M465.918 499.478C463.824 500.735 460.67 502.571 457.972 502.144L438.826 499.111C437.672 498.928 434.147 499.509 432.561 499.427L431.411 500.532C429.368 500.872 421.686 499.743 421.073 497.607C418.146 494.291 408.286 497.765 408.405 491.905C408.477 488.406 412.445 490.713 414.707 490.751C415.644 490.767 416.255 490.314 416.34 490.318C420.275 490.474 422.004 491.952 425.481 492.476C430.996 493.307 438.089 492.86 443.985 493.388L451.265 494.196C453.49 492.836 457.448 493.51 460.142 494.639C460.538 492.755 465.834 491.413 466.928 493.098C468.648 492.668 469.794 494.076 469.992 490.313C472.731 491.792 470.538 496.573 469.084 498.003C468.843 498.239 466.976 498.842 465.918 499.478Z" fill="#010000"/>
<path id="Path 7539" d="M383.355 483.786C384.61 484.379 385.729 484.633 386.632 485.072C389.302 486.373 385.647 490.702 383.084 489.629C381.939 489.207 380.236 489.388 378.954 488.964C374.711 487.564 370.958 485.981 366.378 485.681C360.842 485.318 355.651 488.177 350.427 487.101C344.921 485.965 339.191 481.633 333.506 480.468L326.103 477.664C328.353 475.965 330.598 477.631 329.31 473.924C331.833 474.41 334.457 474.597 336.969 475.131C342.182 476.239 347.622 479.964 351.478 480.583C355.031 481.153 361.516 478.806 366.116 479.104C371.874 479.475 378.16 481.329 383.355 483.786Z" fill="black"/>
<path id="Path 7540" d="M461.201 454.911C461.454 455.42 461.406 456.631 461.65 456.828C462.723 457.692 466.348 457.007 468.837 459.226C469.41 459.736 469.977 459.361 469.426 460.788C466.519 459.731 462.207 460.283 459.552 459.669C456.345 458.927 456.297 455.67 452.398 456.787C445.376 458.798 442.603 458.589 435.3 457.349L433.908 458.428C429.332 457.75 424.735 457.372 420.115 457.294L418.505 455.997C417.017 455.932 414.909 455.507 413.399 455.189C412.489 454.996 411.648 454.807 410.947 454.146C410.377 453.988 410.446 453.773 411.049 453.508C411.39 452.322 411.239 450.712 412.293 449.78C413.431 448.775 425.021 448.679 427.165 448.874C432.618 449.37 437.757 451.757 442.952 451.948C446.558 452.081 450.423 449.91 453.736 450.456C454.335 450.555 460.193 453.479 460.72 453.867C461.144 454.179 461.055 454.619 461.201 454.911Z" fill="#010001"/>
<path id="Path 7541" d="M677.531 381.913C688.459 383.721 701.813 392.231 712.696 395.332C714.685 398.064 724.982 404.579 716.051 403.057C707.953 401.677 695.87 395.777 687.717 392.866C683.112 391.222 678.502 389.549 673.968 387.889C675.22 384.906 671.313 386.19 670.706 383.776C673.29 381.35 674.185 381.36 677.531 381.913Z" fill="#010101"/>
<path id="Path 7542" d="M466.529 483.225L466.14 485.645L459.926 492.81C460.625 493.169 460.428 493.871 460.142 494.64C453.579 495.58 450.193 493.944 443.984 493.388L451.741 493.959C453.308 492.962 442.854 479.667 447.761 474.105C452.101 469.189 454.143 477.543 455.475 478.577C456.762 479.576 460.832 475.645 462.313 474.699C463.303 474.067 464.954 474.094 465.511 473.474C467.035 471.775 466.801 467.326 467.444 465.056C468.196 468.929 466.527 472.918 466.29 476.905C466.211 478.255 466.38 481.822 466.529 483.225Z" fill="#E95353"/>
<path id="Path 7543" d="M98.9641 24.0874C101.342 28.3386 108.022 32.4726 110.111 36.3174C111.768 39.3658 109.432 41.6026 109.837 42.1577C109.956 42.3208 112.615 42.4541 113.554 43.7221C114.442 44.9207 112.733 46.6128 114.138 48.0671C110.032 47.7048 109.865 42.5993 104.969 44.0051C100.581 39.9796 91.9873 32.6564 89.2206 27.7764C86.0218 22.1335 88.5504 16.2145 94.6944 19.5712C95.633 20.0841 95.5742 24.1135 98.9641 24.0874Z" fill="black"/>
<path id="Path 7544" d="M343.651 395.741C339.904 395.111 338.353 390.465 335.239 388.587C330.472 385.712 326.182 387.386 323.655 391.919L322.718 385.26C322.534 383.488 316.736 380.762 317.455 379.516C317.707 379.079 324.821 373.354 325.289 373.167C326.186 372.811 326.69 372.513 327.598 373.196C331.143 377.025 341.355 382.348 343.865 386.274C345.623 389.024 343.865 392.723 343.651 395.741Z" fill="#FEFEFE"/>
<path id="Path 7545" d="M382.733 446.407C381.667 451.36 374.794 449.797 371.176 449.155C369.591 448.645 367.563 448.801 365.838 448.23C358.258 445.719 352.658 441.67 344.34 440.981C343.315 440.655 341.404 440.894 340.658 440.255C339.712 439.444 341.077 437.45 336.789 439.13C337.407 435.109 339.942 435.145 343.335 434.935C352.568 434.364 356.441 437.978 364.39 440.816C370.508 443 376.704 444.022 382.733 446.407Z" fill="#010101"/>
<path id="Path 7546" d="M387.006 200.514C388.477 200.401 392.875 200.948 392.52 203.043L385.111 227.047C381.438 228.629 382.781 225.096 382.573 223.217C382.491 222.476 381.806 221.753 381.81 220.893C381.818 218.87 386.438 213.168 383.432 210.736C379.511 207.563 379.705 213.207 379.027 213.648C378.785 213.806 377.617 212.714 377.159 212.968C376.224 213.486 375.278 217.82 372.685 217.724C369.251 217.598 370.094 215.511 370.639 212.962L374.468 213.568C375.363 212.572 373.04 211.386 372.859 211.355C375.005 209.165 384.695 200.692 387.006 200.514Z" fill="black"/>
<path id="Path 7547" d="M326.895 542.862C324.557 542.249 322.141 541.716 319.976 541.112C320.767 541.056 322.834 542.267 322.655 540.582C322.417 538.343 320.051 535.014 319.632 532.045C317.983 520.353 325.426 522.094 327.758 531.214C346.004 519.081 336.057 538.903 326.895 542.862Z" fill="#EA5453"/>
<path id="Path 7548" d="M80.0887 93.6947C83.5477 97.6297 88.4089 100.931 91.4378 104.366C92.4416 105.504 96.8132 112.674 97.1447 114.055C97.8418 116.966 95.1277 118.979 93.8144 116.748C93.5827 116.354 93.7343 115.564 93.6361 115.466C93.0246 114.857 91.3427 116.384 91.2157 116.361C90.7667 116.277 87.7898 109.779 86.2004 108.736C84.4383 107.581 81.7803 108.166 80.5197 107.497C78.8809 106.629 79.4537 102.935 79.31 102.725C78.8999 102.12 75.1746 103.116 74.7449 102.652C77.1748 99.5227 73.6944 89.885 80.0887 93.6947Z" fill="#010101"/>
<path id="Path 7549" d="M474.762 555.163C475.877 554.265 476.511 556.357 475.735 557.279C476.125 559.585 475.253 562.272 474.148 564.494C473.436 566.192 474.243 567.537 476.569 568.53C477.823 566.369 478.918 567.972 479.66 569.673C478.352 571.486 464.928 568.578 462.226 568.22L466.841 567.973C464.392 564.286 458.415 560.413 459.814 555.262C462.027 547.12 469.534 554.769 474.762 555.163Z" fill="#E95655"/>
<path id="Path 7550" d="M381.085 452.686C382.195 454.421 383.37 455.262 384.611 455.207C386.692 457.037 390.437 459.029 390.614 461.857C390.817 465.098 388.536 478.306 387.589 481.84C387.086 475.507 389.396 468.929 389.976 462.597C385.834 464.582 381.048 475.299 377.459 468.025C374.753 462.542 374.728 456.336 374.905 450.4C376.975 451.035 379.072 451.876 381.085 452.686Z" fill="#EA5453"/>
<path id="Path 7551" d="M495.618 101.3C495.232 102.964 495.12 103.019 494.474 104.389C493.789 105.843 491.553 110.215 490.68 111.213C489.981 112.011 489.142 112.911 487.958 112.51L489.735 109.531C485.083 108.903 485.667 106.124 486.278 102.437C486.739 99.6615 489.141 92.9116 490.751 90.719C491.374 89.8712 493.061 89.1989 493.638 88.0817C493.847 87.6758 495.134 81.6969 496.563 85.0864C496.675 85.3505 497.371 90.4438 497.342 90.7777C497.117 93.3769 496.221 98.6932 495.618 101.3Z" fill="#010101"/>
<path id="Path 7552" d="M332.911 459.445C333.744 456.568 334.879 453.624 335.602 450.715C338.56 451.428 349.527 447.92 348.137 454.279C347.974 455.022 339.711 465.302 338.683 466.216C335.794 468.781 333.753 467.323 333.923 463.628C333.975 462.49 336.099 458.342 332.911 459.445Z" fill="#E95353"/>
<path id="Path 7553" d="M146.255 39.4255C147.115 37.5613 147.883 38.3558 148.808 39.8298C150.941 40.6695 157.763 49.7614 159.955 52.0598C161.542 55.3586 158.896 59.6917 157.217 54.8893L155.324 56.5585C156.274 52.9079 154.377 52.6993 151.254 53.2982C149.112 50.8361 146.946 49.6269 145.143 46.4438C143.817 45.096 142.776 43.4953 142.095 41.7242L143.399 40.9352C141.735 38.1541 142.687 37.6506 146.255 39.4255Z" fill="#010101"/>
<path id="Path 7554" d="M380.996 193.022C379.101 195.205 377.738 199.302 375.114 201.247C372.975 202.833 371.068 204.481 369.393 206.865C368.553 208.062 368.962 213.416 366.382 212.973C365.538 212.828 363.47 210.144 363.444 209.441C363.408 208.402 365.269 207.284 365.823 205.953C366.431 204.49 366.85 201.626 366.817 199.933C367.39 199.091 367.927 198.386 368.498 197.583C369.223 197.716 372.908 197.059 373.081 196.905C373.522 196.515 373.338 194.641 373.848 193.686C375.801 190.033 380.676 186.444 380.996 193.022Z" fill="#020202"/>
<path id="Path 7555" d="M133.661 32.1985C132.812 30.3682 132.056 29.2013 131.877 26.9996L133.835 26.9905C133.027 22.9246 133.974 24.4703 135.406 23.336C136.054 22.8212 136.55 21.658 137.103 21.6094C138.417 21.4933 140.319 22.3508 141.76 22.3694C140.772 23.9763 138.616 23.8731 136.993 23.5731C136.417 24.9994 137.872 25.5914 138.5 26.4249C140.197 28.6728 142.047 30.4529 143.335 33.0764C145.144 34.7369 146.116 36.8531 146.255 39.4254C145.401 39.3031 144.552 39.1305 143.699 39.0199C143.623 39.6547 143.445 40.2964 143.399 40.9352C141.083 41.0921 139.304 39.9381 138.059 37.4731C135.214 35.1931 135.182 35.4808 133.661 32.1985Z" fill="#010101"/>
<path id="Path 7556" d="M404.472 428.921L402.615 461.096C400.453 466.911 398.244 456.836 398.466 454.46C399.815 450.828 400.243 430.04 402.479 428.896C403.177 428.539 403.788 428.821 404.472 428.921Z" fill="#FBFBFB"/>
<path id="Path 7557" d="M251.324 53.4511C254.439 57.8436 257.474 62.2281 260.355 66.6537C258.375 69.8232 255.039 65.9064 251.755 67.2539C249.811 64.3758 247.939 61.2837 245.948 58.486C246.422 57.4098 249.483 53.2623 250.085 52.8912C250.716 52.501 250.883 53.2361 251.324 53.4511Z" fill="#010101"/>
<path id="Path 7558" d="M476.911 479.637C476.402 482.54 476.568 487.724 474.125 489.005C475.298 486.187 473.344 485.775 473.259 483.155C473.003 475.349 473.132 467.241 476.012 460.527C477.246 460.798 478.068 461.831 478.554 462.917C480.063 466.285 477.627 475.55 476.911 479.637Z" fill="#010101"/>
<path id="Path 7559" d="M421.073 497.607C425.445 498.394 427.562 499.17 432.561 499.427C431.934 501.452 430.21 502.788 429.266 504.618C427.735 507.582 429.629 509.325 423.538 507.666L417.244 497.001C418.513 497.235 419.803 497.379 421.073 497.607Z" fill="#E95556"/>
<path id="Path 7560" d="M397.465 481.442L394.716 482.314C394.843 475.876 395.415 469.096 398.399 463.289C403.918 463.627 400.18 469.764 399.417 473.249C398.748 476.305 398.325 478.49 397.465 481.442Z" fill="#010101"/>
<path id="Path 7561" d="M407.24 560.166C406.977 562.254 404.503 562.265 403.125 563.426C401.789 562.517 403.347 561.101 402.67 560.422C401.755 559.502 399.867 559.342 398.426 557.816C395.692 554.92 397.778 551.726 398.01 548.243C399.203 548.159 399.351 549.298 400.23 549.75C400.998 550.146 402.413 550.017 402.783 550.422C404.581 552.389 401.35 561.186 407.24 560.166Z" fill="#020101"/>
<path id="Path 7562" d="M466.928 493.098C464.331 493.747 462.859 494.25 460.142 494.639L458.07 492.978L466.529 483.224C466.859 486.319 469.603 489.611 466.928 493.098Z" fill="#F587C6"/>
<path id="Path 7563" d="M404.692 547.336C404.917 550.914 405.709 549.605 407.604 551.141C410.557 553.534 407.454 557.211 408.183 558.914C409.025 560.883 421.113 560.621 423.195 562.693C418.67 561.928 411.178 561.494 407.239 560.166C402.275 558.492 404.452 551.313 404.692 547.336Z" fill="#E05155"/>
<path id="Path 7564" d="M479.325 567.659L479.761 569.036C479.731 569.248 479.73 569.576 479.66 569.674C478.656 569.222 477.681 568.698 476.57 568.53C475.087 565.808 475.052 560.972 475.987 557.701C476.026 557.569 476.182 557.47 476.373 557.381C475.967 557.125 476.009 556.913 476.474 556.743C477.25 560.246 478.85 563.288 479.325 567.659Z" fill="#F2EFF1"/>
<path id="Path 7565" d="M450.593 195.547C450.512 200.49 448.817 199.642 445.227 200.58C444.787 197.431 447.887 196.178 450.593 195.547Z" fill="black"/>
<path id="Path 7566" d="M376.271 553.299L379.834 547.323C379.672 549.109 380.599 553.837 378.332 554.251C377.06 554.483 376.43 553.331 376.271 553.299Z" fill="#D4B5C8"/>
<path id="Path 7567" d="M388.053 185.638C386.34 185.698 386.36 184.862 385.702 183.958C389.949 184.233 388.565 180.065 392.254 179.763C390.739 181.995 389.791 183.471 388.053 185.638Z" fill="#020202"/>
<path id="Path 7568" d="M470.911 525.776C470.231 521.456 470.598 520.345 470.411 516.541C471.121 519.034 472.871 523.586 470.911 525.776Z" fill="#D2A8C3"/>
<path id="Path 7569" d="M437.721 219.011C435.045 220.941 432.666 223.514 429.589 224.918C431.96 222.376 433.457 219.471 437.721 219.011Z" fill="#C44749"/>
<path id="Path 7570" d="M384.611 455.207C382.808 457.897 381.53 454.618 381.085 452.686C384.446 454.039 382.885 453.69 384.611 455.207Z" fill="#D66F9A"/>
<path id="Path 7571" d="M341.686 441.214L337.567 444.482L337.655 441.883C339.161 440.452 340.143 441.27 341.686 441.214Z" fill="#DFC5DA"/>
<path id="Path 7572" d="M475.804 552.713C475.534 553.241 475.322 553.199 475.166 552.611C475.124 550.677 474.001 549.012 474.16 546.566C473.975 546.048 473.851 545.628 474.363 545.29C474.826 547.72 475.284 550.303 475.804 552.713Z" fill="#D1C0CD"/>
<path id="Path 7573" d="M588.46 349.487C586.83 349.101 584.046 349.532 583.554 347.415C585.184 347.801 587.969 347.37 588.46 349.487Z" fill="#353737"/>
<path id="Path 7574" d="M474.363 545.29C474.322 545.716 474.189 546.14 474.16 546.565C472.784 544.599 473.45 541.881 473.257 539.882C474.46 541.457 474.054 543.668 474.363 545.29Z" fill="#E1BFD6"/>
<path id="Path 7575" d="M265.873 263.083C264.196 262.179 264.643 259.487 266.27 258.571L265.873 263.083Z" fill="#282828"/>
<path id="Path 7576" d="M476.474 556.743L476.373 557.381C476.104 557.909 475.892 557.867 475.735 557.28C475.831 556.284 475.729 555.617 474.762 555.164C474.796 554.338 475.183 553.392 475.166 552.611L475.804 552.712C476.099 554.078 476.199 555.5 476.474 556.743Z" fill="#DCD3D8"/>
<path id="Path 7577" d="M235.46 153.615C232.906 153.991 232.404 150.501 234.157 151.458C234.509 151.651 235.406 153.046 235.46 153.615Z" fill="#1B1B1B"/>
<path id="Path 7578" d="M411.048 453.508C410.99 453.711 410.991 453.937 410.947 454.147C410.21 457.708 407.963 452.821 411.048 453.508Z" fill="#1C1C1C"/>
<path id="Path 7579" d="M479.761 569.036C479.176 568.703 479.38 568.171 479.325 567.659C479.892 567.963 479.839 568.481 479.761 569.036Z" fill="#E95655"/>
<path id="Path 7580" d="M389.133 174.69C389.439 174.077 389.775 173.523 390.074 172.877C391.388 173.43 390.12 174.556 389.133 174.69Z" fill="#020202"/>
<path id="Path 7581" d="M384.831 181.203C385.123 180.351 386.258 180.215 386.309 180.129L384.831 181.203Z" fill="#020202"/>
<path id="Path 7582" d="M243.867 168.688C244.248 168.966 244.214 169.178 243.766 169.326L243.867 168.688Z" fill="#363A3A"/>
<path id="Path 7583" d="M148.807 39.8297C148.204 39.5926 147.008 39.5332 146.254 39.4253L143.166 38.2757C145.568 36.4557 144.438 35.3249 143.335 33.0764C145.795 34.5016 148.211 37.0118 148.807 39.8297Z" fill="#090909"/>
<path id="Path 7584" d="M414.13 87.0848C414.662 83.8392 414.743 79.6466 416.385 76.9776C415.951 80.179 415.697 84.4477 414.13 87.0848Z" fill="#030303"/>
<path id="Path 7585" d="M434.569 536.369C435.511 536.758 435.613 536.381 436.223 535.937C438.683 534.145 441.503 530.052 444.932 530.754C447.011 531.179 447.246 532.002 446.708 533.99C446.382 535.194 436.928 545.783 435.566 546.683C431.155 549.602 427.44 538.78 426.718 535.572C423.448 521.064 433.991 526.881 434.569 536.369Z" fill="#EB5555"/>
<path id="Path 7586" d="M362.447 494.959C365.749 495.018 364.894 499.557 363.869 501.661C363.531 502.356 356.138 512.371 355.554 512.743C351.772 515.157 348.311 508.621 347.519 505.579C346.829 502.933 345.127 491.193 350.573 493.722C352.655 494.689 351.566 498.711 354.442 498.859C356.281 498.954 359.399 494.904 362.447 494.959Z" fill="#E95655"/>
<path id="Path 7587" d="M138.059 37.4739C138.793 38.062 139.524 39.4182 140.088 39.6123C141.33 40.0399 142.873 38.4189 143.398 40.936C143.242 43.1063 144.129 44.6541 145.143 46.4446C142.064 44.5156 140.043 40.4632 138.059 37.4739Z" fill="#090909"/>
<path id="Path 7588" d="M435.3 457.349C433.284 460.134 430.575 466.772 428.279 468.849C423.377 473.284 421.152 457.973 418.505 455.997C425.713 456.312 427.682 456.056 435.3 457.349Z" fill="#EA5454"/>
<path id="Path 7589" d="M413.054 78.8304C413.17 79.1197 413.938 79.2407 413.973 79.6765C414.058 80.7447 413.537 81.9557 413.454 83.0543C410.772 81.7403 410.041 78.7325 412.777 77.0639C413.366 77.2839 412.778 78.1392 413.054 78.8304Z" fill="#030303"/>
<path id="Path 7590" d="M476.57 568.531C476.3 568.49 475.597 569.562 473.99 568.462C470.101 565.797 475.395 560.786 475.735 557.28L476.373 557.381C475.494 561.189 478.065 564.587 476.57 568.531Z" fill="#FA8FC7"/>
<path id="Path 7591" d="M430.191 456.544C430.776 457.35 429.305 458.418 428.72 457.612C428.134 456.806 429.605 455.737 430.191 456.544Z" fill="#F06374"/>
</g>
</g>
</g>
</g>
</svg>
